<svg xmlns="http://www.w3.org/2000/svg" width="200" height="42.872" viewBox="0 0 200 42.872">
  <g id="グループ_7" data-name="グループ 7" transform="translate(-4916.733 -5626.453)">
    <g id="グループ_3" data-name="グループ 3">
      <path id="パス_12" data-name="パス 12" d="M4957.84,5647.71a5.449,5.449,0,0,1,4.53,2.069q1.945,2.448,1.946,8.122t-1.959,8.137a5.444,5.444,0,0,1-4.517,2.041,5.707,5.707,0,0,1-4.693-2.238q-1.784-2.238-1.784-7.98,0-5.633,1.959-8.109A5.443,5.443,0,0,1,4957.84,5647.71Zm0,3.171a1.912,1.912,0,0,0-1.239.442,2.968,2.968,0,0,0-.842,1.585,32.358,32.358,0,0,0-.042,9.817,3.4,3.4,0,0,0,.891,1.748,1.959,1.959,0,0,0,2.471-.006,2.978,2.978,0,0,0,.842-1.585,32.281,32.281,0,0,0,.041-9.8,3.443,3.443,0,0,0-.891-1.754,1.881,1.881,0,0,0-1.231-.436Z" fill="#d4145a"/>
      <path id="パス_13" data-name="パス 13" d="M4966.74,5662.45l3.7-.449a3.5,3.5,0,0,0,.953,2.163,2.69,2.69,0,0,0,3.87-.152,3.484,3.484,0,0,0,.809-2.422,3.241,3.241,0,0,0-.774-2.284,2.472,2.472,0,0,0-1.892-.845,6.639,6.639,0,0,0-1.754.286l.421-3.116a3.353,3.353,0,0,0,2.369-.672,2.4,2.4,0,0,0,.815-1.9,2.062,2.062,0,0,0-2.19-2.205,2.305,2.305,0,0,0-1.674.681,3.185,3.185,0,0,0-.843,1.986l-3.524-.6a7.87,7.87,0,0,1,1.109-2.891,5,5,0,0,1,2.066-1.7,6.947,6.947,0,0,1,2.974-.621,5.933,5.933,0,0,1,4.517,1.8,4.69,4.69,0,0,1,1.4,3.32q0,2.626-2.871,4.191a4.645,4.645,0,0,1,2.742,1.645,4.782,4.782,0,0,1,1.027,3.089,5.988,5.988,0,0,1-1.919,4.477,7.158,7.158,0,0,1-9.265.292A6.114,6.114,0,0,1,4966.74,5662.45Z" fill="#d4145a"/>
      <path id="パス_14" data-name="パス 14" d="M4982.75,5662.42v-3.82h7.51v3.823Z" fill="#d4145a"/>
      <path id="パス_15" data-name="パス 15" d="M4991.51,5662.45l3.7-.449a3.509,3.509,0,0,0,.952,2.163,2.695,2.695,0,0,0,3.872-.15,3.481,3.481,0,0,0,.81-2.422,3.243,3.243,0,0,0-.776-2.285,2.471,2.471,0,0,0-1.891-.844,6.643,6.643,0,0,0-1.755.286l.422-3.116a3.348,3.348,0,0,0,2.367-.673,2.4,2.4,0,0,0,.815-1.9,2.06,2.06,0,0,0-2.189-2.2,2.306,2.306,0,0,0-1.674.68,3.2,3.2,0,0,0-.842,1.986l-3.524-.6a7.873,7.873,0,0,1,1.109-2.891,4.992,4.992,0,0,1,2.067-1.7,6.935,6.935,0,0,1,2.973-.62,5.933,5.933,0,0,1,4.517,1.8,4.691,4.691,0,0,1,1.4,3.32q0,2.626-2.871,4.191a4.652,4.652,0,0,1,2.742,1.646,4.777,4.777,0,0,1,1.027,3.089,5.986,5.986,0,0,1-1.917,4.476,7.161,7.161,0,0,1-9.266.292,6.122,6.122,0,0,1-2.067-4.073Z" fill="#d4145a"/>
      <path id="パス_16" data-name="パス 16" d="M5007.23,5663.13l3.7-.408a2.667,2.667,0,0,0,.707,1.673,2.1,2.1,0,0,0,1.511.544,2.462,2.462,0,0,0,2.014-1.088q.829-1.088,1.061-4.517a4.561,4.561,0,0,1-3.6,1.673,5.39,5.39,0,0,1-4.062-1.816,6.624,6.624,0,0,1-1.708-4.728,6.718,6.718,0,0,1,1.8-4.892,6.521,6.521,0,0,1,9.57.49q1.945,2.347,1.946,7.722,0,5.469-2.027,7.891a6.557,6.557,0,0,1-5.279,2.421,5.584,5.584,0,0,1-3.783-1.245A6.011,6.011,0,0,1,5007.23,5663.13Zm8.653-8.354a4.364,4.364,0,0,0-.851-2.871,2.51,2.51,0,0,0-1.965-1.02,2.2,2.2,0,0,0-1.763.835,4.268,4.268,0,0,0-.7,2.742,4.356,4.356,0,0,0,.763,2.836,2.391,2.391,0,0,0,1.9.9,2.362,2.362,0,0,0,1.857-.871,3.8,3.8,0,0,0,.751-2.554Z" fill="#d4145a"/>
      <path id="パス_17" data-name="パス 17" d="M5025.92,5656.98a4.285,4.285,0,0,1-2.832-4.124,4.829,4.829,0,0,1,1.559-3.686,7.443,7.443,0,0,1,8.845,0,4.807,4.807,0,0,1,1.571,3.688,4.348,4.348,0,0,1-.722,2.47,4.564,4.564,0,0,1-2.026,1.653,5.342,5.342,0,0,1,2.524,1.946,5.148,5.148,0,0,1,.863,2.952,6.01,6.01,0,0,1-1.762,4.49,6.406,6.406,0,0,1-4.687,1.728,7.084,7.084,0,0,1-4.531-1.428,5.573,5.573,0,0,1-2.136-4.626,5.719,5.719,0,0,1,.8-2.974,5.171,5.171,0,0,1,2.535-2.087Zm.435,4.694a3.52,3.52,0,0,0,.809,2.463,2.63,2.63,0,0,0,2.021.883,2.535,2.535,0,0,0,1.959-.849,3.522,3.522,0,0,0,.775-2.457,3.182,3.182,0,0,0-.79-2.251,2.613,2.613,0,0,0-2-.85,2.39,2.39,0,0,0-2.088.966,3.539,3.539,0,0,0-.683,2.091Zm.354-8.545a2.394,2.394,0,0,0,.646,1.784,2.339,2.339,0,0,0,1.721.639,2.367,2.367,0,0,0,1.742-.646,2.4,2.4,0,0,0,.652-1.789,2.221,2.221,0,0,0-2.353-2.368,2.372,2.372,0,0,0-1.756.653,2.338,2.338,0,0,0-.651,1.728Z" fill="#d4145a"/>
      <path id="パス_18" data-name="パス 18" d="M5038.14,5651.62v-3.551h13.075v2.776a20.6,20.6,0,0,0-3.292,4.572,26.639,26.639,0,0,0-2.55,6.333,23.491,23.491,0,0,0-.864,5.993h-3.687a25.62,25.62,0,0,1,1.708-8.435,28.129,28.129,0,0,1,4.307-7.688Z" fill="#d4145a"/>
      <path id="パス_19" data-name="パス 19" d="M5054.02,5662.42v-3.82h7.511v3.823Z" fill="#d4145a"/>
      <path id="パス_20" data-name="パス 20" d="M5072.7,5667.74h-3.823v-14.408a13.161,13.161,0,0,1-4.939,2.9v-3.469a11.049,11.049,0,0,0,3.252-1.857,7.043,7.043,0,0,0,2.408-3.191h3.1Z" fill="#d4145a"/>
      <path id="パス_21" data-name="パス 21" d="M5085.97,5667.74h-3.823v-14.408a13.161,13.161,0,0,1-4.939,2.9v-3.469a11.06,11.06,0,0,0,3.252-1.857,7.05,7.05,0,0,0,2.407-3.191h3.1Z" fill="#d4145a"/>
      <path id="パス_22" data-name="パス 22" d="M5104.08,5652.68l-3.7.408a2.7,2.7,0,0,0-.707-1.687,2.064,2.064,0,0,0-1.482-.545,2.5,2.5,0,0,0-2.048,1.089q-.838,1.089-1.055,4.531a4.468,4.468,0,0,1,3.55-1.687,5.423,5.423,0,0,1,4.1,1.823,6.607,6.607,0,0,1,1.707,4.708,6.753,6.753,0,0,1-1.795,4.912,6.54,6.54,0,0,1-9.58-.5q-1.944-2.346-1.945-7.694,0-5.482,2.028-7.9a6.546,6.546,0,0,1,5.266-2.422,5.594,5.594,0,0,1,3.762,1.273A5.963,5.963,0,0,1,5104.08,5652.68Zm-8.667,8.34a4.33,4.33,0,0,0,.857,2.876,2.524,2.524,0,0,0,1.96,1.015,2.226,2.226,0,0,0,1.768-.83,4.18,4.18,0,0,0,.708-2.722,4.379,4.379,0,0,0-.763-2.85,2.45,2.45,0,0,0-3.769-.041,3.754,3.754,0,0,0-.764,2.551Z" fill="#d4145a"/>
      <path id="パス_23" data-name="パス 23" d="M5115.85,5667.74h-3.823v-14.408a13.18,13.18,0,0,1-4.939,2.9v-3.469a11.085,11.085,0,0,0,3.252-1.857,7.055,7.055,0,0,0,2.409-3.191h3.1Z" fill="#d4145a"/>
    </g>
    <rect id="長方形_2" data-name="長方形 2" width="200" height="1.5" transform="translate(4916.733 5639.678)" fill="#d4145a"/>
    <g id="グループ_4" data-name="グループ 4">
      <path id="パス_24" data-name="パス 24" d="M4920.64,5633.81h-2.079v.839h-.859V5627.2h2.938Zm-2.079-5.767v2.009h1.2v-2.009Zm1.2,4.937v-2.108h-1.2v2.108Zm5.627-2.548v1h1.07v.819h-1.07v2.458c0,.48-.109.73-.44.87a4.889,4.889,0,0,1-1.638.15,3.5,3.5,0,0,0-.3-.871c.561.021,1.109.021,1.259.021s.21-.049.21-.19v-2.438h-3.638v-.819h3.638v-1h-3.668v-.82h2.379v-1.1h-2v-.809h2v-1.14h.929v1.14h2.059v.809h-2.059v1.1h2.429v.82Zm-3.278,2.069a7.341,7.341,0,0,1,1.25,1.659l-.79.48a7.389,7.389,0,0,0-1.209-1.708Z" fill="#d4145a"/>
      <path id="パス_25" data-name="パス 25" d="M4930.56,5630.46v5.3h-.92v-8.775h3.688v3.478Zm0-2.779v.69h1.889v-.69Zm1.889,2.089v-.739h-1.889v.739Zm5.447,4.828c0,.53-.11.829-.47.989a5.058,5.058,0,0,1-1.739.16,4.186,4.186,0,0,0-.29-.909h-2.7v.5h-.85v-4.187h3.748v3.657c.49.02.97.011,1.13.011.179-.011.229-.061.229-.23v-4.108h-2.838v-3.5h3.778Zm-5.2-2.749v.78h2.029v-.78Zm2.029,2.289v-.83H4932.7v.83Zm.279-6.457v.69h1.949v-.69Zm1.949,2.109v-.759H4935v.759Z" fill="#d4145a"/>
      <path id="パス_26" data-name="パス 26" d="M4948.16,5631.2a8.68,8.68,0,0,0,2.2,1.47,3.453,3.453,0,0,0-.66.8,8.357,8.357,0,0,1-1.539-1.039v3.3h-.96v-4.208a11.3,11.3,0,0,1-1.369-1.8c-.739,2.989-2.189,4.928-4.017,5.967a3.315,3.315,0,0,0-.75-.69,6.981,6.981,0,0,0,2.838-2.768,12.612,12.612,0,0,0-1.72-1.3,8.159,8.159,0,0,1-.59.689,7.216,7.216,0,0,0-.779-.609,9.073,9.073,0,0,0,2.37-4.437l.919.19a13.492,13.492,0,0,1-.409,1.3h1.649l.169-.03.62.21c-.05.29-.1.58-.15.849l.36-.139a7.983,7.983,0,0,0,.859,1.249V5626.6h.96Zm-4.827-2.258a10.277,10.277,0,0,1-.67,1.279,13.771,13.771,0,0,1,1.669,1.168,10.96,10.96,0,0,0,.739-2.447Z" fill="#d4145a"/>
      <path id="パス_27" data-name="パス 27" d="M4956.44,5628.97h-3.7v-.74h3.7Zm-.3,6.236h-2.149v.42h-.8v-3.358h2.948Zm-.01-4.9h-2.93v-.72h2.929Zm-2.929.61h2.929v.729h-2.93Zm2.909-3.279h-2.869v-.729h2.869Zm-2.119,5.378v1.439h1.349v-1.439Zm5.447-6.407a7.443,7.443,0,0,0,2.648,2.667,5.638,5.638,0,0,0-.509.84,8.688,8.688,0,0,1-2.539-2.629,8.1,8.1,0,0,1-2.538,2.7,4.5,4.5,0,0,0-.47-.78,7.1,7.1,0,0,0,2.528-2.8Zm2.249,5.877a8.188,8.188,0,0,1-4.648,3.289,3.614,3.614,0,0,0-.589-.791,7.246,7.246,0,0,0,4.4-2.857Zm-1.729-2.988a8.057,8.057,0,0,1-2.479,2.008,3.6,3.6,0,0,0-.6-.569,6.765,6.765,0,0,0,2.258-1.769Zm.859,1.449a8.592,8.592,0,0,1-3.3,2.468,3.873,3.873,0,0,0-.589-.649,7.467,7.467,0,0,0,3.079-2.159Z" fill="#d4145a"/>
      <path id="パス_28" data-name="パス 28" d="M4973.48,5630.17a5.111,5.111,0,0,1-.769.649,4.64,4.64,0,0,0,1.1.589,3.113,3.113,0,0,0-.529.661,4.214,4.214,0,0,1-.72-.4v1.839h-1.829v1.4c0,.41-.08.61-.38.73a4.179,4.179,0,0,1-1.37.13,2.831,2.831,0,0,0-.29-.75c.43.01.85.01.979,0s.17-.03.17-.139v-1.37h-1.8v-1.819a7.636,7.636,0,0,1-.729.431,2.181,2.181,0,0,0-.52-.581,6.955,6.955,0,0,1-1.41,4.218,3.886,3.886,0,0,0-.66-.619,5.025,5.025,0,0,0,1.14-2.838c-.379.24-.759.47-1.129.669l-.29-.829c.39-.17.919-.45,1.5-.75.01-.259.01-.509.01-.749v-3.2h3.188v-.86h.97v.86h3.588v.8h-6.876v2.4c0,.26-.01.539-.02.829a5.613,5.613,0,0,0,1.089-.669,8.684,8.684,0,0,0-.69-.55l.49-.42c.22.15.49.35.72.53a4.939,4.939,0,0,0,.53-.621h-1.72v-.719h2.16a4.234,4.234,0,0,0,.3-.779l.869.109a5.986,5.986,0,0,1-.259.67h3.308v.719h-2a4.465,4.465,0,0,0,.63.69,6.474,6.474,0,0,0,.689-.66Zm-8.325.4a8.276,8.276,0,0,0-.589-1.969l.68-.28a7.622,7.622,0,0,1,.64,1.919Zm3.817,3.338a5.818,5.818,0,0,1-1.568,1.7,3.76,3.76,0,0,0-.69-.55,4.46,4.46,0,0,0,1.419-1.379Zm2.779-2.568h-2.908v.509h2.908Zm0,1.059h-2.908v.52h2.908Zm-1.839-2.659a6.074,6.074,0,0,1-.77,1.021h2.349a5.6,5.6,0,0,1-.75-1.02Zm2.169,3.948a10.02,10.02,0,0,1,1.479,1.529l-.75.4a8.374,8.374,0,0,0-1.439-1.56Z" fill="#d4145a"/>
      <path id="パス_29" data-name="パス 29" d="M4983.71,5630.66a3.455,3.455,0,0,1,1,2.329c0,1.479-1.339,2.458-3.378,2.458-1.439,0-2.538-.64-2.538-2.269,0-.259.029-.629.07-1.069a10.427,10.427,0,0,1-1.979-.349l.049-.96a8.2,8.2,0,0,0,2.029.4c.06-.519.129-1.068.2-1.588a12.143,12.143,0,0,1-2.049-.35l.05-.919a9.4,9.4,0,0,0,2.109.38c.04-.36.07-.68.09-.93a4.029,4.029,0,0,0,.01-.779l1.119.06c-.069.309-.109.539-.149.779l-.12.9a11.844,11.844,0,0,0,1.918-.13l-.029.939a19.059,19.059,0,0,1-1.989.1h-.02c-.07.51-.14,1.06-.2,1.579h.14a15.741,15.741,0,0,0,2.029-.119l-.03.939a16.024,16.024,0,0,1-1.849.1h-.38c-.03.35-.05.65-.05.86,0,.889.519,1.419,1.579,1.419,1.449,0,2.319-.63,2.319-1.569a2.723,2.723,0,0,0-1.048-1.979Z" fill="#d4145a"/>
      <path id="パス_30" data-name="パス 30" d="M4991.81,5631.03a7.653,7.653,0,0,1,2.059-.309c1.47,0,2.579.789,2.579,2.058,0,1.18-.68,2-2.139,2.35a6.711,6.711,0,0,1-1.249.139l-.36-1a6.591,6.591,0,0,0,1.189-.07c.83-.15,1.559-.59,1.559-1.429,0-.76-.689-1.179-1.588-1.179a6.617,6.617,0,0,0-2.029.329c.01.819.04,1.649.04,2.04,0,1.049-.39,1.349-.97,1.349-.859,0-2.179-.78-2.179-1.739,0-.839,1.01-1.709,2.179-2.219v-.619c0-.35,0-.72.01-1.09-.24.02-.46.031-.65.031-.439,0-.909-.011-1.3-.051l-.03-.959a9.787,9.787,0,0,0,1.31.08c.209,0,.439-.01.68-.02,0-.45.01-.81.01-.989a6.4,6.4,0,0,0-.061-.78h1.08c-.02.19-.049.519-.059.76s-.02.559-.04.909a11.976,11.976,0,0,0,1.948-.379l.021.979a19.148,19.148,0,0,1-1.989.33c-.011.4-.02.79-.02,1.14Zm-.86,2.769c0-.31-.02-.879-.03-1.519-.72.35-1.219.85-1.219,1.249s.579.73.919.73c.21-.009.33-.129.33-.469Zm3.978-5.757a18.219,18.219,0,0,1,2.339,1.42l-.49.8a14.619,14.619,0,0,0-2.289-1.459Z" fill="#d4145a"/>
      <path id="パス_31" data-name="パス 31" d="M5002.36,5628.37a7.593,7.593,0,0,1-1.6,2.219,5.46,5.46,0,0,1-.433-.339,10.853,10.853,0,0,0,2.109-3.75l.573.261c-.09.28-.19.559-.29.829h6.047v.78Zm3.138,3.288a9.291,9.291,0,0,1-1.169,1.649,12.606,12.606,0,0,1,1.678,1.409l-.739.7a12.362,12.362,0,0,0-1.619-1.419,10.827,10.827,0,0,1-2.758,1.869,5.173,5.173,0,0,0-.68-.73,9.459,9.459,0,0,0,2.7-1.679c-.6-.411-1.219-.8-1.8-1.129l.67-.61c.57.31,1.2.68,1.8,1.079a7.219,7.219,0,0,0,1.02-1.438Zm1.949-1.209c-.01,2.489.13,4.4.8,4.4.18-.009.23-.559.24-1.379a4.709,4.709,0,0,0,.63.569c-.07,1.239-.26,1.72-.92,1.729-1.389-.01-1.628-1.889-1.689-4.528h-5.537v-.789Zm-5.327-.67v-.759h5.727v.759Z" fill="#d4145a"/>
      <path id="パス_32" data-name="パス 32" d="M5020.64,5627.25a6.125,6.125,0,0,1-1.539,2.708,5.967,5.967,0,0,0,1.979.9,3.449,3.449,0,0,0-.57.769,6.013,6.013,0,0,1-2.068-1.089,7.419,7.419,0,0,1-2.168,1.12,4.069,4.069,0,0,0-.39-.631v1.54h-1.54v.709h1.739v.83h-1.739v1.659h-.839V5634.1h-1.759v-.83h1.759v-.709H5012v-3.508h1.5v-.66h-1.64v-.81h1.64v-1.019h.839v1.019H5016v.81h-1.659v.66h1.54v1.809a6.285,6.285,0,0,0,1.908-.94,6.692,6.692,0,0,1-1.169-1.889l.639-.18h-1.039v-.809h3.678l.16-.03Zm-7.956,3.238h.909v-.76h-.909Zm0,1.409h.909v-.769h-.909Zm2.479-2.169h-.92v.76h.92Zm0,1.4h-.92v.769h.92Zm3.738,3.558h2.059v.829h-5.167v-.829h2.188v-1.51h-1.609v-.8h1.609v-1.2h.92v1.2h1.609v.8h-1.61Zm-1.479-6.827a4.855,4.855,0,0,0,1.008,1.52,4.909,4.909,0,0,0,1.06-1.52Z" fill="#d4145a"/>
      <path id="パス_33" data-name="パス 33" d="M5025.95,5627.41a7.685,7.685,0,0,0-.209.759,23.385,23.385,0,0,0-.491,3.729,7.329,7.329,0,0,0,.07,1.04c.15-.4.351-.88.5-1.24l.519.4a19.718,19.718,0,0,0-.709,2.309,1.8,1.8,0,0,0-.05.451c0,.1.01.25.02.369l-.9.06a12.378,12.378,0,0,1-.379-3.2,28.133,28.133,0,0,1,.429-3.949,7.11,7.11,0,0,0,.09-.82Zm2.279,4.837a3.746,3.746,0,0,0-.12.88c0,.449.329.8,1.529.8a11.09,11.09,0,0,0,2.468-.26l.02,1.06a13.5,13.5,0,0,1-2.508.2c-1.679,0-2.458-.579-2.458-1.539a6.006,6.006,0,0,1,.169-1.219Zm3.588-4.128v1.02a25.188,25.188,0,0,1-4.147,0v-1.009a18.586,18.586,0,0,0,4.151-.01Z" fill="#d4145a"/>
      <path id="パス_34" data-name="パス 34" d="M5037.64,5632.05a3.725,3.725,0,0,0-.19,1.069c0,.689.689,1.189,2.208,1.189a13.011,13.011,0,0,0,3.419-.39l.01,1.089a14.558,14.558,0,0,1-3.4.35c-2.128,0-3.278-.709-3.278-2.009a6.058,6.058,0,0,1,.2-1.4Zm-.6-4.088a22.546,22.546,0,0,0,2.649.13c.969,0,2.027-.07,2.757-.14v1.04c-.68.05-1.829.119-2.749.119-1.009,0-1.859-.049-2.658-.109Zm6.516.28-.659.29a10.236,10.236,0,0,0-.8-1.389l.65-.271a14.386,14.386,0,0,1,.813,1.368Zm1.159-.43-.649.29a9.385,9.385,0,0,0-.83-1.379l.649-.27a15.528,15.528,0,0,1,.824,1.358Z" fill="#d4145a"/>
      <path id="パス_35" data-name="パス 35" d="M5049.7,5630.31c.35.36,1.24,1.409,1.439,1.669l-.559.75a14.078,14.078,0,0,0-.88-1.36v4.378h-.889v-4.407a9.9,9.9,0,0,1-1.3,2.627,5.2,5.2,0,0,0-.459-.85,10.144,10.144,0,0,0,1.64-3.568h-1.411v-.879h1.53v-2.089h.889v2.089h1.34v.879h-1.34Zm6.287-3.168v8.485h-.93v-.539h-2.718v.589h-.89v-8.535Zm-3.648.879v1.469h2.718v-1.469Zm0,3.838h2.718v-1.519h-2.718Zm2.718,2.379v-1.529h-2.718v1.529Z" fill="#d4145a"/>
      <path id="パス_36" data-name="パス 36" d="M5062.67,5628.97h-3.728v-.74h3.728Zm-.33,6.236h-2.149v.42h-.8v-3.358h2.948Zm-.01-4.9h-2.93v-.72h2.928Zm-2.928.61h2.928v.729h-2.93Zm2.908-3.279h-2.868v-.729h2.868Zm-2.119,5.378v1.439h1.35v-1.439Zm5.687-.83a3.183,3.183,0,0,0,2.319,2.788,8.206,8.206,0,0,0-.54.791,3.831,3.831,0,0,1-2.249-2.36,4.016,4.016,0,0,1-2.5,2.36,3.759,3.759,0,0,0-.53-.75c2.139-.759,2.548-2.229,2.548-2.829v-1.459h.949Zm-3.338,1.029a3.01,3.01,0,0,0,.9-1.739l.819.17a3.575,3.575,0,0,1-.97,1.989Zm4.947-2.138a17.367,17.367,0,0,0-2.16-1.559,3.5,3.5,0,0,1-2.158,1.638,2.923,2.923,0,0,0-.529-.739c2.048-.63,2.278-1.789,2.368-3.838h.91a10.026,10.026,0,0,1-.28,2.159,20.857,20.857,0,0,1,2.459,1.629Zm-3.178-3.719a3.153,3.153,0,0,1-.809,1.82l-.71-.34a2.986,2.986,0,0,0,.759-1.629Zm1.959,5.788a10.169,10.169,0,0,0,.88-1.74l.909.3c-.35.6-.75,1.279-1.07,1.709Zm1.679-5.7a18.283,18.283,0,0,1-.979,1.589l-.689-.27a9.118,9.118,0,0,0,.779-1.608Z" fill="#d4145a"/>
      <path id="パス_37" data-name="パス 37" d="M5077.49,5627.69c-.25.189-.56.459-.759.609-.66.56-2.03,1.639-2.729,2.229-.57.49-.57.62.02,1.119.829.69,2.7,2.2,3.668,3.158l-.9.83c-.24-.28-.519-.549-.759-.81-.54-.579-2.139-1.928-3.048-2.7-.96-.8-.86-1.289.069-2.069.76-.639,2.2-1.779,2.869-2.449a5.7,5.7,0,0,0,.65-.738Z" fill="#d4145a"/>
      <path id="パス_38" data-name="パス 38" d="M5087.89,5629.29a19.866,19.866,0,0,1-1.989.33c-.09.43-.2.87-.31,1.29a29.472,29.472,0,0,1-1.559,4.557l-1.1-.37a21.519,21.519,0,0,0,1.679-4.437c.09-.3.17-.63.24-.95-.28.01-.54.02-.79.02-.46,0-.819-.01-1.179-.04l-.02-.979a9.016,9.016,0,0,0,1.209.08c.31,0,.64-.01.99-.04.05-.29.1-.55.119-.73a4.739,4.739,0,0,0,.031-.9l1.208.09c-.07.25-.15.649-.19.849l-.12.58a16.925,16.925,0,0,0,1.779-.34Zm-.31,3.368a3.717,3.717,0,0,0-.141.859c0,.45.241.85,1.5.85a11.084,11.084,0,0,0,1.979-.2l-.031,1.009a13.631,13.631,0,0,1-1.959.14c-1.609,0-2.438-.529-2.438-1.509a6.532,6.532,0,0,1,.15-1.239Zm-.389-2.439c.529-.05,1.209-.1,1.848-.1a16.506,16.506,0,0,1,1.73.09l-.031.949a14.525,14.525,0,0,0-1.679-.119,16.019,16.019,0,0,0-1.868.1Zm2.688-1.079a12.028,12.028,0,0,0-.8-1.39l.65-.27a14.492,14.492,0,0,1,.81,1.379Zm.989-2.089c.26.38.64,1.009.83,1.369l-.649.29a11.415,11.415,0,0,0-.83-1.39Z" fill="#d4145a"/>
      <path id="パス_39" data-name="パス 39" d="M5102.46,5629.01c-.559.15-1.179.289-1.789.4.36.8.87,1.849,1.31,2.669l-.57.59c-.47-.1-1.449-.24-2.139-.32l.1-.81c.36.04.979.1,1.3.13-.26-.559-.679-1.429-.979-2.1a21.751,21.751,0,0,1-4.2.009l-.04-1a17.246,17.246,0,0,0,3.828.07l-.28-.61a6.2,6.2,0,0,0-.451-.889l1.121-.21c.2.589.39,1.059.609,1.569a13.257,13.257,0,0,0,1.989-.49Zm-5.507,2.868a3.94,3.94,0,0,0-.278,1.22c0,.81.488,1.31,1.938,1.31a11.224,11.224,0,0,0,2.638-.27l-.02,1.028a12.8,12.8,0,0,1-2.629.24c-1.9,0-2.948-.75-2.948-2.048a6.143,6.143,0,0,1,.28-1.561Z" fill="#d4145a"/>
      <path id="パス_40" data-name="パス 40" d="M5108.06,5629.01a21.9,21.9,0,0,0,.07,2.229c.149,1.559.549,2.6,1.209,2.6.5,0,.929-1.08,1.149-1.989l.8.929c-.63,1.7-1.24,2.29-1.969,2.29-1,0-1.919-.96-2.189-3.569a26.343,26.343,0,0,1-.11-2.648,4.978,4.978,0,0,0-.07-.929l1.209.019a8.158,8.158,0,0,0-.1,1.068Zm6.936,4.118-1.03.4a9.875,9.875,0,0,0-1.729-5.007l.99-.33a10.472,10.472,0,0,1,1.772,4.939Z" fill="#d4145a"/>
    </g>
    <g id="グループ_6" data-name="グループ 6">
      <g id="グループ_5" data-name="グループ 5">
        <path id="パス_41" data-name="パス 41" d="M4944.94,5651.47c-.233-1.419-2.567-5.975-13.582-6.007-11.435-.039-14.113,4.7-14.246,6.213l-.263,2.322h0a.918.918,0,0,0,.925.911h0l6.6-.062a.9.9,0,0,0,.9-.916l-.344-2.324c.1-.965,1.274-1.194,3.609-1.453l5.622-.054c1.356.135,2.666.378,2.76,1.429l-.165,2.321h0a.915.915,0,0,0,.926.911h0l6.594-.055a.907.907,0,0,0,.909-.918Z"/>
        <path id="パス_42" data-name="パス 42" d="M4939.7,5658.14a9.372,9.372,0,0,0-4.069-3.425l.039-1.087a2.17,2.17,0,0,0-1.923-2.324h-5.332c-2.165,0-2.806,2.349-2.806,2.349v1.112c-1,.628-3.183,1.661-4.048,3.354,0,0-1.952,4.345-1.952,6.954v2.326a2.1,2.1,0,0,0,2.378,1.905h18s1.619.138,1.619-1.9v-2.154a18.145,18.145,0,0,0-1.906-7.105Z"/>
      </g>
      <circle id="楕円形_1" data-name="楕円形 1" cx="6.396" cy="6.396" r="6.396" transform="translate(4924.066 5653.845)" fill="#fff"/>
    </g>
  </g>
</svg>
