<svg xmlns="http://www.w3.org/2000/svg" xmlns:xlink="http://www.w3.org/1999/xlink" width="150" height="33" viewBox="0 0 150 33">
  <defs>
    <linearGradient id="linear-gradient" x1="0.5" y1="-0.008" x2="0.5" y2="1.01" gradientUnits="objectBoundingBox">
      <stop offset="0" stop-color="#bba368"/>
      <stop offset="1" stop-color="#a28a5c"/>
    </linearGradient>
  </defs>
  <g id="fRserverBtn-yoyaku" transform="translate(-819 -26)">
    <rect id="長方形_117" data-name="長方形 117" width="150" height="33" transform="translate(819 26)" fill="url(#linear-gradient)"/>
    <path id="パス_85" data-name="パス 85" d="M-39.47-7.93h-1.17a6.361,6.361,0,0,1,.07.86q0,.51-.03.96h-1.61c-.39,0-.84-.03-1.22-.06v1.04c.38-.03.85-.04,1.22-.04h1.52a6.216,6.216,0,0,1-1.83,3.93,5.336,5.336,0,0,1-1.15.84l.92.75a7.172,7.172,0,0,0,3.08-5.52h2.56a14.465,14.465,0,0,1-.47,4.04.528.528,0,0,1-.57.34A11.449,11.449,0,0,1-39.6-.91l.12,1.05c.51.04,1.09.07,1.63.07a1.115,1.115,0,0,0,1.16-.68,19.466,19.466,0,0,0,.6-4.85c.01-.12.04-.34.07-.51l-.7-.34a4.547,4.547,0,0,1-.69.06h-2.16c.02-.31.04-.64.05-.98C-39.51-7.33-39.49-7.7-39.47-7.93Zm10.26-.15h-1.21a4.537,4.537,0,0,1,.07.83v.86h-2.18a9.5,9.5,0,0,1-.97-.05,7.444,7.444,0,0,1,.04.81v1.75c0,.22-.02.51-.04.72h1.09a4.59,4.59,0,0,1-.04-.66V-5.46h5.32a6.938,6.938,0,0,1-.92,2.76A5.142,5.142,0,0,1-30.57-.82a6.278,6.278,0,0,1-1.2.33l.82.95a6.375,6.375,0,0,0,4.01-2.91,9.3,9.3,0,0,0,.96-2.93,3.759,3.759,0,0,1,.17-.68l-.69-.43a2.2,2.2,0,0,1-.75.1h-2.02v-.86A7.153,7.153,0,0,1-29.21-8.08Zm6.69.63-.73.78a21.69,21.69,0,0,1,2.5,2.12l.79-.81A20.984,20.984,0,0,0-22.52-7.45ZM-23.55-.76l.67,1.03a11.026,11.026,0,0,0,3.83-1.49,10.225,10.225,0,0,0,3.51-3.62l-.61-1.09a9.521,9.521,0,0,1-3.47,3.77A10.391,10.391,0,0,1-23.55-.76ZM-12-1.31C-12-.24-11.66.28-9.61.28A23.216,23.216,0,0,0-6.49.07l.04-1.08A15.847,15.847,0,0,1-9.59-.7c-1.15,0-1.37-.22-1.37-.88V-4.41c1.62-.33,3.24-.65,3.47-.7a9.361,9.361,0,0,1-1.7,2.23l.87.51A14.366,14.366,0,0,0-6.26-5.28c.08-.15.2-.34.28-.46l-.75-.59a2.267,2.267,0,0,1-.61.21c-.43.1-2.03.42-3.62.73V-6.78a6.9,6.9,0,0,1,.08-1.02h-1.19A6.807,6.807,0,0,1-12-6.78V-5.2c-1.03.19-1.94.35-2.4.41l.19,1.05c.41-.09,1.25-.27,2.21-.46ZM2.83-7.66H1.64a7.732,7.732,0,0,1,.06.92v1.72c0,1.75-.13,2.53-.83,3.33a4.664,4.664,0,0,1-2.4,1.3L-.7.48A5.461,5.461,0,0,0,1.69-.98c.74-.84,1.1-1.69,1.1-3.98V-6.74C2.79-7.1,2.81-7.4,2.83-7.66Zm-4.64.08H-2.96a6.459,6.459,0,0,1,.04.74v3.35c0,.29-.03.64-.04.81h1.15c-.02-.2-.04-.55-.04-.81V-6.84C-1.85-7.12-1.83-7.37-1.81-7.58Zm8.99.13-.73.78a21.69,21.69,0,0,1,2.5,2.12l.79-.81A20.984,20.984,0,0,0,7.18-7.45ZM6.15-.76,6.82.27a11.026,11.026,0,0,0,3.83-1.49,10.225,10.225,0,0,0,3.51-3.62l-.61-1.09a9.521,9.521,0,0,1-3.47,3.77A10.391,10.391,0,0,1,6.15-.76ZM22.46-8.08l-.64.27a11.936,11.936,0,0,1,.79,1.38l.66-.28A14.491,14.491,0,0,0,22.46-8.08Zm1.13-.43-.64.27a10.036,10.036,0,0,1,.82,1.38l.65-.29A11.821,11.821,0,0,0,23.59-8.51Zm-3.67.97-1.16-.38a4.685,4.685,0,0,1-.37.9,8.553,8.553,0,0,1-3.14,3.31l.88.65A10.36,10.36,0,0,0,18.66-5.5h3.13a7.509,7.509,0,0,1-1.52,2.95A8,8,0,0,1,16.26-.06l.93.84a9.091,9.091,0,0,0,4-2.77,9.9,9.9,0,0,0,1.76-3.4A3.423,3.423,0,0,1,23.23-6l-.82-.5a2.67,2.67,0,0,1-.75.1H19.25c.06-.09.1-.17.15-.26C19.51-6.86,19.72-7.24,19.92-7.54ZM33.43-4.72l-.17.06H31.42l.19-.31c-.26-.13-.6-.28-.98-.45A15.66,15.66,0,0,0,33.1-7.38l-.68-.52-.2.05H26.15v.86h5.16a10.49,10.49,0,0,1-1.62,1.18c-.59-.25-1.19-.48-1.69-.68l-.48.7c.78.31,1.77.75,2.58,1.13H25.21v.89h4.02V-.31c0,.15-.05.19-.24.2s-.89.01-1.54-.02a4.526,4.526,0,0,1,.35.9A6.475,6.475,0,0,0,29.67.62c.4-.13.53-.39.53-.91V-3.77h2.49a9.864,9.864,0,0,1-.98,1.41l.78.47a13.828,13.828,0,0,0,1.7-2.5Zm2.08,2.05a7.558,7.558,0,0,1-.59,2.34,3.908,3.908,0,0,1,.71.35,9.259,9.259,0,0,0,.67-2.55Zm2.19.18a10.8,10.8,0,0,1,.61,1.92l.74-.26a10.905,10.905,0,0,0-.65-1.89Zm-.22-2.42a8.6,8.6,0,0,1,.42.8l-1.33.05A31.388,31.388,0,0,0,38.56-6.9l-.79-.34A18.636,18.636,0,0,1,36.76-5.5a5.826,5.826,0,0,0-.49-.58c.36-.54.78-1.33,1.14-2.01l-.84-.3a11.531,11.531,0,0,1-.82,1.81l-.27-.24-.45.62a10.761,10.761,0,0,1,1.26,1.4c-.2.28-.39.54-.58.78l-.7.02.08.82c.46-.03.99-.06,1.56-.09V.8h.83V-3.32l.74-.05a5.037,5.037,0,0,1,.18.56l.71-.34a8.45,8.45,0,0,0-.96-2.05Zm6.56-1.74H40.5a13.24,13.24,0,0,0,.55-1.53L40.1-8.4a8.367,8.367,0,0,1-1.73,3.42,6.952,6.952,0,0,1,.82.56,7.773,7.773,0,0,0,.88-1.34h3.05c-.13,3.67-.29,5.15-.61,5.47a.479.479,0,0,1-.43.17c-.24,0-.84-.01-1.49-.06a2.094,2.094,0,0,1,.31.93A9.559,9.559,0,0,0,42.44.74a1.068,1.068,0,0,0,.88-.46c.42-.51.55-2.07.72-6.48ZM41.79-2.17a9.434,9.434,0,0,0-1.35-2.25l-.75.37a9.825,9.825,0,0,1,1.28,2.3Z" transform="translate(894 46)" fill="#fff"/>
  </g>
</svg>
