<svg xmlns="http://www.w3.org/2000/svg" xmlns:xlink="http://www.w3.org/1999/xlink" width="98.67" height="21.62" viewBox="0 0 98.67 21.62">
  <defs>
    <linearGradient id="linear-gradient" x1="0.5" y1="-0.008" x2="0.5" y2="1.01" gradientUnits="objectBoundingBox">
      <stop offset="0" stop-color="#bba368"/>
      <stop offset="1" stop-color="#a28a5c"/>
    </linearGradient>
  </defs>
  <g id="fRserverBtn2" transform="translate(-819 -26)">
    <rect id="長方形_117" data-name="長方形 117" width="98.67" height="21.62" transform="translate(819 26)" fill="url(#linear-gradient)"/>
    <path id="パス_86" data-name="パス 86" d="M-31.656-6.3h-.752a4.849,4.849,0,0,1,.056.664c0,.288-.016.56-.032.816h-1.408a8.373,8.373,0,0,1-.912-.048v.68a8.537,8.537,0,0,1,.92-.032h1.344A5.144,5.144,0,0,1-34.024-.848a3.943,3.943,0,0,1-.824.592l.584.472a5.65,5.65,0,0,0,2.456-4.432h2.24a12.061,12.061,0,0,1-.408,3.432.433.433,0,0,1-.464.264,9.733,9.733,0,0,1-1.192-.088l.08.664c.416.024.88.056,1.288.056a.83.83,0,0,0,.856-.488A15.6,15.6,0,0,0-28.92-4.24a2.5,2.5,0,0,1,.04-.392l-.448-.224a2.883,2.883,0,0,1-.512.04h-1.9c.016-.264.032-.536.04-.824C-31.7-5.832-31.68-6.112-31.656-6.3Zm8.184-.112h-.768a4.488,4.488,0,0,1,.04.6v.744h-1.768a7.088,7.088,0,0,1-.744-.032,5.356,5.356,0,0,1,.024.616v1.408c0,.152-.008.368-.024.512h.7a3.087,3.087,0,0,1-.032-.48V-4.472h4.472a5.893,5.893,0,0,1-.76,2.336A4.266,4.266,0,0,1-24.5-.528a4.26,4.26,0,0,1-.832.224l.52.6a5.084,5.084,0,0,0,3.168-2.264,7.457,7.457,0,0,0,.784-2.408c.032-.152.08-.36.12-.48l-.432-.272a1.572,1.572,0,0,1-.552.064H-23.52v-.744A3.574,3.574,0,0,1-23.472-6.408Zm5.408.544-.456.488A16.615,16.615,0,0,1-16.528-3.7l.5-.5A17.518,17.518,0,0,0-18.064-5.864ZM-18.752-.5l.424.656a8.769,8.769,0,0,0,3.144-1.24A7.993,7.993,0,0,0-12.5-3.936l-.384-.68a7.536,7.536,0,0,1-2.672,2.944A8.26,8.26,0,0,1-18.752-.5Zm9.24-.528c0,.792.272,1.176,1.76,1.176A17.2,17.2,0,0,0-5.24-.016L-5.208-.7a12.851,12.851,0,0,1-2.5.232c-.952,0-1.16-.176-1.16-.728V-3.584c1.416-.288,2.888-.584,3.024-.608a7.533,7.533,0,0,1-1.424,1.9l.56.336A12.177,12.177,0,0,0-5.064-4.28c.056-.1.136-.24.192-.32l-.472-.368a1.62,1.62,0,0,1-.424.144c-.336.072-1.736.36-3.1.624V-5.448a4.561,4.561,0,0,1,.056-.736h-.76a4.493,4.493,0,0,1,.056.736V-4.08c-.848.16-1.608.3-1.968.344l.12.664c.328-.072,1.04-.216,1.848-.384Zm11.68-5.04H1.416a5.739,5.739,0,0,1,.04.7v1.264c0,1.512-.1,2.16-.664,2.824A3.668,3.668,0,0,1-1.12-.224L-.6.328A4.273,4.273,0,0,0,1.3-.84c.576-.688.84-1.32.84-3.24v-1.3C2.144-5.648,2.152-5.872,2.168-6.072Zm-3.712.064h-.728c.016.152.032.432.032.576v2.664a5.243,5.243,0,0,1-.04.616h.736c-.016-.144-.032-.408-.032-.608V-5.432C-1.576-5.624-1.56-5.856-1.544-6.008Zm7.24.144-.456.488A16.615,16.615,0,0,1,7.232-3.7l.5-.5A17.518,17.518,0,0,0,5.7-5.864ZM5.008-.5l.424.656a8.769,8.769,0,0,0,3.144-1.24,7.993,7.993,0,0,0,2.688-2.848l-.384-.68A7.536,7.536,0,0,1,8.208-1.672,8.26,8.26,0,0,1,5.008-.5ZM17.92-6.4l-.424.184a9.048,9.048,0,0,1,.648,1.1l.432-.192A11.338,11.338,0,0,0,17.92-6.4Zm.88-.32-.424.184a8.315,8.315,0,0,1,.664,1.1l.432-.192A11.447,11.447,0,0,0,18.8-6.72Zm-3.032.7-.736-.248a2.967,2.967,0,0,1-.248.64,6.7,6.7,0,0,1-2.512,2.7l.552.408A7.719,7.719,0,0,0,14.856-4.48h2.7a6.5,6.5,0,0,1-1.272,2.5A6.407,6.407,0,0,1,13.08.024l.584.528a7.121,7.121,0,0,0,3.184-2.176,7.825,7.825,0,0,0,1.416-2.76,2.514,2.514,0,0,1,.184-.424l-.528-.32a1.532,1.532,0,0,1-.52.072H15.232c.064-.112.128-.224.184-.336C15.5-5.536,15.64-5.808,15.768-6.016Zm11.08,2.248-.12.048H25.08l.136-.208c-.224-.12-.536-.272-.864-.416a12.8,12.8,0,0,0,2.08-1.624L26-6.3l-.136.032H20.928v.552h4.36a9.279,9.279,0,0,1-1.52,1.1c-.488-.216-1.008-.432-1.448-.608l-.3.44c.712.3,1.624.72,2.3,1.064H20.176v.568h3.3V-.144c0,.12-.048.152-.192.16-.16.008-.7.016-1.248-.008a3.421,3.421,0,0,1,.224.576,5.764,5.764,0,0,0,1.44-.1c.28-.088.376-.256.376-.624V-3.152h2.272A8.734,8.734,0,0,1,25.408-1.9l.48.3A11.126,11.126,0,0,0,27.32-3.544ZM28.472-2.16a5.749,5.749,0,0,1-.52,1.9,2.078,2.078,0,0,1,.464.224,7.04,7.04,0,0,0,.568-2.032Zm1.736.112A7.968,7.968,0,0,1,30.72-.5l.472-.16a6.93,6.93,0,0,0-.536-1.536Zm-.2-1.9a7.48,7.48,0,0,1,.392.712c-.44.016-.88.04-1.28.056A25.838,25.838,0,0,0,30.776-5.56l-.512-.224c-.224.432-.528.952-.856,1.456a5.63,5.63,0,0,0-.488-.552,14.4,14.4,0,0,0,.912-1.608l-.528-.2A10.919,10.919,0,0,1,28.592-5.2c-.08-.072-.16-.144-.24-.208l-.3.392A7.267,7.267,0,0,1,29.1-3.872a7.855,7.855,0,0,1-.536.712c-.184.008-.368.016-.528.016l.048.536,1.3-.064v3.3h.536V-2.7l.7-.04a2.76,2.76,0,0,1,.152.456l.472-.224a6.838,6.838,0,0,0-.792-1.624Zm5.2-1.312H32.272a10.162,10.162,0,0,0,.488-1.3l-.6-.136a7.034,7.034,0,0,1-1.424,2.768,4.218,4.218,0,0,1,.52.352A6.332,6.332,0,0,0,32-4.7h2.624c-.12,3.12-.256,4.336-.52,4.608a.392.392,0,0,1-.344.12c-.2,0-.688,0-1.224-.048a1.361,1.361,0,0,1,.192.584A9.358,9.358,0,0,0,33.96.584a.823.823,0,0,0,.664-.32c.328-.392.44-1.632.584-5.216ZM33.416-1.7A8.089,8.089,0,0,0,32.3-3.528l-.48.232A8.566,8.566,0,0,1,32.9-1.432Z" transform="translate(868 40)" fill="#fff"/>
  </g>
</svg>
