<svg xmlns="http://www.w3.org/2000/svg" xmlns:xlink="http://www.w3.org/1999/xlink" width="250" height="33" viewBox="0 0 250 33">
  <defs>
    <linearGradient id="linear-gradient" x1="0.5" y1="-0.008" x2="0.5" y2="1.01" gradientUnits="objectBoundingBox">
      <stop offset="0" stop-color="#bba368"/>
      <stop offset="1" stop-color="#a28a5c"/>
    </linearGradient>
  </defs>
  <g id="fRserverBtn" transform="translate(-819 -26)">
    <rect id="長方形_117" data-name="長方形 117" width="250" height="33" transform="translate(819 26)" fill="url(#linear-gradient)"/>
    <path id="パス_85" data-name="パス 85" d="M-47.364-9.516h-1.4a7.633,7.633,0,0,1,.084,1.032q0,.612-.036,1.152h-1.932c-.468,0-1.008-.036-1.464-.072v1.248c.456-.036,1.02-.048,1.464-.048h1.824a7.459,7.459,0,0,1-2.2,4.716A6.4,6.4,0,0,1-52.4-.48l1.1.9c2.064-1.452,3.252-3.288,3.7-6.624h3.072A17.358,17.358,0,0,1-45.1-1.356a.634.634,0,0,1-.684.408,13.739,13.739,0,0,1-1.74-.144l.144,1.26c.612.048,1.308.084,1.956.084a1.338,1.338,0,0,0,1.392-.816c.528-1.176.684-4.608.72-5.82.012-.144.048-.408.084-.612l-.84-.408a5.456,5.456,0,0,1-.828.072h-2.592c.024-.372.048-.768.06-1.176C-47.412-8.8-47.388-9.24-47.364-9.516Zm12.312-.18H-36.5a5.444,5.444,0,0,1,.084,1v1.032h-2.616a11.4,11.4,0,0,1-1.164-.06,8.933,8.933,0,0,1,.048.972v2.1c0,.264-.024.612-.048.864h1.308a5.508,5.508,0,0,1-.048-.792V-6.552h6.384a8.326,8.326,0,0,1-1.1,3.312A6.17,6.17,0,0,1-36.684-.984a7.534,7.534,0,0,1-1.44.4l.984,1.14A7.65,7.65,0,0,0-32.328-2.94a11.162,11.162,0,0,0,1.152-3.516,4.511,4.511,0,0,1,.2-.816l-.828-.516a2.635,2.635,0,0,1-.9.12h-2.424V-8.7A8.584,8.584,0,0,1-35.052-9.7Zm8.028.756L-27.9-8a26.028,26.028,0,0,1,3,2.544l.948-.972A25.181,25.181,0,0,0-27.024-8.94ZM-28.26-.912l.8,1.236a13.231,13.231,0,0,0,4.6-1.788,12.269,12.269,0,0,0,4.212-4.344l-.732-1.308a11.425,11.425,0,0,1-4.164,4.524A12.469,12.469,0,0,1-28.26-.912Zm13.86-.66c0,1.284.408,1.908,2.868,1.908A27.859,27.859,0,0,0-7.788.084l.048-1.3a19.016,19.016,0,0,1-3.768.372c-1.38,0-1.644-.264-1.644-1.056v-3.4c1.944-.4,3.888-.78,4.164-.84a11.233,11.233,0,0,1-2.04,2.676l1.044.612A17.239,17.239,0,0,0-7.512-6.336c.1-.18.24-.408.336-.552l-.9-.708a2.72,2.72,0,0,1-.732.252c-.516.12-2.436.5-4.344.876V-8.136a8.282,8.282,0,0,1,.1-1.224h-1.428A8.168,8.168,0,0,1-14.4-8.136v1.9c-1.236.228-2.328.42-2.88.492l.228,1.26c.492-.108,1.5-.324,2.652-.552ZM3.4-9.192H1.968a9.278,9.278,0,0,1,.072,1.1v2.064c0,2.1-.156,3.036-1,4a5.6,5.6,0,0,1-2.88,1.56l1,1.044A6.554,6.554,0,0,0,2.028-1.176c.888-1.008,1.32-2.028,1.32-4.776V-8.088C3.348-8.52,3.372-8.88,3.4-9.192Zm-5.568.1h-1.38a7.751,7.751,0,0,1,.048.888v4.02c0,.348-.036.768-.048.972h1.38c-.024-.24-.048-.66-.048-.972v-4.02C-2.22-8.544-2.2-8.844-2.172-9.1ZM8.616-8.94,7.74-8a26.028,26.028,0,0,1,3,2.544l.948-.972A25.181,25.181,0,0,0,8.616-8.94ZM7.38-.912l.8,1.236a13.231,13.231,0,0,0,4.6-1.788,12.269,12.269,0,0,0,4.212-4.344L16.26-7.116A11.425,11.425,0,0,1,12.1-2.592,12.469,12.469,0,0,1,7.38-.912ZM26.952-9.7l-.768.324a14.323,14.323,0,0,1,.948,1.656l.792-.336A17.389,17.389,0,0,0,26.952-9.7Zm1.356-.516-.768.324a12.044,12.044,0,0,1,.984,1.656l.78-.348A14.185,14.185,0,0,0,28.308-10.212ZM23.9-9.048,22.512-9.5a5.622,5.622,0,0,1-.444,1.08A10.264,10.264,0,0,1,18.3-4.452l1.056.78A12.432,12.432,0,0,0,22.392-6.6h3.756a9.011,9.011,0,0,1-1.824,3.54A9.6,9.6,0,0,1,19.512-.072L20.628.936a10.909,10.909,0,0,0,4.8-3.324,11.877,11.877,0,0,0,2.112-4.08,4.107,4.107,0,0,1,.336-.732l-.984-.6a3.2,3.2,0,0,1-.9.12H23.1c.072-.108.12-.2.18-.312C23.412-8.232,23.664-8.688,23.9-9.048ZM40.116-5.664l-.2.072H37.7l.228-.372c-.312-.156-.72-.336-1.176-.54A18.792,18.792,0,0,0,39.72-8.856L38.9-9.48l-.24.06H31.38v1.032h6.192a12.588,12.588,0,0,1-1.944,1.416c-.708-.3-1.428-.576-2.028-.816l-.576.84c.936.372,2.124.9,3.1,1.356H30.252v1.068h4.824V-.372c0,.18-.06.228-.288.24S33.72-.12,32.94-.156a5.431,5.431,0,0,1,.42,1.08A7.771,7.771,0,0,0,35.6.744c.48-.156.636-.468.636-1.092V-4.524h2.988a11.837,11.837,0,0,1-1.176,1.692l.936.564a16.594,16.594,0,0,0,2.04-3Zm2.5,2.46A9.069,9.069,0,0,1,41.9-.4a4.69,4.69,0,0,1,.852.42,11.111,11.111,0,0,0,.8-3.06Zm2.628.216a12.959,12.959,0,0,1,.732,2.3L46.86-1a13.086,13.086,0,0,0-.78-2.268Zm-.264-2.9a10.322,10.322,0,0,1,.5.96l-1.6.06A37.667,37.667,0,0,0,46.272-8.28l-.948-.408A22.364,22.364,0,0,1,44.112-6.6a6.991,6.991,0,0,0-.588-.7c.432-.648.936-1.6,1.368-2.412l-1.008-.36A13.837,13.837,0,0,1,42.9-7.9l-.324-.288-.54.744a12.913,12.913,0,0,1,1.512,1.68c-.24.336-.468.648-.7.936l-.84.024.1.984c.552-.036,1.188-.072,1.872-.108V.96h1V-3.984l.888-.06a6.045,6.045,0,0,1,.216.672l.852-.408A10.14,10.14,0,0,0,45.78-6.24ZM52.848-7.98H48.6a15.889,15.889,0,0,0,.66-1.836l-1.14-.264a10.041,10.041,0,0,1-2.076,4.1,8.342,8.342,0,0,1,.984.672,9.328,9.328,0,0,0,1.056-1.608h3.66c-.156,4.4-.348,6.18-.732,6.564a.575.575,0,0,1-.516.2c-.288,0-1.008-.012-1.788-.072A2.513,2.513,0,0,1,49.08.9,11.47,11.47,0,0,0,50.928.888,1.281,1.281,0,0,0,51.984.336c.5-.612.66-2.484.864-7.776ZM50.148-2.6a11.321,11.321,0,0,0-1.62-2.7l-.9.444A11.79,11.79,0,0,1,49.164-2.1Z" transform="translate(944 47)" fill="#fff"/>
  </g>
</svg>
