<svg xmlns="http://www.w3.org/2000/svg" xmlns:xlink="http://www.w3.org/1999/xlink" width="150" height="33" viewBox="0 0 150 33">
  <defs>
    <linearGradient id="linear-gradient" x1="0.5" y1="-0.008" x2="0.5" y2="1.01" gradientUnits="objectBoundingBox">
      <stop offset="0" stop-color="#18aa7d"/>
      <stop offset="1" stop-color="#188865"/>
    </linearGradient>
  </defs>
  <g id="fRserverBtn-soudan" transform="translate(-849 -26)">
    <rect id="長方形_117" data-name="長方形 117" width="150" height="33" transform="translate(849 26)" fill="url(#linear-gradient)"/>
    <path id="パス_86" data-name="パス 86" d="M-22.77-4.97h-.99v-1.5h.99Zm0,2.34h-.99v-1.5h.99Zm-4.46-1.5h.93v1.5h-.93Zm2.68,0v1.5h-.97v-1.5Zm-.97-.84v-1.5h.97v1.5Zm-1.71-1.5h.93v1.5h-.93Zm-.84,1.5h-1.36v.84h1.36v1.5h-1.21v.84h8.59v-.84H-21.9v-1.5h1.35v-.84H-21.9v-1.5h.98v-.82h-6.15a7,7,0,0,0,.48-.84l-.91-.26a6.722,6.722,0,0,1-2.1,2.5,6.082,6.082,0,0,1,.77.61A8.388,8.388,0,0,0-28.07-6ZM-28.64.8a5.258,5.258,0,0,0,1.2-2.04l-.9-.22A4.461,4.461,0,0,1-29.52.43Zm2.05-1.97a11.05,11.05,0,0,1,.2,1.86l.91-.13a11.1,11.1,0,0,0-.25-1.82Zm2,.01A9.8,9.8,0,0,1-24.03.7l.92-.18a9.261,9.261,0,0,0-.61-1.82Zm1.99-.06A12.509,12.509,0,0,1-21.34.8l.94-.33A12.54,12.54,0,0,0-21.72-1.5Zm9.75-5.32a8.066,8.066,0,0,0-1.58-1.21l-.47.63a7.237,7.237,0,0,1,1.56,1.29Zm-.43,2.38a8.363,8.363,0,0,0-1.67-1.13l-.44.67a7.664,7.664,0,0,1,1.65,1.21Zm-2.99-3.65a17.7,17.7,0,0,1-.61,2.28l.6.19c.25-.58.56-1.51.81-2.29Zm-2,2.27a10.2,10.2,0,0,0-.55-2.23l-.67.17a9.749,9.749,0,0,1,.5,2.26ZM-17.1-4.2h1.56v-.87H-17.1V-8.34h-.87v3.27h-1.55v.87h1.27a9.882,9.882,0,0,1-1.44,2.87,4.974,4.974,0,0,1,.45.93,10.387,10.387,0,0,0,1.27-2.65V.78h.87V-3.04c.33.53.71,1.16.88,1.52l.59-.73c-.21-.3-1.17-1.52-1.47-1.84Zm6.75,2.01-.13-.85-1.11.19V-8.38h-.87v5.69l-3.11.56.15.86,2.96-.54V.79h.87V-1.97ZM-8.3-7.02h6.58v1.39h.97V-7.89H-9.22v2.26h.92ZM-.55-2.27H-2.48c.05-.41.09-.88.14-1.42.02-.12.03-.4.03-.4H-6.68c.07-.33.15-.69.22-1.05h4.14v-.8H-6.29c.06-.34.13-.66.18-.97L-7.04-7c-.2,1.27-.57,2.94-.85,3.96l.94.09.08-.32h3.56c-.03.37-.07.7-.1,1H-9.43v.87h5.89A2.3,2.3,0,0,1-3.98-.17a.654.654,0,0,1-.48.12A16.11,16.11,0,0,1-6.07-.12a1.99,1.99,0,0,1,.33.88A15.054,15.054,0,0,0-4.13.78,1.266,1.266,0,0,0-3.21.41,3.339,3.339,0,0,0-2.6-1.4H-.55ZM7.17-5.14H2.97V-5.7h4.2Zm0,1.12H2.97v-.56h4.2Zm0,1.13H2.97v-.58h4.2ZM4.49-6.27H2.08v3.96H8.11V-6.27H5.47v-.55h3.7v-.8H5.47V-8.4H4.49v.78H.89v.8h3.6ZM9.41-1.82H.61v.77h8.8ZM3.42-.95A10.783,10.783,0,0,1,.58.16,6.436,6.436,0,0,1,1.22.8a12.17,12.17,0,0,0,3-1.22Zm2.4.56A26.316,26.316,0,0,1,8.7.8L9.5.17C8.75-.16,7.52-.62,6.43-.99Zm7.14-5.03H14.3V-6.3H12.96V-8.39h-.89V-6.3H10.54v.88h1.41a10.156,10.156,0,0,1-1.64,3.57,5.289,5.289,0,0,1,.46.85,9.909,9.909,0,0,0,1.3-2.63V.78h.89V-3.6a14.149,14.149,0,0,1,.88,1.36l.56-.75c-.2-.26-1.09-1.31-1.44-1.67ZM15.6-.73V-2.26h2.72V-.73Zm2.72-6.22v1.47H15.6V-6.95ZM15.6-4.63h2.72v1.52H15.6Zm-.89-3.2V.71h.89V.12h2.72V.66h.93V-7.83Zm13.81.02a9.184,9.184,0,0,1-.78,1.61l.69.27a18.2,18.2,0,0,0,.98-1.59ZM29.56-4.6A20.972,20.972,0,0,0,27.1-6.23a10.041,10.041,0,0,0,.28-2.16h-.91c-.09,2.05-.32,3.21-2.37,3.84a2.88,2.88,0,0,1,.53.74,3.506,3.506,0,0,0,2.16-1.64,17.512,17.512,0,0,1,2.16,1.56ZM28.45-1.55c.32-.43.72-1.11,1.07-1.71l-.91-.3a10.143,10.143,0,0,1-.88,1.74Zm-3.7.22a3.57,3.57,0,0,0,.97-1.99l-.82-.17A3.008,3.008,0,0,1,24-1.75Zm.26-6.43a2.992,2.992,0,0,1-.76,1.63l.71.34a3.15,3.15,0,0,0,.81-1.82Zm-1.24-.3H20.9v.73h2.87Zm.36,1.32H20.4V-6h3.73Zm-.34,1.36H20.86v.72h2.93ZM20.86-3.32h2.93v-.73H20.86ZM23-1.95V-.51H21.65V-1.95Zm.8-.75H20.85V.66h.8V.24H23.8Zm3.54-1.54h-.95v1.46c0,.6-.41,2.07-2.55,2.83a3.788,3.788,0,0,1,.53.75,4.017,4.017,0,0,0,2.5-2.36A3.826,3.826,0,0,0,29.12.8a7.9,7.9,0,0,1,.54-.79,3.184,3.184,0,0,1-2.32-2.79Z" transform="translate(923 46)" fill="#fff"/>
  </g>
</svg>
