<svg xmlns="http://www.w3.org/2000/svg" xmlns:xlink="http://www.w3.org/1999/xlink" width="48" height="22" viewBox="0 0 48 22">
  <defs>
    <linearGradient id="linear-gradient" x1="0.5" y1="-0.008" x2="0.5" y2="1.01" gradientUnits="objectBoundingBox">
      <stop offset="0" stop-color="#bba368"/>
      <stop offset="1" stop-color="#a28a5c"/>
    </linearGradient>
  </defs>
  <g id="fRserverBtn-yoyaku_sp" transform="translate(-819 -26)">
    <rect id="長方形_117" data-name="長方形 117" width="48" height="22" transform="translate(819 26)" fill="url(#linear-gradient)"/>
    <path id="パス_86" data-name="パス 86" d="M-14.01-3.965H-14.6a3.18,3.18,0,0,1,.035.43q0,.255-.015.48h-.8c-.2,0-.42-.015-.61-.03v.52c.19-.015.425-.02.61-.02h.76A3.108,3.108,0,0,1-15.535-.62a2.668,2.668,0,0,1-.575.42l.46.375a3.586,3.586,0,0,0,1.54-2.76h1.28a7.232,7.232,0,0,1-.235,2.02.264.264,0,0,1-.285.17,5.724,5.724,0,0,1-.725-.06l.06.525c.255.02.545.035.815.035a.558.558,0,0,0,.58-.34,9.733,9.733,0,0,0,.3-2.425c0-.06.02-.17.035-.255l-.35-.17a2.273,2.273,0,0,1-.345.03h-1.08c.01-.155.02-.32.025-.49C-14.03-3.665-14.02-3.85-14.01-3.965Zm4.88-.075h-.6a2.268,2.268,0,0,1,.035.415v.43h-1.09a4.751,4.751,0,0,1-.485-.025,3.722,3.722,0,0,1,.02.405v.875c0,.11-.01.255-.02.36h.545a2.3,2.3,0,0,1-.02-.33v-.82h2.66a3.469,3.469,0,0,1-.46,1.38,2.571,2.571,0,0,1-1.26.94,3.139,3.139,0,0,1-.6.165L-10,.23A3.187,3.187,0,0,0-8-1.225a4.651,4.651,0,0,0,.48-1.465,1.879,1.879,0,0,1,.085-.34l-.345-.215a1.1,1.1,0,0,1-.375.05H-9.16v-.43A3.577,3.577,0,0,1-9.13-4.04Zm3.1.315-.365.39a10.845,10.845,0,0,1,1.25,1.06l.395-.4A10.492,10.492,0,0,0-6.035-3.725ZM-6.55-.38l.335.515A5.513,5.513,0,0,0-4.3-.61,5.112,5.112,0,0,0-2.545-2.42l-.3-.545A4.761,4.761,0,0,1-4.585-1.08,5.2,5.2,0,0,1-6.55-.38Zm5.525-.275c0,.535.17.8,1.195.8A11.608,11.608,0,0,0,1.73.035L1.75-.5A7.923,7.923,0,0,1,.18-.35C-.4-.35-.505-.46-.505-.79V-2.205c.81-.165,1.62-.325,1.735-.35A4.68,4.68,0,0,1,.38-1.44l.435.255A7.183,7.183,0,0,0,1.845-2.64c.04-.075.1-.17.14-.23l-.375-.3a1.133,1.133,0,0,1-.3.1C1.09-3.01.29-2.85-.505-2.7V-3.39a3.451,3.451,0,0,1,.04-.51h-.6a3.4,3.4,0,0,1,.035.51v.79c-.515.1-.97.175-1.2.2l.095.525c.205-.045.625-.135,1.105-.23ZM6.14-3.83h-.6a3.866,3.866,0,0,1,.03.46v.86A2.191,2.191,0,0,1,5.16-.845a2.332,2.332,0,0,1-1.2.65L4.375.24A2.731,2.731,0,0,0,5.57-.49a2.575,2.575,0,0,0,.55-1.99v-.89C6.12-3.55,6.13-3.7,6.14-3.83Zm-2.32.04H3.245a3.23,3.23,0,0,1,.02.37v1.675c0,.145-.015.32-.02.4H3.82c-.01-.1-.02-.275-.02-.4V-3.42C3.8-3.56,3.81-3.685,3.82-3.79Zm4.245.065-.365.39a10.845,10.845,0,0,1,1.25,1.06l.395-.4A10.492,10.492,0,0,0,8.065-3.725ZM7.55-.38l.335.515A5.513,5.513,0,0,0,9.8-.61a5.112,5.112,0,0,0,1.755-1.81l-.305-.545A4.761,4.761,0,0,1,9.515-1.08,5.2,5.2,0,0,1,7.55-.38Zm7.905-3.66-.32.135a5.968,5.968,0,0,1,.4.69l.33-.14A7.246,7.246,0,0,0,15.455-4.04Zm.565-.215-.32.135a5.018,5.018,0,0,1,.41.69l.325-.145A5.911,5.911,0,0,0,16.02-4.255Zm-1.835.485-.58-.19a2.343,2.343,0,0,1-.185.45,4.277,4.277,0,0,1-1.57,1.655l.44.325a5.18,5.18,0,0,0,1.265-1.22H15.12a3.755,3.755,0,0,1-.76,1.475A4,4,0,0,1,12.355-.03l.465.42A4.546,4.546,0,0,0,14.82-1a4.949,4.949,0,0,0,.88-1.7,1.711,1.711,0,0,1,.14-.3l-.41-.25a1.335,1.335,0,0,1-.375.05h-1.2c.03-.045.05-.085.075-.13C13.98-3.43,14.085-3.62,14.185-3.77ZM-.46,3.64l-.085.03h-.92l.1-.155c-.13-.065-.3-.14-.49-.225A7.83,7.83,0,0,0-.625,2.31l-.34-.26-.1.025H-4.1V2.5h2.58a5.245,5.245,0,0,1-.81.59c-.295-.125-.595-.24-.845-.34l-.24.35c.39.155.885.375,1.29.565H-4.57v.445h2.01v1.73c0,.075-.025.1-.12.1s-.445,0-.77-.01a2.263,2.263,0,0,1,.175.45A3.238,3.238,0,0,0-2.34,6.31c.2-.065.265-.2.265-.455V4.115H-.83a4.932,4.932,0,0,1-.49.7l.39.235A6.914,6.914,0,0,0-.08,3.8ZM.28,4.665a3.779,3.779,0,0,1-.3,1.17A1.954,1.954,0,0,1,.34,6.01,4.63,4.63,0,0,0,.675,4.735Zm1.1.09a5.4,5.4,0,0,1,.305.96l.37-.13a5.453,5.453,0,0,0-.325-.945Zm-.11-1.21a4.3,4.3,0,0,1,.21.4L.81,3.97a15.694,15.694,0,0,0,1-1.42l-.4-.17a9.318,9.318,0,0,1-.5.87A2.913,2.913,0,0,0,.66,2.96c.18-.27.39-.665.57-1L.81,1.8a5.766,5.766,0,0,1-.41.9L.265,2.59.04,2.9a5.381,5.381,0,0,1,.63.7c-.1.14-.2.27-.29.39L.03,4l.04.41c.23-.015.5-.03.78-.045V6.4h.415V4.34l.37-.025a2.519,2.519,0,0,1,.09.28l.355-.17A4.225,4.225,0,0,0,1.6,3.4Zm3.28-.87H2.775A6.62,6.62,0,0,0,3.05,1.91L2.575,1.8A4.184,4.184,0,0,1,1.71,3.51a3.476,3.476,0,0,1,.41.28,3.887,3.887,0,0,0,.44-.67H4.085C4.02,4.955,3.94,5.7,3.78,5.855a.24.24,0,0,1-.215.085c-.12,0-.42-.005-.745-.03a1.047,1.047,0,0,1,.155.465,4.779,4.779,0,0,0,.77-.005.534.534,0,0,0,.44-.23c.21-.255.275-1.035.36-3.24ZM3.42,4.915A4.717,4.717,0,0,0,2.745,3.79l-.375.185a4.913,4.913,0,0,1,.64,1.15Z" transform="translate(843 36.5)" fill="#fff"/>
  </g>
</svg>
