<svg xmlns="http://www.w3.org/2000/svg" xmlns:xlink="http://www.w3.org/1999/xlink" width="48" height="22" viewBox="0 0 48 22">
  <defs>
    <linearGradient id="linear-gradient" x1="0.5" y1="-0.008" x2="0.5" y2="1.01" gradientUnits="objectBoundingBox">
      <stop offset="0" stop-color="#18aa7d"/>
      <stop offset="1" stop-color="#188865"/>
    </linearGradient>
  </defs>
  <g id="fRserverBtn-soudan_sp" transform="translate(-819 -26)">
    <rect id="長方形_117" data-name="長方形 117" width="48" height="22" transform="translate(819 26)" fill="url(#linear-gradient)"/>
    <path id="パス_85" data-name="パス 85" d="M-11.385-2.485h-.495v-.75h.495Zm0,1.17h-.495v-.75h.495Zm-2.23-.75h.465v.75h-.465Zm1.34,0v.75h-.485v-.75Zm-.485-.42v-.75h.485v.75Zm-.855-.75h.465v.75h-.465Zm-.42.75h-.68v.42h.68v.75h-.605V-.9h4.3v-.42h-.605v-.75h.675v-.42h-.675v-.75h.49v-.41h-3.075a3.5,3.5,0,0,0,.24-.42l-.455-.13a3.361,3.361,0,0,1-1.05,1.25,3.041,3.041,0,0,1,.385.305,4.194,4.194,0,0,0,.38-.36ZM-14.32.4a2.629,2.629,0,0,0,.6-1.02l-.45-.11a2.23,2.23,0,0,1-.59.945ZM-13.3-.585a5.525,5.525,0,0,1,.1.93L-12.74.28a5.549,5.549,0,0,0-.125-.91Zm1,0a4.9,4.9,0,0,1,.28.93l.46-.09a4.63,4.63,0,0,0-.3-.91Zm.995-.03A6.254,6.254,0,0,1-10.67.4l.47-.165a6.27,6.27,0,0,0-.66-.985Zm4.875-2.66a4.033,4.033,0,0,0-.79-.605l-.235.315a3.619,3.619,0,0,1,.78.645ZM-6.64-2.08a4.181,4.181,0,0,0-.835-.565l-.22.335a3.832,3.832,0,0,1,.825.6Zm-1.5-1.825a8.847,8.847,0,0,1-.3,1.14l.3.1c.125-.29.28-.755.405-1.145Zm-1,1.135A5.1,5.1,0,0,0-9.41-3.885l-.335.085a4.875,4.875,0,0,1,.25,1.13Zm.585.67h.78v-.435h-.78V-4.17h-.435v1.635H-9.76V-2.1h.635a4.941,4.941,0,0,1-.72,1.435A2.487,2.487,0,0,1-9.62-.2a5.193,5.193,0,0,0,.635-1.325V.39h.435V-1.52c.165.265.355.58.44.76l.295-.365c-.105-.15-.585-.76-.735-.92ZM-5.175-1.1-5.24-1.52l-.555.095V-4.19H-6.23v2.845l-1.555.28.075.43,1.48-.27V.4H-5.8V-.985ZM-4.15-3.51H-.86v.7h.485v-1.13H-4.61v1.13h.46ZM-.275-1.135H-1.24c.025-.2.045-.44.07-.71.01-.06.015-.2.015-.2H-3.34c.035-.165.075-.345.11-.525h2.07v-.4H-3.145c.03-.17.065-.33.09-.485L-3.52-3.5c-.1.635-.285,1.47-.425,1.98l.47.045.04-.16h1.78c-.015.185-.035.35-.05.5h-3.01V-.7H-1.77a1.152,1.152,0,0,1-.22.615.327.327,0,0,1-.24.06,8.055,8.055,0,0,1-.8-.035A1,1,0,0,1-2.87.38a7.527,7.527,0,0,0,.8.01.633.633,0,0,0,.46-.185A1.669,1.669,0,0,0-1.3-.7H-.275ZM3.585-2.57h-2.1v-.28h2.1Zm0,.56h-2.1v-.28h2.1Zm0,.565h-2.1v-.29h2.1Zm-1.34-1.69H1.04v1.98H4.055v-1.98H2.735V-3.41h1.85v-.4H2.735V-4.2h-.49v.39H.445v.4h1.8ZM4.705-.91H.305v.385h4.4Zm-3,.435A5.391,5.391,0,0,1,.29.08,3.218,3.218,0,0,1,.61.4a6.085,6.085,0,0,0,1.5-.61Zm1.2.28A13.158,13.158,0,0,1,4.35.4l.4-.315C4.375-.08,3.76-.31,3.215-.5ZM6.48-2.71h.67v-.44H6.48V-4.2H6.035V-3.15H5.27v.44h.7a5.078,5.078,0,0,1-.82,1.785,2.644,2.644,0,0,1,.23.425,4.955,4.955,0,0,0,.65-1.315V.39H6.48V-1.8a7.074,7.074,0,0,1,.44.68L7.2-1.5c-.1-.13-.545-.655-.72-.835ZM7.8-.365V-1.13H9.16v.765Zm1.36-3.11v.735H7.8v-.735ZM7.8-2.315H9.16v.76H7.8Zm-.445-1.6V.355H7.8V.06H9.16V.33h.465V-3.915Zm6.905.01a4.592,4.592,0,0,1-.39.805l.345.135a9.1,9.1,0,0,0,.49-.8ZM14.78-2.3a10.486,10.486,0,0,0-1.23-.815,5.02,5.02,0,0,0,.14-1.08h-.455c-.045,1.025-.16,1.605-1.185,1.92a1.44,1.44,0,0,1,.265.37,1.753,1.753,0,0,0,1.08-.82,8.756,8.756,0,0,1,1.08.78ZM14.225-.775c.16-.215.36-.555.535-.855l-.455-.15a5.071,5.071,0,0,1-.44.87Zm-1.85.11a1.785,1.785,0,0,0,.485-1l-.41-.085a1.5,1.5,0,0,1-.45.87Zm.13-3.215a1.5,1.5,0,0,1-.38.815l.355.17a1.575,1.575,0,0,0,.405-.91Zm-.62-.15H10.45v.365h1.435Zm.18.66H10.2V-3h1.865Zm-.17.68H10.43v.36H11.9ZM10.43-1.66H11.9v-.365H10.43Zm1.07.685v.72h-.675v-.72Zm.4-.375H10.425V.33h.4V.12H11.9Zm1.77-.77h-.475v.73c0,.3-.2,1.035-1.275,1.415A1.894,1.894,0,0,1,12.185.4a2.009,2.009,0,0,0,1.25-1.18A1.913,1.913,0,0,0,14.56.4a3.95,3.95,0,0,1,.27-.4,1.592,1.592,0,0,1-1.16-1.4Z" transform="translate(843 39.111)" fill="#fff"/>
  </g>
</svg>
