<svg xmlns="http://www.w3.org/2000/svg" xmlns:xlink="http://www.w3.org/1999/xlink" width="106.439" height="30.172" viewBox="0 0 106.439 30.172">
  <defs>
    <linearGradient id="linear-gradient" x1="0.5" y1="-0.008" x2="0.5" y2="1.01" gradientUnits="objectBoundingBox">
      <stop offset="0" stop-color="#f3c4c8"/>
      <stop offset="1" stop-color="#ea9297"/>
    </linearGradient>
  </defs>
  <g id="グループ_10" data-name="グループ 10" transform="translate(-4908.937 -5766.108)">
    <rect id="長方形_3" data-name="長方形 3" width="106.439" height="30.172" transform="translate(4908.937 5766.108)" fill="url(#linear-gradient)"/>
    <g id="グループ_9" data-name="グループ 9" transform="translate(4924.291 5776.059)">
      <path id="パス_43" data-name="パス 43" d="M4921.088,5775.883a9.061,9.061,0,0,1-.833.79,6.516,6.516,0,0,0-.845-.669,7.376,7.376,0,0,0,2.3-2.742l1,.284a7.592,7.592,0,0,1-.527.923h6.746v.9h-1.075v1.646h1.481v.92h-1.481v1.646h1.328v.921h-9.422v-.921h1.326v-1.646h-1.49v-.92h1.49Zm-1.589,7.053a4.893,4.893,0,0,0,1.295-2.072l.987.239a5.781,5.781,0,0,1-1.316,2.239Zm2.512-5.923h1.021v-1.646h-1.021Zm0,2.566h1.021v-1.646h-1.021Zm1.645,1.5a12.23,12.23,0,0,1,.274,2l-1,.143a12.13,12.13,0,0,0-.22-2.039Zm1.295-4.069v-1.646h-1.065v1.646Zm-1.065.92v1.646h1.065v-1.646Zm1.975,3.106a10.066,10.066,0,0,1,.669,2l-1.009.2a10.745,10.745,0,0,0-.614-2.04Zm1.041-5.672h-1.084v1.646h1.084Zm0,2.565h-1.084v1.646h1.084Zm1.153,2.886a13.824,13.824,0,0,1,1.448,2.161l-1.032.362a13.582,13.582,0,0,0-1.381-2.215Z" transform="translate(-4919.411 -5773.228)" fill="#fff"/>
      <path id="パス_44" data-name="パス 44" d="M4930.042,5777.975c.33.352,1.382,1.688,1.613,2.018l-.648.8c-.185-.4-.6-1.088-.964-1.668v4.19h-.955v-4.2a11.359,11.359,0,0,1-1.392,2.907,5.581,5.581,0,0,0-.493-1.02,10.854,10.854,0,0,0,1.578-3.147h-1.392v-.955h1.7v-3.587h.955v3.587h1.711v.955h-1.711Zm-2.062-1.382a11.409,11.409,0,0,0-.548-2.468l.723-.187a11.2,11.2,0,0,1,.6,2.447Zm3.861-2.5c-.286.856-.614,1.876-.9,2.5l-.647-.2a19.327,19.327,0,0,0,.658-2.5Zm4.245,6.209v3.028h-.955v-2.852l-3.247.592-.164-.943,3.41-.614v-6.241h.955v6.064l1.217-.208.143.933Zm-2.357-1.59a8.419,8.419,0,0,0-1.8-1.316l.482-.736a9.539,9.539,0,0,1,1.833,1.24Zm.438-2.644a7.946,7.946,0,0,0-1.711-1.416l.515-.69a8.8,8.8,0,0,1,1.734,1.327Z" transform="translate(-4916.328 -5773.225)" fill="#fff"/>
      <path id="パス_45" data-name="パス 45" d="M4943.551,5774.249a7.875,7.875,0,0,0-.4.877,15.445,15.445,0,0,1-1.569,3.115,29.409,29.409,0,0,1,2.665,2.468l-.888.976a23.139,23.139,0,0,0-2.512-2.468,13.874,13.874,0,0,1-4.2,3.479l-1-.889a12.058,12.058,0,0,0,4.277-3.357,32.569,32.569,0,0,0-3.015-2.149l.735-.877c.91.581,2.116,1.414,2.993,2.071a11.94,11.94,0,0,0,1.361-2.807,6.9,6.9,0,0,0,.241-.9Z" transform="translate(-4912.986 -5773.019)" fill="#fff"/>
      <path id="パス_46" data-name="パス 46" d="M4943.448,5776.35c.351.033,1.031.066,1.623.066h5.956c.538,0,.965-.044,1.229-.066v1.349c-.241-.011-.734-.044-1.217-.044h-5.968c-.614,0-1.262.021-1.623.044Z" transform="translate(-4909.896 -5772.005)" fill="#fff"/>
      <path id="パス_47" data-name="パス 47" d="M4950.971,5781.868a5.155,5.155,0,0,0,1.887-2.664,19,19,0,0,0,.318-4.376,3.42,3.42,0,0,0-.088-.889h1.272a8.3,8.3,0,0,0-.055.878,24.047,24.047,0,0,1-.34,4.683,6.169,6.169,0,0,1-1.953,3.07Zm5.046.1a3.109,3.109,0,0,0,.076-.691v-6.493a8.152,8.152,0,0,0-.065-.878h1.272a6.625,6.625,0,0,0-.056.878v6.064a7.686,7.686,0,0,0,2.984-2.522l.658.944a11.5,11.5,0,0,1-3.73,3.027,2.29,2.29,0,0,0-.416.273Z" transform="translate(-4906.919 -5772.973)" fill="#fff"/>
      <path id="パス_48" data-name="パス 48" d="M4968.128,5780.019a5.961,5.961,0,0,1-1.262,1.732c.275.472.592.724.943.724.3,0,.406-.241.461-1.162a2.333,2.333,0,0,0,.68.449c-.153,1.229-.439,1.58-1.206,1.58a1.837,1.837,0,0,1-1.548-1.021,8.029,8.029,0,0,1-1.787,1,4.2,4.2,0,0,0-.549-.657,6.7,6.7,0,0,0,1.963-1.1,10.006,10.006,0,0,1-.547-1.953h-1.492c-.022.186-.043.361-.067.537a10.258,10.258,0,0,1,1.405,1.032l-.537.7a10.082,10.082,0,0,0-1.043-.855,3.846,3.846,0,0,1-1.436,2.28,2.367,2.367,0,0,0-.6-.669,3.835,3.835,0,0,0,1.37-3.027h-.733v-.549l-.373.526c-.131-.339-.406-.933-.67-1.447v5.177h-.921V5778.7a10.99,10.99,0,0,1-1.053,2.588,5.881,5.881,0,0,0-.472-.855,12.87,12.87,0,0,0,1.437-3.927h-1.206v-.933h1.294v-2.313h.921v2.313h1.086v.933H4961.1v.472c.275.4.912,1.437,1.131,1.822h2.917a41.889,41.889,0,0,1-.328-5.529h.9c-.011.637,0,1.26.01,1.865l.352-.483c.077.055.143.108.219.165a12,12,0,0,0,.616-1.47l.788.3c-.307.537-.637,1.151-.9,1.589a4.624,4.624,0,0,1,.384.406c.241-.415.461-.821.625-1.172l.724.339c-.449.745-1.01,1.624-1.514,2.3l.933-.065c-.077-.187-.153-.373-.241-.538l.592-.241a5.672,5.672,0,0,1,.625,1.6l-.625.285a4.375,4.375,0,0,0-.109-.44c-.384.045-.758.077-1.108.122a5.216,5.216,0,0,1,1.021.744l-.23.222h.877v.811h-2.588a9.851,9.851,0,0,0,.341,1.294,5.216,5.216,0,0,0,.768-1.206Zm-5.748-2.709c.23-.3.461-.648.7-1.021a7.505,7.505,0,0,0-1.13-1.075l.406-.56c.076.055.142.108.22.176a15.291,15.291,0,0,0,.612-1.48l.779.307c-.3.538-.614,1.151-.888,1.59.143.131.273.274.384.395.241-.415.461-.821.624-1.172l.726.339c-.472.79-1.064,1.723-1.6,2.446l.845-.055c-.065-.208-.153-.417-.23-.6l.593-.208a5.7,5.7,0,0,1,.56,1.6l-.636.264a2.6,2.6,0,0,0-.078-.363c-.757.089-1.47.165-2.115.22l-.143-.779Zm3.8-.143c.2-.253.406-.56.616-.878a8.078,8.078,0,0,0-1.063-1.032,29.1,29.1,0,0,0,.285,3.545h1.238a5.519,5.519,0,0,0-.735-.539l.461-.427-.986.108-.154-.756Z" transform="translate(-4903.879 -5773.228)" fill="#fff"/>
      <path id="パス_49" data-name="パス 49" d="M4970.585,5774.016a10.016,10.016,0,0,1,1.372,2.469l-.912.373c-.054-.176-.142-.384-.24-.614-1.5.088-3.018.186-4.136.251l-.088-.976c.253-.012.526-.022.833-.033a14.645,14.645,0,0,0,.911-2.25l1.063.242c-.275.658-.6,1.36-.91,1.963l1.875-.088a11.33,11.33,0,0,0-.624-1.009Zm.625,8.216c0,.482-.1.745-.416.911a3.968,3.968,0,0,1-1.493.164,3.916,3.916,0,0,0-.34-.921c.461.022.911.022,1.063.011s.176-.043.176-.176v-1.042h-2.017v2.139h-.955v-6.164h3.981Zm-3.026-4.223v.778h2.017v-.778Zm2.017,2.392v-.833h-2.017v.833Zm3.391-2.314c-1.153,0-1.437-.286-1.437-1.328v-3.466h1.021V5775a18.182,18.182,0,0,0,2.282-.966l.658.734a24.166,24.166,0,0,1-2.939,1.065v.91c0,.362.076.429.537.429h1.492c.4,0,.461-.176.5-1.2a2.637,2.637,0,0,0,.921.373c-.108,1.371-.406,1.733-1.338,1.733Zm1.689,4.267c.427,0,.5-.209.549-1.383a3.317,3.317,0,0,0,.91.384c-.12,1.493-.406,1.887-1.371,1.887H4973.6c-1.151,0-1.447-.3-1.447-1.316v-3.564h1.009v1.623a12.319,12.319,0,0,0,2.4-1.1l.657.746a15.43,15.43,0,0,1-3.06,1.195v1.086c0,.373.088.439.571.439Z" transform="translate(-4900.739 -5773.237)" fill="#fff"/>
    </g>
  </g>
</svg>
