<svg xmlns="http://www.w3.org/2000/svg" width="26.774" height="21.912" viewBox="0 0 26.774 21.912">
  <path id="icon_tel" d="M188.667,92.678a10.049,10.049,0,0,0-1.029-3.319c-1.061-1.458-3.549-3.986-12.352-3.986S163.995,87.9,162.934,89.36a10.049,10.049,0,0,0-1.029,3.319,1.32,1.32,0,0,0,1.336,1.458h3.98a1.41,1.41,0,0,0,1.415-1.463s-.029-1.164-.031-1.74c-.005-1.29,1.459-1.491,1.938-1.491v2.393c0,2.509-2.487,3.509-4.771,7.445a17.51,17.51,0,0,0-1.779,5.667,2.2,2.2,0,0,0,2.216,2.339h18.154a2.2,2.2,0,0,0,2.217-2.339A17.511,17.511,0,0,0,184.8,99.28c-2.284-3.937-4.771-4.937-4.771-7.445h0V89.442c.479,0,1.943.2,1.938,1.491,0,.576-.031,1.74-.031,1.74a1.41,1.41,0,0,0,1.415,1.463h3.98A1.32,1.32,0,0,0,188.667,92.678Zm-7.854,7.23a5.527,5.527,0,1,1-5.527-5.526A5.527,5.527,0,0,1,180.813,99.908Zm-3.128-8.59h-4.8V89.442h4.8Z" transform="translate(-161.899 -85.374)"/>
</svg>
