<svg xmlns="http://www.w3.org/2000/svg" width="230" height="75.5" viewBox="0 0 230 75.5">
  <g id="onayamiBtn3" transform="translate(-1051.23 -2693.381)">
    <rect id="長方形_66" data-name="長方形 66" width="230" height="75.5" rx="10" transform="translate(1051.23 2693.381)" fill="#d4145a"/>
    <path id="パス_89" data-name="パス 89" d="M-41.04-11.68c.08,0,.24-.016.24-.176a.38.38,0,0,0-.16-.24l-.752-.656A.52.52,0,0,0-42-12.928c-.08,0-.176.112-.256.208l-.48.656h-2.912c-.032,0-1.2,0-2.464-.112l.32.64A10.858,10.858,0,0,1-45.9-11.68h.368a16.442,16.442,0,0,1-.16,2.1h-.544l-1.392-.64a6.358,6.358,0,0,1,.112.96c.032.448.032,4.08.032,4.56,0,.4-.032,2.224-.032,2.592,0,.224.112.336.368.336.368,0,.784-.208.736-.656h3.536c0,.384.016.528.352.528.432,0,.832-.16.832-.768,0-.144-.032-.528-.032-.72-.1-2.32-.1-2.928-.128-5.408.416-.384.464-.432.464-.56,0-.1-.1-.176-.176-.24l-.624-.464a.63.63,0,0,0-.256-.128c-.08,0-.128.064-.224.16l-.448.448h-2.288a19.06,19.06,0,0,0,1.3-2.1Zm-1.84,4.72V-5.1h-3.568V-6.96Zm0-2.24v1.856h-3.568V-9.2Zm0,4.48v1.9h-3.568v-1.9Zm-7.984-6.528v-1.04c.3-.16.416-.256.416-.4,0-.176-.144-.224-.336-.272l-1.456-.384a6.124,6.124,0,0,1,.336,2.1h-.56c-.272,0-1.28-.016-2.448-.112l.32.64a10.607,10.607,0,0,1,1.872-.144h4.448c.128,0,.24-.048.24-.176,0-.064-.048-.144-.16-.24l-.544-.48c-.128-.112-.208-.176-.3-.176-.064,0-.128.08-.24.208l-.384.48Zm.016,3.744a7.739,7.739,0,0,0,.64-.8,10.954,10.954,0,0,1,.816-.96c.416-.176.592-.272.592-.432,0-.1-.064-.16-.224-.224l-1.472-.64A7.607,7.607,0,0,1-51.152-7.5h-1.9l-1.376-.576A17.2,17.2,0,0,1-54.208-5.1c0,.672,0,4.512-1.168,6.256l.112.032c1.952-1.92,2.144-4.576,2.1-8.3h5.056c.112,0,.24-.032.24-.176a.433.433,0,0,0-.144-.256L-48.528-8c-.1-.08-.192-.176-.288-.176-.064,0-.128.08-.24.192l-.448.48ZM-53.68-10.32A6.388,6.388,0,0,1-53.136-8.7c.1.48.192.848.624.848a.646.646,0,0,0,.656-.72c0-.848-.848-1.424-1.744-1.824Zm3.216,3.488a8.433,8.433,0,0,1-2.752,2.864l.032.112a10.857,10.857,0,0,0,3.248-1.76c.448.016.672-.016.672-.192,0-.08-.048-.144-.144-.224Zm1.36,3.488a7.572,7.572,0,0,1-.48.7A17.625,17.625,0,0,1-53.7.384L-53.68.5A12.818,12.818,0,0,0-48.608-2.08c.32,0,.592,0,.592-.24a.332.332,0,0,0-.128-.256Zm4.752,1.632A7.4,7.4,0,0,1-42.608.08c.48.7.656.976,1.088.976a.523.523,0,0,0,.528-.544c0-.96-1.408-1.9-3.328-2.336Zm-1.968-.272A11.64,11.64,0,0,1-50.5.96l.016.128c1.392-.1,2.464-.56,4.672-1.76.464.016.656.016.656-.192A.408.408,0,0,0-45.3-1.1Zm-3.152-3.264c-.24.624-1.5,1.888-3.584,3.184l.016.112a12.444,12.444,0,0,0,4.064-2.032c.432-.032.576-.048.576-.224a.417.417,0,0,0-.144-.272ZM-24.08-7.92v-.128a10.859,10.859,0,0,1-7.28-4.224c.272-.064.336-.208.336-.288a.214.214,0,0,0-.128-.208l-1.5-.816a2.225,2.225,0,0,1-.432,1.008,21.075,21.075,0,0,1-6.528,6.928l.064.1c2.336-.608,5.84-3.648,7.84-6.672h.1a12.453,12.453,0,0,0,6.224,5.632A3.121,3.121,0,0,1-24.08-7.92ZM-25.12.256a.344.344,0,0,0-.16-.24l-.976-.8c-.128-.1-.208-.176-.288-.176s-.16.1-.208.144l-.768.864h-3.9V-3.04h4.368c.112,0,.24-.032.24-.176,0-.112-.08-.176-.16-.24l-.944-.752c-.176-.144-.24-.16-.3-.16-.08,0-.176.1-.24.192l-.576.752h-2.384V-6.3H-27.6c.1,0,.24-.016.24-.176a.342.342,0,0,0-.16-.24l-1.056-.8a.385.385,0,0,0-.272-.128c-.064,0-.128.064-.224.176l-.624.784h-4.048c-.224,0-1.36-.016-2.448-.112l.3.64A11.394,11.394,0,0,1-34-6.3h1.456v2.88h-2.08c-.48,0-1.472-.032-2.464-.112l.32.64A9.874,9.874,0,0,1-34.88-3.04h2.336V.048H-36c-.144,0-1.36-.016-2.464-.112l.32.64A11.355,11.355,0,0,1-36.256.432h10.9C-25.264.432-25.12.416-25.12.256ZM-8-3.168c-2.352-.624-4.512-3.344-5.616-6.24H-8.96c.112,0,.256-.016.256-.176a.344.344,0,0,0-.16-.24l-.976-.768a.586.586,0,0,0-.288-.16c-.08,0-.176.1-.272.192l-.72.768h-2.672c0-.352.032-2.08.032-2.464.16-.1.464-.3.464-.5,0-.128-.1-.192-.208-.224l-1.7-.416c.256.688.32.848.368,3.6H-16.4c-.48,0-1.472-.032-2.464-.112l.32.64a10.607,10.607,0,0,1,1.872-.144h1.488a19.49,19.49,0,0,1-4.224,7.056l.016.064c1.968-.816,3.888-3.84,4.576-5.2-.016,3.68-.016,4.1-.032,4.928h-.336c-.224,0-1.36-.016-2.448-.112l.32.64a10.607,10.607,0,0,1,1.872-.144h.592c-.016.3-.016.768-.048,1.472-.032.432-.112,1.136-.112,1.568a.4.4,0,0,0,.432.448c.608,0,.944-.272.944-.8,0-.16-.048-2.352-.064-2.688h2.448c.112,0,.24-.016.24-.16,0-.112-.064-.176-.16-.256l-.752-.64c-.1-.08-.192-.176-.3-.176-.1,0-.192.128-.256.208l-.5.64h-.72c-.016-.72-.1-4.512-.112-5.024,0-.288-.016-.4,0-1.44.432,2.112,2.336,5.616,4.272,6.944a3.327,3.327,0,0,1,1.5-.976Zm-9.648-9.376a.235.235,0,0,0-.112-.192l-1.5-.8a25.029,25.029,0,0,1-4.336,8.3l.08.1a10.8,10.8,0,0,0,2.944-3.088c-.048,2.8-.08,3.9-.08,4.048-.016.784-.208,4.752-.208,4.88,0,.24,0,.56.544.56a.7.7,0,0,0,.784-.8c0-.24-.064-4.512-.064-4.768,0-.72.032-2.656.048-4.176.336-.3.448-.448.448-.544,0-.128-.1-.176-.208-.24l-.416-.256a26.053,26.053,0,0,0,1.456-2.656C-17.84-12.288-17.648-12.352-17.648-12.544ZM7.664-10.912c0-1.216-2.016-1.28-2.3-1.28a4.718,4.718,0,0,0-.992.112,5.614,5.614,0,0,1,1.888.864c.16.112.864.752,1.072.752C7.584-10.464,7.664-10.7,7.664-10.912ZM6.192-9.7c0-.928-1.712-1.312-2.56-1.312a3.3,3.3,0,0,0-.64.064,5.613,5.613,0,0,1,2,1.2c.384.32.624.528.768.528A.45.45,0,0,0,6.192-9.7Zm.784,4.512c0-2.16-2.816-4.016-4.448-4.08A6.781,6.781,0,0,1,5.52-6.128c0,.544-1.76.688-2,.7V-5.3a6.569,6.569,0,0,1,2.176.56,5.481,5.481,0,0,0,.88.4C6.976-4.336,6.976-5.056,6.976-5.184ZM1.616-6.192c0-1.264-.08-2.768-1.952-2.768a3.763,3.763,0,0,0-.864.1c.3-.688.576-1.264.928-1.9a1.422,1.422,0,0,0,.24-.656c0-.4-.976-1.136-1.824-1.136a1.344,1.344,0,0,0-.8.256c.224.08,1.168.5,1.168,1.136a10.708,10.708,0,0,1-.72,2.512c-.528.128-2.9.784-3.28.784-.448,0-.8-.288-1.088-.832a1.313,1.313,0,0,0-.192.64A1.623,1.623,0,0,0-5.44-6.592a1.234,1.234,0,0,0,.672-.288A13.459,13.459,0,0,1-2.512-7.9,27.127,27.127,0,0,1-5.888-1.632a1.4,1.4,0,0,0-.352.88c0,.368.192.752.512.752.352,0,.7-.624.912-1.024A77.955,77.955,0,0,0-1.472-8.208a4.547,4.547,0,0,1,1.056-.16C.656-8.368.656-7.248.656-6.624A10.564,10.564,0,0,1-.464-1.84a.726.726,0,0,1-.624.464c-.288,0-.592-.112-1.984-1.072l-.048.064C-2.08-.88-2.048-.752-1.936-.08c.048.272.112.528.48.528A2.648,2.648,0,0,0,.1-.576C.976-1.6,1.616-4.3,1.616-6.192ZM23.536-.48V-.608c-2.944-.784-4.928-2.08-6.112-4.48a13.2,13.2,0,0,1-1.216-3.36h6.48c.08,0,.24,0,.24-.176a.362.362,0,0,0-.16-.24L21.7-9.7a.7.7,0,0,0-.3-.16c-.08,0-.16.1-.24.192l-.72.832H16.048c.064-1.168.112-2.16.128-3.2.32-.208.544-.368.544-.544,0-.128-.144-.208-.288-.24l-1.84-.5a9.808,9.808,0,0,1,.352,2.816c0,.8-.048,1.3-.08,1.664H11.232c-.08,0-1.2,0-2.464-.1l.32.624a11.671,11.671,0,0,1,1.888-.144h3.84a14.905,14.905,0,0,1-.96,4A10.246,10.246,0,0,1,8.7.928l.064.128c5.888-1.616,6.912-6.288,7.2-9.1.608,4.288,2.272,6.9,5.744,8.816A2.933,2.933,0,0,1,23.536-.48ZM36.4-3.456c0-.24-.016-.416-.512-.96A28.359,28.359,0,0,1,33.744-7.04a20.661,20.661,0,0,0,2-.9c.208-.112.448-.272.448-.5,0-.24-.32-.464-.736-.464-.272,0-.336.048-.816.336a12.76,12.76,0,0,1-1.408.768,13.025,13.025,0,0,1-.976-1.872,10.274,10.274,0,0,0,1.9-.864c.32-.176.4-.32.4-.5,0-.24-.3-.448-.656-.448-.272,0-.336.048-.912.432a6.131,6.131,0,0,1-1.04.576,6.679,6.679,0,0,1-.224-.864c-.032-.144-.08-.928-.1-1.088-.08-.544-1.088-.672-1.424-.672a1.238,1.238,0,0,0-1.328.784,1.669,1.669,0,0,1,1.664.608c.112.208.544,1.312.656,1.552a6.516,6.516,0,0,1-2.192.432,3.147,3.147,0,0,1-1.456-.336A2.1,2.1,0,0,0,29.344-8.96a9.777,9.777,0,0,0,2.176-.464A20.675,20.675,0,0,0,32.528-7.5a10.013,10.013,0,0,1-3.248.672,4.243,4.243,0,0,1-1.92-.48,2.175,2.175,0,0,0,2,1.28,13.77,13.77,0,0,0,3.648-.736c1.152,1.648,1.6,2.3,1.648,2.384a.732.732,0,0,1,.16.352c0,.1-.064.1-.144.1a.312.312,0,0,1-.112-.016,17.151,17.151,0,0,0-3.616-.4c-1.232,0-3.44.16-3.44,2.32C27.5.72,31.792.72,33.008.72c.88,0,1.5,0,1.5-.592,0-.464-.608-.64-1.024-.64C33.216-.512,31.9-.4,31.6-.4c-1.072,0-3.408-.144-3.408-1.808,0-1.52,1.6-1.648,2.224-1.648a10.5,10.5,0,0,1,4.48,1.04c.672.5.752.544.912.544C36.224-2.272,36.4-3.1,36.4-3.456Zm18-1.216c0-1.856-2.112-4.8-3.9-4.8a1.409,1.409,0,0,0-.272.032A5.705,5.705,0,0,1,53.04-5.6a.4.4,0,0,1-.352.416c-.112.032-1.2.128-1.424.16v.1a3.843,3.843,0,0,1,1.7.64c.624.592.688.656.88.656C54.1-3.632,54.4-4.112,54.4-4.672ZM47.84-7.056,47.712-7.1C47.024-6.016,45.84-4.32,45.12-3.248c-.048.08-.208.288-.384.288-.432,0-1.392-1.168-1.392-3.136a13.854,13.854,0,0,1,.208-2.224,2.234,2.234,0,0,0,.064-.528c0-1.04-1.2-1.744-2.016-1.792a5.515,5.515,0,0,1,.56,1.312,24.652,24.652,0,0,1,.256,2.944c.272,4.56,2.544,5.36,3.1,5.36a.475.475,0,0,0,.5-.544c0-.128-.128-.736-.128-.864a.936.936,0,0,1,.032-.208C45.952-2.816,47.616-6.576,47.84-7.056ZM-95.568,8.915v1.552h-.784L-97.6,9.811a12.766,12.766,0,0,1,.16,2.56c0,.448-.064,2.656-.064,3.152,0,.112,0,.368.4.368.656,0,.64-.56.624-.832h.9l-.016,1.92h-.528c-.3,0-1.392-.016-2.464-.112l.32.64a11.355,11.355,0,0,1,1.888-.144h.784c-.016.72-.048,1.584-.112,2.56-.016.208-.016.32-.016.336,0,.192.08.4.448.4a.651.651,0,0,0,.7-.736c0-.064-.016-2.32-.016-2.56h2.16c.128,0,.24-.032.24-.176,0-.1-.064-.16-.144-.24l-.624-.56c-.1-.1-.176-.176-.272-.176-.112,0-.16.08-.272.208l-.4.56h-.688l-.016-1.92h.928c-.032.352-.048.656.336.656a.653.653,0,0,0,.688-.656c0-.528-.08-3.168-.08-3.76.368-.256.48-.32.48-.5,0-.1-.064-.176-.192-.256l-.624-.432A.657.657,0,0,0-93.344,10c-.08,0-.176.1-.224.144l-.272.32h-.768V8.915h2.752c.112,0,.24-.032.24-.176a.352.352,0,0,0-.144-.256l-.656-.592c-.032-.032-.16-.16-.272-.16-.08,0-.112.048-.24.208l-.48.592h-1.2V7.283c.192-.08.528-.24.528-.48,0-.192-.192-.24-.256-.272l-1.472-.448a10.834,10.834,0,0,1,.24,2.448h-.352c-.224,0-1.36-.016-2.464-.112l.32.64a9.874,9.874,0,0,1,1.888-.144Zm1.9,1.936v1.68h-.944v-1.68Zm0,2.064v1.76h-.944v-1.76Zm-2.816,1.76v-1.76h.928l-.016,1.76Zm0-2.144v-1.68h.912l.016,1.68Zm5.632,1.12-1.28-.656a14.506,14.506,0,0,1,.176,2.832c0,1.3-.016,2.608-.112,3.888a2.828,2.828,0,0,0-.016.3c0,.144,0,.4.32.4a.669.669,0,0,0,.752-.784c0-.464-.032-2.576-.032-3.008h.928c-.016.48-.048,2.624-.048,3.056,0,.3.08.384.288.384a.679.679,0,0,0,.752-.608c0-.448-.048-2.432-.048-2.832h.912c-.016.448-.128,2.416-.128,2.816,0,.32.032.5.368.5.688,0,.672-.432.672-.752.192.144.432.32.656,1.328,1.376-.272,1.376-1.056,1.376-1.5,0-.72-.032-3.936-.032-4.592.16-.112.464-.352.464-.48a.362.362,0,0,0-.16-.24l-.576-.432c-.1-.064-.176-.16-.24-.16-.1,0-.192.112-.256.176l-.368.368Zm3.456,2.592.016-2.208h1.056v2.208Zm-1.776,0-.016-2.208h.928l.016,2.208Zm2.848.384v1.616c0,.832,0,.928-.432.928a1.711,1.711,0,0,1-.576-.1l-.016.032c0-.288-.032-1.92-.048-2.48Zm-3.76-2.592-.032,2.208h-.928c0-.432.016-1.872.016-2.208Zm-2.336-1.76a13.317,13.317,0,0,0,3.872-4.64,10.548,10.548,0,0,0,3.5,4.336,2.59,2.59,0,0,1,1.328-1.088l.032-.1a7.239,7.239,0,0,1-4.608-3.3c.208-.1.384-.208.384-.368,0-.144-.128-.208-.24-.256l-1.28-.48c-.064.96-1.6,4-3.072,5.776Zm3.312-.608c-.112,0-1.024,0-1.92-.08l.3.576a8.805,8.805,0,0,1,1.36-.112h2.64c.1,0,.256-.016.256-.176,0-.064-.048-.128-.16-.24l-.608-.608c-.1-.1-.192-.192-.288-.192-.112,0-.192.128-.24.208l-.4.624Zm13.36-1.312c0-.128-.1-.208-.208-.3l-.432-.336c-.112-.08-.176-.128-.256-.128-.064,0-.144.048-.256.16l-.448.416h-2.432l-1.376-.56a6.051,6.051,0,0,1,.128,1.712c0,.352-.016.736-.032,1.088,0,.08-.016.288-.016.352,0,.16.032.416.384.416a.9.9,0,0,0,.512-.16.654.654,0,0,0,.208-.5H-77.1c0,.24.016.448.368.448a.611.611,0,0,0,.688-.64c0-.224-.032-1.312-.048-1.552C-75.84,10.579-75.744,10.467-75.744,10.355Zm-1.36,1.776h-2.864V10.547H-77.1Zm8.4,4.592c0-2.544-2.576-3.856-3.168-4.16.352-.72,1.584-3.088,1.968-3.792.544-.192.736-.24.736-.512a.474.474,0,0,0-.208-.352l-.736-.592c-.144-.112-.224-.16-.3-.16a.552.552,0,0,0-.272.144l-.544.432H-72.7l-1.36-.752a7.786,7.786,0,0,1,.112.912c.048.688.048,3.584.048,4.464,0,1.9-.016,3.808-.064,5.712,0,.336-.064,1.92-.064,2.288,0,.16,0,.544.48.544.816,0,.816-.688.816-1.024,0-1.872-.064-9.488-.128-11.76h1.728a33.643,33.643,0,0,1-1.04,4.512c1.344,1.216,2.288,2.064,2.288,3.92,0,1.168-.672,1.168-.96,1.168a7.045,7.045,0,0,1-1.568-.192l-.032.128a3.053,3.053,0,0,1,1.36,1.7A2.55,2.55,0,0,0-68.7,16.723Zm-5.5-7.84a.344.344,0,0,0-.16-.24l-.816-.7c-.128-.112-.208-.176-.3-.176-.08,0-.16.08-.24.208l-.464.7h-2V7.491c.224-.144.512-.336.512-.5s-.192-.224-.256-.24l-1.632-.432a6,6,0,0,1,.336,2.352h-1.184c-.48,0-1.456-.032-2.448-.112l.32.64a10.607,10.607,0,0,1,1.872-.144h6.208C-74.32,9.059-74.208,8.995-74.208,8.883Zm-.016,6.88-.1-.128c-1.136.32-2.4.576-3.616.8a4.25,4.25,0,0,1-.016-.544c.288-.16.352-.272.352-.352,0-.112-.08-.144-.32-.208.192-.08,1.68-.624,1.792-.656.4.032.56.048.656.048.288,0,.4-.08.4-.272a.444.444,0,0,0-.16-.32l-.752-.672a.384.384,0,0,0-.272-.144,1.058,1.058,0,0,0-.352.128l-.976.464H-79.84c-.3,0-1.392-.016-2.464-.1l.32.624a11.355,11.355,0,0,1,1.888-.144h2.528a5.292,5.292,0,0,1-.672.944l-.992-.272a4.716,4.716,0,0,1,.208,1.664c-.368.064-2.208.4-2.608.464a5.02,5.02,0,0,1-.72.064,4.236,4.236,0,0,1-.8-.08l.72,1.456c.112.208.192.32.336.32s.24-.16.3-.544c.4-.112,2.368-.72,2.8-.848.032.784.048,1.232.048,1.408,0,.432-.128.512-.448.512a13.241,13.241,0,0,1-1.472-.112v.144a1.774,1.774,0,0,1,1.04,1.376c1.952-.368,1.968-1.28,1.968-1.808,0-.112-.064-1.552-.064-1.856A38.241,38.241,0,0,0-74.224,15.763Zm21.344-4.016v-.128a10.859,10.859,0,0,1-7.28-4.224c.272-.064.336-.208.336-.288a.214.214,0,0,0-.128-.208l-1.5-.816a2.225,2.225,0,0,1-.432,1.008,21.075,21.075,0,0,1-6.528,6.928l.064.1c2.336-.608,5.84-3.648,7.84-6.672h.1a12.453,12.453,0,0,0,6.224,5.632A3.121,3.121,0,0,1-52.88,11.747Zm-1.04,8.176a.344.344,0,0,0-.16-.24l-.976-.8c-.128-.1-.208-.176-.288-.176s-.16.1-.208.144l-.768.864h-3.9V16.627h4.368c.112,0,.24-.032.24-.176,0-.112-.08-.176-.16-.24l-.944-.752c-.176-.144-.24-.16-.3-.16-.08,0-.176.1-.24.192l-.576.752h-2.384v-2.88H-56.4c.1,0,.24-.016.24-.176a.342.342,0,0,0-.16-.24l-1.056-.8a.385.385,0,0,0-.272-.128c-.064,0-.128.064-.224.176l-.624.784h-4.048c-.224,0-1.36-.016-2.448-.112l.3.64a11.394,11.394,0,0,1,1.888-.144h1.456v2.88h-2.08c-.48,0-1.472-.032-2.464-.112l.32.64a9.874,9.874,0,0,1,1.888-.144h2.336v3.088H-64.8c-.144,0-1.36-.016-2.464-.112l.32.64a11.355,11.355,0,0,1,1.888-.144h10.9C-54.064,20.1-53.92,20.083-53.92,19.923ZM-37.6,16.5c-2.352-.624-4.512-3.344-5.616-6.24h4.656c.112,0,.256-.016.256-.176a.344.344,0,0,0-.16-.24l-.976-.768a.586.586,0,0,0-.288-.16c-.08,0-.176.1-.272.192l-.72.768h-2.672c0-.352.032-2.08.032-2.464.16-.1.464-.3.464-.5,0-.128-.1-.192-.208-.224l-1.7-.416c.256.688.32.848.368,3.6H-46c-.48,0-1.472-.032-2.464-.112l.32.64a10.607,10.607,0,0,1,1.872-.144h1.488a19.49,19.49,0,0,1-4.224,7.056l.016.064c1.968-.816,3.888-3.84,4.576-5.2-.016,3.68-.016,4.1-.032,4.928h-.336c-.224,0-1.36-.016-2.448-.112l.32.64a10.607,10.607,0,0,1,1.872-.144h.592c-.016.3-.016.768-.048,1.472-.032.432-.112,1.136-.112,1.568a.4.4,0,0,0,.432.448c.608,0,.944-.272.944-.8,0-.16-.048-2.352-.064-2.688h2.448c.112,0,.24-.016.24-.16,0-.112-.064-.176-.16-.256l-.752-.64c-.1-.08-.192-.176-.3-.176-.1,0-.192.128-.256.208l-.5.64h-.72c-.016-.72-.1-4.512-.112-5.024,0-.288-.016-.4,0-1.44.432,2.112,2.336,5.616,4.272,6.944a3.327,3.327,0,0,1,1.5-.976Zm-9.648-9.376a.235.235,0,0,0-.112-.192l-1.5-.8a25.029,25.029,0,0,1-4.336,8.3l.08.1a10.8,10.8,0,0,0,2.944-3.088c-.048,2.8-.08,3.9-.08,4.048-.016.784-.208,4.752-.208,4.88,0,.24,0,.56.544.56a.7.7,0,0,0,.784-.8c0-.24-.064-4.512-.064-4.768,0-.72.032-2.656.048-4.176.336-.3.448-.448.448-.544,0-.128-.1-.176-.208-.24l-.416-.256a26.053,26.053,0,0,0,1.456-2.656C-47.44,7.379-47.248,7.315-47.248,7.123Zm22.512,5.456c0-.9-1.248-1.36-1.824-1.36a1,1,0,0,0-.336.048c.368.272.5.368.5.576s-.112.32-.4.464c-.464.224-2.032.976-3.12,1.616a1.825,1.825,0,0,0-1.952-1.552A3.459,3.459,0,0,0-33.5,12.8a31.531,31.531,0,0,1,1.792-2.688A19.376,19.376,0,0,0-28.3,9.363a.446.446,0,0,0,.336-.4c0-.32-.464-.544-.848-.544a21.255,21.255,0,0,0-2.224.736,10.131,10.131,0,0,1,.832-1.12.96.96,0,0,0,.256-.56c0-.336-.672-.928-1.456-.928a1.214,1.214,0,0,0-.976.384c.736.1,1.088.432,1.088.656a8.533,8.533,0,0,1-.88,1.824,12.488,12.488,0,0,1-1.856.192,2.111,2.111,0,0,1-1.648-.592c-.032.832.5,1.424,1.584,1.424a8.624,8.624,0,0,0,1.424-.16,14.3,14.3,0,0,1-2.736,3.568.948.948,0,0,0-.352.88c0,.384.08.656.464.656.272,0,.336-.016,1.056-1.136a2.729,2.729,0,0,1,2-1.376c1.008,0,1.232.8,1.376,1.648-.912.608-2.88,2.064-2.88,3.568,0,1.984,3.36,1.984,4.24,1.984a21.175,21.175,0,0,0,2.448-.16c.208-.048.5-.224.5-.512s-.272-.7-.96-.7a3.253,3.253,0,0,0-.56.064,14.435,14.435,0,0,1-2.448.272c-.464,0-2.56,0-2.56-1.216,0-.864,1.216-2.032,2.288-2.7.016.24.016,1.328.016,1.568,0,.272,0,1.184.592,1.184.576,0,.576-1.056.576-1.392a10.849,10.849,0,0,0-.16-1.888,22.5,22.5,0,0,1,4.5-1.5C-24.944,13.011-24.736,12.947-24.736,12.579ZM-15.2,9.363c0-.72-.928-1.632-2.976-1.632a6.771,6.771,0,0,0-1.008.08,7.126,7.126,0,0,1,2.912,1.824.958.958,0,0,0,.576.336C-15.312,9.971-15.2,9.6-15.2,9.363Zm6.112,1.232-.1-.064c-2.592,3.3-7.6,7.36-8.624,7.36a2.84,2.84,0,0,1-1.264-.928,1.551,1.551,0,0,0-.048.368,2.394,2.394,0,0,0,1.552,2.16.628.628,0,0,0,.416-.24,6.766,6.766,0,0,1,1.088-.928C-11.472,15.027-9.632,11.971-9.088,10.595Zm-7.456,2.3c0-.784-.944-1.52-2.88-1.52a8.332,8.332,0,0,0-1.36.112,10.3,10.3,0,0,1,3.04,1.584c.4.288.544.4.768.4C-16.72,13.475-16.544,13.267-16.544,12.9Zm21.712-.384c0-.24-1.216-1.152-1.328-1.152-.048,0-.1.032-.48.352A15.376,15.376,0,0,1-.3,12.8a9.32,9.32,0,0,1-.288-1.856c0-.064.048-.368.048-.448,0-.336-1.024-.528-1.312-.528a1.382,1.382,0,0,0-1.168.64c1.28-.016,1.28-.016,1.936,2.384-.8.192-.944.24-2.208.576a2.686,2.686,0,0,1-.592.1c-.352,0-.608-.224-1.008-.752a1.541,1.541,0,0,0-.064.432A2.085,2.085,0,0,0-3.744,14.9c.112,0,.112-.016.432-.288a10.422,10.422,0,0,1,2.4-.944A39.957,39.957,0,0,1,.272,18.931c.064.64.528,1.248.976,1.248.256,0,.352-.24.352-.5a2.267,2.267,0,0,0-.176-.752A55.026,55.026,0,0,1-.16,13.443c2.4-.768,2.576-.816,3.536-1.1a21,21,0,0,1-1.552,3.04l.112.08a21.479,21.479,0,0,0,1.68-1.728c.656-.8.752-.816.976-.88C5.136,12.707,5.168,12.691,5.168,12.515Zm16.064,1.1c0-.624-1.6-.8-1.7-.8s-.56.128-.656.144c-.736.176-5.936.192-7.04.192-1.664,0-2.16,0-2.7-1.216a1.849,1.849,0,0,0-.192.768c0,.736.864,1.76,1.28,1.76.048,0,.56-.128.608-.144.72-.192,2.16-.288,7.04-.288a15.967,15.967,0,0,1,1.808.064c.032,0,.416.032.56.032C20.432,14.131,21.232,14.115,21.232,13.619ZM37.744,8.307a1.512,1.512,0,1,0-1.52,1.52A1.516,1.516,0,0,0,37.744,8.307Zm-2.5,2.144c0-.288-1.168-1.392-1.344-1.392-.112,0-.544.352-.672.384-.768.224-6.592.7-6.816.7a1.951,1.951,0,0,1-1.584-1.056,1.281,1.281,0,0,0-.144.624,2.243,2.243,0,0,0,1.28,1.792,4.884,4.884,0,0,0,.736-.32,34.05,34.05,0,0,1,6.72-.928,16.31,16.31,0,0,1-2.48,5.424,16.071,16.071,0,0,1-4.624,4.1l.016.112a10.864,10.864,0,0,0,4.4-2.48,13.6,13.6,0,0,0,3.5-5.792c.192-.528.208-.56.5-.72C35.072,10.723,35.248,10.611,35.248,10.451Zm1.888-2.16a.929.929,0,0,1-.928.928.92.92,0,0,1,0-1.84A.925.925,0,0,1,37.136,8.291Zm13.92,1.264c0-.56-1.136-.848-2.128-.848a4.906,4.906,0,0,0-3.968,1.568,9.4,9.4,0,0,1,2.912-.72c.1,0,.592,0,.592.176a.146.146,0,0,1-.048.128c-.048.048-1.216,1.12-1.456,1.344l.1.1a7.5,7.5,0,0,1,3.088-1.184C50.72,10.019,51.056,9.923,51.056,9.555Zm.784,8.432c0-.448-.672-.688-1.232-.688-.16,0-1.712.128-2.032.128-3.024,0-3.312-.928-3.68-2.144a1.238,1.238,0,0,0-.16.672,2.341,2.341,0,0,0,1.616,2.176,15.893,15.893,0,0,0,3.92.448C51.28,18.579,51.84,18.5,51.84,17.987Zm-8.816-4.656L42.9,13.3c-.576,1.232-1.248,3.088-1.424,3.632-.032.112-.112.3-.208.3-.256,0-.528-1.232-.528-2.336a13.911,13.911,0,0,1,1.12-5.024,2.146,2.146,0,0,0,.208-.752c0-.624-1.04-1.52-1.616-1.52a.639.639,0,0,0-.288.064A2.154,2.154,0,0,1,40.7,9.219a7.416,7.416,0,0,1-.1,1.072,39.847,39.847,0,0,0-.624,4.96c0,3.248,1.04,4.72,1.7,4.72.384,0,.416-.32.416-.592,0-.16-.08-.928-.08-1.1a18.464,18.464,0,0,1,.56-3.056C42.7,14.707,42.928,13.779,43.024,13.331ZM67.3,16.259l-.064-.064a14.091,14.091,0,0,1-7.088,2.992c-1.76,0-1.76-.9-1.76-2.7a46.338,46.338,0,0,1,.592-7.3,8.085,8.085,0,0,0,.192-.9c0-.464-.96-1.232-1.744-1.232a1.526,1.526,0,0,0-1.056.4c.992.336,1.3.448,1.3,1.7,0,.848-.192,6.048-.192,6.864,0,2.832.432,4.08,3.136,4.08A7.772,7.772,0,0,0,67.3,16.259Zm14.96-3.808c0-.544-.88-1.408-2.656-1.408a3.774,3.774,0,0,0-2.32.688c.24-.016.512-.032.9-.032.208,0,1.776.016,1.776.48,0,.16-.048.192-.528.608-.128.1-.768.608-.912.736l.08.08a6.078,6.078,0,0,1,2.4-.8c.112,0,.688.064.816.064A.392.392,0,0,0,82.256,12.451Zm-.112,6.72A.866.866,0,0,0,81.3,18.4a3.429,3.429,0,0,0-.656.08,8.172,8.172,0,0,1-1.584.128c-2.192,0-3.312-.448-3.344-2.432a2.15,2.15,0,0,0-.368,1.232c0,2.128,2.9,2.336,4.736,2.336C80.64,19.747,82.144,19.747,82.144,19.171ZM77.424,9.6a.6.6,0,0,0-.656-.528c-.3,0-.416.064-.928.4a6.81,6.81,0,0,1-1.184.576A6.583,6.583,0,0,1,75.248,8.8c.24-.368.3-.464.3-.64A1.679,1.679,0,0,0,73.872,6.9a.909.909,0,0,0-.7.24c.128.048.992.352.992,1.008a8.232,8.232,0,0,1-.512,2.224,9.37,9.37,0,0,1-2.416.368,4.394,4.394,0,0,1-1.536-.256,1.678,1.678,0,0,0,1.616,1.072,9.95,9.95,0,0,0,2.032-.256,2.083,2.083,0,0,1-.08.224,38.949,38.949,0,0,1-2.736,6.1c-.624,1.008-.64,1.024-.64,1.312,0,.3.176.752.528.752.336,0,.464-.16.832-.944,1.152-2.5,2.08-5.088,3.024-7.664a19.836,19.836,0,0,0,2.64-.96C77.376,9.907,77.424,9.747,77.424,9.6ZM97.6,14.995c0-1.856-2.112-4.8-3.9-4.8a1.409,1.409,0,0,0-.272.032,5.705,5.705,0,0,1,2.816,3.84.4.4,0,0,1-.352.416c-.112.032-1.2.128-1.424.16v.1a3.843,3.843,0,0,1,1.7.64c.624.592.688.656.88.656C97.3,16.035,97.6,15.555,97.6,14.995Zm-6.56-2.384-.128-.048c-.688,1.088-1.872,2.784-2.592,3.856-.048.08-.208.288-.384.288-.432,0-1.392-1.168-1.392-3.136a13.854,13.854,0,0,1,.208-2.224,2.234,2.234,0,0,0,.064-.528c0-1.04-1.2-1.744-2.016-1.792a5.515,5.515,0,0,1,.56,1.312,24.654,24.654,0,0,1,.256,2.944c.272,4.56,2.544,5.36,3.1,5.36a.475.475,0,0,0,.5-.544c0-.128-.128-.736-.128-.864a.936.936,0,0,1,.032-.208C89.152,16.851,90.816,13.091,91.04,12.611ZM-40.976,35.637c0-1.76-2.544-3.92-4.992-4.864l-.032.1a11.377,11.377,0,0,1,3.152,4.176c.464,1.136.592,1.44,1.136,1.44C-41.472,36.485-40.976,36.389-40.976,35.637Zm-5.84-8.752c0-.16-.176-.224-.336-.272l-1.68-.464a7.477,7.477,0,0,1,.272,2.656c.032,2.512.048,7.216.048,9.408,0,.176,0,.416-.512.416-.336,0-1.584-.064-1.984-.1v.128c.384.16,1.616.64,1.808,1.648,1.872-.192,1.872-1.328,1.872-1.968,0-1.2-.048-7.056-.048-8.384,0-1.68,0-1.888.016-2.528.16-.112.208-.16.352-.272C-46.832,27.029-46.816,26.965-46.816,26.885ZM-50,31.061c0-.176-.112-.224-.32-.3l-1.632-.688a3.942,3.942,0,0,1-.112,1.152A21.63,21.63,0,0,1-55.7,37.605l.064.1c1.76-1.184,3.152-2.672,4.976-6.24C-50.432,31.413-50,31.3-50,31.061Zm24.96-3.408c.08,0,.24-.016.24-.176a.38.38,0,0,0-.16-.24l-.752-.656A.52.52,0,0,0-26,26.405c-.08,0-.176.112-.256.208l-.48.656h-2.912c-.032,0-1.2,0-2.464-.112l.32.64a10.858,10.858,0,0,1,1.888-.144h.368a16.442,16.442,0,0,1-.16,2.1h-.544l-1.392-.64a6.358,6.358,0,0,1,.112.96c.032.448.032,4.08.032,4.56,0,.4-.032,2.224-.032,2.592,0,.224.112.336.368.336.368,0,.784-.208.736-.656h3.536c0,.384.016.528.352.528.432,0,.832-.16.832-.768,0-.144-.032-.528-.032-.72-.1-2.32-.1-2.928-.128-5.408.416-.384.464-.432.464-.56,0-.1-.1-.176-.176-.24l-.624-.464a.63.63,0,0,0-.256-.128c-.08,0-.128.064-.224.16l-.448.448h-2.288a19.06,19.06,0,0,0,1.3-2.1Zm-1.84,4.72v1.856h-3.568V32.373Zm0-2.24v1.856h-3.568V30.133Zm0,4.48v1.9h-3.568v-1.9Zm-7.984-6.528v-1.04c.3-.16.416-.256.416-.4,0-.176-.144-.224-.336-.272l-1.456-.384a6.124,6.124,0,0,1,.336,2.1h-.56c-.272,0-1.28-.016-2.448-.112l.32.64a10.607,10.607,0,0,1,1.872-.144h4.448c.128,0,.24-.048.24-.176,0-.064-.048-.144-.16-.24l-.544-.48c-.128-.112-.208-.176-.3-.176-.064,0-.128.08-.24.208l-.384.48Zm.016,3.744a7.739,7.739,0,0,0,.64-.8,10.954,10.954,0,0,1,.816-.96c.416-.176.592-.272.592-.432,0-.1-.064-.16-.224-.224l-1.472-.64a7.607,7.607,0,0,1-.656,3.056h-1.9l-1.376-.576a17.2,17.2,0,0,1,.224,2.976c0,.672,0,4.512-1.168,6.256l.112.032c1.952-1.92,2.144-4.576,2.1-8.3h5.056c.112,0,.24-.032.24-.176a.433.433,0,0,0-.144-.256l-.512-.448c-.1-.08-.192-.176-.288-.176-.064,0-.128.08-.24.192l-.448.48Zm-2.832-2.816a6.388,6.388,0,0,1,.544,1.616c.1.48.192.848.624.848a.646.646,0,0,0,.656-.72c0-.848-.848-1.424-1.744-1.824Zm3.216,3.488a8.433,8.433,0,0,1-2.752,2.864l.032.112a10.858,10.858,0,0,0,3.248-1.76c.448.016.672-.016.672-.192,0-.08-.048-.144-.144-.224Zm1.36,3.488a7.571,7.571,0,0,1-.48.7A17.625,17.625,0,0,1-37.7,39.717l.016.112a12.818,12.818,0,0,0,5.072-2.576c.32,0,.592,0,.592-.24a.332.332,0,0,0-.128-.256Zm4.752,1.632a7.4,7.4,0,0,1,1.744,1.792c.48.7.656.976,1.088.976a.523.523,0,0,0,.528-.544c0-.96-1.408-1.9-3.328-2.336Zm-1.968-.272A11.64,11.64,0,0,1-34.5,40.293l.016.128c1.392-.1,2.464-.56,4.672-1.76.464.016.656.016.656-.192a.408.408,0,0,0-.144-.24Zm-3.152-3.264c-.24.624-1.5,1.888-3.584,3.184l.016.112a12.444,12.444,0,0,0,4.064-2.032c.432-.032.576-.048.576-.224a.417.417,0,0,0-.144-.272Zm22.928-4.864c0-.56-1.136-.848-2.128-.848a4.906,4.906,0,0,0-3.968,1.568,9.4,9.4,0,0,1,2.912-.72c.1,0,.592,0,.592.176a.146.146,0,0,1-.048.128c-.048.048-1.216,1.12-1.456,1.344l.1.1a7.5,7.5,0,0,1,3.088-1.184C-10.88,29.685-10.544,29.589-10.544,29.221Zm.784,8.432c0-.448-.672-.688-1.232-.688-.16,0-1.712.128-2.032.128-3.024,0-3.312-.928-3.68-2.144a1.238,1.238,0,0,0-.16.672A2.341,2.341,0,0,0-15.248,37.8a15.893,15.893,0,0,0,3.92.448C-10.32,38.245-9.76,38.165-9.76,37.653ZM-18.576,33l-.128-.032c-.576,1.232-1.248,3.088-1.424,3.632-.032.112-.112.3-.208.3-.256,0-.528-1.232-.528-2.336a13.911,13.911,0,0,1,1.12-5.024,2.146,2.146,0,0,0,.208-.752c0-.624-1.04-1.52-1.616-1.52a.639.639,0,0,0-.288.064,2.154,2.154,0,0,1,.544,1.552,7.416,7.416,0,0,1-.1,1.072,39.847,39.847,0,0,0-.624,4.96c0,3.248,1.04,4.72,1.7,4.72.384,0,.416-.32.416-.592,0-.16-.08-.928-.08-1.1a18.465,18.465,0,0,1,.56-3.056C-18.9,34.373-18.672,33.445-18.576,33Zm20.5-4c0-.3-.7-.528-.912-.528-.192,0-.272.048-.976.368-.336.16-.88.352-1.2.464a7.66,7.66,0,0,1,.592-1.008c.4-.576.4-.576.4-.736,0-.416-.976-1.088-1.6-1.088a1.115,1.115,0,0,0-.784.32c.848.224.944.608.944.784a8.607,8.607,0,0,1-.672,2.032,8.9,8.9,0,0,1-1.872.256,1.677,1.677,0,0,1-1.552-.64c-.128.96.672,1.456,1.616,1.456a6.022,6.022,0,0,0,1.44-.208,27.51,27.51,0,0,1-2.656,4.672,1.564,1.564,0,0,0-.384.96c0,.544.336.608.448.608.32,0,.656-.592,1.024-1.216.416-.72,2.16-4.432,2.576-5.264a29.181,29.181,0,0,0,3.312-.912A.38.38,0,0,0,1.92,29Zm4.16,3.84c0-.752-1.28-2.24-3.264-2.24a3.026,3.026,0,0,0-1.024.16c1.616.416,2.192,1.008,2.192,1.216,0,.192-.144.224-.272.256-1.1.208-2.8.9-2.8,2.656,0,.368.064,1.12.112,1.68-.24-.016-.48-.048-.832-.048-1.552,0-3.008.576-3.008,1.776,0,.992,1.152,1.712,2.48,1.712A2.925,2.925,0,0,0,1.6,39.333a2.062,2.062,0,0,0,.608-1.52,4.424,4.424,0,0,1,1.248.672,4.77,4.77,0,0,0,1.232.736.5.5,0,0,0,.448-.528c0-1.04-1.76-1.712-3.04-1.984a12.291,12.291,0,0,1-.272-2.32c0-.752.24-1.664,1.92-1.664a2.3,2.3,0,0,1,1.36.4,1.124,1.124,0,0,0,.56.176A.409.409,0,0,0,6.08,32.837ZM1.088,37.445A1.525,1.525,0,0,1-.64,39.125c-.544,0-1.568-.176-1.568-.848,0-.864,1.488-.992,2.1-.992A3.817,3.817,0,0,1,1.088,37.445Zm18.3-4.672c0-1.6-.208-4.736-2.208-4.736-1.888,0-3.264,4.1-3.632,5.408-.016.08-.048.16-.144.16-.16,0-.16-.912-.16-1.152a11.49,11.49,0,0,1,.9-4.288,1.851,1.851,0,0,0,.192-.7,1.388,1.388,0,0,0-1.408-1.152,3.081,3.081,0,0,0-.72.112,1.669,1.669,0,0,1,.928,1.456,3.906,3.906,0,0,1-.064.608,34.02,34.02,0,0,0-.56,4.624c0,1.44.288,3.312,1.232,3.312.32,0,.384-.272.384-.448,0-.16-.112-.976-.112-1.152a11.361,11.361,0,0,1,1.7-5.3c.144-.208.592-.864,1.232-.864,1.2,0,1.264,2.912,1.264,3.968,0,2.864-.816,5.952-3.584,7.952l.032.08a6.313,6.313,0,0,0,2.272-1.408C18.72,37.621,19.392,35.717,19.392,32.773Zm18.864-.656c0-.544-.88-1.408-2.656-1.408a3.774,3.774,0,0,0-2.32.688c.24-.016.512-.032.9-.032.208,0,1.776.016,1.776.48,0,.16-.048.192-.528.608-.128.1-.768.608-.912.736l.08.08a6.078,6.078,0,0,1,2.4-.8c.112,0,.688.064.816.064A.392.392,0,0,0,38.256,32.117Zm-.112,6.72a.866.866,0,0,0-.848-.768,3.429,3.429,0,0,0-.656.08,8.172,8.172,0,0,1-1.584.128c-2.192,0-3.312-.448-3.344-2.432a2.15,2.15,0,0,0-.368,1.232c0,2.128,2.9,2.336,4.736,2.336C36.64,39.413,38.144,39.413,38.144,38.837Zm-4.72-9.568a.6.6,0,0,0-.656-.528c-.3,0-.416.064-.928.4a6.81,6.81,0,0,1-1.184.576,6.583,6.583,0,0,1,.592-1.248c.24-.368.3-.464.3-.64a1.679,1.679,0,0,0-1.68-1.264.909.909,0,0,0-.7.24c.128.048.992.352.992,1.008a8.232,8.232,0,0,1-.512,2.224,9.37,9.37,0,0,1-2.416.368,4.394,4.394,0,0,1-1.536-.256,1.678,1.678,0,0,0,1.616,1.072,9.95,9.95,0,0,0,2.032-.256,2.082,2.082,0,0,1-.08.224,38.948,38.948,0,0,1-2.736,6.1c-.624,1.008-.64,1.024-.64,1.312,0,.3.176.752.528.752.336,0,.464-.16.832-.944,1.152-2.5,2.08-5.088,3.024-7.664a19.837,19.837,0,0,0,2.64-.96C33.376,29.573,33.424,29.413,33.424,29.269ZM54.4,34.661c0-1.856-2.112-4.8-3.9-4.8a1.409,1.409,0,0,0-.272.032,5.705,5.705,0,0,1,2.816,3.84.4.4,0,0,1-.352.416c-.112.032-1.2.128-1.424.16v.1a3.843,3.843,0,0,1,1.7.64c.624.592.688.656.88.656C54.1,35.7,54.4,35.221,54.4,34.661Zm-6.56-2.384-.128-.048c-.688,1.088-1.872,2.784-2.592,3.856-.048.08-.208.288-.384.288-.432,0-1.392-1.168-1.392-3.136a13.854,13.854,0,0,1,.208-2.224,2.234,2.234,0,0,0,.064-.528c0-1.04-1.2-1.744-2.016-1.792a5.515,5.515,0,0,1,.56,1.312,24.652,24.652,0,0,1,.256,2.944c.272,4.56,2.544,5.36,3.1,5.36a.475.475,0,0,0,.5-.544c0-.128-.128-.736-.128-.864a.936.936,0,0,1,.032-.208C45.952,36.517,47.616,32.757,47.84,32.277Z" transform="translate(1162.23 2719.371)" fill="#fff" stroke="#fff" stroke-width="0.5"/>
  </g>
</svg>
