<svg xmlns="http://www.w3.org/2000/svg" width="229.667" height="45" viewBox="0 0 229.667 45">
  <g id="onayamiBtn5" transform="translate(-1051.23 -2560.589)">
    <rect id="長方形_65" data-name="長方形 65" width="229.667" height="45" rx="10" transform="translate(1051.23 2560.589)" fill="#d4145a"/>
    <path id="パス_93" data-name="パス 93" d="M-83.048-2.832l-.448-.256a6.238,6.238,0,0,1-1.664,1.76,4.37,4.37,0,0,1-2.272.816h-1.344a.979.979,0,0,1-1.008-.928V-5.776h1.792a1.607,1.607,0,0,1,1.536,1.568v.448h.528V-8.288h-.528v.336a1.762,1.762,0,0,1-1.776,1.664h-1.552V-10.16a.962.962,0,0,1,1.008-.992h1.184A4.164,4.164,0,0,1-84.84-10.1,4.672,4.672,0,0,1-83.8-8.784l.448-.24-1.04-2.656h-8.544v.528h.512A1.039,1.039,0,0,1-91.352-10v8c0,1.088-.24,1.488-.976,1.488h-.624V0h8.816Zm12.368-7.776a.609.609,0,0,0-.432-.576,5.3,5.3,0,0,0-1.008-.336c-.128,0-.688.288-.832.32a11.91,11.91,0,0,1-3.248.4,2.871,2.871,0,0,1-2.272-.768c-.08.8.64,1.92,1.392,1.92a6.212,6.212,0,0,0,1.024-.16c.672-.128,3.04-.272,3.792-.3C-70.936-10.16-70.68-10.192-70.68-10.608ZM-69.5-7.616c0-.416-1.264-1.312-1.424-1.312-.128,0-.56.544-.688.624-.192.1-5.28.5-6.336.5a1.175,1.175,0,0,1-.928-.3,3.048,3.048,0,0,1-.7-.736,1.453,1.453,0,0,0-.128.576,2.443,2.443,0,0,0,1.616,2.016,3.382,3.382,0,0,0,.608-.272,39.455,39.455,0,0,1,5.808-.88,12.056,12.056,0,0,1-2.384,4.48A16.078,16.078,0,0,1-78.376.48V.592A8.163,8.163,0,0,0-74.024-1.36,11.5,11.5,0,0,0-70.6-6.1c.336-.736.384-.816.464-.88C-69.656-7.3-69.5-7.408-69.5-7.616Zm14.384-3.5a2.713,2.713,0,0,0-2.1-1.616,4.238,4.238,0,0,0-.7.064c.368.3.8.672.8,1.072,0,.656-4.272,6.048-7.536,8.048l.064.1a14.1,14.1,0,0,0,5.536-3.568c.176.128.176.128.208.224a19.8,19.8,0,0,1,.1,2.384,22.113,22.113,0,0,1-.128,2.72c-.016.144-.16.864-.16,1.024,0,.432.384,1.264.88,1.264.48,0,.624-.7.624-1.1,0-.544-.112-3.3-.112-3.92,0-1.024.032-1.872.048-2,.016-.1.176-.544.176-.656,0-.224-.56-.608-.832-.768.24-.256,1.344-1.5,1.6-1.776a5.832,5.832,0,0,1,1.04-.96C-55.176-10.88-55.112-10.928-55.112-11.12Zm12.176,1.84c0-1.776-2.992-2-3.536-2a6.252,6.252,0,0,0-.784.048A8.148,8.148,0,0,1-44.584-9.28c.544.544.752.768,1.024.768A.721.721,0,0,0-42.936-9.28Zm6.368-.656-.064-.032A34.062,34.062,0,0,1-41.64-5.216c-.576.448-3.248,2.4-3.7,2.4-.272,0-.752-.224-1.264-1.088a3.387,3.387,0,0,0-.112.752c0,.784,1.136,2.24,1.712,2.24a.438.438,0,0,0,.224-.064c.1-.048.464-.48.56-.56.544-.5,1.5-1.184,2.1-1.648C-38.424-6.064-36.824-8.912-36.568-9.936Zm17.1,11.376a10.581,10.581,0,0,1-2.9-7.52,10.581,10.581,0,0,1,2.9-7.52l-.16-.224a9.338,9.338,0,0,0-3.84,7.744,9.338,9.338,0,0,0,3.84,7.744Zm16.08-9.888c0-.1-.1-.192-.16-.256l-.736-.72a.527.527,0,0,0-.288-.16c-.1,0-.192.112-.256.192l-.656.72H-6.744c-.016-.56,0-.944.016-2.016H-4.3c.112,0,.256-.016.256-.16,0-.112-.1-.192-.16-.256l-.784-.624c-.16-.128-.208-.16-.288-.16-.1,0-.192.128-.24.192l-.432.624h-.768c0-.352,0-.448.016-.912.384-.272.528-.384.528-.576,0-.112-.064-.176-.336-.256l-1.648-.464A6.338,6.338,0,0,1-7.9-11.072H-9.5c0-.128.016-.768.016-.912.144-.08.592-.32.592-.56,0-.112-.24-.192-.288-.208l-1.7-.512a6.642,6.642,0,0,1,.256,2.192c-.96-.016-1.312-.032-2.048-.1l.256.592a9.316,9.316,0,0,1,1.792-.112c.016.5.016,1.328.016,2.016-.1,0-1.3,0-2.32-.1l.272.592a9.3,9.3,0,0,1,1.728-.112h1.744v1.472h-1.312l-1.744-.816a7.525,7.525,0,0,1,.256,2.784c0,.976-.032,1.872-.048,2.192,0,.128-.048.736-.048.88a.55.55,0,0,0,.608.544.632.632,0,0,0,.72-.656h.464A9.847,9.847,0,0,1-13.9.944v.128A8.189,8.189,0,0,0-9.624-.576c.32.016.688.032.688-.24a.442.442,0,0,0-.192-.32l-1.008-.752h3.92c0,.208-.016.5.528.5a.715.715,0,0,0,.72-.816c0-.432-.1-2.528-.1-2.992,0-.368.016-.624.032-.88.128-.128.224-.24.352-.368.08-.08.176-.16.176-.256S-4.616-6.9-4.7-6.96l-.72-.544c-.1-.064-.192-.16-.288-.16-.08,0-.176.128-.272.256l-.448.592H-7.96V-8.288h4.336C-3.528-8.288-3.384-8.3-3.384-8.448ZM-6.2-4.512H-7.96v-1.92H-6.2Zm0,2.24H-7.96V-4.128H-6.2Zm-2.976-2.24h-1.568v-1.92h1.568Zm0,2.24h-1.568V-4.128h1.568Zm1.312-6.4H-9.528c-.016-.384.016-1.552.016-2.016H-7.88C-7.88-10.368-7.864-8.96-7.864-8.672Zm4,9.1c0-.992-1.584-1.76-3.744-1.824l-.048.08A6.46,6.46,0,0,1-5.656.3c.5.64.656.832,1.072.832A.694.694,0,0,0-3.864.432ZM-12.232-9.28a.344.344,0,0,0-.16-.24l-.576-.432c-.1-.064-.224-.176-.3-.176-.064,0-.144.112-.24.208l-.384.432H-14.1c0-.272-.016-1.6-.016-1.9a4.784,4.784,0,0,1,.048-.72c.048-.048.3-.272.368-.32.064-.064.176-.16.176-.24,0-.144-.1-.176-.3-.24l-1.856-.608c.176.5.32.944.384,4.032h-.368c-.176,0-1.312,0-2.272-.1l.256.592A9.3,9.3,0,0,1-15.96-9.1h.576a24.508,24.508,0,0,1-2.88,6.816l.128.048a12.247,12.247,0,0,0,2.848-3.68c-.032,3.456-.048,3.84-.1,4.912C-15.416-.544-15.5.192-15.5.64a.519.519,0,0,0,.592.576A.781.781,0,0,0-14.04.368c0-.176-.048-1.056-.048-1.248-.032-1.5-.016-4.928-.016-6.624a2.843,2.843,0,0,1,.448,1.376c.016.24.08.72.624.72a.713.713,0,0,0,.736-.72c0-1.024-1.3-1.44-1.808-1.616V-9.1h1.632C-12.36-9.1-12.232-9.12-12.232-9.28ZM12.76-11.856c0-.112-.112-.192-.16-.24l-.9-.72c-.144-.112-.208-.176-.288-.176-.064,0-.112.032-.256.208l-.544.72H7.784c-.768,0-1.52-.032-2.272-.1l.256.592A7.65,7.65,0,0,1,7.5-11.68h.368a19.289,19.289,0,0,1-.1,2.112h-.4L5.784-10.3a14.767,14.767,0,0,1,.16,2.528c0,.9-.048,4.816-.048,5.616,0,.192,0,.4.5.4A1.044,1.044,0,0,0,6.92-1.9,14.693,14.693,0,0,1,2.952.864l.016.112A11.573,11.573,0,0,0,7.752-.768c.608.016.688.016.688-.176a.413.413,0,0,0-.16-.272l-1.12-.96a.436.436,0,0,0,.032-.24h3.264c0,.32.016.544.592.544a.761.761,0,0,0,.816-.832c-.016-1.056-.1-3.6-.128-4.88-.016-.672,0-.752-.016-1.152.416-.384.432-.464.432-.592,0-.1-.048-.144-.16-.224l-.672-.512c-.16-.128-.256-.176-.32-.176-.1,0-.176.08-.272.176l-.544.5H8.072a10.921,10.921,0,0,0,1.44-2.112H12.5C12.6-11.68,12.76-11.7,12.76-11.856Zm-2.3,6.736H7.176V-6.96h3.28Zm0,2.32H7.176V-4.736h3.28Zm0-4.544H7.176v-1.84h3.28Zm2.1,7.728c0-.928-1.264-1.984-3.5-2.336l-.064.08a11.784,11.784,0,0,1,1.76,1.9c.528.768.688,1.008,1.136,1.008A.63.63,0,0,0,12.552.384ZM5.544-11.088a.3.3,0,0,0-.16-.24l-.7-.56c-.16-.128-.208-.16-.288-.16-.048,0-.1,0-.24.192l-.432.56h-.9v-.96c.368-.24.368-.288.368-.4,0-.128-.016-.208-.368-.3l-1.648-.416a4.523,4.523,0,0,1,.4,2.08H.984c-.176,0-1.312,0-2.288-.1l.272.592A8.042,8.042,0,0,1,.7-10.912H5.3C5.416-10.912,5.544-10.928,5.544-11.088ZM1.832-8.608c0-1.1-1.408-1.728-1.968-1.888l-.048.1A5.231,5.231,0,0,1,.344-8.8c.144.736.288.976.752.976A.707.707,0,0,0,1.832-8.608Zm3.84,1.28c0-.1-.144-.24-.16-.256L4.92-8.112c-.048-.032-.192-.16-.3-.16-.064,0-.064,0-.24.192l-.48.544H2.648A22.531,22.531,0,0,0,4.264-9.28c.544-.176.56-.256.56-.384,0-.16-.1-.224-.3-.3l-1.6-.672c.016.288.032.512.032.656a8.256,8.256,0,0,1-.624,2.448H.7l-1.632-.64a15.746,15.746,0,0,1,.224,2.9c0,.864,0,4.9-1.1,6.368l.112.048A7.676,7.676,0,0,0,.44-3.936,11.787,11.787,0,0,0,3.656-5.6c.368,0,.7-.016.7-.24,0-.112-.1-.192-.176-.256l-1.168-.88C2.744-6.064.92-4.5.456-4.144.52-4.96.552-6.4.536-7.152h4.9C5.544-7.152,5.672-7.184,5.672-7.328ZM5.24-4.3a.57.57,0,0,0-.176-.3L4.024-5.44c-.16.592-1.536,2-3.584,3.3v.08A9.489,9.489,0,0,0,4.632-4.048C5.032-4.08,5.24-4.112,5.24-4.3Zm.336,1.84a.248.248,0,0,0-.112-.224l-1.088-.88A9.461,9.461,0,0,1,3.3-2.3,15.32,15.32,0,0,1-.232.272V.384A10.842,10.842,0,0,0,4.936-2.16C5.48-2.208,5.576-2.224,5.576-2.464ZM18.424-6.08a9.338,9.338,0,0,0-3.84-7.744l-.16.224a10.581,10.581,0,0,1,2.9,7.52,10.581,10.581,0,0,1-2.9,7.52l.16.224A9.338,9.338,0,0,0,18.424-6.08ZM43.24-7.04c0-.9-1.232-1.472-2.064-1.472a1.2,1.2,0,0,0-.416.08c.448.272.544.336.544.576,0,.192-.08.336-.464.528-1.408.688-2.4,1.264-2.8,1.5a1.79,1.79,0,0,0-1.824-1.44,5.746,5.746,0,0,0-1.792.336c.016-.032.08-.16.128-.24.16-.272,1.328-1.856,1.584-2.208a18.6,18.6,0,0,0,3.344-.736c.256-.08.48-.224.48-.512,0-.384-.448-.624-.848-.624a1.029,1.029,0,0,0-.352.064c-.144.048-1.216.432-1.824.656a6.5,6.5,0,0,1,.784-.992.889.889,0,0,0,.3-.576c0-.384-.8-1.024-1.552-1.024a1.7,1.7,0,0,0-1.216.544c.608,0,1.2.336,1.2.624a10.05,10.05,0,0,1-.848,1.728,12.666,12.666,0,0,1-1.728.176,2.056,2.056,0,0,1-1.7-.656.906.906,0,0,0-.048.288c0,.224.192,1.3,1.7,1.3a8.858,8.858,0,0,0,1.2-.112,12.177,12.177,0,0,1-2.7,3.392,1.622,1.622,0,0,0-.336,1.12c0,.512.128.7.544.7.272,0,.48-.1,1.136-1.28.32-.56.976-1.472,1.936-1.472.992,0,1.168.816,1.28,1.664-.8.528-2.848,1.968-2.848,3.536C34.04.416,37.352.48,38.376.48A21.389,21.389,0,0,0,40.808.32.685.685,0,0,0,41.352-.3c0-.272-.208-.8-.992-.8a3.807,3.807,0,0,0-.576.048A14.309,14.309,0,0,1,37.32-.8c-.464,0-2.544,0-2.544-1.216,0-.9,1.456-1.984,2.176-2.432.016.208.016.272.016.9,0,.688.016,1.712.72,1.712.624,0,.624-.976.624-1.488a10.662,10.662,0,0,0-.128-1.744A18.025,18.025,0,0,1,42.44-6.4C43.08-6.544,43.24-6.624,43.24-7.04Zm17.888.976v-.048a8.766,8.766,0,0,1-3.792-1.344A12.168,12.168,0,0,0,58.488-9.3c.368-.1.48-.112.48-.32,0-.16-.192-.288-.352-.368l-.544-.288H60.6c.08,0,.24,0,.24-.16a.374.374,0,0,0-.16-.256l-.9-.72a.553.553,0,0,0-.3-.176c-.1,0-.16.112-.24.208l-.56.72h-2.9a11.754,11.754,0,0,0,.9-1.568c.512-.16.56-.176.56-.352,0-.16-.176-.256-.272-.3l-1.424-.7c.144,1.792-1.584,4.528-1.888,4.9v-.64c.176-.1.4-.224.4-.368,0-.1-.1-.16-.192-.24L53.32-10.4a.434.434,0,0,0-.272-.128.392.392,0,0,0-.288.176l-.272.32H51.24V-11.1h2.688c.1,0,.256-.016.256-.176a.344.344,0,0,0-.16-.24l-.736-.608c-.1-.08-.176-.16-.288-.16-.144,0-.192.1-.256.192l-.416.608H51.256v-.752c.336-.16.512-.256.512-.464,0-.176-.16-.24-.272-.272l-1.568-.544a10.129,10.129,0,0,1,.192,2.032H48.9c-.768,0-1.52-.032-2.272-.1l.256.576a9.551,9.551,0,0,1,1.728-.1h1.52v1.072h-1.3l-1.184-.448a8.079,8.079,0,0,1,.08,1.152c0,.672-.016,1.12-.032,1.408,0,.1-.048.512-.048.608a.344.344,0,0,0,.384.4,1.728,1.728,0,0,0,.768-.256c.16-.1.144-.272.128-.5h.752A22.709,22.709,0,0,1,46.44-3.92l.032.064A7.96,7.96,0,0,0,50.12-6.592c0,.368-.1,1.952-.1,2.272,0,.24.24.32.416.32.272,0,.848-.16.848-.672,0-.08-.016-.192-.016-.256-.064-.768-.064-1.776-.064-2.144A4.272,4.272,0,0,1,52.1-5.7c.24.448.448.512.64.512a.562.562,0,0,0,.592-.56c0-.976-1.376-1.344-2.128-1.552v-.368h1.28c.016.48.016.688.448.688a.715.715,0,0,0,.736-.816c0-.048-.016-.544-.016-.656a6.231,6.231,0,0,0,1.6-1.488,5.836,5.836,0,0,0,.8,2.32,10.818,10.818,0,0,1-3.568,3.152l.064.1a8.638,8.638,0,0,0,4.176-2.368A10.9,10.9,0,0,0,59.784-4.72,3.831,3.831,0,0,1,61.128-6.064Zm-8.64-1.984H51.224c0-.128,0-1.328.016-1.6h1.248Zm-2.336,0H48.9v-1.6h1.248ZM57.3-10.272a7.43,7.43,0,0,1-.832,1.984,6.128,6.128,0,0,1-1.008-1.92l.048-.064Zm3.5,10.72a.344.344,0,0,0-.16-.24L59.624-.64c-.16-.128-.208-.16-.288-.16-.112,0-.192.112-.256.192l-.592.832H54.312V-1.44h3.232c.1,0,.24-.016.24-.176a.315.315,0,0,0-.16-.24l-.88-.64c-.112-.08-.192-.176-.288-.176-.112,0-.208.128-.256.208l-.432.64H54.312v-1.5h4.4c.1,0,.24-.032.24-.176a.3.3,0,0,0-.16-.24l-1.008-.784c-.112-.08-.208-.176-.3-.176s-.176.1-.24.208l-.5.784H50.536c-.176,0-1.3-.016-2.272-.1l.256.576a9.8,9.8,0,0,1,1.728-.1H53V.224H51.368v-2c.368-.3.416-.336.416-.464,0-.224-.208-.272-.352-.288L49.848-2.88a2.546,2.546,0,0,1,.224,1.1c.016.368.016.528.016,2h-1.44c-.176,0-1.3,0-2.272-.1l.256.592A9.3,9.3,0,0,1,48.36.608H60.568C60.68.608,60.808.592,60.808.448ZM71.464-10.576c0-1.008-1.5-1.5-1.856-1.616a5.494,5.494,0,0,1-2.4-1.3c.048.912.24,1.12,1.152,1.76.512.352.576.4.576.592a.449.449,0,0,1-.176.32c-.352.272-.688.528-1.056.768l.08.112c.08-.016.208-.064.272-.08a4.617,4.617,0,0,1,1.456-.3c.224,0,1.28.288,1.536.288C71.32-10.032,71.464-10.32,71.464-10.576ZM75.56-.144a.944.944,0,0,0-1.008-.832,4.465,4.465,0,0,0-.944.176,6.046,6.046,0,0,1-1.728.3c-.96,0-1.12-.144-1.44-1.552-.144-.672-.384-1.68-1.712-1.68a3.76,3.76,0,0,0-.848.112A18.483,18.483,0,0,1,71.688-6.88c.4-.256.544-.352.544-.72,0-.656-1.216-1.1-1.408-1.1a7,7,0,0,0-.912.336,14.42,14.42,0,0,1-3.52.944c-.56,0-.752-.24-1.12-.736a2.171,2.171,0,0,0-.192.768c0,.832,1.2,1.36,1.472,1.36.288,0,.368-.064.816-.432a15.663,15.663,0,0,1,2.912-1.28c.08,0,.176.032.176.128a.379.379,0,0,1-.128.224c-.912.88-2.048,2.176-2.352,2.512A27.777,27.777,0,0,1,64.92-1.664c-.944.816-1.12.976-1.12,1.584A.687.687,0,0,0,64.456.7c.368,0,.608-.24,1.44-1.536,1.312-2.032,1.664-2.4,2.256-2.4.944,0,1.024.528,1.216,1.76C69.656.3,70.5.592,74.008.592,74.824.592,75.56.448,75.56-.144Zm15.1-3.616c0-1.392-.944-2.976-3.7-2.976a7.491,7.491,0,0,0-3.632.992c.368-.672.672-.992,3.376-3.952a5.47,5.47,0,0,1,.592-.56c.528-.384.64-.464.64-.832A1.542,1.542,0,0,0,86.7-12.256a1.452,1.452,0,0,0-.56.16,13.3,13.3,0,0,1-2.944.672c-.464,0-.688,0-1.248-.816a1.624,1.624,0,0,0-.224.832,1.569,1.569,0,0,0,1.328,1.472,4.952,4.952,0,0,0,.688-.336,10.24,10.24,0,0,1,2.24-.96.113.113,0,0,1,.128.112,4.756,4.756,0,0,1-.816,1.392A61.221,61.221,0,0,1,80.92-4.24c-.88.88-1.088,1.1-1.088,1.584a.732.732,0,0,0,.7.816c.32,0,.416-.16.832-.8C82.6-4.56,84.328-6.208,86.7-6.208a2.334,2.334,0,0,1,2.512,2.336,2.84,2.84,0,0,1-1.952,2.688,2.849,2.849,0,0,0-2.544-2.128c-.72,0-1.888.352-1.888,1.472,0,1.408,1.728,1.968,3.232,1.968C89.16.128,90.664-2.08,90.664-3.76ZM86.136-.816a1.44,1.44,0,0,1-.544.1c-.448,0-2.1-.368-2.1-1.232a.736.736,0,0,1,.72-.672A2.443,2.443,0,0,1,86.136-.816Z" transform="translate(1163.23 2590.08)" fill="#fff" stroke="#fff" stroke-width="0.5"/>
  </g>
</svg>
