<svg xmlns="http://www.w3.org/2000/svg" width="230" height="60" viewBox="0 0 230 60">
  <g id="グループ_8" data-name="グループ 8" transform="translate(-1613.665 -3103.914)">
    <rect id="長方形_4" data-name="長方形 4" width="230" height="60" rx="10" transform="translate(1613.665 3103.914)" fill="#d4145a"/>
    <g id="グループ_7" data-name="グループ 7">
      <path id="パス_52" data-name="パス 52" d="M1628.571,3120.781h2.257v-2.8H1627.8a8.036,8.036,0,0,0-1.728.112l-.256-.593c.752.064,1.52.1,2.272.1h2.61l.576-.736c.1-.112.176-.208.272-.208a.469.469,0,0,1,.256.144l1.216.945c.1.079.193.159.193.255,0,.209-.193.3-.641.561,0,.4.032,2.225.032,2.593a.972.972,0,0,1-1.056,1.072c-.8,0-.784-.416-.752-1.056h-2.305c-.16.928-.288,1.905-.416,2.865h2.545l.592-.768c.1-.128.176-.224.256-.224.1,0,.16.032.336.176l1.152.928c.081.064.225.192.225.288,0,.272-.352.432-.529.528-.592,5.41-2,6.035-4.3,6.115a2.65,2.65,0,0,0-1.521-2.449v-.112a9.392,9.392,0,0,0,2.209.288c.8,0,1.024-.256,1.36-1.553a16.777,16.777,0,0,0,.4-2.833h-2.769c-.113.736-.193,1.361-1.2,1.361-.16,0-.848-.016-.848-.561,0-.015.368-1.776.432-2.112a14.253,14.253,0,0,0,.288-2.978Zm10.132-3.634c.176.032.384.08.384.256,0,.144-.112.272-.64.56-.032,2.385-.048,4.787-.048,6.083,0,.928.064,5.074.064,5.922,0,.529,0,1.217-1.345,1.217-.7,0-.72-.384-.72-.736,0-.1.112-3.314.112-3.938.016-6.275-.032-7.411-.064-8.179-.032-.513-.144-1.265-.208-1.633Z" fill="#fff"/>
      <path id="パス_53" data-name="パス 53" d="M1646.139,3129.84c3.554-.48,5.987-2.16,5.987-4.193a2.249,2.249,0,0,0-2.4-2.241c-.3,0-2.033.016-4.354,2.481-.5.544-.688.72-1.04.72a1.89,1.89,0,0,1-1.585-1.793,1.644,1.644,0,0,1,.208-.848c.112.224.4.752.88.752a9.118,9.118,0,0,0,1.857-.72,11.786,11.786,0,0,1,4.4-1.184c1.745,0,3.729.976,3.729,3.137a3.64,3.64,0,0,1-2.721,3.457,12.266,12.266,0,0,1-4.161.608c-.352,0-.593-.016-.8-.032Z" fill="#fff"/>
      <path id="パス_54" data-name="パス 54" d="M1665.645,3118.028a9.683,9.683,0,0,0-1.729.1l-.272-.577c.752.064,1.456.081,2.177.1l.816-.944c.144-.16.176-.208.288-.208.064,0,.1.016.3.208l.961.88c.064.064.288.257.288.369,0,.144,0,.224-1.249.848a9.327,9.327,0,0,0,4.834,7.507v.112a3.144,3.144,0,0,0-1.792,1.745c-1.585-1.121-2.513-3.122-3.138-5.619a10.147,10.147,0,0,1-4.93,5.523c.641.848,1.889.976,4.034.976a26.919,26.919,0,0,0,5.874-.528l.016.128a2.374,2.374,0,0,0-1.12,2.193c-.432.016-.928.048-1.937.048-4.274,0-6.355-.064-7.539-2.961-.768.88-1.536,1.76-2.353,2.593-.16.432-.192.528-.3.528s-.176-.08-.24-.192l-1.2-2.1a14.321,14.321,0,0,0,2.721-.672v-4.258h-.944a6.355,6.355,0,0,0-1.361.112l-.271-.576c.736.08,1.6.08,1.76.08h.625l.64-.849c.064-.08.16-.224.224-.224.08,0,.112.032.272.16l1.3,1.025c.144.112.225.176.225.32,0,.1-.064.176-.24.288a2.5,2.5,0,0,0-.465.352c-.032,2.737-.032,3.041.224,3.441a13.122,13.122,0,0,0,3.618-8.051l.928.208c-.128-1.088-.176-1.968-.192-2.08Zm-6.947-.785c1.36.24,3.409.864,3.409,2.337a1.141,1.141,0,0,1-1.12,1.1c-.5,0-.608-.256-.96-1.169a5.872,5.872,0,0,0-1.425-2.161Z" fill="#fff"/>
      <path id="パス_55" data-name="パス 55" d="M1687.919,3124.574c-.208.7-1.568,5.234-4.77,5.234-2.225,0-2.305-1.872-2.353-2.849-.064-1.616-.1-2.529-1.008-2.529-1.953,0-3.153,2.865-3.825,4.482-.193.448-.465,1.121-1.073,1.121-.432,0-.784-.209-.784-1.057a3.623,3.623,0,0,1,.864-2.161c.928-1.408,3.554-6.082,4.338-7.7a2.038,2.038,0,0,0,.224-.768c0-.272-.32-.72-1.361-.961a2.152,2.152,0,0,1,1.265-.4,2.484,2.484,0,0,1,2.337,1.633c0,.336-.112.464-.721,1.152a27.769,27.769,0,0,0-3.729,5.346c1.313-.976,1.857-1.36,2.945-1.36,1.857,0,1.985,1.216,2.129,2.465.1.848.176,1.649,1.04,1.649.3,0,2.433-.256,4.37-3.378Z" fill="#fff"/>
      <path id="パス_56" data-name="パス 56" d="M1696.652,3119.532a1.642,1.642,0,0,1,.929-.4,1.012,1.012,0,0,1,.944.832c0,.4-.4.609-.64.721a12.339,12.339,0,0,1-2.753.976c-1.505,4.21-1.873,5.25-2.769,7.443-.321.768-.577,1.233-1.057,1.233a1.119,1.119,0,0,1-1.04-1.1c0-.336.1-.48.864-1.76a25.142,25.142,0,0,0,2.513-5.507,6.91,6.91,0,0,1-1.44.16,2.067,2.067,0,0,1-2.193-1.76,4.066,4.066,0,0,0,1.985.512,8.346,8.346,0,0,0,2.1-.336,7.091,7.091,0,0,0,.384-1.937c0-.72-.368-.945-1.264-1.217a1.861,1.861,0,0,1,1.2-.416c.784,0,2.064.576,2.064,1.313a1.443,1.443,0,0,1-.176.56c-.1.208-.5,1.008-.56,1.2A4.985,4.985,0,0,0,1696.652,3119.532Zm.016,7.4c0,1.585,2,1.585,2.673,1.585a8.48,8.48,0,0,0,1.585-.128,4.162,4.162,0,0,1,.9-.16,1.536,1.536,0,0,1,1.409,1.184.688.688,0,0,1-.5.625,10.647,10.647,0,0,1-2.5.272c-1.841,0-4.338-.449-4.338-2.337a2.589,2.589,0,0,1,.944-1.905C1696.812,3126.207,1696.668,3126.8,1696.668,3126.927Zm2.193-2.913c.032-.016,1.505-.976,1.505-1.344,0-.353-1.217-.369-1.377-.369a6.054,6.054,0,0,0-1.376.128,5.383,5.383,0,0,1,3.329-1.216c1.265,0,2.5.72,2.5,1.5a.628.628,0,0,1-.688.657c-.176,0-.929-.064-1.073-.064a7.375,7.375,0,0,0-2.753.8Zm3.41-4.53a.606.606,0,0,1-.593.624c-.288,0-.32-.048-.88-.688a5.878,5.878,0,0,0-1.617-1.264C1700.606,3118.076,1702.271,3118.588,1702.271,3119.484Zm-1.233-2.577c.336,0,2.657,0,2.657,1.329a.613.613,0,0,1-.592.64c-.288,0-.416-.176-.624-.448a5.16,5.16,0,0,0-2-1.5C1700.7,3116.907,1700.846,3116.907,1701.038,3116.907Z" fill="#fff"/>
      <path id="パス_57" data-name="パス 57" d="M1705.433,3130.737l14.15-14.15.32.32-14.149,14.15Z" fill="#fff"/>
      <path id="パス_58" data-name="パス 58" d="M1727.676,3122.525c-.016-.592-.016-3.169-.032-3.7a11.432,11.432,0,0,0-.32-2.321l2.561.56c.224.048.3.112.3.208,0,.24-.384.4-.624.5-.032,1.648-.032,3.649-.032,4.737h2.753a22.05,22.05,0,0,0-.272-4.818l2.385.5c.208.048.272.1.272.224,0,.224-.352.368-.529.432,0,.512-.032,1.712-.015,2.145,0,.288.047,1.52.047,1.776,0,.945-1.136.945-1.232.945-.672,0-.672-.4-.672-.72v-.1h-2.737v6.21h3.521a22.988,22.988,0,0,0-.176-5.106l2.289.448c.192.032.3.064.3.208,0,.224-.352.416-.544.512,0,.368-.016,1.5.016,2.353.016.721.064,2.065.064,2.177,0,.288,0,1.057-1.265,1.057-.688,0-.688-.3-.688-1.265h-8.947a4,4,0,0,1,.015.736c-.112.529-.752.721-1.184.721-.752,0-.752-.384-.752-.721,0-.624.064-3.393.064-3.969a8.591,8.591,0,0,0-.176-2.161l2.273.416c.128.016.32.064.32.224,0,.224-.32.384-.56.5-.017.5-.017,3.249,0,3.873h3.569v-6.21h-2.593c.016.64-.752.848-1.281.848-.672,0-.672-.368-.672-.624,0-.465.048-2.513.048-2.929a9.274,9.274,0,0,0-.256-2.626l2.385.481c.128.032.3.08.3.208,0,.272-.384.448-.528.512-.016.832-.016,1.857,0,3.745Z" fill="#fff"/>
      <path id="パス_59" data-name="パス 59" d="M1742.139,3129.84c3.554-.48,5.987-2.16,5.987-4.193a2.249,2.249,0,0,0-2.4-2.241c-.3,0-2.033.016-4.354,2.481-.5.544-.688.72-1.04.72a1.89,1.89,0,0,1-1.585-1.793,1.644,1.644,0,0,1,.208-.848c.112.224.4.752.88.752a9.118,9.118,0,0,0,1.857-.72,11.786,11.786,0,0,1,4.4-1.184c1.745,0,3.729.976,3.729,3.137a3.64,3.64,0,0,1-2.721,3.457,12.266,12.266,0,0,1-4.161.608c-.352,0-.593-.016-.8-.032Z" fill="#fff"/>
      <path id="パス_60" data-name="パス 60" d="M1756.747,3124.046l.528-.688c.064-.1.176-.24.272-.24a.358.358,0,0,1,.272.144l1.057.928a.461.461,0,0,1,.192.32.31.31,0,0,1-.16.256,3.588,3.588,0,0,0-.384.289c-.561,4.417-.737,5.746-3.378,6.066a3.549,3.549,0,0,0-1.409-2.129l.049-.128a5.38,5.38,0,0,0,1.376.192c.64,0,.833-.08,1.041-.5a17.693,17.693,0,0,0,.656-4.13h-1.521c-.048.7-.08,1.233-.976,1.233-.08,0-.752,0-.752-.449,0-.144.127-1.072.144-1.28a25.658,25.658,0,0,0,.24-3.97l1.664.592h1.169v-2.816h-1.169a8.122,8.122,0,0,0-1.728.111l-.272-.592c.768.064,1.52.1,2.288.1h.849l.432-.576c.144-.192.16-.224.24-.224.1,0,.144.032.352.192l1.025.784c.208.16.224.209.224.3,0,.176-.048.224-.561.608,0,.432.032,2.289,0,2.673a.954.954,0,0,1-1.088.864c-.64,0-.656-.3-.592-1.04h-1.217c-.048.688-.224,2.529-.256,3.1Zm8.579-.256.7-.976c.065-.081.144-.209.241-.209s.176.065.288.16l1.248.993c.08.064.16.128.16.24,0,.144-.128.176-.24.176h-4.69a5.971,5.971,0,0,0,1.393,2.481,7.375,7.375,0,0,0,1.152-2.273l1.745,1.281a.3.3,0,0,1,.16.272c0,.08,0,.176-.5.256a20.186,20.186,0,0,0-2.193.864,8.029,8.029,0,0,0,3.345,2v.128a4.384,4.384,0,0,0-1.536,1.777,6.737,6.737,0,0,1-2.529-2.545c-.785.544-2.849,1.728-3.81,2.225-.16.432-.176.48-.352.48-.128,0-.208-.128-.272-.224l-1.2-1.937a8.15,8.15,0,0,0,1.745-.128v-4.658a8.144,8.144,0,0,0-1.008.1l-.256-.576c.576.048,1.168.064,1.264.064v-3.714a12.065,12.065,0,0,0-.224-3.313l1.857.64h3.1l.656-.912c.08-.112.16-.208.24-.208.1,0,.144.048.3.176l1.12.912a.343.343,0,0,1,.16.24c0,.161-.128.176-.24.176h-5.3v1.729h2.577l.576-.9c.08-.112.144-.192.24-.192a.493.493,0,0,1,.288.144l1.073.912c.08.064.16.128.16.24,0,.144-.128.176-.24.176h-4.674v1.745h2.561l.592-.832c.08-.1.16-.208.256-.208a.5.5,0,0,1,.272.144l1.057.864a.343.343,0,0,1,.16.256c0,.144-.128.16-.24.16h-4.658v1.793Zm-3.457.384v4.37c.272-.064,1.777-.368,2.033-.432a9.951,9.951,0,0,1-1.153-3.938Z" fill="#fff"/>
      <path id="パス_61" data-name="パス 61" d="M1774.139,3129.84c3.554-.48,5.987-2.16,5.987-4.193a2.249,2.249,0,0,0-2.4-2.241c-.3,0-2.033.016-4.354,2.481-.5.544-.688.72-1.04.72a1.89,1.89,0,0,1-1.585-1.793,1.644,1.644,0,0,1,.208-.848c.112.224.4.752.88.752a9.118,9.118,0,0,0,1.857-.72,11.786,11.786,0,0,1,4.4-1.184c1.745,0,3.729.976,3.729,3.137a3.64,3.64,0,0,1-2.721,3.457,12.266,12.266,0,0,1-4.161.608c-.352,0-.593-.016-.8-.032Z" fill="#fff"/>
      <path id="パス_62" data-name="パス 62" d="M1790.363,3118.6c0-.3,0-.864-1.264-1.185a1.622,1.622,0,0,1,1.1-.432c.7,0,2.161.528,2.161,1.313,0,.224-.032.288-.256.7a8.347,8.347,0,0,0-.512,1.04,6.006,6.006,0,0,0,.736-.368c.768-.48.849-.528,1.137-.528a.979.979,0,0,1,.928.864c0,.4-.48.641-.768.769a13.674,13.674,0,0,1-2.641.9c-1.1,3.3-2.593,7.123-2.785,7.539-.529,1.137-.785,1.137-1.041,1.137a1.11,1.11,0,0,1-.976-1.169c0-.384.064-.48.592-1.345a28.589,28.589,0,0,0,2.785-5.874,9.887,9.887,0,0,1-1.553.16,2.03,2.03,0,0,1-2.1-1.76,3.6,3.6,0,0,0,1.968.512,8.853,8.853,0,0,0,2.113-.3A10.334,10.334,0,0,0,1790.363,3118.6Zm2.177,8.339c0,1.585,2.065,1.585,2.7,1.585a7.493,7.493,0,0,0,1.857-.208,3.027,3.027,0,0,1,.592-.08,1.549,1.549,0,0,1,1.393,1.2.584.584,0,0,1-.32.512,5.883,5.883,0,0,1-2.433.4c-4.274,0-4.514-2.033-4.514-2.481a2.348,2.348,0,0,1,.9-1.761A2.267,2.267,0,0,0,1792.54,3126.943Zm2.177-2.913c.528-.336,1.505-1.024,1.505-1.345,0-.384-1.313-.384-1.409-.384a5.449,5.449,0,0,0-1.328.128,4.79,4.79,0,0,1,3.281-1.184c1.921,0,2.545,1.024,2.545,1.5,0,.528-.416.624-.752.624-.16,0-.881-.048-1.041-.048a7.475,7.475,0,0,0-2.753.816Z" fill="#fff"/>
      <path id="パス_63" data-name="パス 63" d="M1808.748,3130.8a6.616,6.616,0,0,0,2.93-1.7,3.826,3.826,0,0,0,1.44-3.025,2.693,2.693,0,0,0-1.793-2.721,12.458,12.458,0,0,1-3.041,4.129c.336.481.416.577.416.9,0,.544-.384,1.056-.736,1.056-.528,0-.848-.64-1.008-1.008a5.743,5.743,0,0,1-3.106,1.424c-.592,0-.7-.208-1.12-1.04a6.157,6.157,0,0,0-.432-.48,1.039,1.039,0,0,1-.192-.688c0-1.073,1.488-3.09,4.225-4.274.049-.641.193-1.681.257-2.161a8.626,8.626,0,0,1-1.457.144,2.167,2.167,0,0,1-1.873-.688,1.577,1.577,0,0,1-.5-.865,4.735,4.735,0,0,0,1.921.4,12.467,12.467,0,0,0,2.113-.208,8.815,8.815,0,0,0,.256-1.728c0-.737-.337-.865-1.313-1.121a1.8,1.8,0,0,1,1.313-.528c1.12,0,2.065.688,2.065,1.153,0,.223-.065.352-.369.928a8.324,8.324,0,0,0-.384.9,13,13,0,0,0,1.633-.688,1.087,1.087,0,0,1,.56-.176c.448,0,1.281.48,1.281.912,0,.336-.5.528-.657.592a22.655,22.655,0,0,1-3.265.769,15.091,15.091,0,0,0-.416,1.953,9.285,9.285,0,0,1,2.289-.385,2.084,2.084,0,0,0-.352-.784c1.36-.112,1.76.624,1.856.849,3.346.544,3.794,2.785,3.794,3.713,0,1.28-.736,2.993-3.362,3.922a12.607,12.607,0,0,1-2.977.64Zm-2.481-6.819a5.8,5.8,0,0,0-2.833,3.89.644.644,0,0,0,.705.7,5.531,5.531,0,0,0,2.464-1.2A10.535,10.535,0,0,1,1806.267,3123.982Zm1.153.192a6.977,6.977,0,0,0,.32,2.225,9.358,9.358,0,0,0,2.033-3.329,7.047,7.047,0,0,0-2.321.368C1807.436,3123.614,1807.42,3123.838,1807.42,3124.174Z" fill="#fff"/>
      <path id="パス_64" data-name="パス 64" d="M1820.2,3125.487a2.127,2.127,0,0,0,.8,1.552,5.1,5.1,0,0,0,2.945.736,19.914,19.914,0,0,0,3.826-.4,3.167,3.167,0,0,1,.576-.08c.64,0,1.633.432,1.633,1.137a.774.774,0,0,1-.513.736,13.974,13.974,0,0,1-4.177.5c-4.818,0-6.051-1.921-6.051-3.265a2.949,2.949,0,0,1,1.345-2.481A4.778,4.778,0,0,0,1820.2,3125.487Zm2.16-3.794c.3-.24,1.9-1.44,1.9-1.537s-.272-.16-.352-.16c-.224-.016-3.137-.432-3.249-2.465a5.335,5.335,0,0,0,3.7,1.025c.32,0,1.713-.048,2-.048,1.681,0,2.209,1.008,2.209,1.392,0,.561-.576.656-1.184.673a10.664,10.664,0,0,0-4.947,1.216Zm8.436-2.369a.593.593,0,0,1-.56.624c-.273,0-.337-.1-.881-.832a3.853,3.853,0,0,0-1.408-1.329C1830.511,3117.884,1830.8,3118.956,1830.8,3119.324Zm-.769-2.193c.737,0,2.465.272,2.465,1.409a.551.551,0,0,1-.56.608c-.224,0-.288-.08-.784-.7a3.276,3.276,0,0,0-1.617-1.281C1829.742,3117.147,1829.854,3117.131,1830.03,3117.131Z" fill="#fff"/>
      <path id="パス_65" data-name="パス 65" d="M1677.595,3143.5a11.447,11.447,0,0,1-.32,2.161c1.585.256,2.5,1.184,2.5,2.032a.97.97,0,0,1-.992.961c-.641,0-.705-.4-.785-.785a4.844,4.844,0,0,0-.832-1.84,8.235,8.235,0,0,1-3.73,4.689l-.1-.095a9.963,9.963,0,0,0,1.937-3.41,12.191,12.191,0,0,0,.689-3.713h-.689a7.76,7.76,0,0,0-1.728.112l-.257-.593c.737.064,1.553.1,2.273.1h.433c.032-.9.032-2.833.015-3.3h-.24a12.261,12.261,0,0,1-2.177,2.673l-.128-.08a16.446,16.446,0,0,0,1.633-6.354l2.209.928c.208.1.272.144.272.224,0,.256-.448.352-.688.4a13.283,13.283,0,0,1-.881,1.825h1.681l.544-1.024c.048-.1.128-.193.224-.193.065,0,.129.017.305.161l1.216,1.024c.064.064.16.144.16.24,0,.176-.16.176-.24.176h-2.257c.048,1.905,0,2.865-.032,3.3h.336l.577-.96c.064-.112.144-.192.24-.192a.481.481,0,0,1,.288.16l1.072.96c.1.081.16.144.16.241,0,.16-.16.176-.24.176Zm7.939,6.242.737-1.184c.048-.08.128-.208.224-.208a.569.569,0,0,1,.3.176l1.2,1.184c.1.1.16.144.16.24,0,.144-.144.176-.24.176H1680.6a8.058,8.058,0,0,0-1.728.112l-.256-.592c.752.064,1.52.1,2.272.1h2.545a14.516,14.516,0,0,0,1.057-4.706l2.129.961c.208.1.272.16.272.256,0,.16-.192.256-.688.368a25.2,25.2,0,0,1-2.433,3.121Zm-.336-12.117.72-1.12c.065-.112.145-.208.256-.208.081,0,.193.1.289.176l1.312,1.12c.064.064.16.144.16.24,0,.16-.144.176-.24.176h-6.162a7.954,7.954,0,0,0-1.729.113l-.272-.593c.768.064,1.52.1,2.289.1Zm-.4,2.433.464-.7c.128-.208.176-.256.256-.256a.859.859,0,0,1,.352.192l1.137.768c.144.1.24.176.24.288,0,.208-.416.513-.64.673v1.728c0,.224.064,1.217.064,1.409,0,.656-.673.9-1.089.9-.72,0-.7-.3-.7-.672h-2.737c-.032.832-.977.832-1.153.832-.56,0-.56-.32-.56-.832,0-.112.032-2.129.032-2.545a25.647,25.647,0,0,0-.128-2.609l1.873.832Zm-4.146,5.538c.593.177,2.513.737,2.513,2.225a1.066,1.066,0,0,1-1.008,1.137c-.672,0-.736-.432-.849-1.185a4.8,4.8,0,0,0-.768-2.065Zm1.473-5.154V3144h2.753v-3.554Z" fill="#fff"/>
      <path id="パス_66" data-name="パス 66" d="M1696.076,3142.816c-.192.5-1.248,3.25-1.361,3.634a1.42,1.42,0,0,0-.095.512c0,.176.24.96.24,1.121a.768.768,0,0,1-.849.752c-.912,0-3.089-1.185-3.217-5.6-.016-.448-.08-2.432-.112-2.72a4.386,4.386,0,0,0-.72-2.049c1.424.144,2.769.944,2.769,2.144a2.958,2.958,0,0,1-.1.625,12.273,12.273,0,0,0-.432,2.673c0,1.312.56,2.417.912,2.417.224,0,.528-.384.7-.609.769-.96,1.713-2.3,2.129-2.945Zm2.721,1.713c.192-.016,1.793-.24,1.969-.3a.414.414,0,0,0,.256-.432,6.438,6.438,0,0,0-.736-2.257,8,8,0,0,0-1.7-1.953c2.241.048,4.546,2.561,4.546,4.882,0,1.1-.608,1.793-1.025,1.793-.368,0-.5-.16-.912-.689a4.274,4.274,0,0,0-2.4-.928Z" fill="#fff"/>
      <path id="パス_67" data-name="パス 67" d="M1705.433,3150.4l14.15-14.149.32.32-14.149,14.149Z" fill="#fff"/>
      <path id="パス_68" data-name="パス 68" d="M1733.07,3143.537l.848-1.057c.145-.176.177-.208.256-.208s.113.032.305.176l1.312,1.057c.064.064.16.128.16.24,0,.16-.144.176-.256.176h-3.553l1.985,1.52a.172.172,0,0,1,.08.145c0,.144-.241.144-.737.144-.816.32-1.008.384-2.785.96a10.832,10.832,0,0,0,5.474,1.825v.128a3.3,3.3,0,0,0-1.936,2.016,12.108,12.108,0,0,1-4.5-2.961,57.961,57.961,0,0,1-6,2.673c-.208.417-.24.417-.336.417s-.128-.08-.16-.144l-1.168-2.3c.3.016.5.032.912.032.88,0,1.313-.048,1.617-.064v-4.386h-1.009a8.053,8.053,0,0,0-1.729.112l-.256-.592c.753.064,1.521.1,2.273.1h.721v-3.025a29.91,29.91,0,0,0-.208-3.954l2.048.832h5.107l.72-.992c.064-.1.144-.192.24-.192.064,0,.08,0,.3.16l1.393.992a.342.342,0,0,1,.16.24c0,.144-.144.176-.241.176h-7.73v1.6h4.193l.688-.912c.032-.048.161-.192.256-.192.064,0,.081,0,.305.159l1.28.913a.341.341,0,0,1,.16.24c0,.16-.144.176-.24.176h-6.642v1.6h4.145l.736-.913c.129-.144.161-.208.241-.208.064,0,.1.032.3.176l1.264.913c.1.08.16.144.16.256,0,.144-.144.16-.24.16h-6.61v1.793Zm-6.69.384v4.177c.64-.095,1.584-.24,3.2-.576a6.933,6.933,0,0,1-1.6-3.6Zm1.984,0a6.472,6.472,0,0,0,1.969,2.513,11.573,11.573,0,0,0,1.681-2.513Z" fill="#fff"/>
      <path id="パス_69" data-name="パス 69" d="M1744.076,3142.816c-.192.5-1.248,3.25-1.361,3.634a1.42,1.42,0,0,0-.095.512c0,.176.24.96.24,1.121a.768.768,0,0,1-.849.752c-.912,0-3.089-1.185-3.217-5.6-.016-.448-.08-2.432-.112-2.72a4.386,4.386,0,0,0-.72-2.049c1.424.144,2.769.944,2.769,2.144a2.958,2.958,0,0,1-.1.625,12.273,12.273,0,0,0-.432,2.673c0,1.312.56,2.417.912,2.417.224,0,.528-.384.7-.609.769-.96,1.713-2.3,2.129-2.945Zm2.721,1.713c.192-.016,1.793-.24,1.969-.3a.414.414,0,0,0,.256-.432,6.438,6.438,0,0,0-.736-2.257,8,8,0,0,0-1.7-1.953c2.241.048,4.546,2.561,4.546,4.882,0,1.1-.608,1.793-1.025,1.793-.368,0-.5-.16-.912-.689a4.274,4.274,0,0,0-2.4-.928Z" fill="#fff"/>
      <path id="パス_70" data-name="パス 70" d="M1760.748,3150.468a6.627,6.627,0,0,0,2.93-1.7,3.827,3.827,0,0,0,1.44-3.025,2.694,2.694,0,0,0-1.793-2.722,12.449,12.449,0,0,1-3.041,4.13c.336.48.416.576.416.9,0,.544-.384,1.056-.736,1.056-.528,0-.848-.64-1.008-1.009a5.738,5.738,0,0,1-3.106,1.425c-.592,0-.7-.208-1.12-1.04a6.157,6.157,0,0,0-.432-.48,1.043,1.043,0,0,1-.192-.689c0-1.072,1.488-3.089,4.225-4.274.049-.64.193-1.68.257-2.16a8.626,8.626,0,0,1-1.457.144,2.164,2.164,0,0,1-1.873-.689,1.572,1.572,0,0,1-.5-.864,4.735,4.735,0,0,0,1.921.4,12.467,12.467,0,0,0,2.113-.208,8.81,8.81,0,0,0,.256-1.729c0-.736-.337-.864-1.313-1.12a1.8,1.8,0,0,1,1.313-.528c1.12,0,2.065.688,2.065,1.152,0,.224-.065.352-.369.929a8.346,8.346,0,0,0-.384.9,13,13,0,0,0,1.633-.688,1.077,1.077,0,0,1,.56-.176c.448,0,1.281.48,1.281.912,0,.336-.5.528-.657.592a22.861,22.861,0,0,1-3.265.768,15.16,15.16,0,0,0-.416,1.953,9.268,9.268,0,0,1,2.289-.384,2.084,2.084,0,0,0-.352-.784c1.36-.112,1.76.624,1.856.848,3.346.544,3.794,2.785,3.794,3.714,0,1.28-.736,2.993-3.362,3.921a12.607,12.607,0,0,1-2.977.64Zm-2.481-6.819a5.8,5.8,0,0,0-2.833,3.889.644.644,0,0,0,.705.7,5.543,5.543,0,0,0,2.464-1.2A10.535,10.535,0,0,1,1758.267,3143.649Zm1.153.192a6.98,6.98,0,0,0,.32,2.225,9.352,9.352,0,0,0,2.033-3.33,7.026,7.026,0,0,0-2.321.369C1759.436,3143.281,1759.42,3143.5,1759.42,3143.841Z" fill="#fff"/>
      <path id="パス_71" data-name="パス 71" d="M1772.2,3145.153a2.127,2.127,0,0,0,.8,1.553,5.1,5.1,0,0,0,2.945.736,19.914,19.914,0,0,0,3.826-.4,3.167,3.167,0,0,1,.576-.08c.64,0,1.633.432,1.633,1.136a.775.775,0,0,1-.513.737,13.974,13.974,0,0,1-4.177.5c-4.818,0-6.051-1.921-6.051-3.265a2.948,2.948,0,0,1,1.345-2.481A4.778,4.778,0,0,0,1772.2,3145.153Zm2.16-3.793c.3-.24,1.9-1.441,1.9-1.537s-.272-.16-.352-.16c-.224-.016-3.137-.432-3.249-2.465a5.339,5.339,0,0,0,3.7,1.024c.32,0,1.713-.047,2-.047,1.681,0,2.209,1.008,2.209,1.392,0,.56-.576.656-1.184.672a10.653,10.653,0,0,0-4.947,1.217Zm8.436-2.369a.593.593,0,0,1-.56.624c-.273,0-.337-.1-.881-.832a3.835,3.835,0,0,0-1.408-1.329C1782.511,3137.55,1782.8,3138.623,1782.8,3138.991Zm-.769-2.193c.737,0,2.465.272,2.465,1.409a.551.551,0,0,1-.56.608c-.224,0-.288-.08-.784-.7a3.278,3.278,0,0,0-1.617-1.28C1781.742,3136.814,1781.854,3136.8,1782.03,3136.8Z" fill="#fff"/>
    </g>
  </g>
</svg>
