<svg xmlns="http://www.w3.org/2000/svg" width="230" height="60" viewBox="0 0 230 60">
  <g id="グループ_2" data-name="グループ 2" transform="translate(-1613.665 -2955.372)">
    <rect id="長方形_1" data-name="長方形 1" width="230" height="60" rx="10" transform="translate(1613.665 2955.372)" fill="#d4145a"/>
    <g id="グループ_1" data-name="グループ 1">
      <path id="パス_1" data-name="パス 1" d="M1679.676,2972.984c-.016-.592-.016-3.169-.032-3.7a11.442,11.442,0,0,0-.32-2.321l2.561.56c.224.049.3.113.3.208,0,.241-.384.4-.624.5-.032,1.648-.032,3.649-.032,4.738h2.753a22.046,22.046,0,0,0-.272-4.818l2.385.5c.208.048.272.1.272.224,0,.224-.352.368-.529.432,0,.513-.032,1.713-.015,2.145,0,.288.047,1.521.047,1.777,0,.944-1.136.944-1.232.944-.672,0-.672-.4-.672-.72v-.1h-2.737v6.211h3.521a23,23,0,0,0-.176-5.107l2.289.448c.192.033.3.064.3.208,0,.225-.352.417-.544.513,0,.368-.016,1.5.016,2.353.016.72.064,2.065.064,2.177,0,.288,0,1.056-1.265,1.056-.688,0-.688-.3-.688-1.265h-8.947a4.006,4.006,0,0,1,.015.737c-.112.528-.752.72-1.184.72-.752,0-.752-.384-.752-.72,0-.624.064-3.393.064-3.97a8.6,8.6,0,0,0-.176-2.161l2.273.416c.128.016.32.065.32.224,0,.225-.32.385-.56.5-.017.5-.017,3.249,0,3.874h3.569v-6.211h-2.593c.016.64-.752.848-1.281.848-.672,0-.672-.368-.672-.624,0-.464.048-2.513.048-2.929a9.262,9.262,0,0,0-.256-2.625l2.385.48c.128.032.3.08.3.208,0,.272-.384.448-.528.512-.016.833-.016,1.857,0,3.746Z" fill="#fff"/>
      <path id="パス_2" data-name="パス 2" d="M1694.139,2980.3c3.554-.481,5.987-2.161,5.987-4.194a2.25,2.25,0,0,0-2.4-2.241c-.3,0-2.033.016-4.354,2.481-.5.544-.688.721-1.04.721a1.891,1.891,0,0,1-1.585-1.793,1.65,1.65,0,0,1,.208-.849c.112.225.4.753.88.753a9.151,9.151,0,0,0,1.857-.721,11.786,11.786,0,0,1,4.4-1.184c1.745,0,3.729.976,3.729,3.137a3.641,3.641,0,0,1-2.721,3.458,12.266,12.266,0,0,1-4.161.608c-.352,0-.593-.016-.8-.032Z" fill="#fff"/>
      <path id="パス_3" data-name="パス 3" d="M1708.747,2974.5l.528-.688c.064-.1.176-.24.272-.24a.358.358,0,0,1,.272.144l1.057.929a.457.457,0,0,1,.192.319.31.31,0,0,1-.16.257,3.748,3.748,0,0,0-.384.288c-.561,4.418-.737,5.746-3.378,6.066a3.553,3.553,0,0,0-1.409-2.129l.049-.128a5.334,5.334,0,0,0,1.376.192c.64,0,.833-.08,1.041-.5a17.685,17.685,0,0,0,.656-4.129h-1.521c-.048.7-.08,1.232-.976,1.232-.08,0-.752,0-.752-.448,0-.144.127-1.073.144-1.281a25.652,25.652,0,0,0,.24-3.969l1.664.592h1.169V2968.2h-1.169a8.034,8.034,0,0,0-1.728.112l-.272-.592c.768.064,1.52.1,2.288.1h.849l.432-.577c.144-.192.16-.224.24-.224.1,0,.144.032.352.193l1.025.784c.208.16.224.208.224.3,0,.176-.048.224-.561.608,0,.432.032,2.289,0,2.673a.954.954,0,0,1-1.088.865c-.64,0-.656-.3-.592-1.041h-1.217c-.048.688-.224,2.529-.256,3.1Zm8.579-.256.7-.976c.065-.08.144-.208.241-.208s.176.064.288.16l1.248.992c.08.064.16.128.16.24,0,.144-.128.176-.24.176h-4.69a5.965,5.965,0,0,0,1.393,2.481,7.375,7.375,0,0,0,1.152-2.273l1.745,1.281a.3.3,0,0,1,.16.272c0,.08,0,.176-.5.256a19.994,19.994,0,0,0-2.193.865,8.04,8.04,0,0,0,3.345,2v.129a4.381,4.381,0,0,0-1.536,1.776,6.729,6.729,0,0,1-2.529-2.545c-.785.545-2.849,1.729-3.81,2.225-.16.432-.176.48-.352.48-.128,0-.208-.128-.272-.224l-1.2-1.936a8.242,8.242,0,0,0,1.745-.129v-4.658a8.241,8.241,0,0,0-1.008.1l-.256-.577c.576.048,1.168.064,1.264.064V2970.5a12.06,12.06,0,0,0-.224-3.313l1.857.64h3.1l.656-.913c.08-.112.16-.208.24-.208.1,0,.144.048.3.176l1.12.912a.345.345,0,0,1,.16.241c0,.16-.128.176-.24.176h-5.3v1.728h2.577l.576-.9c.08-.112.144-.192.24-.192a.493.493,0,0,1,.288.144l1.073.913c.08.064.16.128.16.239,0,.145-.128.177-.24.177h-4.674v1.744h2.561l.592-.832c.08-.1.16-.208.256-.208a.5.5,0,0,1,.272.144l1.057.864a.347.347,0,0,1,.16.256c0,.145-.128.161-.24.161h-4.658v1.792Zm-3.457.384V2979c.272-.064,1.777-.368,2.033-.432a9.951,9.951,0,0,1-1.153-3.938Z" fill="#fff"/>
      <path id="パス_4" data-name="パス 4" d="M1726.139,2980.3c3.554-.481,5.987-2.161,5.987-4.194a2.25,2.25,0,0,0-2.4-2.241c-.3,0-2.033.016-4.354,2.481-.5.544-.688.721-1.04.721a1.891,1.891,0,0,1-1.585-1.793,1.65,1.65,0,0,1,.208-.849c.112.225.4.753.88.753a9.151,9.151,0,0,0,1.857-.721,11.786,11.786,0,0,1,4.4-1.184c1.745,0,3.729.976,3.729,3.137a3.641,3.641,0,0,1-2.721,3.458,12.266,12.266,0,0,1-4.161.608c-.352,0-.593-.016-.8-.032Z" fill="#fff"/>
      <path id="パス_5" data-name="パス 5" d="M1742.363,2969.062c0-.3,0-.864-1.264-1.184a1.622,1.622,0,0,1,1.1-.433c.7,0,2.161.529,2.161,1.313,0,.224-.032.288-.256.7a8.41,8.41,0,0,0-.512,1.041,6.006,6.006,0,0,0,.736-.368c.768-.481.849-.528,1.137-.528a.979.979,0,0,1,.928.864c0,.4-.48.64-.768.768a13.674,13.674,0,0,1-2.641.9c-1.1,3.3-2.593,7.123-2.785,7.539-.529,1.137-.785,1.137-1.041,1.137a1.109,1.109,0,0,1-.976-1.168c0-.385.064-.481.592-1.345a28.621,28.621,0,0,0,2.785-5.875,9.875,9.875,0,0,1-1.553.161,2.03,2.03,0,0,1-2.1-1.761,3.6,3.6,0,0,0,1.968.512,8.853,8.853,0,0,0,2.113-.3A10.334,10.334,0,0,0,1742.363,2969.062Zm2.177,8.339c0,1.585,2.065,1.585,2.7,1.585a7.493,7.493,0,0,0,1.857-.208,3.027,3.027,0,0,1,.592-.08,1.548,1.548,0,0,1,1.393,1.2.584.584,0,0,1-.32.512,5.889,5.889,0,0,1-2.433.4c-4.274,0-4.514-2.033-4.514-2.481a2.35,2.35,0,0,1,.9-1.761A2.266,2.266,0,0,0,1744.54,2977.4Zm2.177-2.913c.528-.336,1.505-1.024,1.505-1.344,0-.384-1.313-.384-1.409-.384a5.449,5.449,0,0,0-1.328.128,4.791,4.791,0,0,1,3.281-1.185c1.921,0,2.545,1.025,2.545,1.505,0,.528-.416.624-.752.624-.16,0-.881-.048-1.041-.048a7.475,7.475,0,0,0-2.753.816Z" fill="#fff"/>
      <path id="パス_6" data-name="パス 6" d="M1761.837,2972.248c0,.144-.224.736-.24.864a9.541,9.541,0,0,0-.112,1.329c-.032.624-.048.96-.128,2.176,3.041-.176,3.377-.192,3.649-.3a2.48,2.48,0,0,1,.752-.192c.625,0,1.937.752,1.937,1.537a.525.525,0,0,1-.544.544c-.208,0-1.072-.208-1.249-.24a19.011,19.011,0,0,0-2.945-.209,26.2,26.2,0,0,0-6.21.641c-.192.048-1.153.4-1.185.4a2.435,2.435,0,0,1-1.6-2.193,2.307,2.307,0,0,1,.192-.88,1.939,1.939,0,0,0,2.112,1.248c.737,0,1.185-.031,3.6-.24a28.479,28.479,0,0,0-.112-4.514.533.533,0,0,0-.384-.432,7.193,7.193,0,0,0-1.6.3,1.491,1.491,0,0,1-.352.064c-.576,0-1.424-1.1-1.424-1.888a.447.447,0,0,1,.032-.16,2.609,2.609,0,0,0,1.712.544,28.017,28.017,0,0,0,4.85-.433c.176-.031.945-.3,1.1-.3.465,0,1.393.447,1.393,1.008,0,.272-.224.608-.784.608-.8,0-2.481,0-3.185.048C1761.773,2971.991,1761.837,2972.039,1761.837,2972.248Z" fill="#fff"/>
      <path id="パス_7" data-name="パス 7" d="M1772.731,2980.907a13.467,13.467,0,0,0,6.418-7.939,24.678,24.678,0,0,0-5.522.96,6.378,6.378,0,0,1-.768.272c-.576,0-1.569-1.152-1.569-2.081a1.592,1.592,0,0,1,.224-.768,1.725,1.725,0,0,0,1.873,1.089,53.841,53.841,0,0,0,5.874-.641c.129-.048.625-.4.737-.464a.417.417,0,0,1,.24-.064c.3,0,1.68,1.152,1.68,1.553,0,.224-.111.32-.448.512-.352.208-.4.288-.8,1.12a11.571,11.571,0,0,1-3.521,4.674,9.228,9.228,0,0,1-4.37,1.889Zm1.905-11.7a13.3,13.3,0,0,0,3.345-.416c.192-.048.88-.256,1.024-.256.192,0,1.729.192,1.729,1.024,0,.577-.688.592-1.681.592a30.863,30.863,0,0,0-4.065.369c-.176.032-.849.16-.977.16a1.832,1.832,0,0,1-1.392-1.777,1.178,1.178,0,0,1,.08-.384A2.4,2.4,0,0,0,1774.636,2969.206Z" fill="#fff"/>
      <path id="パス_8" data-name="パス 8" d="M1634.794,2994.011c.176,0,.272,0,1.889-1.809,1.953-2.193,2.049-2.289,2.673-2.289.768,0,1.2.448,2.561,1.873a16.449,16.449,0,0,0,4.53,3.553,2.7,2.7,0,0,1,1.328,2.065.754.754,0,0,1-.688.769c-1.2,0-4.146-3.266-5.65-5.074-.432-.512-1.537-1.825-1.937-1.825-.3,0-.544,0-2.7,3.473a7.128,7.128,0,0,0-.464,1.025c-.112.288-.192.48-.545.48a2.778,2.778,0,0,1-2.081-2.417,1.441,1.441,0,0,1,.113-.624C1634.186,2993.675,1634.474,2994.011,1634.794,2994.011Zm11.076-3.1a.6.6,0,0,1-.592.64c-.32,0-.384-.08-.928-.736a6.256,6.256,0,0,0-1.761-1.441C1644.494,2989.337,1645.87,2990.042,1645.87,2990.906Zm1.649-1.249a.543.543,0,0,1-.512.609c-.224,0-.5-.1-.9-.593a5.3,5.3,0,0,0-1.888-1.568C1646.383,2987.977,1647.519,2988.825,1647.519,2989.657Z" fill="#fff"/>
      <path id="パス_9" data-name="パス 9" d="M1652.747,2993.131c.912,0,6.963-.032,7.443-.176.08-.016.592-.177.64-.177.72,0,2.017.288,2.017,1.169,0,.432-.416.656-1.008.656-.225,0-.385-.016-1.025-.048-.72-.048-2.977-.032-3.826-.032a27.488,27.488,0,0,0-4.5.4,2.383,2.383,0,0,1-.593.144c-.528,0-1.536-1.248-1.536-2.112a3.3,3.3,0,0,1,.368-1.121C1651.178,2992.955,1651.45,2993.131,1652.747,2993.131Z" fill="#fff"/>
      <path id="パス_10" data-name="パス 10" d="M1665.786,2999.645c4.337-2.177,7.891-7.907,8.419-9.747a26.186,26.186,0,0,0-3.778,1.088c-.7.4-.768.432-.944.432-.48,0-1.376-1.04-1.376-2.033a2.8,2.8,0,0,1,.144-.928,1.787,1.787,0,0,0,1.6,1.136,21.786,21.786,0,0,0,4.578-.7c.08-.064.384-.368.464-.432a.3.3,0,0,1,.192-.064,5.415,5.415,0,0,1,1.057.768c.672.56.672.624.672.768,0,.193-.08.224-.4.385a1.038,1.038,0,0,0-.56.544,22.333,22.333,0,0,1-2.241,3.553,11.494,11.494,0,0,1,3.985,2.321,2.282,2.282,0,0,1,.881,1.665,1.07,1.07,0,0,1-.977,1.184c-.416,0-.624-.288-.816-.592-1.569-2.529-2.017-3.249-3.3-4.306a13.862,13.862,0,0,1-7.571,5.091Z" fill="#fff"/>
      <path id="パス_11" data-name="パス 11" d="M1688.236,2995.756a.323.323,0,0,1,.144.224c0,.144-.08.176-.768.224a11.954,11.954,0,0,1-4.4,1.6,7.445,7.445,0,0,1-1.808,3.009l-.129-.048c.993-1.681.993-5.682.993-6.5a25.41,25.41,0,0,0-.16-2.993l1.824.576h1.425a8.5,8.5,0,0,0,.768-2.961l1.729.752c.16.064.24.128.24.24,0,.144-.192.225-.464.3-.3.239-1.617,1.456-1.905,1.664h1.377l.528-.736c.08-.112.16-.192.24-.192.1,0,.24.128.3.176l.833.72c.112.1.159.176.159.24,0,.16-.144.176-.24.176H1683.9c0,.1,0,1.345-.16,2.866a9.353,9.353,0,0,0,2.417-2.53l1.585,1.009c.1.064.176.128.176.208,0,.208-.128.224-.816.192a13.283,13.283,0,0,1-3.378,1.377,13.716,13.716,0,0,1-.448,2.3,10.783,10.783,0,0,0,3.554-3.058Zm-1.44-7.331.56-.817c.112-.16.176-.208.256-.208.1,0,.208.112.288.176l.96.817c.081.08.16.144.16.24,0,.144-.144.176-.256.176h-5.138a7.958,7.958,0,0,0-1.728.112l-.273-.592c.769.064,1.521.1,2.289.1h.465a5.354,5.354,0,0,0-.24-1.905l1.808.32c.272.048.433.08.433.288,0,.112-.145.224-.433.4-.016.177-.016.257-.016.9Zm1.824,9.412c.1.063.176.144.176.208,0,.176-.16.208-.8.32a12.542,12.542,0,0,1-5.986,2.753l-.048-.1a16.011,16.011,0,0,0,4.385-3.169,7.018,7.018,0,0,0,.769-1.041Zm-5.874-8.66c.464.1,2.257.432,2.257,1.649a.8.8,0,0,1-.817.848c-.464,0-.624-.272-.8-.9a5.632,5.632,0,0,0-.7-1.505Zm8.371.929c.08-.769.1-1.009.128-1.889h-.448a8.965,8.965,0,0,0-1.745.112l-.256-.593c.737.064,1.553.1,2.289.1h2.369l.609-.945c.047-.08.144-.208.24-.208.08,0,.176.08.288.176l1.184.944a.363.363,0,0,1,.16.257c0,.16-.144.16-.24.16h-2.433a15.218,15.218,0,0,1-1.569,1.889h1.649l.465-.561c.047-.048.159-.16.24-.16a.608.608,0,0,1,.3.16l1.088.785c.112.08.208.16.208.288,0,.16-.064.192-.56.592,0,.448.016,2.689.016,3.2,0,.416.064,2.481.064,2.946a.951.951,0,0,1-1.072.9c-.657,0-.657-.256-.641-.625h-2.449c.016.353-.064.465-.16.545l1.169.672a.252.252,0,0,1,.16.224c0,.128-.112.176-.737.272a12.309,12.309,0,0,1-4.481,1.921l-.064-.112a11.549,11.549,0,0,0,3.137-2.753c-.672,0-.672-.3-.672-.512,0-.577.048-3.378.048-4.018a23.876,23.876,0,0,0-.208-4.258l1.68.5Zm-.128.384v1.872h2.465v-1.872Zm2.465,2.257h-2.465v1.952h2.465Zm0,2.337h-2.465v2.16h2.465Zm-1.072,3.009c1.6.24,3.505.976,3.505,2.144a.922.922,0,0,1-.9.929c-.48,0-.672-.3-1.137-1.057a9.3,9.3,0,0,0-1.536-1.9Z" fill="#fff"/>
      <path id="パス_12" data-name="パス 12" d="M1704.108,2999.821c.992-.4,5.026-2.1,5.026-6.418a4.062,4.062,0,0,0-4.4-4.29,2.113,2.113,0,0,0-.768.1c.416.24,1.425.816,1.425,1.777,0,.784-1.505,3.809-2.481,5.362-.433.688-1.537,2.433-2.4,2.433-.577,0-.769-.32-1.2-1.025a2.063,2.063,0,0,0-.64-.7,2.477,2.477,0,0,1-.72-1.952c0-3.538,3.025-6.547,7.139-6.547,3.025,0,6.162,1.808,6.162,5.3,0,4.994-5.554,5.859-7.107,6.083Zm-4.69-4.962c0,.544.24,2.209.929,2.209.672,0,1.456-1.632,2.065-2.881a13.249,13.249,0,0,0,1.36-3.841,1.61,1.61,0,0,0-.336-1.041A6.28,6.28,0,0,0,1699.418,2994.859Z" fill="#fff"/>
      <path id="パス_13" data-name="パス 13" d="M1716.587,2999.934c3.953-1.953,6.69-7.2,6.835-9.573a46.788,46.788,0,0,0-5.939,1.073,6.847,6.847,0,0,1-.736.272,2.543,2.543,0,0,1-1.585-2.225,2.032,2.032,0,0,1,.192-.88,2.312,2.312,0,0,0,2.337,1.184c.833,0,5.33-.272,5.858-.592a7.834,7.834,0,0,1,.817-.464c.272,0,1.248.961,1.488,1.2a.665.665,0,0,1,.256.512c0,.289-.047.305-.56.593a1.1,1.1,0,0,0-.528.752c-1.184,3.778-3.505,7.059-8.387,8.276Z" fill="#fff"/>
      <path id="パス_14" data-name="パス 14" d="M1737.565,2994.139c0,.1-.176.512-.192.593-.112.527-.224,2.641-.241,2.864.417-.031,2.193-.128,2.561-.176.145-.016.769-.191.9-.191s1.6.56,1.6,1.2c0,.464-.369.512-.577.512s-1.136-.192-1.312-.208a21.8,21.8,0,0,0-2.273-.176,22.053,22.053,0,0,0-4.546.512,9.065,9.065,0,0,1-.976.352,2.245,2.245,0,0,1-1.361-1.729,1.975,1.975,0,0,1,.176-.8,1.751,1.751,0,0,0,1.489,1.008c.288,0,.624-.031,3.073-.208.016-.208.032-.624.032-1.36a15.369,15.369,0,0,0-.112-2.145,1.6,1.6,0,0,0-.144-.368,8.034,8.034,0,0,0-.992.16,2.836,2.836,0,0,1-.561.112c-.656,0-1.344-1.04-1.248-1.681a2.325,2.325,0,0,0,1.456.481,26.639,26.639,0,0,0,3.6-.3c.16-.033.832-.272.992-.272.4,0,1.185.368,1.185.88,0,.432-.481.432-.689.432-.768,0-1.712,0-2.305.032C1737.437,2993.883,1737.565,2993.979,1737.565,2994.139Z" fill="#fff"/>
      <path id="パス_15" data-name="パス 15" d="M1746.538,2996.364c3.3-2.177,7.763-7.187,7.763-8,0-.561-.448-.849-.848-1.1a2.713,2.713,0,0,1,3.185,1.857c0,.288-.272.432-.576.577a1.893,1.893,0,0,0-.608.5c-1.425,1.472-1.777,1.792-2.193,2.176.416.257.816.48.816.689,0,.015-.16.528-.176.592a4.306,4.306,0,0,0-.08.928c0,.785.1,4.258.1,4.962,0,.609-.256,1.169-.753,1.169-.7,0-1.088-1.121-1.088-1.409,0-.192.176-1.024.192-1.185.048-.367.1-2.176.1-2.993a8.685,8.685,0,0,0-.128-1.872,18.466,18.466,0,0,1-5.634,3.233Z" fill="#fff"/>
      <path id="パス_16" data-name="パス 16" d="M1761.786,2999.645c4.337-2.177,7.891-7.907,8.419-9.747a26.186,26.186,0,0,0-3.778,1.088c-.7.4-.768.432-.944.432-.48,0-1.376-1.04-1.376-2.033a2.8,2.8,0,0,1,.144-.928,1.787,1.787,0,0,0,1.6,1.136,21.786,21.786,0,0,0,4.578-.7c.08-.064.384-.368.464-.432a.3.3,0,0,1,.192-.064,5.415,5.415,0,0,1,1.057.768c.672.56.672.624.672.768,0,.193-.08.224-.4.385a1.038,1.038,0,0,0-.56.544,22.333,22.333,0,0,1-2.241,3.553,11.494,11.494,0,0,1,3.985,2.321,2.282,2.282,0,0,1,.881,1.665,1.07,1.07,0,0,1-.977,1.184c-.416,0-.624-.288-.816-.592-1.569-2.529-2.017-3.249-3.3-4.306a13.862,13.862,0,0,1-7.571,5.091Z" fill="#fff"/>
      <path id="パス_17" data-name="パス 17" d="M1780.731,3000.574a13.465,13.465,0,0,0,6.418-7.94,24.666,24.666,0,0,0-5.522.961,6.378,6.378,0,0,1-.768.272c-.576,0-1.569-1.153-1.569-2.081a1.589,1.589,0,0,1,.224-.768,1.725,1.725,0,0,0,1.873,1.089,54.085,54.085,0,0,0,5.874-.641c.129-.048.625-.4.737-.464a.417.417,0,0,1,.24-.064c.3,0,1.68,1.152,1.68,1.552,0,.224-.111.321-.448.513-.352.208-.4.288-.8,1.12a11.58,11.58,0,0,1-3.521,4.674,9.23,9.23,0,0,1-4.37,1.889Zm1.905-11.7a13.3,13.3,0,0,0,3.345-.416c.192-.048.88-.256,1.024-.256.192,0,1.729.192,1.729,1.024,0,.576-.688.592-1.681.592a30.7,30.7,0,0,0-4.065.369c-.176.031-.849.16-.977.16a1.833,1.833,0,0,1-1.392-1.777,1.178,1.178,0,0,1,.08-.384A2.4,2.4,0,0,0,1782.636,2988.873Z" fill="#fff"/>
      <path id="パス_18" data-name="パス 18" d="M1794.538,2996.364c3.3-2.177,7.763-7.187,7.763-8,0-.561-.448-.849-.848-1.1a2.713,2.713,0,0,1,3.185,1.857c0,.288-.272.432-.576.577a1.893,1.893,0,0,0-.608.5c-1.425,1.472-1.777,1.792-2.193,2.176.416.257.816.48.816.689,0,.015-.16.528-.176.592a4.306,4.306,0,0,0-.08.928c0,.785.1,4.258.1,4.962,0,.609-.256,1.169-.753,1.169-.7,0-1.088-1.121-1.088-1.409,0-.192.176-1.024.192-1.185.048-.367.1-2.176.1-2.993a8.685,8.685,0,0,0-.128-1.872,18.466,18.466,0,0,1-5.634,3.233Z" fill="#fff"/>
      <path id="パス_19" data-name="パス 19" d="M1813,2988.377c1.04,0,3.329.3,3.329,1.969a1.013,1.013,0,0,1-.96,1.04c-.352,0-.432-.1-1.2-.976a6.884,6.884,0,0,0-2.545-1.889A7.423,7.423,0,0,1,1813,2988.377Zm9.908,1.376c-1.281,4.066-4.93,6.819-7.4,8.676-.176.144-.656.56-.88.768a.566.566,0,0,1-.433.208c-.72,0-2.128-1.585-2.128-2.705a2,2,0,0,1,.176-.752c.688,1.136,1.248,1.136,1.312,1.136.432,0,5.6-2.705,9.252-7.379Z" fill="#fff"/>
    </g>
  </g>
</svg>
