<svg xmlns="http://www.w3.org/2000/svg" width="229.667" height="45" viewBox="0 0 229.667 45">
  <g id="グループ_4" data-name="グループ 4" transform="translate(-2342.665 -2963.372)">
    <rect id="長方形_2" data-name="長方形 2" width="229.667" height="45" rx="10" transform="translate(2342.665 2963.372)" fill="#d4145a"/>
    <g id="グループ_3" data-name="グループ 3">
      <path id="パス_20" data-name="パス 20" d="M2409.258,2987.2a9.3,9.3,0,0,0-1.729.113l-.255-.593a21.634,21.634,0,0,0,2.273.1h.416c.127-2.1.112-3.649.1-4.481h-.609a8.08,8.08,0,0,0-1.728.111l-.257-.592c.753.064,1.5.1,2.273.1h.3a8.638,8.638,0,0,0-.321-2.673l2.113.417c.128.031.273.08.273.208,0,.1-.049.176-.433.4v1.649h.352l.529-.944c.048-.08.128-.192.224-.192.08,0,.16.048.288.16l1.072.944a.379.379,0,0,1,.16.24c0,.144-.128.177-.24.177h-2.385a43.2,43.2,0,0,1-.128,4.481h1.041l.5-.8c.048-.064.128-.208.224-.208s.208.1.3.176l.944.8a.354.354,0,0,1,.16.256c0,.144-.144.16-.24.16H2411.5a9.7,9.7,0,0,1-.208,1.121c.7.3,2.721,1.185,2.721,2.449a.988.988,0,0,1-.944.944c-.448,0-.625-.3-.9-1.264a6.529,6.529,0,0,0-.929-1.889,7.936,7.936,0,0,1-4.082,5.106l-.08-.1a9.96,9.96,0,0,0,2.849-6.371Zm-1.6-4.033c1.424.672,2.064,1.632,2.064,2.337a.846.846,0,0,1-.816.9c-.48,0-.528-.144-.688-1.232a5.818,5.818,0,0,0-.592-1.889Zm6.53.336a.283.283,0,0,1,.192.256c0,.16-.144.224-.416.288a20.424,20.424,0,0,1-2.049,2.4l-.144-.048a13.03,13.03,0,0,0,.625-3.233c0-.1,0-.176-.016-.384Zm2.465-.929a11.656,11.656,0,0,0,.256-1.808h-.848a9.584,9.584,0,0,0-1.729.1l-.272-.576c.737.064,1.553.1,2.289.1h3.265l.545-.913c.048-.064.112-.208.24-.208.08,0,.16.064.288.176l1.056.913c.08.08.16.16.16.24,0,.16-.144.176-.24.176h-2.737c-.144.176-1.28,1.569-1.521,1.808h1.969l.481-.592c.08-.1.175-.192.272-.192a.565.565,0,0,1,.272.144l1.024.784c.1.081.176.161.176.257,0,.16-.32.384-.5.512,0,.912.048,5.458.048,6.482,0,.273,0,.961-1.024.961-.689,0-.673-.384-.657-.688h-2.881a.719.719,0,0,1-.112.288l1.425.9a.285.285,0,0,1,.16.256c0,.208-.224.288-.608.256a13.037,13.037,0,0,1-4.546,2.113l-.08-.1a11.262,11.262,0,0,0,3.217-3.153,1.773,1.773,0,0,1-.56.1c-.544,0-.688-.256-.688-.7,0-.7.127-4.146.127-4.93a18.422,18.422,0,0,0-.24-3.346l1.777.656Zm2.833,2.178v-1.793H2416.6v1.793Zm0,2.417v-2.034H2416.6v2.034Zm0,2.689v-2.306H2416.6v2.306Zm-1.376.848c.768.16,3.777.72,3.777,2.321a.9.9,0,0,1-.88.912c-.432,0-.672-.24-1.041-.928a6.9,6.9,0,0,0-1.888-2.177Z" fill="#fff"/>
      <path id="パス_21" data-name="パス 21" d="M2430.108,2992.655c.993-.4,5.026-2.1,5.026-6.419a4.061,4.061,0,0,0-4.4-4.29,2.088,2.088,0,0,0-.769.1c.416.239,1.425.815,1.425,1.776,0,.785-1.5,3.809-2.481,5.362-.433.689-1.537,2.433-2.4,2.433-.577,0-.769-.32-1.2-1.024a2.055,2.055,0,0,0-.64-.705,2.477,2.477,0,0,1-.72-1.952c0-3.538,3.025-6.547,7.139-6.547,3.025,0,6.162,1.809,6.162,5.3,0,4.994-5.554,5.859-7.107,6.083Zm-4.69-4.963c0,.545.24,2.209.929,2.209.672,0,1.456-1.632,2.065-2.88a13.268,13.268,0,0,0,1.36-3.842,1.612,1.612,0,0,0-.336-1.041A6.28,6.28,0,0,0,2425.418,2987.692Z" fill="#fff"/>
      <path id="パス_22" data-name="パス 22" d="M2442.747,2987l.528-.688c.064-.1.176-.24.272-.24a.358.358,0,0,1,.272.144l1.057.929a.457.457,0,0,1,.192.319.31.31,0,0,1-.16.257,3.913,3.913,0,0,0-.384.288c-.561,4.418-.737,5.746-3.378,6.066a3.553,3.553,0,0,0-1.409-2.129l.049-.128a5.337,5.337,0,0,0,1.376.192c.64,0,.833-.08,1.041-.5a17.679,17.679,0,0,0,.656-4.129h-1.521c-.048.7-.08,1.232-.976,1.232-.08,0-.752,0-.752-.448,0-.144.127-1.073.144-1.281a25.615,25.615,0,0,0,.24-3.969l1.664.592h1.169V2980.7h-1.169a8.036,8.036,0,0,0-1.728.112l-.272-.592c.768.064,1.52.1,2.288.1h.849l.432-.577c.144-.192.16-.224.24-.224.1,0,.144.032.352.193l1.025.784c.208.16.224.208.224.3,0,.176-.048.224-.561.608,0,.432.033,2.289,0,2.673a.954.954,0,0,1-1.088.865c-.64,0-.656-.3-.592-1.041h-1.217c-.048.688-.224,2.529-.256,3.1Zm8.579-.256.7-.976c.065-.08.144-.208.241-.208s.176.064.288.16l1.248.992c.08.064.16.128.16.24,0,.144-.128.176-.24.176h-4.69a5.964,5.964,0,0,0,1.393,2.481,7.372,7.372,0,0,0,1.152-2.273l1.745,1.281a.3.3,0,0,1,.16.272c0,.08,0,.176-.5.256a19.972,19.972,0,0,0-2.193.865,8.038,8.038,0,0,0,3.345,2v.129a4.382,4.382,0,0,0-1.536,1.776,6.73,6.73,0,0,1-2.529-2.545c-.784.545-2.849,1.729-3.81,2.225-.16.432-.176.48-.352.48-.128,0-.208-.128-.272-.224l-1.2-1.936a8.241,8.241,0,0,0,1.745-.129v-4.658a8.242,8.242,0,0,0-1.008.1l-.256-.577c.576.048,1.168.064,1.264.064V2983a12.074,12.074,0,0,0-.224-3.313l1.857.64h3.1l.656-.913c.08-.112.16-.208.24-.208.1,0,.144.048.3.176l1.12.912a.346.346,0,0,1,.16.241c0,.16-.128.176-.24.176h-5.3v1.728h2.577l.576-.9c.08-.112.144-.192.24-.192a.493.493,0,0,1,.288.144l1.073.913c.08.064.16.128.16.239,0,.145-.128.177-.24.177h-4.674v1.744h2.561l.592-.832c.08-.1.16-.208.256-.208a.5.5,0,0,1,.272.144l1.057.864a.347.347,0,0,1,.16.256c0,.145-.128.161-.24.161h-4.658v1.792Zm-3.457.384v4.37c.272-.064,1.777-.368,2.033-.432a9.947,9.947,0,0,1-1.153-3.938Z" fill="#fff"/>
      <path id="パス_23" data-name="パス 23" d="M2460.748,2994.431c1.488-1.056,3.729-3.521,3.729-8.835a9.229,9.229,0,0,0-.4-3.073.717.717,0,0,0-.624-.449c-1.233,0-2.577,3.362-2.577,5.122,0,.321.16,1.729.16,2.017,0,.577-.336.865-.72.865-.657,0-1.489-.849-1.489-3.458a26.087,26.087,0,0,1,.352-3.7c.032-.209.208-1.489.208-1.617a1.513,1.513,0,0,0-1.072-1.344,1.688,1.688,0,0,1,1.136-.417c.56,0,1.889.48,1.889,1.361a2.229,2.229,0,0,1-.384,1.088,8.355,8.355,0,0,0-1.009,3.7c0,.112,0,.688.128.688.08,0,.1-.064.256-.528.833-2.545,2.241-4.61,3.65-4.61,1.889,0,2.433,2.865,2.433,4.93,0,2.785-.721,6.531-5.618,8.372Z" fill="#fff"/>
      <path id="パス_24" data-name="パス 24" d="M2477.676,2985.484c-.016-.592-.016-3.169-.032-3.7a11.442,11.442,0,0,0-.32-2.321l2.561.56c.224.049.3.113.3.208,0,.241-.384.4-.624.5-.032,1.648-.032,3.649-.032,4.738h2.753a22.024,22.024,0,0,0-.272-4.818l2.385.5c.208.048.272.1.272.224,0,.224-.352.368-.528.432,0,.513-.033,1.713-.016,2.145,0,.288.047,1.521.047,1.777,0,.944-1.136.944-1.232.944-.672,0-.672-.4-.672-.72v-.1h-2.737v6.211h3.521a22.987,22.987,0,0,0-.176-5.107l2.289.448c.192.033.3.064.3.208,0,.225-.352.417-.544.513,0,.368-.016,1.5.016,2.353.016.72.064,2.065.064,2.177,0,.288,0,1.056-1.265,1.056-.688,0-.688-.3-.688-1.265h-8.947a4.012,4.012,0,0,1,.016.737c-.113.528-.753.72-1.185.72-.752,0-.752-.384-.752-.72,0-.624.064-3.393.064-3.97a8.605,8.605,0,0,0-.176-2.161l2.273.416c.128.016.32.065.32.224,0,.225-.32.385-.56.5-.017.5-.017,3.249,0,3.874h3.569v-6.211h-2.593c.016.64-.752.848-1.281.848-.672,0-.672-.368-.672-.624,0-.464.048-2.513.048-2.929a9.263,9.263,0,0,0-.256-2.625l2.385.48c.128.032.3.08.3.208,0,.272-.384.448-.528.512-.016.833-.016,1.857,0,3.746Z" fill="#fff"/>
      <path id="パス_25" data-name="パス 25" d="M2501.759,2988.637a7.347,7.347,0,0,1-6.915,4.914c-3.5,0-3.649-2.081-3.649-4.514,0-1.056.16-5.746.16-6.691,0-.72-.048-.976-.208-1.152a1.87,1.87,0,0,0-1.392-.512,2.763,2.763,0,0,1,1.7-.688c.912,0,2.225.752,2.225,1.536a5.479,5.479,0,0,1-.208.9,36.254,36.254,0,0,0-.832,7.091c0,1.265,0,2.321,1.872,2.321a11.114,11.114,0,0,0,7.155-3.3Z" fill="#fff"/>
    </g>
  </g>
</svg>
