<svg xmlns="http://www.w3.org/2000/svg" width="86.778" height="86.777" viewBox="0 0 86.778 86.777">
  <g id="グループ_12" data-name="グループ 12" transform="translate(-970.443 -966.972)">
    <rect id="長方形_1" data-name="長方形 1" width="86.778" height="86.778" rx="43.389" transform="translate(970.443 966.972)" fill="#d4145a"/>
    <g id="グループ_1" data-name="グループ 1" transform="translate(-5892.247 -2692.152)">
      <path id="パス_1" data-name="パス 1" d="M6880.43,3680.4h4.558c2.238,0,4.623.713,4.623,3.081,0,1.671-1.266,3.147-4.2,3.147h-1.979v3.974a1.048,1.048,0,0,0,1.152,1.119h.518v.519h-4.671v-.519H6881a1.041,1.041,0,0,0,1.152-1.119v-8.548a1.041,1.041,0,0,0-1.152-1.119h-.568Zm3,5.709h1.655c1.767,0,2.984-.843,2.984-2.595a2.528,2.528,0,0,0-2.79-2.579h-.7a1.041,1.041,0,0,0-1.152,1.119Z" fill="#fff"/>
      <path id="パス_2" data-name="パス 2" d="M6896.343,3692.545c-3.13,0-5.3-2.563-5.3-6.228,0-3.634,2.14-6.229,5.3-6.212,3.115,0,5.288,2.562,5.288,6.212S6899.473,3692.545,6896.343,3692.545Zm3.747-6.374c0-1.541-.454-5.547-3.747-5.547-3.633,0-3.763,4.768-3.763,5.855,0,1.606.487,5.531,3.763,5.531C6899.944,3692.01,6900.09,3687.29,6900.09,3686.171Z" fill="#fff"/>
      <path id="パス_3" data-name="パス 3" d="M6908.072,3680.932h-.778a1.041,1.041,0,0,0-1.153,1.119v8.548a1.041,1.041,0,0,0,1.153,1.119h.778v.519h-5.142v-.519h.762a1.052,1.052,0,0,0,1.168-1.119v-8.548a1.046,1.046,0,0,0-1.168-1.119h-.762v-.535h5.142Z" fill="#fff"/>
      <path id="パス_4" data-name="パス 4" d="M6918.08,3692.237l-6.8-10.429v8.5a1.312,1.312,0,0,0,1.411,1.411h.438v.519h-4.217v-.519h.519a1.252,1.252,0,0,0,1.33-1.411v-8.11a1.235,1.235,0,0,0-1.33-1.265h-.519v-.535h3l6.1,9.456v-7.64a1.222,1.222,0,0,0-1.265-1.281h-.584v-.535h4.234v.535h-.617a1.142,1.142,0,0,0-1.233,1.281v10.024Z" fill="#fff"/>
      <path id="パス_5" data-name="パス 5" d="M6931.382,3680.4l1.135,3.081-.47.211c-.583-1.022-1.574-2.757-3.292-2.757a1.018,1.018,0,0,0-1.152,1.119v8.548a1.053,1.053,0,0,0,1.167,1.119h.812v.519h-5.24v-.519h.828a1.04,1.04,0,0,0,1.151-1.119v-8.548a1.006,1.006,0,0,0-1.135-1.119c-1.735,0-2.725,1.751-3.309,2.757l-.47-.211,1.135-3.081Z" fill="#fff"/>
    </g>
    <g id="グループ_2" data-name="グループ 2" transform="translate(-5892.247 -2692.152)">
      <path id="パス_6" data-name="パス 6" d="M6901.8,3728.293h1.972c1.864,0,2.509-.717,2.509-2.187v-19.391c0-1.111-1.039-1.29-1.721-1.29h-2.723v-1.111h.645a13.794,13.794,0,0,0,5.842-1.506c.251-.143.358-.215.5-.215.322,0,.394.215.394.5v23.011c0,1.541.753,2.187,2.509,2.187h1.972v1.147h-11.9Z" fill="#fff"/>
    </g>
  </g>
</svg>
