<svg xmlns="http://www.w3.org/2000/svg" width="86.778" height="86.777" viewBox="0 0 86.778 86.777">
  <g id="グループ_14" data-name="グループ 14" transform="translate(-799.972 -1912.763)">
    <rect id="長方形_4" data-name="長方形 4" width="86.778" height="86.778" rx="43.389" transform="translate(799.972 1912.763)" fill="#d4145a"/>
    <g id="グループ_10" data-name="グループ 10" transform="translate(-5892.247 -2692.152)">
      <path id="パス_19" data-name="パス 19" d="M6709.959,4626.187h4.558c2.239,0,4.622.713,4.622,3.082,0,1.67-1.264,3.146-4.2,3.146h-1.979v3.974a1.048,1.048,0,0,0,1.151,1.119h.52v.519h-4.672v-.519h.568a1.04,1.04,0,0,0,1.151-1.119v-8.548a1.04,1.04,0,0,0-1.151-1.119h-.568Zm3,5.709h1.654c1.768,0,2.984-.843,2.984-2.6a2.527,2.527,0,0,0-2.789-2.579h-.7a1.04,1.04,0,0,0-1.151,1.119Z" fill="#fff"/>
      <path id="パス_20" data-name="パス 20" d="M6725.872,4638.336c-3.13,0-5.3-2.563-5.3-6.229,0-3.633,2.141-6.229,5.3-6.212,3.114,0,5.288,2.563,5.288,6.212S6729,4638.336,6725.872,4638.336Zm3.747-6.375c0-1.541-.454-5.547-3.747-5.547-3.633,0-3.763,4.768-3.763,5.855,0,1.606.486,5.531,3.763,5.531C6729.473,4637.8,6729.619,4633.08,6729.619,4631.961Z" fill="#fff"/>
      <path id="パス_21" data-name="パス 21" d="M6737.6,4626.722h-.778a1.04,1.04,0,0,0-1.151,1.119v8.548a1.04,1.04,0,0,0,1.151,1.119h.778v.519h-5.141v-.519h.762a1.052,1.052,0,0,0,1.168-1.119v-8.548a1.045,1.045,0,0,0-1.168-1.119h-.762v-.535h5.141Z" fill="#fff"/>
      <path id="パス_22" data-name="パス 22" d="M6747.609,4638.027l-6.8-10.429v8.5a1.311,1.311,0,0,0,1.411,1.411h.438v.519h-4.217v-.519h.519a1.252,1.252,0,0,0,1.33-1.411v-8.11a1.234,1.234,0,0,0-1.33-1.265h-.519v-.535h3l6.1,9.456V4628a1.222,1.222,0,0,0-1.265-1.281h-.584v-.535h4.233v.535h-.616a1.14,1.14,0,0,0-1.232,1.281v10.024Z" fill="#fff"/>
      <path id="パス_23" data-name="パス 23" d="M6760.911,4626.187l1.136,3.082-.471.21c-.584-1.021-1.573-2.757-3.293-2.757a1.018,1.018,0,0,0-1.152,1.119v8.548a1.053,1.053,0,0,0,1.168,1.119h.811v.519h-5.238v-.519h.827a1.04,1.04,0,0,0,1.151-1.119v-8.548a1.006,1.006,0,0,0-1.136-1.119c-1.735,0-2.724,1.752-3.308,2.757l-.471-.21,1.136-3.082Z" fill="#fff"/>
    </g>
    <g id="グループ_11" data-name="グループ 11" transform="translate(-5892.247 -2692.152)">
      <path id="パス_24" data-name="パス 24" d="M6740.073,4648.383h1.47v18.208h4.05v1.147h-4.05v4.158c0,1.577.789,2.187,2.508,2.187h.575v1.147h-9.1v-1.147h.573c1.685,0,2.51-.574,2.51-2.187v-4.158h-9.642v-1.254Zm-1.469,4.732-8.28,13.476h8.28Z" fill="#fff"/>
    </g>
  </g>
</svg>
