<svg xmlns="http://www.w3.org/2000/svg" width="86.778" height="86.777" viewBox="0 0 86.778 86.777">
  <g id="グループ_13" data-name="グループ 13" transform="translate(-633.972 -1272.763)">
    <rect id="長方形_3" data-name="長方形 3" width="86.778" height="86.778" rx="43.389" transform="translate(633.972 1272.763)" fill="#d4145a"/>
    <g id="グループ_7" data-name="グループ 7" transform="translate(-5892.247 -2692.152)">
      <path id="パス_13" data-name="パス 13" d="M6543.959,3986.187h4.558c2.239,0,4.622.713,4.622,3.082,0,1.67-1.264,3.146-4.2,3.146h-1.979v3.974a1.048,1.048,0,0,0,1.151,1.119h.52v.519h-4.672v-.519h.568a1.04,1.04,0,0,0,1.151-1.119v-8.548a1.041,1.041,0,0,0-1.151-1.119h-.568Zm3,5.709h1.654c1.768,0,2.984-.843,2.984-2.595a2.528,2.528,0,0,0-2.789-2.579h-.7a1.04,1.04,0,0,0-1.151,1.119Z" fill="#fff"/>
      <path id="パス_14" data-name="パス 14" d="M6559.872,3998.336c-3.13,0-5.3-2.563-5.3-6.229,0-3.633,2.141-6.229,5.3-6.212,3.114,0,5.288,2.563,5.288,6.212S6563,3998.336,6559.872,3998.336Zm3.747-6.375c0-1.541-.454-5.547-3.747-5.547-3.633,0-3.763,4.768-3.763,5.855,0,1.606.486,5.531,3.763,5.531C6563.473,3997.8,6563.619,3993.08,6563.619,3991.961Z" fill="#fff"/>
      <path id="パス_15" data-name="パス 15" d="M6571.6,3986.722h-.778a1.04,1.04,0,0,0-1.151,1.119v8.548a1.04,1.04,0,0,0,1.151,1.119h.778v.519h-5.141v-.519h.762a1.053,1.053,0,0,0,1.168-1.119v-8.548a1.046,1.046,0,0,0-1.168-1.119h-.762v-.535h5.141Z" fill="#fff"/>
      <path id="パス_16" data-name="パス 16" d="M6581.609,3998.027l-6.8-10.429v8.5a1.311,1.311,0,0,0,1.411,1.411h.438v.519h-4.217v-.519h.519a1.252,1.252,0,0,0,1.33-1.411v-8.11a1.235,1.235,0,0,0-1.33-1.265h-.519v-.535h3l6.1,9.456V3988a1.222,1.222,0,0,0-1.265-1.281h-.584v-.535h4.233v.535h-.616a1.14,1.14,0,0,0-1.232,1.281v10.024Z" fill="#fff"/>
      <path id="パス_17" data-name="パス 17" d="M6594.911,3986.187l1.136,3.082-.471.21c-.584-1.021-1.573-2.757-3.293-2.757a1.019,1.019,0,0,0-1.152,1.119v8.548a1.054,1.054,0,0,0,1.168,1.119h.811v.519h-5.238v-.519h.827a1.04,1.04,0,0,0,1.151-1.119v-8.548a1.007,1.007,0,0,0-1.136-1.119c-1.735,0-2.724,1.752-3.308,2.757l-.471-.21,1.136-3.082Z" fill="#fff"/>
    </g>
    <g id="グループ_8" data-name="グループ 8" transform="translate(-5892.247 -2692.152)">
      <path id="パス_18" data-name="パス 18" d="M6577.335,4035.23h-14.086v-.968c.716-2.258,2.4-4.767,5.268-8.029,5.27-6.093,7.062-8.136,7.062-11.721a4.607,4.607,0,0,0-4.768-4.91c-2.509,0-4.014,1.5-4.014,2.8a1.98,1.98,0,0,0,.359,1.111,3.086,3.086,0,0,1,.752,1.792,1.989,1.989,0,0,1-1.936,2.007,2.263,2.263,0,0,1-2.043-2.509c0-2.616,2.545-6.416,7.707-6.416,4.445,0,7.168,2.8,7.168,6.667,0,3.62-2.079,5.592-5.3,8.351-1.219,1-5.951,5.054-7.743,9h4.947c5.018,0,6.2-1.936,7.276-4.911l1.075.4Z" fill="#fff"/>
    </g>
  </g>
</svg>
