<svg xmlns="http://www.w3.org/2000/svg" width="86.777" height="86.777" viewBox="0 0 86.777 86.777">
  <g id="グループ_15" data-name="グループ 15" transform="translate(-1200.443 -1687.263)">
    <rect id="長方形_2" data-name="長方形 2" width="86.778" height="86.778" rx="43.389" transform="translate(1200.443 1687.263)" fill="#d4145a"/>
    <g id="グループ_4" data-name="グループ 4" transform="translate(-5892.247 -2692.152)">
      <path id="パス_7" data-name="パス 7" d="M7110.43,4400.687h4.558c2.238,0,4.623.713,4.623,3.082,0,1.67-1.266,3.146-4.2,3.146h-1.979v3.974a1.048,1.048,0,0,0,1.152,1.119h.518v.519h-4.671v-.519H7111a1.041,1.041,0,0,0,1.152-1.119v-8.548a1.041,1.041,0,0,0-1.152-1.119h-.568Zm3,5.709h1.655c1.767,0,2.984-.843,2.984-2.6a2.529,2.529,0,0,0-2.79-2.579h-.7a1.04,1.04,0,0,0-1.152,1.119Z" fill="#fff"/>
      <path id="パス_8" data-name="パス 8" d="M7126.343,4412.836c-3.13,0-5.3-2.563-5.3-6.229,0-3.633,2.14-6.229,5.3-6.212,3.115,0,5.288,2.563,5.288,6.212S7129.473,4412.836,7126.343,4412.836Zm3.747-6.375c0-1.541-.454-5.547-3.747-5.547-3.633,0-3.763,4.768-3.763,5.855,0,1.606.487,5.531,3.763,5.531C7129.944,4412.3,7130.09,4407.58,7130.09,4406.461Z" fill="#fff"/>
      <path id="パス_9" data-name="パス 9" d="M7138.072,4401.222h-.778a1.041,1.041,0,0,0-1.153,1.119v8.548a1.041,1.041,0,0,0,1.153,1.119h.778v.519h-5.142v-.519h.762a1.052,1.052,0,0,0,1.168-1.119v-8.548a1.045,1.045,0,0,0-1.168-1.119h-.762v-.535h5.142Z" fill="#fff"/>
      <path id="パス_10" data-name="パス 10" d="M7148.08,4412.527l-6.8-10.429v8.5a1.311,1.311,0,0,0,1.411,1.411h.438v.519h-4.217v-.519h.519a1.252,1.252,0,0,0,1.33-1.411v-8.11a1.234,1.234,0,0,0-1.33-1.265h-.519v-.535h3l6.1,9.456v-7.64a1.222,1.222,0,0,0-1.265-1.281h-.584v-.535h4.234v.535h-.617a1.142,1.142,0,0,0-1.233,1.281v10.024Z" fill="#fff"/>
      <path id="パス_11" data-name="パス 11" d="M7161.382,4400.687l1.135,3.082-.47.21c-.583-1.021-1.574-2.757-3.292-2.757a1.018,1.018,0,0,0-1.152,1.119v8.548a1.053,1.053,0,0,0,1.167,1.119h.812v.519h-5.24v-.519h.828a1.04,1.04,0,0,0,1.151-1.119v-8.548a1.006,1.006,0,0,0-1.135-1.119c-1.735,0-2.725,1.752-3.309,2.757l-.47-.21,1.135-3.082Z" fill="#fff"/>
    </g>
    <g id="グループ_5" data-name="グループ 5" transform="translate(-5892.247 -2692.152)">
      <path id="パス_12" data-name="パス 12" d="M7143.053,4437.543a6.657,6.657,0,0,1,2.438,5.305c0,4.408-3.62,7.563-8.352,7.563-3.871,0-7.133-2.187-7.133-5.054a2.069,2.069,0,0,1,2.043-2.294,1.755,1.755,0,0,1,1.757,1.792,2.917,2.917,0,0,1-.216,1.147,2.576,2.576,0,0,0-.107.824c0,1.363,1.542,2.366,3.227,2.366,2.759,0,5.555-2.724,5.555-6.344,0-3.692-2.724-6.559-5.592-6.559-.214,0-1.218.143-1.433.143a.708.708,0,0,1-.789-.753.811.811,0,0,1,.825-.824c.215,0,1.29.215,1.541.215,3.011,0,4.91-2.688,4.91-5.591,0-2.8-1.684-5.377-4.516-5.377a2.686,2.686,0,0,0-2.9,2.4,2.825,2.825,0,0,0,.108.538,3.575,3.575,0,0,1,.107.86,1.894,1.894,0,0,1-1.828,1.972,1.856,1.856,0,0,1-1.792-1.972c0-1.971,2.294-5.018,6.882-5.018,4.408,0,7.168,2.868,7.168,6.022a6.2,6.2,0,0,1-1.326,3.656,8.509,8.509,0,0,1-4.552,3.046A9.62,9.62,0,0,1,7143.053,4437.543Z" fill="#fff"/>
    </g>
  </g>
</svg>
