<svg xmlns="http://www.w3.org/2000/svg" width="922" height="341" viewBox="0 0 922 341">
  <g id="tech_price3" transform="translate(-337.226 -10500.432)">
    <path id="パス_107" data-name="パス 107" d="M0,0H920V339H0Z" transform="translate(338.226 10501.432)" fill="#fff" stroke="#000" stroke-width="2"/>
    <path id="パス_85" data-name="パス 85" d="M20.5-16.69a.722.722,0,0,0-.251-.434l-1.05-.959c-.205-.183-.3-.228-.411-.228s-.228.068-.388.228l-.776.822H5.274L2.808-18.677a31.254,31.254,0,0,1,.205,4.612c0,4.064-.023,8.128-.137,12.215,0,.365-.091,2.192-.091,2.6,0,.3,0,.731.708.731,1.256,0,1.256-.868,1.256-1.393,0-.183-.023-.731-.023-.776-.068-1.849-.068-2.375-.114-7.124h13.38v5.8c0,.89-.137,1.1-.822,1.1a14.869,14.869,0,0,1-2.443-.205l-.023.16C16.622.183,16.759.731,16.827,1.484c2.945-.3,2.945-1.9,2.945-3.151,0-2.808-.183-7.329-.183-10.16,0-1.827.023-3.311.046-4.11C20.138-16.165,20.5-16.485,20.5-16.69ZM17.992-8.357H12.1v-8.357h5.891Zm-7.512,0H4.612v-8.357H10.48Z" transform="translate(1198.876 10792.089)" fill="#d4145a"/>
    <path id="パス_86" data-name="パス 86" d="M-25.464,1.956A10.35,10.35,0,0,1-26.4-.54,11.638,11.638,0,0,1-26.748-3.4,11.526,11.526,0,0,1-25.464-8.76h-.324A7.721,7.721,0,0,0-27.924-3.4a7.712,7.712,0,0,0,2.136,5.352ZM-14.34-.42c0-.1-.06-.156-.192-.252-.252-.2-.348-1.236-.372-1.608h-.108C-15.372-.4-15.384-.348-16.26-.348c-.948,0-1.032-.048-1.032-.408V-3.624h.6c.012.336.012.48.288.48a.6.6,0,0,0,.444-.144.372.372,0,0,0,.084-.276c0-.42-.048-2.28-.048-2.664.144-.048.4-.18.4-.348a.264.264,0,0,0-.12-.216l-.456-.336a.5.5,0,0,0-.252-.12q-.09,0-.216.144l-.276.324h-2.676l-1.044-.5a10.467,10.467,0,0,1,.144,2.58c0,.2-.024,1.1-.012,1.3,0,.084,0,.312.336.312a.46.46,0,0,0,.468-.528h.192A5.32,5.32,0,0,1-22.164.444l.024.072A4.929,4.929,0,0,0-18.684-2.7c.216-.036.372-.132.372-.24,0-.072-.036-.12-.132-.18l-.912-.5h1.284V-.36c0,.78.552.78,1.512.78,1.5,0,1.632-.12,1.872-.276A.842.842,0,0,0-14.34-.42Zm-2.352-3.492H-19.62v-2.58h2.928Zm1.176-5.136a.216.216,0,0,0-.108-.192l-1.176-.768a2,2,0,0,1-.1.684,16.3,16.3,0,0,1-1.1,2.4l.084.084a14.194,14.194,0,0,0,1.86-2C-15.816-8.856-15.516-8.9-15.516-9.048Zm-3.072,1.272c0-.768-.852-1.32-1.824-1.8l-.048.072a3.594,3.594,0,0,1,.78,1.56c.1.372.192.732.588.732A.515.515,0,0,0-18.588-7.776ZM-20.748-6.6c0-.06-.048-.12-.12-.192l-.516-.456c-.1-.084-.156-.132-.228-.132s-.12.06-.192.156l-.348.456h-.324V-8.916c.216-.048.36-.1.876-.228a1.027,1.027,0,0,0,.36.06c.156,0,.252-.048.252-.18a.311.311,0,0,0-.132-.192l-.84-.72a.917.917,0,0,1-.4.384A17.708,17.708,0,0,1-25.38-8.556v.108a16.7,16.7,0,0,0,2.16-.288v1.968h-.252c-.168,0-1.02-.012-1.848-.084l.24.48a8.545,8.545,0,0,1,1.416-.108h.42a10.246,10.246,0,0,1-2.5,4.368l.048.084A6.254,6.254,0,0,0-23.22-4.656c-.012,1.308-.012,3.048-.06,4.152,0,.144-.06.864-.06,1.032,0,.288.18.288.276.288.6,0,.6-.384.6-.552,0-.78-.012-4.62-.012-5.484.144.1.348.252.588.9.216.564.24.648.54.648a.41.41,0,0,0,.42-.456c0-.66-.948-1.14-1.548-1.236V-6.48h1.548C-20.856-6.48-20.748-6.5-20.748-6.6ZM-2.676-2.4v-.048c-1.872-.288-4.356-2.676-4.212-6.18.852-.4.972-.432.972-.588,0-.072-.072-.144-.144-.2l-.684-.5a.266.266,0,0,0-.132-.06c-.048,0-.108.06-.168.12l-.5.492h-.264c-.36,0-1.092-.012-1.836-.072l.228.468A9.585,9.585,0,0,1-8-9.084h.7a14.235,14.235,0,0,0,.192,1.74l-.408-.1C-7.86-5.064-8.88-2.8-10.632-1.716l.048.084A6.527,6.527,0,0,0-6.852-6.048,7.951,7.951,0,0,0-4.08-1.524,2.206,2.206,0,0,1-2.676-2.4Zm-7.86-5.664c0-.636-.612-1.26-1.86-1.644l-.048.084a3.192,3.192,0,0,1,.852,1.5c.108.324.2.624.552.624A.518.518,0,0,0-10.536-8.064ZM-2.7-.84V-.912a14.69,14.69,0,0,1-4.8.588c-1.116,0-3.276-.06-3.276-1.608V-4.32c.348-.252.432-.312.432-.408,0-.072-.06-.12-.108-.168L-11-5.352c-.06-.048-.108-.1-.168-.1s-.108.06-.192.144l-.384.408c-.468,0-1.224-.024-1.968-.084l.24.48a7.405,7.405,0,0,1,1.416-.108h.48v3.516a4.341,4.341,0,0,1-2.04.528l.7,1.14a.252.252,0,0,0,.18.132c.12,0,.144-.12.2-.372.216-.216,1.332-1.3,1.584-1.548A3.776,3.776,0,0,0-7.9.42c.828.1,3.936.1,4.356.084A2.073,2.073,0,0,1-2.7-.84Zm.072,2.8A7.658,7.658,0,0,0-.492-3.4,7.721,7.721,0,0,0-2.628-8.76H-2.94A11.681,11.681,0,0,1-1.656-3.4,11.636,11.636,0,0,1-2.016-.54a10.965,10.965,0,0,1-.924,2.5Z" transform="translate(1223.924 10764.211)" fill="#d4145a"/>
    <path id="パス_106" data-name="パス 106" d="M-159.484-17.888c.208-4.68.468-12.324,5.1-17.42a5.349,5.349,0,0,1,3.8-1.872c1.4,0,1.508.728,1.56,1.872.1,2.964,1.82,3.64,2.86,3.64a2.6,2.6,0,0,0,2.652-2.7c0-2.5-2.444-4.576-5.928-4.576-7.956,0-14.716,9.984-14.716,22,0,11.232,6.032,17.94,11.96,17.94,5.98,0,11.128-6.448,11.128-13.676,0-6.292-4.16-11.492-9.308-11.492a8.787,8.787,0,0,0-4.524,1.352A12.924,12.924,0,0,0-159.484-17.888Zm.052,3.12c2.444-5.616,5.772-7.072,7.748-7.072,5.356,0,5.928,7.28,5.928,9.62,0,8.58-3.9,11.44-6.656,11.44a5.146,5.146,0,0,1-4.212-2.808C-158.808-6.916-159.224-11.908-159.432-14.768Zm25.948-3.12c.208-4.68.468-12.324,5.1-17.42a5.349,5.349,0,0,1,3.8-1.872c1.4,0,1.508.728,1.56,1.872.1,2.964,1.82,3.64,2.86,3.64a2.6,2.6,0,0,0,2.652-2.7c0-2.5-2.444-4.576-5.928-4.576-7.956,0-14.716,9.984-14.716,22,0,11.232,6.032,17.94,11.96,17.94,5.98,0,11.128-6.448,11.128-13.676,0-6.292-4.16-11.492-9.308-11.492a8.787,8.787,0,0,0-4.524,1.352A12.924,12.924,0,0,0-133.484-17.888Zm.052,3.12c2.444-5.616,5.772-7.072,7.748-7.072,5.356,0,5.928,7.28,5.928,9.62,0,8.58-3.9,11.44-6.656,11.44a5.146,5.146,0,0,1-4.212-2.808C-132.808-6.916-133.224-11.908-133.432-14.768ZM-88.92-18.98c0-14.2-6.344-19.968-11.7-19.968-6.968,0-11.7,8.424-11.7,19.5,0,4.836.988,11.232,3.172,14.82,1.924,3.12,4.94,5.616,8.528,5.616C-94.276.988-88.92-6.24-88.92-18.98Zm-11.7-18.2c4.16,0,7.02,6.344,7.02,18.2A48.149,48.149,0,0,1-94.848-7.54c-.572,1.976-2.184,6.76-5.772,6.76-4.264,0-7.02-6.6-7.02-18.2a47.058,47.058,0,0,1,1.2-11.284C-105.924-32.084-104.312-37.18-100.62-37.18ZM-84.708,6.032c1.3-1.092,4.94-4.264,4.94-8.112a3.02,3.02,0,0,0-3.068-2.964A3.008,3.008,0,0,0-85.8-2.028c0,1.612.884,2.34,2.236,2.964.416.156.468.676.468.884,0,1.04-1.04,2.392-2.444,3.432ZM-53.3-18.98c0-14.2-6.344-19.968-11.7-19.968-6.968,0-11.7,8.424-11.7,19.5,0,4.836.988,11.232,3.172,14.82C-71.6-1.508-68.588.988-65,.988-58.656.988-53.3-6.24-53.3-18.98ZM-65-37.18c4.16,0,7.02,6.344,7.02,18.2A48.149,48.149,0,0,1-59.228-7.54C-59.8-5.564-61.412-.78-65-.78c-4.264,0-7.02-6.6-7.02-18.2a47.058,47.058,0,0,1,1.2-11.284C-70.3-32.084-68.692-37.18-65-37.18Zm37.7,18.2c0-14.2-6.344-19.968-11.7-19.968-6.968,0-11.7,8.424-11.7,19.5,0,4.836.988,11.232,3.172,14.82C-45.6-1.508-42.588.988-39,.988-32.656.988-27.3-6.24-27.3-18.98ZM-39-37.18c4.16,0,7.02,6.344,7.02,18.2A48.149,48.149,0,0,1-33.228-7.54C-33.8-5.564-35.412-.78-39-.78c-4.264,0-7.02-6.6-7.02-18.2a47.058,47.058,0,0,1,1.2-11.284C-44.3-32.084-42.692-37.18-39-37.18Zm37.7,18.2c0-14.2-6.344-19.968-11.7-19.968-6.968,0-11.7,8.424-11.7,19.5,0,4.836.988,11.232,3.172,14.82C-19.6-1.508-16.588.988-13,.988-6.656.988-1.3-6.24-1.3-18.98ZM-13-37.18c4.16,0,7.02,6.344,7.02,18.2A48.149,48.149,0,0,1-7.228-7.54C-7.8-5.564-9.412-.78-13-.78c-4.264,0-7.02-6.6-7.02-18.2a47.058,47.058,0,0,1,1.2-11.284C-18.3-32.084-16.692-37.18-13-37.18Z" transform="translate(1197 10794.304)" fill="#d4145a"/>
    <path id="パス_105" data-name="パス 105" d="M17.94-8.2c0-.8-1.68-1.04-1.8-1.04a8.623,8.623,0,0,0-.98.22c-.16.04-4.4.44-5.22.56a14.187,14.187,0,0,1,.34-2.36c.22-.38.34-.56.34-.74,0-.3-.82-.7-1.2-.88a32.683,32.683,0,0,1,5.26-.4c.4,0,.84,0,.84-.48a.646.646,0,0,0-.28-.52,3.685,3.685,0,0,0-1.4-.42c-.2,0-.28.04-.96.3a36.671,36.671,0,0,1-6.34.84,2.574,2.574,0,0,1-2-.74A2.16,2.16,0,0,0,6-11.78a1.738,1.738,0,0,0,.6-.12c.2-.06,1.02-.22,1.56-.32.38.24.58.52.58,2.22,0,.24-.04,1.44-.04,1.72L5.06-7.8c-.32.04-.88.12-1.18.12A2.3,2.3,0,0,1,1.94-8.7a2.547,2.547,0,0,0-.04.44c0,1.28,1.6,2.18,1.9,2.18a3.665,3.665,0,0,0,.88-.36,17.679,17.679,0,0,1,4-1.02c-.02,1.36-.04,2.28-.04,2.94,0,3.1.86,3.4,4.34,3.4a22.151,22.151,0,0,0,2.62-.12c.62-.12.8-.32.8-.66,0-.66-1.2-.88-1.62-.88a2.857,2.857,0,0,0-.94.18,9.424,9.424,0,0,1-2.42.26c-1.54,0-1.6-.72-1.6-2.06,0-1.6.02-1.94.08-3.22,2.36-.22,3.84-.22,4.08-.22a19.789,19.789,0,0,1,2.04.1c.88.1.98.12,1.18.12C17.78-7.62,17.94-7.98,17.94-8.2Zm17-3.54c0-.62-1.22-.92-1.6-.92-.18,0-1,.32-1.18.36a26.332,26.332,0,0,1-4.98.54,4.024,4.024,0,0,1-2.46-.7,1.985,1.985,0,0,0,1.84,1.96,1.169,1.169,0,0,0,.36-.04,19.326,19.326,0,0,1,3.58-.42c1.08-.06,2.64-.16,3.08-.2C34.58-11.22,34.94-11.26,34.94-11.74Zm2.74,7.88c0-.78-1.6-1.48-2.02-1.48a3.367,3.367,0,0,0-.84.22,21.972,21.972,0,0,1-3.6.34c-1.04.04-6.46.5-6.58.5a2.635,2.635,0,0,1-2.36-1.24A2.027,2.027,0,0,0,22.2-5a2.53,2.53,0,0,0,1.84,2.34,3.617,3.617,0,0,0,1.08-.28,36,36,0,0,1,7.48-.84,18.931,18.931,0,0,1,3.02.22c.52.08,1.52.26,1.56.26A.511.511,0,0,0,37.68-3.86Zm18.38-7.9a4.481,4.481,0,0,0-1.56-1.56,4.5,4.5,0,0,0-.84.48,15.189,15.189,0,0,1-3.28.46c-.38,0-.58-.02-.72-.02a7.045,7.045,0,0,1,.54-.74c.46-.4.5-.44.5-.66,0-.42-1.08-1.4-2.22-1.4a2.158,2.158,0,0,0-1,.24c.4.16,1.18.46,1.18,1.12,0,.78-2.4,4.9-4.92,7.34l.06.12a11.159,11.159,0,0,0,3.34-2.6,7.954,7.954,0,0,1,2.66,2.4c.36.4.58.58.78.6A21.889,21.889,0,0,1,43.7.04l.06.14c4.4-1.24,7.5-3.98,10.58-9.96.66-1.3.8-1.42,1.2-1.58C55.98-11.54,56.06-11.56,56.06-11.76Zm-2.38-.12a22.6,22.6,0,0,1-2.54,5.1c-.12-1.8-2.68-2.3-3.8-2.44a31.047,31.047,0,0,0,1.92-2.58,1.889,1.889,0,0,0,1.04.38C50.76-11.42,53.14-11.82,53.68-11.88ZM77.54-7.56c0-.78-2-1-2.12-1s-.7.16-.82.18c-.92.22-7.42.24-8.8.24-2.08,0-2.7,0-3.38-1.52a2.311,2.311,0,0,0-.24.96c0,.92,1.08,2.2,1.6,2.2.06,0,.7-.16.76-.18.9-.24,2.7-.36,8.8-.36a19.959,19.959,0,0,1,2.26.08c.04,0,.52.04.7.04C76.54-6.92,77.54-6.94,77.54-7.56ZM94.4-10.02v-4.3h4.26c.12,0,.3-.04.3-.22a.43.43,0,0,0-.2-.3l-1.24-1.02a.921.921,0,0,0-.36-.2c-.06,0-.12,0-.32.24l-.82,1.02H89.26c-.06,0-1.56,0-3.06-.14l.38.8a14.455,14.455,0,0,1,2.36-.18h.94v4.3H88.32l-1.8-1.02a22.186,22.186,0,0,1,.14,3.16c0,2.44-.08,5.44-.12,6.62,0,.26-.06,1.48-.06,1.76,0,.48.16.66.56.66,1.06,0,1.02-.76.98-1.24h8.5c-.02.42-.04.68-.04.8,0,.26.04.56.44.56.3,0,1.1-.26,1.1-.86,0-.18-.08-1.1-.08-1.32-.08-2.6-.06-7.44-.04-8.16.34-.28.6-.48.6-.6a.469.469,0,0,0-.22-.36l-.86-.66a.5.5,0,0,0-.32-.14c-.1,0-.22.14-.28.22l-.4.58Zm-1.3.48V-.56H91.18V-9.54Zm-3.22,0V-.56H88V-9.54Zm1.3-.48v-4.3H93.1v4.3ZM94.4-.56V-9.54h2.12V-.56ZM84.28-11.68c.26-.5,1.56-3.04,1.84-3.6.48-.22.74-.34.74-.56,0-.08-.12-.2-.2-.24l-1.98-.88a4.036,4.036,0,0,1,0,.5c0,1.7-2.82,7.34-4.34,9.76l.1.08a12.765,12.765,0,0,0,2.94-3.4c-.08,5.9-.08,7.16-.16,9.14,0,.22-.1,1.4-.1,1.66,0,.46.2.64.56.64a.965.965,0,0,0,1.04-1c0-.24.02-.6-.08-5.64-.04-2.44-.02-4.38,0-5.3.4-.3.54-.44.54-.62,0-.1-.12-.16-.24-.22Zm35.18,4.36v-.1a11.984,11.984,0,0,1-5.64-2.36,30.9,30.9,0,0,0,1.92-3.3c.56-.1,1.2-.22,1.2-.66a.439.439,0,0,0-.18-.38l-.9-.7a.731.731,0,0,0-.4-.22.746.746,0,0,0-.4.2l-.72.54h-2.8c.22-.44.3-.6.44-.94.62-.08.74-.18.74-.4,0-.12-.14-.24-.26-.3l-1.88-.86a4.949,4.949,0,0,1-.06,1.22,21.95,21.95,0,0,1-3.06,5.98l.14.14a12.193,12.193,0,0,0,2.66-2.8c.4-.54.58-.86.76-1.1a9.974,9.974,0,0,0,1.28,3.32,20,20,0,0,1-6.12,5.24l.08.14a15.614,15.614,0,0,0,6.86-4.26,12.294,12.294,0,0,0,4.7,3.26C118.28-6.46,118.56-6.98,119.46-7.32Zm-5.12-6.5a12.191,12.191,0,0,1-1.5,3.06,8.273,8.273,0,0,1-1.62-2.96l.06-.1Zm2.68,9.18c0-.1-.08-.2-.22-.3l-.7-.54c-.22-.16-.34-.24-.44-.24s-.22.1-.34.24l-.5.58h-4.26l-1.74-.76a10.486,10.486,0,0,1,.14,2.04c0,1.9,0,2.72-.04,3.5,0,.18-.1,1-.1,1.2,0,.42.36.48.66.48a.779.779,0,0,0,.88-.84h4.72c0,.6.02.84.52.84a.926.926,0,0,0,.98-.92c0-.24-.08-1.4-.1-1.66-.02-.4-.08-2.44-.12-2.9C116.6-4.08,117.02-4.38,117.02-4.64ZM115.06.24h-4.7V-4.42h4.7Zm-7.04-7.96c0-1.08-1.66-1.84-2.64-2.14v-2.02h2.34c.14,0,.3-.04.3-.2a.48.48,0,0,0-.18-.32l-.68-.68a.55.55,0,0,0-.36-.2c-.12,0-.2.06-.32.24l-.48.68h-.62c.02-.42.02-2.5.04-2.96.44-.24.6-.38.6-.58,0-.22-.12-.28-.32-.34l-1.98-.52c.28.8.34,1.3.4,4.4-1.66,0-2.54-.08-3.08-.12l.4.78a13.637,13.637,0,0,1,2.46-.18,19.75,19.75,0,0,1-3.48,8.12l.12.12a13.52,13.52,0,0,0,3.58-4.82C104.1-7.2,103.9.48,103.9.88a.615.615,0,0,0,.58.66c.14,0,.98-.14.98-.86a1.417,1.417,0,0,0-.02-.3c-.12-3.04-.1-6.18-.06-10a3.44,3.44,0,0,1,.88,1.5c.16.48.4,1.14,1.06,1.14A.682.682,0,0,0,108.02-7.72Zm34.34.84c.08-1.8.18-4.74,1.96-6.7a2.057,2.057,0,0,1,1.46-.72c.54,0,.58.28.6.72.04,1.14.7,1.4,1.1,1.4a1,1,0,0,0,1.02-1.04c0-.96-.94-1.76-2.28-1.76-3.06,0-5.66,3.84-5.66,8.46,0,4.32,2.32,6.9,4.6,6.9,2.3,0,4.28-2.48,4.28-5.26,0-2.42-1.6-4.42-3.58-4.42a3.38,3.38,0,0,0-1.74.52A4.971,4.971,0,0,0,142.36-6.88Zm.02,1.2c.94-2.16,2.22-2.72,2.98-2.72,2.06,0,2.28,2.8,2.28,3.7,0,3.3-1.5,4.4-2.56,4.4a1.979,1.979,0,0,1-1.62-1.08A9.547,9.547,0,0,1,142.38-5.68ZM159.5-7.3c0-5.46-2.44-7.68-4.5-7.68-2.68,0-4.5,3.24-4.5,7.5a12.442,12.442,0,0,0,1.22,5.7A4.049,4.049,0,0,0,155,.38C157.44.38,159.5-2.4,159.5-7.3Zm-4.5-7c1.6,0,2.7,2.44,2.7,7a18.519,18.519,0,0,1-.48,4.4c-.22.76-.84,2.6-2.22,2.6-1.64,0-2.7-2.54-2.7-7a18.1,18.1,0,0,1,.46-4.34C152.96-12.34,153.58-14.3,155-14.3Zm13.16,1.28.4-1.58H161.6l-.3,7.72.3.16a4.347,4.347,0,0,1,3.12-1.74c1.46,0,2.8,1.4,2.8,3.94,0,2.68-1.52,4.22-3.14,4.22-.8,0-1.7-.44-1.7-1.3a2.973,2.973,0,0,1,.06-.56,2.041,2.041,0,0,0,.1-.6A.987.987,0,0,0,161.8-3.8a1.136,1.136,0,0,0-1.16,1.24c0,1.24,1.5,2.94,3.78,2.94a5.079,5.079,0,0,0,4.94-5.16,4.287,4.287,0,0,0-4.26-4.58A4.221,4.221,0,0,0,162-7.98l.18-5.04Zm2.96,15.34c.5-.42,1.9-1.64,1.9-3.12a1.161,1.161,0,0,0-1.18-1.14A1.157,1.157,0,0,0,170.7-.78c0,.62.34.9.86,1.14.16.06.18.26.18.34a2.034,2.034,0,0,1-.94,1.32ZM183.2-7.3c0-5.46-2.44-7.68-4.5-7.68-2.68,0-4.5,3.24-4.5,7.5a12.442,12.442,0,0,0,1.22,5.7A4.049,4.049,0,0,0,178.7.38C181.14.38,183.2-2.4,183.2-7.3Zm-4.5-7c1.6,0,2.7,2.44,2.7,7a18.519,18.519,0,0,1-.48,4.4c-.22.76-.84,2.6-2.22,2.6-1.64,0-2.7-2.54-2.7-7a18.1,18.1,0,0,1,.46-4.34C176.66-12.34,177.28-14.3,178.7-14.3Zm14.5,7c0-5.46-2.44-7.68-4.5-7.68-2.68,0-4.5,3.24-4.5,7.5a12.442,12.442,0,0,0,1.22,5.7A4.049,4.049,0,0,0,188.7.38C191.14.38,193.2-2.4,193.2-7.3Zm-4.5-7c1.6,0,2.7,2.44,2.7,7a18.519,18.519,0,0,1-.48,4.4c-.22.76-.84,2.6-2.22,2.6-1.64,0-2.7-2.54-2.7-7a18.1,18.1,0,0,1,.46-4.34C186.66-12.34,187.28-14.3,188.7-14.3Zm14.5,7c0-5.46-2.44-7.68-4.5-7.68-2.68,0-4.5,3.24-4.5,7.5a12.442,12.442,0,0,0,1.22,5.7A4.049,4.049,0,0,0,198.7.38C201.14.38,203.2-2.4,203.2-7.3Zm-4.5-7c1.6,0,2.7,2.44,2.7,7a18.519,18.519,0,0,1-.48,4.4c-.22.76-.84,2.6-2.22,2.6-1.64,0-2.7-2.54-2.7-7a18.1,18.1,0,0,1,.46-4.34C196.66-12.34,197.28-14.3,198.7-14.3Zm22.96-.32a.632.632,0,0,0-.22-.38l-.92-.84c-.18-.16-.26-.2-.36-.2s-.2.06-.34.2l-.68.72H208.32l-2.16-1.24a27.378,27.378,0,0,1,.18,4.04c0,3.56-.02,7.12-.12,10.7,0,.32-.08,1.92-.08,2.28,0,.26,0,.64.62.64,1.1,0,1.1-.76,1.1-1.22,0-.16-.02-.64-.02-.68-.06-1.62-.06-2.08-.1-6.24h11.72v5.08c0,.78-.12.96-.72.96a13.025,13.025,0,0,1-2.14-.18l-.02.14c1.68,1,1.8,1.48,1.86,2.14,2.58-.26,2.58-1.66,2.58-2.76,0-2.46-.16-6.42-.16-8.9,0-1.6.02-2.9.04-3.6C221.34-14.16,221.66-14.44,221.66-14.62Zm-2.2,7.3H214.3v-7.32h5.16Zm-6.58,0h-5.14v-7.32h5.14Zm13.664,9.276A9.841,9.841,0,0,1,225.08-3.4a9.967,9.967,0,0,1,1.464-5.364h-.228a6.719,6.719,0,0,0-1.524,2.22,7.909,7.909,0,0,0-.66,3.144,7.872,7.872,0,0,0,.66,3.144,6.668,6.668,0,0,0,1.524,2.208ZM238.352-.312a.18.18,0,0,0-.048-.132.916.916,0,0,1-.132-.1,5.109,5.109,0,0,1-.288-1.584h-.1a9.966,9.966,0,0,1-.336,1.488c-.1.252-.288.408-1.164.408-.708,0-.852-.1-.888-.288-.012-.1-.012-1.068-.012-1.248,0-.1.024-1.68.024-1.86h.852c-.012.24-.012.432.24.432,0,0,.468-.012.468-.384,0-.072-.024-.384-.024-.456-.036-.636-.072-1.86-.084-2.22.42-.216.468-.24.468-.348,0-.06-.036-.108-.132-.18l-.456-.336a.776.776,0,0,0-.192-.108c-.048,0-.072.024-.2.18l-.216.24h-3l-.84-.384a7.131,7.131,0,0,1,.132,1.764c0,.66-.012,1.452-.024,1.668,0,.048-.012.288-.012.336,0,.168.072.252.2.252a.528.528,0,0,0,.42-.2.547.547,0,0,0,.024-.252h1.74c0,.4-.024,2.316-.024,2.76.012,1.236.012,1.236,1.9,1.236a2.672,2.672,0,0,0,1.32-.18A.715.715,0,0,0,238.352-.312Zm-2.088-3.6h-3.228v-2.6h3.228Zm.948-5.208c0-.084-.048-.108-.12-.156l-1.068-.7a2.229,2.229,0,0,1-.156.96,19.3,19.3,0,0,1-.96,2.124l.108.072a8.831,8.831,0,0,0,1.6-2.1C236.792-8.916,237.212-8.928,237.212-9.12Zm-3.168,1.332c0-.684-.852-1.44-1.632-1.776l-.048.072a3.31,3.31,0,0,1,.8,1.488c.1.444.144.648.48.648A.383.383,0,0,0,234.044-7.788ZM231.992-6.6c0-.084-.048-.132-.12-.192l-.432-.372c-.144-.12-.156-.132-.228-.132-.048,0-.072.012-.192.144l-.336.384h-.5V-9c.288-.072.48-.132.852-.252a2.258,2.258,0,0,0,.4.06c.06,0,.2-.012.2-.144a.214.214,0,0,0-.084-.156l-.78-.636c-.1.168-.144.252-.78.552a16.123,16.123,0,0,1-2.6.972V-8.5a14.157,14.157,0,0,0,2.172-.336l.024,2.064h-.2c-.228,0-1.1-.012-2-.084l.288.516a8.645,8.645,0,0,1,1.548-.144h.312a11.261,11.261,0,0,1-2.46,4.368l.084.084a7.608,7.608,0,0,0,2.448-3V-4.5L229.46.192c-.012.54-.012.6.228.6.528,0,.528-.432.528-.6,0-.12-.036-4.5-.036-5.352a2.187,2.187,0,0,1,.78.984c.192.372.216.408.42.408.168,0,.312-.108.312-.36,0-.648-.972-1.08-1.512-1.164V-6.48h1.632C231.9-6.48,231.992-6.492,231.992-6.6Zm2.352,3.684c0-.1-.072-.132-.156-.18l-.8-.42a3.278,3.278,0,0,1-.4,1.584A5.286,5.286,0,0,1,230.612.444l.036.084a4.583,4.583,0,0,0,3.312-3.2C234.272-2.772,234.344-2.784,234.344-2.916Zm16.224.588v-.024c-1.824-.408-4.308-2.676-4.272-6.42a7.53,7.53,0,0,1,.864-.36c.072-.024.168-.072.168-.18,0-.06-.036-.1-.12-.168l-.648-.444a.213.213,0,0,0-.12-.048c-.036,0-.048.012-.156.12l-.456.444h-.216c-.228,0-1.092-.012-1.992-.084l.276.516a10.044,10.044,0,0,1,1.548-.144h.5c.072.84.1,1.044.2,1.764l-.312-.084a7.671,7.671,0,0,1-3.228,5.772l.036.084a6.588,6.588,0,0,0,3.744-4.632,7.983,7.983,0,0,0,2.868,4.56A1.7,1.7,0,0,1,250.568-2.328Zm-7.968-5.8c0-.96-1.272-1.44-1.7-1.608l-.024.084a3.193,3.193,0,0,1,.864,1.488c.048.168.156.516.468.516A.429.429,0,0,0,242.6-8.124Zm8.076,7.392V-.816a5.666,5.666,0,0,1-.852.24,19.038,19.038,0,0,1-4.14.336,5,5,0,0,1-2.628-.48,1.514,1.514,0,0,1-.66-1.14c0-.828,0-1.644-.012-2.472.348-.228.444-.3.444-.42a.163.163,0,0,0-.084-.132l-.5-.408a.32.32,0,0,0-.168-.084c-.06,0-.108.048-.18.132L241.6-4.9c-.384,0-1.224-.024-2.052-.1l.276.528a8.746,8.746,0,0,1,1.548-.144h.384v.18c0,1.632-.012,1.8-.012,3.288a4.262,4.262,0,0,1-1.992.708l.636.984a.248.248,0,0,0,.168.12c.072,0,.084-.036.156-.372.216-.216,1.3-1.284,1.524-1.536.516.756,1.116,1.38,3.132,1.584.744.072,4.08.084,4.38.06A1.786,1.786,0,0,1,250.676-.732ZM253.484-3.4a7.909,7.909,0,0,0-.66-3.144A6.719,6.719,0,0,0,251.3-8.76h-.228A9.859,9.859,0,0,1,252.536-3.4a9.841,9.841,0,0,1-1.464,5.352h.228a6.668,6.668,0,0,0,1.524-2.208A7.872,7.872,0,0,0,253.484-3.4Z" transform="translate(970 10731.304)" fill="#0f0f0f"/>
    <path id="パス_104" data-name="パス 104" d="M34.825-17.325v-.28A23.754,23.754,0,0,1,18.9-26.845c.595-.14.735-.455.735-.63a.469.469,0,0,0-.28-.455l-3.29-1.785a4.868,4.868,0,0,1-.945,2.205A46.1,46.1,0,0,1,.84-12.355l.14.21c5.11-1.33,12.775-7.98,17.15-14.6h.21c1.925,4.1,6.755,9.415,13.615,12.32A6.827,6.827,0,0,1,34.825-17.325ZM32.55.56A.753.753,0,0,0,32.2.035l-2.135-1.75c-.28-.21-.455-.385-.63-.385s-.35.21-.455.315L27.3.105H18.76V-6.65h9.555c.245,0,.525-.07.525-.385,0-.245-.175-.385-.35-.525L26.425-9.2c-.385-.315-.525-.35-.665-.35-.175,0-.385.21-.525.42L23.975-7.49H18.76v-6.3h8.365c.21,0,.525-.035.525-.385a.747.747,0,0,0-.35-.525l-2.31-1.75a.842.842,0,0,0-.6-.28c-.14,0-.28.14-.49.385L22.54-14.63H13.685c-.49,0-2.975-.035-5.355-.245l.665,1.4a24.924,24.924,0,0,1,4.13-.315H16.31v6.3H11.76c-1.05,0-3.22-.07-5.39-.245l.7,1.4A21.6,21.6,0,0,1,11.2-6.65h5.11V.105H8.75C8.435.105,5.775.07,3.36-.14l.7,1.4A24.838,24.838,0,0,1,8.19.945H32.025C32.235.945,32.55.91,32.55.56ZM65.625-17.22c0-.175-.035-.315-.35-.63L62.685-20.2a21.816,21.816,0,0,1-3.99,6.125c0-1.3-.035-6.965-.035-8.12.98-.595,1.47-.91,1.47-1.3,0-.245-.245-.455-.42-.595l-1.75-1.26a.885.885,0,0,0-.525-.21c-.175,0-.28.1-.49.385l-.805.945h-7.6c.945-1.015,2.555-2.73,2.835-3.01.42-.07,1.3-.21,1.3-.77,0-.28-.175-.455-.49-.56L48.4-29.715a7.055,7.055,0,0,1,.105,1.26,18.132,18.132,0,0,1-.7,4.235H45.64L42.6-25.9c.21.98.28,1.33.315,5.39.035,1.47.035,2.485,0,10.92-2.45.28-3.85.315-4.13.315a14.307,14.307,0,0,1-2.1-.175l1.365,3.5c.175.42.315.63.56.63.35,0,.6-.525.91-1.3,1.3-.35,7.035-1.785,8.225-2.1,2.45-.63,5.355-1.435,8.155-2.38A66.984,66.984,0,0,1,36.82,1.89l.07.245C41.58,1.085,48.545-1.68,56.35-8.47c.035,2.03,0,5.25,0,7.28,0,.805-.525.805-1.12.805-1.47,0-3.115-.1-3.85-.175v.245a5.022,5.022,0,0,1,2.9,3.535C58.87,2.415,58.87.21,58.87-1.015c0-1.54-.175-8.575-.175-9.59a56.748,56.748,0,0,0,5.5-6.055C64.575-16.625,65.625-16.52,65.625-17.22Zm-9.31,1.505H45.29V-19.25H56.315Zm0-4.375H45.29v-3.29H56.315Zm0,8.3c-1.33.245-7.175,1.3-8.365,1.505-1.4.21-2.065.315-2.66.385v-4.97H56.315Zm29.96-3.64a23.619,23.619,0,0,1,3.045-.28A34.883,34.883,0,0,1,82.18-2.66l.07.21a22.3,22.3,0,0,0,7.315-8.12c-.035,7.21-.035,7.98-.105,9.52-.035.35-.175,2-.175,2.38,0,.945.455,1.12.91,1.12,1.82,0,1.82-1.33,1.82-1.96,0-.315-.28-7.42-.315-8.855-.1-2.765-.07-4.97-.07-6.615.49,4.1,2.695,10.325,5.635,13.615a4.912,4.912,0,0,1,3.64-1.61V-3.29A18.614,18.614,0,0,1,91.91-15.75h6.475c.28,0,.525-.1.525-.35s-.175-.385-.35-.56l-1.715-1.505a1.154,1.154,0,0,0-.63-.35c-.21,0-.35.175-.49.455l-.805,1.47H91.63c.035-.49.07-2.87.07-3.185.49-.245,1.085-.63,1.085-1.05,0-.28-.245-.42-.6-.525l-3.15-.84c.385,1.26.385,1.715.56,5.6-1.855-.035-3.29-.175-4.025-.21Zm-11.235,0a20.429,20.429,0,0,1,2.8-.28,39.7,39.7,0,0,1-5.985,13.16l.21.21a23.6,23.6,0,0,0,6.195-8.47c0,1.925,0,3.605-.105,7.07-.035.77-.245,4.48-.245,5.32,0,1.05.56,1.05.8,1.05,1.82,0,1.82-1.225,1.82-1.925,0-1.925-.35-11.445-.35-13.615A8.2,8.2,0,0,1,82.04-9.8c.56,1.61.735,2.135,1.645,2.135a1.437,1.437,0,0,0,1.33-1.575c0-2.135-3.465-3.57-4.83-3.955,0-1.505.035-2.065.035-2.555h3.955c.385,0,.525-.14.525-.35s-.175-.385-.35-.56l-1.155-.98a1.338,1.338,0,0,0-.665-.385c-.175,0-.315.14-.525.42L81.27-16.59H80.22c.035-1.47.07-2.31.1-3.115.77-.455,1.085-.77,1.085-1.085s-.175-.42-.49-.49L77.6-22.12c.315,1.05.525,1.68.6,5.5-1.68-.035-3.185-.14-3.815-.21ZM85.05-24.4c0-.35.035-1.96,0-2.345.84-.455,1.05-.665,1.05-.98s-.315-.42-.525-.49l-3.57-.945a11.89,11.89,0,0,1,.63,4.76h-8.68l-3.5-1.3a43.8,43.8,0,0,1,.525,7.49c0,12.145-1.61,16.31-3.36,19.18l.21.175c4.2-4.165,5.285-9.38,5.495-16.135.035-1.225.105-7.21.105-8.575H97.265c.245,0,.525-.035.525-.385,0-.21-.14-.35-.315-.525L95.34-26.39c-.245-.21-.42-.385-.665-.385-.21,0-.35.175-.525.455L92.925-24.4Zm32.1-2.135c0-.245-.175-.385-.35-.525l-1.47-1.26c-.35-.28-.455-.385-.665-.385-.14,0-.21.14-.525.455l-1.155,1.26h-6.125c-1.05,0-3.185-.07-5.355-.245l.7,1.4a24.019,24.019,0,0,1,4.34-.315v5.075h-1.26l-2.8-1.54c.21,2.17.245,4.375.245,6.58,0,1.295-.1,11.235-.245,14.98,0,.245-.14,1.435-.14,1.715a.939.939,0,0,0,.98,1.05c1.54,0,1.68-1.54,1.575-2.52h8.435c-.07.7-.14,1.855.805,1.855a1.62,1.62,0,0,0,1.68-1.82c0-.315-.07-1.89-.07-2.24-.07-1.96-.07-3.78-.07-5.705,0-1.575.1-9.275.07-11.025a4.768,4.768,0,0,1,.6-.6c.175-.175.385-.35.385-.56,0-.14-.1-.245-.385-.455l-1.3-.91c-.28-.21-.385-.28-.49-.28-.14,0-.21.1-.42.315L113.05-21.07H111.4v-5.075h5.215C116.83-26.145,117.145-26.18,117.145-26.53Zm-3.78,19.705h-8.54v-3.71c2.59-1.925,3.43-5.425,3.605-9.695h1.12v6.79c0,1.855,1.05,1.855,1.715,1.855a5.079,5.079,0,0,0,2.1-.21ZM109.55-21.07h-1.12v-5.075h1.12Zm3.815,7.28c-.21-.175-.35-.28-.7-1.365h-.245c-.14,1.12-.14,1.435-.735,1.435-.21,0-.28,0-.28-.7v-5.81h1.96Zm-6.825-6.44c0,3.955-.385,7.1-1.715,9.03v-9.03Zm6.825,18.585h-8.54v-4.34h8.54ZM133.6-15.05a.66.66,0,0,0-.21-.525c-.14-.21-.42-.455-.525-.63a31.442,31.442,0,0,1-.7-4.235h-.245c-.21,1.12-.56,2.345-.91,3.535-.315,1.05-.63,1.12-1.68,1.12-.91,0-1.19-.07-1.19-.805,0-.77.14-4.76.175-5.39,1.19-.7,1.33-.77,1.33-1.155,0-.245-.14-.35-.315-.49L127.89-24.78c-.245-.175-.35-.28-.49-.28-.175,0-.28.07-.525.35l-.945,1.12h-2.135a28.979,28.979,0,0,0,.525-3.6c.175-.105.875-.49.875-.805,0-.28-.245-.455-.56-.56l-3.255-1.05a17.826,17.826,0,0,1,.28,2.8,24.011,24.011,0,0,1-.245,3.22c-2.9-.035-4.41-.175-5.215-.245l.7,1.4a24.37,24.37,0,0,1,4.375-.315c-.56,3.01-2.555,8.47-5.32,11.27l.21.21c4.83-3.185,6.58-7.665,7.455-11.48h2.45v.385c0,.945-.28,5.5-.28,6.545,0,2.275,1.435,2.38,4.025,2.38C130.585-13.44,133.6-13.51,133.6-15.05Zm-.77,7.28c0-.175-.1-.315-.385-.6L130.935-9.73a1.027,1.027,0,0,0-.665-.385c-.175,0-.315.175-.56.455l-1.155,1.4H125.02c0-.455.035-2.835.035-3.36.84-.56.91-.77.91-.945,0-.28-.28-.525-.735-.63l-2.975-.735a18.667,18.667,0,0,1,.49,5.67h-.665c-1.05,0-3.22-.07-5.39-.21l.7,1.365a24.924,24.924,0,0,1,4.13-.315h1.225c-.035.7-.035,4.06-.07,4.83,0,.7-.175,3.675-.175,4.34,0,.42,0,1.12.945,1.12,1.26,0,1.785-.98,1.785-2.1,0-.14-.21-4.1-.21-4.865-.035-1.575-.035-2.59-.035-3.325h7.28C132.475-7.42,132.825-7.455,132.825-7.77Z" transform="translate(405 10771.304)"/>
    <path id="パス_85-2" data-name="パス 85" d="M20.5-16.69a.722.722,0,0,0-.251-.434l-1.05-.959c-.205-.183-.3-.228-.411-.228s-.228.068-.388.228l-.776.822H5.274L2.808-18.677a31.254,31.254,0,0,1,.205,4.612c0,4.064-.023,8.128-.137,12.215,0,.365-.091,2.192-.091,2.6,0,.3,0,.731.708.731,1.256,0,1.256-.868,1.256-1.393,0-.183-.023-.731-.023-.776-.068-1.849-.068-2.375-.114-7.124h13.38v5.8c0,.89-.137,1.1-.822,1.1a14.869,14.869,0,0,1-2.443-.205l-.023.16C16.622.183,16.759.731,16.827,1.484c2.945-.3,2.945-1.9,2.945-3.151,0-2.808-.183-7.329-.183-10.16,0-1.827.023-3.311.046-4.11C20.138-16.165,20.5-16.485,20.5-16.69ZM17.992-8.357H12.1v-8.357h5.891Zm-7.512,0H4.612v-8.357H10.48Z" transform="translate(1198.876 10664.089)" fill="#d4145a"/>
    <path id="パス_86-2" data-name="パス 86" d="M-25.464,1.956A10.35,10.35,0,0,1-26.4-.54,11.638,11.638,0,0,1-26.748-3.4,11.526,11.526,0,0,1-25.464-8.76h-.324A7.721,7.721,0,0,0-27.924-3.4a7.712,7.712,0,0,0,2.136,5.352ZM-14.34-.42c0-.1-.06-.156-.192-.252-.252-.2-.348-1.236-.372-1.608h-.108C-15.372-.4-15.384-.348-16.26-.348c-.948,0-1.032-.048-1.032-.408V-3.624h.6c.012.336.012.48.288.48a.6.6,0,0,0,.444-.144.372.372,0,0,0,.084-.276c0-.42-.048-2.28-.048-2.664.144-.048.4-.18.4-.348a.264.264,0,0,0-.12-.216l-.456-.336a.5.5,0,0,0-.252-.12q-.09,0-.216.144l-.276.324h-2.676l-1.044-.5a10.467,10.467,0,0,1,.144,2.58c0,.2-.024,1.1-.012,1.3,0,.084,0,.312.336.312a.46.46,0,0,0,.468-.528h.192A5.32,5.32,0,0,1-22.164.444l.024.072A4.929,4.929,0,0,0-18.684-2.7c.216-.036.372-.132.372-.24,0-.072-.036-.12-.132-.18l-.912-.5h1.284V-.36c0,.78.552.78,1.512.78,1.5,0,1.632-.12,1.872-.276A.842.842,0,0,0-14.34-.42Zm-2.352-3.492H-19.62v-2.58h2.928Zm1.176-5.136a.216.216,0,0,0-.108-.192l-1.176-.768a2,2,0,0,1-.1.684,16.3,16.3,0,0,1-1.1,2.4l.084.084a14.194,14.194,0,0,0,1.86-2C-15.816-8.856-15.516-8.9-15.516-9.048Zm-3.072,1.272c0-.768-.852-1.32-1.824-1.8l-.048.072a3.594,3.594,0,0,1,.78,1.56c.1.372.192.732.588.732A.515.515,0,0,0-18.588-7.776ZM-20.748-6.6c0-.06-.048-.12-.12-.192l-.516-.456c-.1-.084-.156-.132-.228-.132s-.12.06-.192.156l-.348.456h-.324V-8.916c.216-.048.36-.1.876-.228a1.027,1.027,0,0,0,.36.06c.156,0,.252-.048.252-.18a.311.311,0,0,0-.132-.192l-.84-.72a.917.917,0,0,1-.4.384A17.708,17.708,0,0,1-25.38-8.556v.108a16.7,16.7,0,0,0,2.16-.288v1.968h-.252c-.168,0-1.02-.012-1.848-.084l.24.48a8.545,8.545,0,0,1,1.416-.108h.42a10.246,10.246,0,0,1-2.5,4.368l.048.084A6.254,6.254,0,0,0-23.22-4.656c-.012,1.308-.012,3.048-.06,4.152,0,.144-.06.864-.06,1.032,0,.288.18.288.276.288.6,0,.6-.384.6-.552,0-.78-.012-4.62-.012-5.484.144.1.348.252.588.9.216.564.24.648.54.648a.41.41,0,0,0,.42-.456c0-.66-.948-1.14-1.548-1.236V-6.48h1.548C-20.856-6.48-20.748-6.5-20.748-6.6ZM-2.676-2.4v-.048c-1.872-.288-4.356-2.676-4.212-6.18.852-.4.972-.432.972-.588,0-.072-.072-.144-.144-.2l-.684-.5a.266.266,0,0,0-.132-.06c-.048,0-.108.06-.168.12l-.5.492h-.264c-.36,0-1.092-.012-1.836-.072l.228.468A9.585,9.585,0,0,1-8-9.084h.7a14.235,14.235,0,0,0,.192,1.74l-.408-.1C-7.86-5.064-8.88-2.8-10.632-1.716l.048.084A6.527,6.527,0,0,0-6.852-6.048,7.951,7.951,0,0,0-4.08-1.524,2.206,2.206,0,0,1-2.676-2.4Zm-7.86-5.664c0-.636-.612-1.26-1.86-1.644l-.048.084a3.192,3.192,0,0,1,.852,1.5c.108.324.2.624.552.624A.518.518,0,0,0-10.536-8.064ZM-2.7-.84V-.912a14.69,14.69,0,0,1-4.8.588c-1.116,0-3.276-.06-3.276-1.608V-4.32c.348-.252.432-.312.432-.408,0-.072-.06-.12-.108-.168L-11-5.352c-.06-.048-.108-.1-.168-.1s-.108.06-.192.144l-.384.408c-.468,0-1.224-.024-1.968-.084l.24.48a7.405,7.405,0,0,1,1.416-.108h.48v3.516a4.341,4.341,0,0,1-2.04.528l.7,1.14a.252.252,0,0,0,.18.132c.12,0,.144-.12.2-.372.216-.216,1.332-1.3,1.584-1.548A3.776,3.776,0,0,0-7.9.42c.828.1,3.936.1,4.356.084A2.073,2.073,0,0,1-2.7-.84Zm.072,2.8A7.658,7.658,0,0,0-.492-3.4,7.721,7.721,0,0,0-2.628-8.76H-2.94A11.681,11.681,0,0,1-1.656-3.4,11.636,11.636,0,0,1-2.016-.54a10.965,10.965,0,0,1-.924,2.5Z" transform="translate(1223.924 10636.211)" fill="#d4145a"/>
    <path id="パス_103" data-name="パス 103" d="M-150.7-20.488a12.364,12.364,0,0,0,6.6-4.42,8.99,8.99,0,0,0,1.924-5.3c0-4.576-4-8.736-10.4-8.736-6.656,0-9.984,4.42-9.984,7.28a2.692,2.692,0,0,0,2.6,2.86,2.747,2.747,0,0,0,2.652-2.86,5.128,5.128,0,0,0-.156-1.248,4.145,4.145,0,0,1-.156-.78c0-1.508,1.456-3.484,4.212-3.484,4.108,0,6.552,3.744,6.552,7.8,0,4.212-2.756,8.112-7.124,8.112-.364,0-1.924-.312-2.236-.312a1.177,1.177,0,0,0-1.2,1.2,1.026,1.026,0,0,0,1.144,1.092c.312,0,1.768-.208,2.08-.208,4.16,0,8.112,4.16,8.112,9.516,0,5.252-4.056,9.2-8.06,9.2-2.444,0-4.68-1.456-4.68-3.432a3.7,3.7,0,0,1,.156-1.2,4.286,4.286,0,0,0,.312-1.664,2.546,2.546,0,0,0-2.548-2.6,3,3,0,0,0-2.964,3.328c0,4.16,4.732,7.332,10.348,7.332,6.864,0,12.116-4.576,12.116-10.972a9.658,9.658,0,0,0-3.536-7.7A13.939,13.939,0,0,0-150.7-20.488Zm26,0a12.364,12.364,0,0,0,6.6-4.42,8.99,8.99,0,0,0,1.924-5.3c0-4.576-4-8.736-10.4-8.736-6.656,0-9.984,4.42-9.984,7.28a2.692,2.692,0,0,0,2.6,2.86,2.747,2.747,0,0,0,2.652-2.86,5.128,5.128,0,0,0-.156-1.248,4.145,4.145,0,0,1-.156-.78c0-1.508,1.456-3.484,4.212-3.484,4.108,0,6.552,3.744,6.552,7.8,0,4.212-2.756,8.112-7.124,8.112-.364,0-1.924-.312-2.236-.312a1.177,1.177,0,0,0-1.2,1.2,1.026,1.026,0,0,0,1.144,1.092c.312,0,1.768-.208,2.08-.208,4.16,0,8.112,4.16,8.112,9.516,0,5.252-4.056,9.2-8.06,9.2-2.444,0-4.68-1.456-4.68-3.432a3.7,3.7,0,0,1,.156-1.2,4.286,4.286,0,0,0,.312-1.664,2.546,2.546,0,0,0-2.548-2.6,3,3,0,0,0-2.964,3.328c0,4.16,4.732,7.332,10.348,7.332,6.864,0,12.116-4.576,12.116-10.972a9.658,9.658,0,0,0-3.536-7.7A13.939,13.939,0,0,0-124.7-20.488ZM-88.92-18.98c0-14.2-6.344-19.968-11.7-19.968-6.968,0-11.7,8.424-11.7,19.5,0,4.836.988,11.232,3.172,14.82,1.924,3.12,4.94,5.616,8.528,5.616C-94.276.988-88.92-6.24-88.92-18.98Zm-11.7-18.2c4.16,0,7.02,6.344,7.02,18.2A48.149,48.149,0,0,1-94.848-7.54c-.572,1.976-2.184,6.76-5.772,6.76-4.264,0-7.02-6.6-7.02-18.2a47.058,47.058,0,0,1,1.2-11.284C-105.924-32.084-104.312-37.18-100.62-37.18ZM-84.708,6.032c1.3-1.092,4.94-4.264,4.94-8.112a3.02,3.02,0,0,0-3.068-2.964A3.008,3.008,0,0,0-85.8-2.028c0,1.612.884,2.34,2.236,2.964.416.156.468.676.468.884,0,1.04-1.04,2.392-2.444,3.432ZM-53.3-18.98c0-14.2-6.344-19.968-11.7-19.968-6.968,0-11.7,8.424-11.7,19.5,0,4.836.988,11.232,3.172,14.82C-71.6-1.508-68.588.988-65,.988-58.656.988-53.3-6.24-53.3-18.98ZM-65-37.18c4.16,0,7.02,6.344,7.02,18.2A48.149,48.149,0,0,1-59.228-7.54C-59.8-5.564-61.412-.78-65-.78c-4.264,0-7.02-6.6-7.02-18.2a47.058,47.058,0,0,1,1.2-11.284C-70.3-32.084-68.692-37.18-65-37.18Zm37.7,18.2c0-14.2-6.344-19.968-11.7-19.968-6.968,0-11.7,8.424-11.7,19.5,0,4.836.988,11.232,3.172,14.82C-45.6-1.508-42.588.988-39,.988-32.656.988-27.3-6.24-27.3-18.98ZM-39-37.18c4.16,0,7.02,6.344,7.02,18.2A48.149,48.149,0,0,1-33.228-7.54C-33.8-5.564-35.412-.78-39-.78c-4.264,0-7.02-6.6-7.02-18.2a47.058,47.058,0,0,1,1.2-11.284C-44.3-32.084-42.692-37.18-39-37.18Zm37.7,18.2c0-14.2-6.344-19.968-11.7-19.968-6.968,0-11.7,8.424-11.7,19.5,0,4.836.988,11.232,3.172,14.82C-19.6-1.508-16.588.988-13,.988-6.656.988-1.3-6.24-1.3-18.98ZM-13-37.18c4.16,0,7.02,6.344,7.02,18.2A48.149,48.149,0,0,1-7.228-7.54C-7.8-5.564-9.412-.78-13-.78c-4.264,0-7.02-6.6-7.02-18.2a47.058,47.058,0,0,1,1.2-11.284C-18.3-32.084-16.692-37.18-13-37.18Z" transform="translate(1197 10666.304)" fill="#d4145a"/>
    <path id="パス_102" data-name="パス 102" d="M32.725-26.53c.35,0,.49-.175.49-.35,0-.21-.105-.35-.315-.56l-1.54-1.435a1.213,1.213,0,0,0-.665-.385c-.175,0-.315.14-.525.42l-1.015,1.47H21.35c-1.715,0-3.64-.07-5.39-.21l.7,1.365a27.656,27.656,0,0,1,4.13-.315h1.365a31.032,31.032,0,0,1-.77,4.48h-.77l-2.94-1.54a20.684,20.684,0,0,1,.455,5.7c0,2.66-.1,9.275-.245,12.18a1.8,1.8,0,0,0-.035.35c0,.56.315.875,1.015.875a1.335,1.335,0,0,0,1.4-1.505h8.05c-.1.8-.1,1.33.84,1.33,1.61,0,1.61-1.015,1.61-1.715,0-1.75-.21-9.45-.21-11.025,0-.49,0-1.785.07-3.08.805-.385,1.015-.665,1.015-.875,0-.245-.14-.35-.385-.56l-1.19-.98a1.156,1.156,0,0,0-.63-.315c-.175,0-.35.105-.595.35l-.805.805H21.98a54.822,54.822,0,0,0,3.255-4.48ZM28.35-16.38v4.2H20.265v-4.2Zm0,5.04v4.515H20.265V-11.34Zm0-9.87v3.99H20.265v-3.99ZM12.46,1.75a23.03,23.03,0,0,0,9.8-4.06c1.26.14,1.61-.175,1.61-.56a.807.807,0,0,0-.385-.7l-2.31-1.82c-.77,1.89-4.655,5.075-8.75,6.93ZM10.22-12.18a20.337,20.337,0,0,0,.175-3.43c0-1.015,0-5.95.035-7.035h5.005c.21,0,.525-.105.525-.315a.817.817,0,0,0-.35-.6l-1.225-1.12a1.21,1.21,0,0,0-.665-.385c-.175,0-.315.21-.49.455l-.7,1.12h-2.1V-27.09c.63-.385.945-.595.945-.945,0-.28-.21-.385-.525-.49l-3.325-.98a16.485,16.485,0,0,1,.56,2.17c.07.63.07,3.22.07,3.85-2,0-3.92-.07-5.88-.21l.7,1.4a24.514,24.514,0,0,1,4.13-.35h1.05v7.455a26.469,26.469,0,0,1-.105,3.01H6.93c-.28,0-2.975-.035-5.39-.245l.7,1.4a24.717,24.717,0,0,1,4.1-.315h1.61A19.866,19.866,0,0,1,1.3.735L1.4.91A15.952,15.952,0,0,0,9.625-9.24a22.251,22.251,0,0,1,2.94,4.165c.805,1.505,1.12,2.1,1.855,2.1a1.446,1.446,0,0,0,1.3-1.54c0-1.855-3.01-3.99-5.985-5.075.105-.455.21-.84.385-1.75h6.51c.21,0,.525-.07.525-.385a.781.781,0,0,0-.35-.56L15.435-13.51c-.245-.21-.42-.385-.63-.385s-.35.175-.525.455l-.77,1.26ZM2.485-19.53A16.719,16.719,0,0,1,3.99-15.26c.21,1.26.35,2.1,1.365,2.1a1.389,1.389,0,0,0,1.33-1.54c0-1.47-1.4-3.5-4.165-4.97Zm10.4-1.3a7.368,7.368,0,0,1,.07.875,16.511,16.511,0,0,1-.665,3.43c-.175.56-1.155,3.15-1.435,3.78l.21.1A47.336,47.336,0,0,0,15.3-17.85c.735-.1,1.05-.28,1.05-.7a.7.7,0,0,0-.385-.63ZM25.34-4.62a25.621,25.621,0,0,1,4.2,4.27c1.05,1.54,1.4,2.065,2.135,2.065A1.354,1.354,0,0,0,32.97.35c0-1.05-1.19-2.17-1.645-2.555-1.575-1.33-4.41-2.135-5.95-2.555ZM59.4-13.545c0-.175-.21-.42-.42-.595L57.75-15.155a1.015,1.015,0,0,0-.525-.315c-.14,0-.28.14-.49.385l-.875.91H45.6L42.63-15.61a6.5,6.5,0,0,1,.175,1.505c.035,1.505.07,4.41.07,6.02-.035,4.2-.035,5.285-.14,7.315,0,.35-.14,1.96-.14,2.345,0,.35,0,1.05,1.155,1.05,1.12,0,1.645-.77,1.645-1.96,0-.945-.1-3.465-.14-4.865h10.78C56.07-3.815,56-1.82,56-1.575c0,.735-.35.875-1.61.875a20.25,20.25,0,0,1-2.695-.175l-.07.245A6.337,6.337,0,0,1,54.775,2.7c2.555-.63,3.71-2,3.71-3.92,0-.6-.175-5.425-.175-6.44V-12.25C59.115-12.915,59.4-13.23,59.4-13.545ZM55.86-23.52H51.415l-2.8-1.3A31.729,31.729,0,0,1,49-19.985v1.365H44.66v-8.365h11.2Zm9.87,6.755a1.069,1.069,0,0,0-.28-.7l-1.925-2c-.14-.14-.385-.385-.56-.385a1.4,1.4,0,0,0-.665.315l-1.3.91h-2.8v-7.21c.42-.28,1.155-.805,1.155-1.12a.9.9,0,0,0-.385-.63L57.68-28.665c-.175-.14-.42-.35-.6-.35-.14,0-.35.21-.56.42l-.735.77H44.87L41.93-29.26a81.049,81.049,0,0,1,.385,10.64H39.27a14.482,14.482,0,0,0-.28-1.54h-.245a9,9,0,0,1-2.2,3.92c-1.575,1.5-1.75,1.68-1.75,2.24a1.407,1.407,0,0,0,1.54,1.3c1.61,0,3.045-2.415,3.01-5.075H61.32a35.261,35.261,0,0,1-1.19,3.675l.21.105c1.05-.7,2.135-1.4,3.255-2.03C65.45-16.03,65.73-16.24,65.73-16.765ZM55.86-18.62H51.31v-4.06h4.55Zm.175,8.96H45.22l-.035-3.675h10.85Zm0,4.62H45.255L45.22-8.82H56.035Zm36.61-8.505c0-.175-.21-.42-.42-.595L91-15.155a1.015,1.015,0,0,0-.525-.315c-.14,0-.28.14-.49.385l-.875.91H78.855L75.88-15.61a6.5,6.5,0,0,1,.175,1.505c.035,1.505.07,4.41.07,6.02-.035,4.2-.035,5.285-.14,7.315,0,.35-.14,1.96-.14,2.345,0,.35,0,1.05,1.155,1.05,1.12,0,1.645-.77,1.645-1.96,0-.945-.105-3.465-.14-4.865h10.78c.035.385-.035,2.38-.035,2.625,0,.735-.35.875-1.61.875a20.25,20.25,0,0,1-2.695-.175l-.07.245A6.337,6.337,0,0,1,88.025,2.7c2.555-.63,3.71-2,3.71-3.92,0-.6-.175-5.425-.175-6.44V-12.25C92.365-12.915,92.645-13.23,92.645-13.545ZM89.11-23.52H84.665l-2.8-1.3a31.728,31.728,0,0,1,.385,4.83v1.365H77.91v-8.365h11.2Zm9.87,6.755a1.069,1.069,0,0,0-.28-.7l-1.925-2c-.14-.14-.385-.385-.56-.385a1.4,1.4,0,0,0-.665.315l-1.295.91h-2.8v-7.21c.42-.28,1.155-.805,1.155-1.12a.9.9,0,0,0-.385-.63L90.93-28.665c-.175-.14-.42-.35-.6-.35-.14,0-.35.21-.56.42l-.735.77H78.12L75.18-29.26a81.049,81.049,0,0,1,.385,10.64H72.52a14.482,14.482,0,0,0-.28-1.54H72a9,9,0,0,1-2.205,3.92c-1.575,1.5-1.75,1.68-1.75,2.24a1.407,1.407,0,0,0,1.54,1.3c1.61,0,3.045-2.415,3.01-5.075H94.57a35.261,35.261,0,0,1-1.19,3.675l.21.105c1.05-.7,2.135-1.4,3.255-2.03C98.7-16.03,98.98-16.24,98.98-16.765ZM89.11-18.62H84.56v-4.06h4.55Zm.175,8.96H78.47l-.035-3.675h10.85Zm0,4.62H78.505L78.47-8.82H89.285ZM117.74-18.13a.661.661,0,0,0-.245-.455l-1.505-1.3a.962.962,0,0,0-.595-.315c-.245,0-.455.245-.525.315l-.91,1.05h-2.87c.14-5.355.14-5.95.21-7.945,1.085-.805,1.19-.91,1.19-1.155,0-.21-.14-.35-.49-.455l-3.6-1.225a8.668,8.668,0,0,1,.455,2.52c.07,1.68.07,2.765.07,8.26h-2.31L103.5-20.3c.21,1.47.245,4.55.245,5.04,0,7.14-.1,10.85-.21,13.615-.035.455-.28,2.765-.28,3.29a.9.9,0,0,0,1.015,1.015,1.732,1.732,0,0,0,1.75-2.03c0-.98-.035-5.705-.035-6.755h8.4v3.99c0,1.085-.245,1.225-1.4,1.225a21.327,21.327,0,0,1-3.185-.315V-.98c1.4.77,3.15,1.785,3.255,3.605,1.5-.175,3.6-.98,3.6-3.045v-9.765c0-3.605,0-4.97.07-6.545C116.865-16.94,117.74-17.85,117.74-18.13Zm-3.36,5.215h-8.4c0-.8.035-4.34.035-5.075h8.365Zm0,5.95h-8.4v-5.11h8.4Zm16.94-19.95c0-.315-.315-.42-.455-.455l-3.71-1.26a10.837,10.837,0,0,1,.63,3.885V-2.94c0,1.68-.035,1.785-1.68,1.785-.91,0-3.01-.14-3.85-.245v.28c1.855.8,3.57,1.54,3.71,3.64,4.34-.63,4.34-3.15,4.34-4.445,0-.21-.035-.63-.07-1.3-.07-.7-.1-11.34-.1-17.64,0-3.115,0-3.64.07-4.9C131.18-26.53,131.32-26.635,131.32-26.915ZM118.755-25.13c0-.245-.175-.42-.49-.63l-2.555-1.61A25.68,25.68,0,0,1,112-20.3l.245.14a36.859,36.859,0,0,0,5-4.305C118.615-24.71,118.755-24.745,118.755-25.13Zm5.635.315c0-.28-.175-.385-.385-.455l-3.78-1.19c.665,1.575.8,2.135.8,6.965,0,4.13-.14,9.345-.245,12.53,0,.315-.105,1.68-.105,2a.845.845,0,0,0,.91.91,1.744,1.744,0,0,0,1.89-1.82c0-.28-.14-8.715-.14-10.36,0-.385,0-2.8.035-7.525C124.285-24.43,124.39-24.5,124.39-24.815Zm-17.255,2.73c0-1.085-.84-3.01-5.5-4.375v.28a10.076,10.076,0,0,1,2.59,3.955c.595,1.33,1.085,1.575,1.61,1.575A1.347,1.347,0,0,0,107.135-22.085ZM157.92-14.35c0-3.5-.455-10.36-4.83-10.36-4.13,0-7.14,8.96-7.945,11.83-.035.175-.105.35-.315.35-.35,0-.35-1.995-.35-2.52a25.134,25.134,0,0,1,1.96-9.38,4.049,4.049,0,0,0,.42-1.54c0-1.225-1.47-2.52-3.08-2.52a6.74,6.74,0,0,0-1.575.245,3.65,3.65,0,0,1,2.03,3.185,8.543,8.543,0,0,1-.14,1.33,74.418,74.418,0,0,0-1.225,10.115c0,3.15.63,7.245,2.7,7.245.7,0,.84-.6.84-.98,0-.35-.245-2.135-.245-2.52,0-4.2,2.31-9.555,3.71-11.585.315-.455,1.3-1.89,2.7-1.89,2.625,0,2.765,6.37,2.765,8.68,0,6.265-1.785,13.02-7.84,17.4l.07.175c1.61-.35,3.815-2.03,4.97-3.08C156.45-3.745,157.92-7.91,157.92-14.35Zm41.2,17.5a22.98,22.98,0,0,1-6.65-16.45,22.98,22.98,0,0,1,6.65-16.45l-.315-.49a21.74,21.74,0,0,0-8.295,16.94A21.74,21.74,0,0,0,198.8,3.64ZM234.5-6.93c-5.145-1.365-9.87-7.315-12.285-13.65H232.4c.245,0,.56-.035.56-.385a.753.753,0,0,0-.35-.525l-2.135-1.68a1.281,1.281,0,0,0-.63-.35c-.175,0-.385.21-.6.42l-1.575,1.68H221.83c0-.77.07-4.55.07-5.39.35-.21,1.015-.665,1.015-1.085,0-.28-.21-.42-.455-.49l-3.71-.91c.56,1.5.7,1.855.8,7.875h-3.43c-1.05,0-3.22-.07-5.39-.245l.7,1.4a23.2,23.2,0,0,1,4.1-.315h3.255c-1.89,5.46-5.565,11.97-9.24,15.435l.035.14c4.3-1.785,8.505-8.4,10.01-11.375-.035,8.05-.035,8.96-.07,10.78h-.735c-.49,0-2.975-.035-5.355-.245l.7,1.4a23.2,23.2,0,0,1,4.1-.315h1.295c-.035.665-.035,1.68-.1,3.22-.07.945-.245,2.485-.245,3.43a.881.881,0,0,0,.945.98c1.33,0,2.065-.6,2.065-1.75,0-.35-.1-5.145-.14-5.88H227.4c.245,0,.525-.035.525-.35,0-.245-.14-.385-.35-.56l-1.645-1.4c-.21-.175-.42-.385-.665-.385-.21,0-.42.28-.56.455l-1.085,1.4H222.04c-.035-1.575-.21-9.87-.245-10.99,0-.63-.035-.875,0-3.15.945,4.62,5.11,12.285,9.345,15.19a7.279,7.279,0,0,1,3.29-2.135ZM213.4-27.44a.514.514,0,0,0-.245-.42l-3.29-1.75c-.21,1.4-3.92,11.725-9.485,18.165l.175.21c2.87-1.505,5.81-5.845,6.44-6.755-.105,6.125-.175,8.54-.175,8.855-.035,1.715-.455,10.4-.455,10.675,0,.525,0,1.225,1.19,1.225a1.528,1.528,0,0,0,1.715-1.75c0-.525-.14-9.87-.14-10.43,0-1.575.07-5.81.1-9.135.735-.665.98-.98.98-1.19,0-.28-.21-.385-.455-.525l-.91-.56a56.992,56.992,0,0,0,3.185-5.81C212.975-26.88,213.4-27.02,213.4-27.44ZM240.66-10.01l-3.08-1.54a24.329,24.329,0,0,1,.315,4.165c0,1.3-.175,7.07-.175,8.19,0,.385.1.945.875.945a1.56,1.56,0,0,0,1.75-1.715c0-.21-.035-.315-.07-.7h7.21a7.962,7.962,0,0,0-.07.91c0,.525.175.875.84.875A1.6,1.6,0,0,0,249.9-.63c0-.49-.07-2.905-.07-3.43-.035-1.925-.035-3.01,0-4.27.6-.42.875-.7.875-.98a.911.911,0,0,0-.455-.63l-1.33-1.015a1.4,1.4,0,0,0-.6-.315c-.175,0-.42.245-.56.42l-.77.84Zm6.86.84V-1.5h-7.28V-9.17Zm-2.66-14.735c0-.91.035-1.75.1-2.59.91-.455,1.225-.63,1.225-.945s-.35-.455-.7-.56l-3.605-.945a13.709,13.709,0,0,1,.63,5.04H241.22c-1.82,0-3.6-.105-5.39-.245l.7,1.4a23.41,23.41,0,0,1,4.1-.315H252c.21,0,.525-.07.525-.385,0-.21-.175-.385-.35-.56l-1.505-1.3c-.245-.21-.49-.42-.665-.42s-.315.21-.525.455l-1.155,1.365Zm-.35,9.415c1.26-1.5,2.66-3.43,3.885-5.18.77-.28,1.225-.56,1.225-.945a.812.812,0,0,0-.49-.63l-3.08-1.225a21.556,21.556,0,0,1-2.065,7.98H240.24c-.6,0-2.835-.035-5.355-.245l.665,1.4a23.752,23.752,0,0,1,4.13-.315h13.16c.245,0,.525-.07.525-.385,0-.21-.14-.35-.35-.525l-1.61-1.4a1.21,1.21,0,0,0-.665-.385c-.14,0-.35.245-.56.455l-1.225,1.4Zm12.39-12-2.9-1.61c.35,2.765.35,11.06.35,14.6,0,4.48,0,7.875-.175,13.09,0,.42-.035,1.19-.035,1.505,0,.91,0,1.82.98,1.82,1.015,0,1.715-.455,1.715-1.855,0-.385-.035-1.19-.035-1.68-.105-6.055-.21-23.52-.175-25.025h4.725A64.351,64.351,0,0,1,258.37-15.61a11.358,11.358,0,0,1,5.145,9.03c0,1.26-.42,2.485-2.835,2.485a21.758,21.758,0,0,1-2.975-.245l-.07.315A5.1,5.1,0,0,1,260.26-.56c1.715-.42,5.81-1.365,5.81-5.355a10.162,10.162,0,0,0-1.715-5.39,15.509,15.509,0,0,0-5.25-4.585c.7-1.19,4.235-7,5.04-8.3.875-.455,1.3-.665,1.3-1.05a1.165,1.165,0,0,0-.385-.665l-1.785-1.4c-.21-.14-.42-.315-.6-.315s-.35.175-.595.385l-.84.735Zm-18.48,5a11.466,11.466,0,0,1,1.33,4.1c.175,1.365.63,1.82,1.47,1.82.6,0,1.4-.385,1.4-1.68,0-2.45-3.01-3.885-4.06-4.375ZM292.39-8.26c0-5.005-3.22-8.96-7.735-8.96s-7.735,3.92-7.735,8.96c0,5.005,3.22,8.925,7.735,8.925C288.925.665,292.39-2.975,292.39-8.26Zm-2.975,0c0,4.1-1.75,7.98-4.76,7.98-2.73,0-4.76-3.36-4.76-7.98s2.03-8.015,4.76-8.015C287.665-16.275,289.415-12.39,289.415-8.26Zm8.96-8.96-5.565,1.61.21.735a6.318,6.318,0,0,1,1.645-.35c.98,0,1.225.805,1.225,1.505v10.5c0,1.4-.77,2.1-1.785,2.1h-1.26V0h8.575V-1.12h-1.3c-1.015,0-1.75-.7-1.75-2.1v-7.035c0-1.085,2.1-4.445,3.92-4.445a1.48,1.48,0,0,1,1.015.6,1.61,1.61,0,0,0,1.365.735,1.806,1.806,0,0,0,1.785-1.855,1.911,1.911,0,0,0-2.065-1.995c-2.73,0-4.76,2.7-6.02,4.34Zm48.09,5.845c0-.28-.175-.455-.49-.665l-1.645-1.19a2.855,2.855,0,0,0-.6-.35c-.28,0-.455.245-.77.63l-.84.945h-19.18c.175-1.19.98-6.195,1.155-6.93h16.17c-.14,1.785-.035,2.31.91,2.31a1.9,1.9,0,0,0,1.89-2.135c0-.63-.21-2.8-.21-3.22-.035-1.3-.07-3.465-.07-3.885.42-.35,1.225-1.015,1.225-1.295,0-.245-.245-.42-.455-.56l-1.68-1.12a1.066,1.066,0,0,0-.6-.28c-.245,0-.525.315-.665.49l-.665.945h-16.17c-1.05,0-3.185-.07-5.355-.245l.665,1.4a23.752,23.752,0,0,1,4.13-.315H340.3v7.07h-15.75l-2.87-1.855c-.035.805-.07,1.5-.245,2.975C321.2-16.87,319.375-7.6,319.375-7.49c0,.42.525.7.945.7a2.672,2.672,0,0,0,1.82-.805c.1-.175.56-3.115.665-3.57H342.51c-.245,2.17-1.435,7.595-2.45,8.995a2.374,2.374,0,0,1-2.135,1.19,13.772,13.772,0,0,1-4.62-.945l-.175.245A7.218,7.218,0,0,1,335.9,2.59c5.565-.315,7.56-3.605,9.275-12.81C346.325-10.92,346.465-10.99,346.465-11.375ZM356.51-10.01l-3.08-1.54a24.326,24.326,0,0,1,.315,4.165c0,1.3-.175,7.07-.175,8.19,0,.385.105.945.875.945A1.56,1.56,0,0,0,356.2.035c0-.21-.035-.315-.07-.7h7.21a7.962,7.962,0,0,0-.07.91c0,.525.175.875.84.875A1.6,1.6,0,0,0,365.75-.63c0-.49-.07-2.905-.07-3.43-.035-1.925-.035-3.01,0-4.27.6-.42.875-.7.875-.98a.911.911,0,0,0-.455-.63l-1.33-1.015a1.4,1.4,0,0,0-.6-.315c-.175,0-.42.245-.56.42l-.77.84Zm6.86.84V-1.5h-7.28V-9.17Zm-2.66-14.735c0-.91.035-1.75.1-2.59.91-.455,1.225-.63,1.225-.945s-.35-.455-.7-.56l-3.6-.945a13.709,13.709,0,0,1,.63,5.04h-1.3c-1.82,0-3.605-.105-5.39-.245l.7,1.4a23.41,23.41,0,0,1,4.1-.315H367.85c.21,0,.525-.07.525-.385,0-.21-.175-.385-.35-.56l-1.5-1.3c-.245-.21-.49-.42-.665-.42s-.315.21-.525.455l-1.155,1.365Zm-.35,9.415c1.26-1.5,2.66-3.43,3.885-5.18.77-.28,1.225-.56,1.225-.945a.812.812,0,0,0-.49-.63L361.9-22.47a21.556,21.556,0,0,1-2.065,7.98H356.09c-.6,0-2.835-.035-5.355-.245l.665,1.4a23.752,23.752,0,0,1,4.13-.315h13.16c.245,0,.525-.07.525-.385,0-.21-.14-.35-.35-.525l-1.61-1.4a1.209,1.209,0,0,0-.665-.385c-.14,0-.35.245-.56.455l-1.225,1.4Zm12.39-12-2.9-1.61c.35,2.765.35,11.06.35,14.6,0,4.48,0,7.875-.175,13.09,0,.42-.035,1.19-.035,1.505,0,.91,0,1.82.98,1.82,1.015,0,1.715-.455,1.715-1.855,0-.385-.035-1.19-.035-1.68-.105-6.055-.21-23.52-.175-25.025H377.2A64.351,64.351,0,0,1,374.22-15.61a11.358,11.358,0,0,1,5.145,9.03c0,1.26-.42,2.485-2.835,2.485a21.758,21.758,0,0,1-2.975-.245l-.07.315A5.1,5.1,0,0,1,376.11-.56c1.715-.42,5.81-1.365,5.81-5.355a10.162,10.162,0,0,0-1.715-5.39,15.509,15.509,0,0,0-5.25-4.585c.7-1.19,4.235-7,5.04-8.3.875-.455,1.3-.665,1.3-1.05a1.165,1.165,0,0,0-.385-.665l-1.785-1.4c-.21-.14-.42-.315-.6-.315s-.35.175-.6.385l-.84.735Zm-18.48,5a11.467,11.467,0,0,1,1.33,4.1c.175,1.365.63,1.82,1.47,1.82.6,0,1.4-.385,1.4-1.68,0-2.45-3.01-3.885-4.06-4.375ZM392.6-13.3A21.74,21.74,0,0,0,384.3-30.24l-.315.49a22.98,22.98,0,0,1,6.65,16.45,22.98,22.98,0,0,1-6.65,16.45l.315.49A21.74,21.74,0,0,0,392.6-13.3Z" transform="translate(375 10574.304)"/>
    <path id="パス_101" data-name="パス 101" d="M34.16-12.775a.779.779,0,0,0-.35-.6l-1.75-1.61a1.027,1.027,0,0,0-.665-.385c-.21,0-.385.175-.56.455l-.98,1.61h-.6c0-.315-.07-3.955-.07-4.27.98-.63,1.19-.84,1.19-1.085,0-.21-.1-.385-.385-.595l-1.12-.91c-.35-.28-.525-.385-.7-.385-.21,0-.35.14-.7.49l-.805.875H22.96c1.365-1.155,1.75-1.54,5.18-4.9,1.05-.21,1.715-.455,1.715-.91a.732.732,0,0,0-.315-.595L28.07-26.81a1.213,1.213,0,0,0-.665-.385c-.175,0-.35.1-.63.42l-.735.805H22.155c.105-.21.175-.315.385-.7.315-.07,1.155-.245,1.155-.735,0-.245-.175-.385-.385-.49l-2.8-1.4c-.245,3.325-3.115,8.4-4.2,9.9l.1.105a17.967,17.967,0,0,0,5.25-5.845H25.83a48.476,48.476,0,0,1-3.43,5.95c-1.82-.035-2.87-.1-4.515-.245l.7,1.4a20.234,20.234,0,0,1,3.325-.315v5.04c-1.89-.07-2.87-.07-5.04-.245l.7,1.4a22.25,22.25,0,0,1,4.34-.315v5.11c-.98,0-3.325-.035-5.565-.21l.7,1.4a22.141,22.141,0,0,1,4.13-.35h.77c0,1.47.07,4.235-.105,5.53-.035.28-.1.49-.595.49A31.069,31.069,0,0,1,17.36-.84v.21c2.66,1.435,3.045,2.03,3.29,3.5,3.6-.805,3.64-2.555,3.64-4.235,0-.7-.07-4.305-.07-5.145h2.695c0,1.365,0,1.96,1.015,1.96.315,0,1.645-.14,1.645-1.33,0-.945-.245-5.53-.28-6.58H33.6C34.02-12.46,34.16-12.6,34.16-12.775ZM26.915-13.3h-2.8v-5.04h2.8Zm0,5.95H24.22l-.07-5.11h2.765Zm-10.43-5.915c0-.245-.175-.455-.455-.735l-.91-.91c-.35-.35-.56-.455-.77-.455-.175,0-.35.14-.665.49l-.84.875H7.035l-3.4-1.54c.28,1.61.28,1.75.28,5.67,0,2.59,0,8.365-.175,10.6,0,.21-.07.56-.07.805a.736.736,0,0,0,.77.84A1.736,1.736,0,0,0,6.3.77C6.3.21,6.2-4.515,6.2-5.53h6.86v2.275c0,2.555,0,2.7-.91,2.7A24.93,24.93,0,0,1,9.38-.77V-.6c.56.315,2.555,1.505,2.905,3.22,3.15-.525,3.15-2.73,3.15-3.5,0-3.255-.035-7.98-.07-11.375C15.75-12.46,16.485-12.88,16.485-13.265Zm-3.43,3.045H6.2v-2.94h6.86Zm0,3.85H6.2V-9.38h6.86ZM17.92-17.115a.83.83,0,0,0-.35-.525L15.89-18.9c-.315-.245-.49-.385-.7-.385-.175,0-.315.175-.525.455l-.945,1.26H11.025v-3.185H15.4c.315,0,.525-.14.525-.385a.792.792,0,0,0-.35-.525l-1.4-1.015c-.315-.21-.49-.35-.7-.35-.175,0-.315.14-.525.455l-.63.98h-1.3V-24.36H16.45c.21,0,.525-.07.525-.315a.688.688,0,0,0-.35-.6l-1.47-1.085c-.42-.315-.6-.385-.735-.385-.175,0-.315.1-.56.455L13.09-25.2H11.025v-1.4c.63-.49.945-.735.945-1.05a.59.59,0,0,0-.49-.49L7.91-29.19a8.932,8.932,0,0,1,.84,3.99H7.665c-1.015,0-3.185-.035-5.355-.21l.7,1.365a24.3,24.3,0,0,1,4.1-.315H8.75V-21.6c-1.225,0-3.325-.07-5.46-.245l.7,1.4a23.544,23.544,0,0,1,4.13-.315h.63v3.185H7.035c-.49,0-2.975-.035-5.355-.245l.7,1.4a24.3,24.3,0,0,1,4.095-.315H17.4C17.745-16.73,17.92-16.835,17.92-17.115ZM39.865-27.16l-2.87-1.26c.35,1.925.525,4.585.525,10.675,0,9.03-.07,13.86-2.975,19.565l.14.07C39.06-2.38,39.41-7.665,39.62-11.165h3.64c0,1.33-.035,7.7-.035,9.17,0,1.05-.21,1.155-1.645,1.155-.77,0-1.435-.07-2.135-.105v.14a4.286,4.286,0,0,1,2.1,3.115,7.285,7.285,0,0,0,2.9-1.225C45.535.21,45.535-.21,45.535-5.95c0-2.765-.1-16.38-.1-19.46.525-.525.91-.84.91-1.085,0-.14-.245-.385-.385-.49l-1.155-.84c-.245-.175-.42-.315-.595-.315s-.35.14-.56.385l-.56.6Zm3.4.84v6.72H39.725v-6.72Zm0,7.56v6.755H39.655c.07-1.715.105-5,.07-6.755ZM44.835,2.415c3.675-2.31,5.075-5.39,5.705-9.7.28-1.925.28-2.905.35-11.725.49-.035.945-.035,2-.14,0,1.61-.07,6.685-.07,9.8,0,2.2-.07,8.33-.175,10.22,0,.175-.035.42-.035.6,0,.735.35,1.05,1.085,1.05a1.581,1.581,0,0,0,1.26-.455,1.441,1.441,0,0,0,.42-1.19c0-.245-.175-6.37-.28-11.13,0-.35-.07-7.7-.07-9.135.455-.07,1.225-.175,1.645-.245-.385,9.45,2.625,17.78,7.7,21.56a4.931,4.931,0,0,1,3.5-2V-.21c-3.57-1.75-7.42-5.32-9.415-11.76a43.486,43.486,0,0,0,5.81-2.765c.49.035,1.26.07,1.26-.385a.86.86,0,0,0-.35-.525L62.755-17.99a18.13,18.13,0,0,1-4.445,5.53,24.955,24.955,0,0,1-1.085-7.28c1.015-.21,1.89-.385,4.97-.98.245.035.805.07.98.07.42,0,.7-.175.7-.42a.732.732,0,0,0-.245-.455L61.11-23.7c-1.33,1.4-6.475,3.43-10.22,4.2,0-.805.035-4.725.035-5.635,4.725-.455,5.32-.56,10.71-1.435a3.732,3.732,0,0,0,.805.14c.21,0,.49-.07.49-.385a.844.844,0,0,0-.245-.6L60.55-29.68c-2.835,2.415-8.855,3.92-9.135,3.955l-3.325-1.26a10.379,10.379,0,0,1,.385,1.575c.245,1.715.245,5.915.245,7.875,0,12.355-.49,15.225-4.025,19.845Zm41.44-17.85a23.619,23.619,0,0,1,3.045-.28A34.883,34.883,0,0,1,82.18-2.66l.07.21a22.3,22.3,0,0,0,7.315-8.12c-.035,7.21-.035,7.98-.105,9.52-.035.35-.175,2-.175,2.38,0,.945.455,1.12.91,1.12,1.82,0,1.82-1.33,1.82-1.96,0-.315-.28-7.42-.315-8.855-.1-2.765-.07-4.97-.07-6.615.49,4.1,2.695,10.325,5.635,13.615a4.912,4.912,0,0,1,3.64-1.61V-3.29A18.614,18.614,0,0,1,91.91-15.75h6.475c.28,0,.525-.1.525-.35s-.175-.385-.35-.56l-1.715-1.505a1.154,1.154,0,0,0-.63-.35c-.21,0-.35.175-.49.455l-.805,1.47H91.63c.035-.49.07-2.87.07-3.185.49-.245,1.085-.63,1.085-1.05,0-.28-.245-.42-.6-.525l-3.15-.84c.385,1.26.385,1.715.56,5.6-1.855-.035-3.29-.175-4.025-.21Zm-11.235,0a20.429,20.429,0,0,1,2.8-.28,39.7,39.7,0,0,1-5.985,13.16l.21.21a23.6,23.6,0,0,0,6.195-8.47c0,1.925,0,3.605-.105,7.07-.035.77-.245,4.48-.245,5.32,0,1.05.56,1.05.8,1.05,1.82,0,1.82-1.225,1.82-1.925,0-1.925-.35-11.445-.35-13.615A8.2,8.2,0,0,1,82.04-9.8c.56,1.61.735,2.135,1.645,2.135a1.437,1.437,0,0,0,1.33-1.575c0-2.135-3.465-3.57-4.83-3.955,0-1.505.035-2.065.035-2.555h3.955c.385,0,.525-.14.525-.35s-.175-.385-.35-.56l-1.155-.98a1.338,1.338,0,0,0-.665-.385c-.175,0-.315.14-.525.42L81.27-16.59H80.22c.035-1.47.07-2.31.1-3.115.77-.455,1.085-.77,1.085-1.085s-.175-.42-.49-.49L77.6-22.12c.315,1.05.525,1.68.6,5.5-1.68-.035-3.185-.14-3.815-.21ZM85.05-24.4c0-.35.035-1.96,0-2.345.84-.455,1.05-.665,1.05-.98s-.315-.42-.525-.49l-3.57-.945a11.89,11.89,0,0,1,.63,4.76h-8.68l-3.5-1.3a43.8,43.8,0,0,1,.525,7.49c0,12.145-1.61,16.31-3.36,19.18l.21.175c4.2-4.165,5.285-9.38,5.495-16.135.035-1.225.105-7.21.105-8.575H97.265c.245,0,.525-.035.525-.385,0-.21-.14-.35-.315-.525L95.34-26.39c-.245-.21-.42-.385-.665-.385-.21,0-.35.175-.525.455L92.925-24.4Zm32.1-2.135c0-.245-.175-.385-.35-.525l-1.47-1.26c-.35-.28-.455-.385-.665-.385-.14,0-.21.14-.525.455l-1.155,1.26h-6.125c-1.05,0-3.185-.07-5.355-.245l.7,1.4a24.019,24.019,0,0,1,4.34-.315v5.075h-1.26l-2.8-1.54c.21,2.17.245,4.375.245,6.58,0,1.295-.1,11.235-.245,14.98,0,.245-.14,1.435-.14,1.715a.939.939,0,0,0,.98,1.05c1.54,0,1.68-1.54,1.575-2.52h8.435c-.07.7-.14,1.855.805,1.855a1.62,1.62,0,0,0,1.68-1.82c0-.315-.07-1.89-.07-2.24-.07-1.96-.07-3.78-.07-5.705,0-1.575.1-9.275.07-11.025a4.768,4.768,0,0,1,.6-.6c.175-.175.385-.35.385-.56,0-.14-.1-.245-.385-.455l-1.3-.91c-.28-.21-.385-.28-.49-.28-.14,0-.21.1-.42.315L113.05-21.07H111.4v-5.075h5.215C116.83-26.145,117.145-26.18,117.145-26.53Zm-3.78,19.705h-8.54v-3.71c2.59-1.925,3.43-5.425,3.605-9.695h1.12v6.79c0,1.855,1.05,1.855,1.715,1.855a5.079,5.079,0,0,0,2.1-.21ZM109.55-21.07h-1.12v-5.075h1.12Zm3.815,7.28c-.21-.175-.35-.28-.7-1.365h-.245c-.14,1.12-.14,1.435-.735,1.435-.21,0-.28,0-.28-.7v-5.81h1.96Zm-6.825-6.44c0,3.955-.385,7.1-1.715,9.03v-9.03Zm6.825,18.585h-8.54v-4.34h8.54ZM133.6-15.05a.66.66,0,0,0-.21-.525c-.14-.21-.42-.455-.525-.63a31.442,31.442,0,0,1-.7-4.235h-.245c-.21,1.12-.56,2.345-.91,3.535-.315,1.05-.63,1.12-1.68,1.12-.91,0-1.19-.07-1.19-.805,0-.77.14-4.76.175-5.39,1.19-.7,1.33-.77,1.33-1.155,0-.245-.14-.35-.315-.49L127.89-24.78c-.245-.175-.35-.28-.49-.28-.175,0-.28.07-.525.35l-.945,1.12h-2.135a28.979,28.979,0,0,0,.525-3.6c.175-.105.875-.49.875-.805,0-.28-.245-.455-.56-.56l-3.255-1.05a17.826,17.826,0,0,1,.28,2.8,24.011,24.011,0,0,1-.245,3.22c-2.9-.035-4.41-.175-5.215-.245l.7,1.4a24.37,24.37,0,0,1,4.375-.315c-.56,3.01-2.555,8.47-5.32,11.27l.21.21c4.83-3.185,6.58-7.665,7.455-11.48h2.45v.385c0,.945-.28,5.5-.28,6.545,0,2.275,1.435,2.38,4.025,2.38C130.585-13.44,133.6-13.51,133.6-15.05Zm-.77,7.28c0-.175-.1-.315-.385-.6L130.935-9.73a1.027,1.027,0,0,0-.665-.385c-.175,0-.315.175-.56.455l-1.155,1.4H125.02c0-.455.035-2.835.035-3.36.84-.56.91-.77.91-.945,0-.28-.28-.525-.735-.63l-2.975-.735a18.667,18.667,0,0,1,.49,5.67h-.665c-1.05,0-3.22-.07-5.39-.21l.7,1.365a24.924,24.924,0,0,1,4.13-.315h1.225c-.035.7-.035,4.06-.07,4.83,0,.7-.175,3.675-.175,4.34,0,.42,0,1.12.945,1.12,1.26,0,1.785-.98,1.785-2.1,0-.14-.21-4.1-.21-4.865-.035-1.575-.035-2.59-.035-3.325h7.28C132.475-7.42,132.825-7.455,132.825-7.77Z" transform="translate(405 10661.304)"/>
  </g>
</svg>
