<svg xmlns="http://www.w3.org/2000/svg" width="922" height="306.159" viewBox="0 0 922 306.159">
  <g id="tech_price2" transform="translate(-339.716 -6385.931)">
    <rect id="長方形_83" data-name="長方形 83" width="920" height="304.159" transform="translate(340.716 6386.931)" fill="#fff" stroke="#000" stroke-miterlimit="10" stroke-width="2"/>
    <path id="パス_79" data-name="パス 79" d="M32.1-5.67c0-1.3-2.275-2.59-3.43-2.59-.175,0-1.19.21-1.47.245a11.3,11.3,0,0,1-2.065.07c-1.19,0-1.75.035-7,.245.42-7.735.42-8.015.56-9.03.035-.28.455-1.575.455-1.855,0-.315-.105-.385-.945-1.085,1.82-.14,4.515-.21,7.385-.21.28,0,1.12-.035,1.12-.77,0-1.12-2.345-1.68-2.695-1.68a10.477,10.477,0,0,0-1.33.525c-1.12.42-9.345,1.05-10.57,1.05a7.085,7.085,0,0,1-4.375-1.33c.07,1.54,1.925,3.325,2.94,3.325.105,0,.91-.14,1.085-.175,1.015-.175,1.12-.175,3.29-.455.805.56,1.26.91,1.26,4.2,0,.91-.035,2.065-.21,7.6-.7.07-4.235.35-5.04.42-.49.035-4.095.35-4.34.35a3.946,3.946,0,0,1-3.64-2.24,3.481,3.481,0,0,0-.21,1.12C2.87-6.3,4.9-4.13,5.915-4.13c.14,0,1.47-.6,1.75-.665C10.15-5.565,17.5-6.23,21.14-6.23a46.112,46.112,0,0,1,7.875.735c.35.07,2.03.56,2.415.56C31.92-4.935,32.1-5.285,32.1-5.67ZM60.83-23.7c0-1.085-2.24-1.575-2.87-1.575-.315,0-.42.07-1.12.385-1.47.665-5.985,1.155-8.33,1.155a5.547,5.547,0,0,1-4.55-1.645c0,2.2,1.68,3.78,2.8,3.78a15.775,15.775,0,0,0,2.45-.28c.805-.14,6.475-.63,9.17-.77C60.375-22.75,60.83-23,60.83-23.7Zm2.765,6.86c0-.8-2.59-2.66-2.975-2.66-.28,0-1.26,1.12-1.575,1.26C58.52-17.99,46.69-17.08,45.01-17.08a4.5,4.5,0,0,1-3.64-2.275,3.2,3.2,0,0,0-.245,1.19c0,2.1,2.555,4.165,3.43,4.165a7.057,7.057,0,0,0,1.26-.63c2.24-.98,12.32-1.89,13.335-1.96C56.28-5.5,46.48.035,44.31.945l.07.245c1.925-.175,11.34-1.925,17.01-15.505.455-1.05.525-1.19,1.19-1.54C63.14-16.135,63.6-16.38,63.6-16.835Zm32.55,3.29c0-.175-.21-.42-.42-.595L94.5-15.155a1.015,1.015,0,0,0-.525-.315c-.14,0-.28.14-.49.385l-.875.91H82.355L79.38-15.61a6.5,6.5,0,0,1,.175,1.505c.035,1.505.07,4.41.07,6.02-.035,4.2-.035,5.285-.14,7.315,0,.35-.14,1.96-.14,2.345,0,.35,0,1.05,1.155,1.05,1.12,0,1.645-.77,1.645-1.96,0-.945-.105-3.465-.14-4.865h10.78c.035.385-.035,2.38-.035,2.625,0,.735-.35.875-1.61.875a20.25,20.25,0,0,1-2.695-.175l-.07.245A6.337,6.337,0,0,1,91.525,2.7c2.555-.63,3.71-2,3.71-3.92,0-.6-.175-5.425-.175-6.44V-12.25C95.865-12.915,96.145-13.23,96.145-13.545ZM92.61-23.52H88.165l-2.8-1.3a31.728,31.728,0,0,1,.385,4.83v1.365H81.41v-8.365h11.2Zm9.87,6.755a1.069,1.069,0,0,0-.28-.7l-1.925-2c-.14-.14-.385-.385-.56-.385a1.4,1.4,0,0,0-.665.315l-1.295.91h-2.8v-7.21c.42-.28,1.155-.805,1.155-1.12a.9.9,0,0,0-.385-.63L94.43-28.665c-.175-.14-.42-.35-.6-.35-.14,0-.35.21-.56.42l-.735.77H81.62L78.68-29.26a81.049,81.049,0,0,1,.385,10.64H76.02a14.482,14.482,0,0,0-.28-1.54H75.5a9,9,0,0,1-2.205,3.92c-1.575,1.5-1.75,1.68-1.75,2.24a1.407,1.407,0,0,0,1.54,1.3c1.61,0,3.045-2.415,3.01-5.075H98.07a35.261,35.261,0,0,1-1.19,3.675l.21.105c1.05-.7,2.135-1.4,3.255-2.03C102.2-16.03,102.48-16.24,102.48-16.765ZM92.61-18.62H88.06v-4.06h4.55Zm.175,8.96H81.97l-.035-3.675h10.85Zm0,4.62H82.005L81.97-8.82H92.785Zm20.79-12.74c.035-1.19.07-6.93.175-8.225.49-.245,1.05-.6,1.05-.98,0-.28-.35-.49-.56-.56l-3.395-1.19a11.224,11.224,0,0,1,.35,2.45c.07,1.155.035,5.075-.035,9.2-1.96.63-3.36.98-5.355,1.435l1.085,1.12a23.909,23.909,0,0,1,4.27-1.645c0,1.12-.07,6.72-.07,7.98,0,1.89,0,2.905,4.865,2.905a9.51,9.51,0,0,0,3.815-.6A2.381,2.381,0,0,0,121.135-7.6a1.027,1.027,0,0,0-.21-.6,1.712,1.712,0,0,1-.49-.7,32.606,32.606,0,0,1-.455-3.535h-.28c-1.05,4.655-2.1,4.865-3.6,4.865-2.135,0-2.38-.21-2.485-.6-.14-.595-.035-7.385-.035-8.75l8.26-2.52c.21-.07.42-.245.42-.455,0-.28-.28-.42-.525-.525l-2.38-.98a1.678,1.678,0,0,0-.6-.175c-.21,0-.28.1-.525.595L117.18-18.9Zm9.415-7.245c-.42,0-2.485,0-5.39-.245l.7,1.4a25.177,25.177,0,0,1,4.13-.315h2.24c.035,2.45.14,10.815-1.68,15.925-1.365,3.885-4.62,7.63-11.97,10.535l.14.28c7.91-1.26,12.285-5.635,13.895-9.415,2.1-4.9,2.1-11.655,2.205-17.325h6.37c0,12.635,0,16.205-1.365,20.09-.77,2.24-1.96,2.485-3.4,2.485a14.042,14.042,0,0,1-4.27-.77l-.175.245c2.73,1.89,3.01,2.975,3.185,4.165,5.425-.7,7.28-2.94,8.155-10.745.49-4.375.455-11.865.455-14.35.735-.6,1.12-.945,1.12-1.155,0-.245-.28-.525-.49-.7l-1.61-1.4c-.1-.07-.35-.28-.455-.28-.175,0-.385.21-.56.42l-1.12,1.155ZM164.92-14.35c0-3.5-.455-10.36-4.83-10.36-4.13,0-7.14,8.96-7.945,11.83-.035.175-.105.35-.315.35-.35,0-.35-1.995-.35-2.52a25.134,25.134,0,0,1,1.96-9.38,4.049,4.049,0,0,0,.42-1.54c0-1.225-1.47-2.52-3.08-2.52a6.74,6.74,0,0,0-1.575.245,3.65,3.65,0,0,1,2.03,3.185,8.543,8.543,0,0,1-.14,1.33,74.418,74.418,0,0,0-1.225,10.115c0,3.15.63,7.245,2.7,7.245.7,0,.84-.6.84-.98,0-.35-.245-2.135-.245-2.52,0-4.2,2.31-9.555,3.71-11.585.315-.455,1.3-1.89,2.7-1.89,2.625,0,2.765,6.37,2.765,8.68,0,6.265-1.785,13.02-7.84,17.4l.07.175c1.61-.35,3.815-2.03,4.97-3.08C163.45-3.745,164.92-7.91,164.92-14.35Zm28.035-7.105V-26.95c.49-.28.98-.525.98-.98,0-.21-.14-.385-.455-.455l-3.29-.805c.525,1.435.56,6.09.56,7.735-2.135,0-4.025-.07-5.95-.21l.7,1.365a23.752,23.752,0,0,1,4.13-.315h1.12v7c0,3.85-.035,8.05-.07,11.865,0,.42-.1,2.415-.1,2.87,0,.315,0,.84.945.84.455,0,1.75-.35,1.75-1.3,0-.665-.21-5.95-.21-7.105-.1-6.475-.1-7.21-.1-14.175h6.125c.21,0,.525-.035.525-.35a.636.636,0,0,0-.35-.525l-1.4-.945a1.46,1.46,0,0,0-.7-.35,1.014,1.014,0,0,0-.63.42l-.84.91ZM184.7-2.38c2.17-2.345,3.6-6.475,4.76-12.285.35-.21,1.19-.63,1.19-1.015,0-.28-.28-.315-.49-.385l-3.185-.84a3.456,3.456,0,0,1,.1.98A39.657,39.657,0,0,1,184.52-2.45Zm16.9-14.245V-2.1c0,1.26-.105,1.26-1.715,1.26-.84,0-1.47-.07-2.59-.14v.175a5.427,5.427,0,0,1,2.8,3.29A8.6,8.6,0,0,0,202.3,1.75a2.8,2.8,0,0,0,1.75-2.94c0-.63-.14-3.675-.14-4.375-.07-3.675-.07-7.385-.105-11.06h4.235c.245,0,.525-.035.525-.385,0-.21-.14-.35-.315-.525l-1.575-1.47c-.175-.14-.455-.385-.665-.385-.245,0-.42.28-.525.455l-.98,1.47h-3.5c-.21,0-2.03,0-4.235-.175l.7,1.26a22.027,22.027,0,0,1,2.975-.245ZM175.455-7.56a21.584,21.584,0,0,0,6.125-5.6c.07,2.87-.07,8.505-.175,11.515,0,.525-.175,2.905-.175,3.185,0,.8.805.8.945.8.665,0,1.645-.385,1.61-1.33,0-.21-.07-12.95,0-15.3.385-.315.84-.735.84-1.05,0-.21-.245-.315-.42-.385l-.525-.245a25.233,25.233,0,0,0,1.4-2.135c.8.035,1.4-.035,1.4-.595a.492.492,0,0,0-.21-.42l-3.08-1.96c-.385,2.135-3.185,8.05-7.84,13.405Zm.98-12.25a24.609,24.609,0,0,0,8.715-5.915c.7-.035,1.26-.035,1.26-.56a.661.661,0,0,0-.245-.455l-2.52-2.135c-.735,2-3.535,5.635-7.315,8.96Zm17.71-7.35a5.485,5.485,0,0,1,.98,2.135c.525,1.925.56,2.135,1.4,2.135a1.327,1.327,0,0,0,1.4-1.365c0-1.96-2.59-2.73-3.71-3.045Zm-.07,9.695a27.039,27.039,0,0,1,1.505,6.93c.21,4.235.245,4.655,1.47,4.655.63,0,1.47-.385,1.47-1.925,0-.63,0-5.18-4.27-9.765Zm7.875-8.54c-.28,0-1.4-.035-2.625-.105l.455,1.085a10.909,10.909,0,0,1,1.75-.14h5.915c.28,0,.525-.07.525-.385,0-.21-.14-.35-.35-.525l-1.4-1.12c-.245-.21-.455-.385-.63-.385-.21,0-.42.245-.56.455l-.735,1.12Z" transform="translate(377.224 6456.618)"/>
    <path id="パス_78" data-name="パス 78" d="M20.5-16.69a.722.722,0,0,0-.251-.434l-1.05-.959c-.205-.183-.3-.228-.411-.228s-.228.068-.388.228l-.776.822H5.274L2.808-18.677a31.254,31.254,0,0,1,.205,4.612c0,4.064-.023,8.128-.137,12.215,0,.365-.091,2.192-.091,2.6,0,.3,0,.731.708.731,1.256,0,1.256-.868,1.256-1.393,0-.183-.023-.731-.023-.776-.068-1.849-.068-2.375-.114-7.124h13.38v5.8c0,.89-.137,1.1-.822,1.1a14.869,14.869,0,0,1-2.443-.205l-.023.16C16.622.183,16.759.731,16.827,1.484c2.945-.3,2.945-1.9,2.945-3.151,0-2.808-.183-7.329-.183-10.16,0-1.827.023-3.311.046-4.11C20.138-16.165,20.5-16.485,20.5-16.69ZM17.992-8.357H12.1v-8.357h5.891Zm-7.512,0H4.612v-8.357H10.48Z" transform="translate(1200.893 6515.588)" fill="#d4145a"/>
    <path id="パス_77" data-name="パス 77" d="M6.184-18.027c.21-4.716.472-12.42,5.136-17.555a5.391,5.391,0,0,1,3.825-1.887c1.415,0,1.52.734,1.572,1.887.1,2.987,1.834,3.668,2.882,3.668a2.62,2.62,0,0,0,2.673-2.725c0-2.515-2.463-4.612-5.974-4.612-8.018,0-14.83,10.061-14.83,22.167C1.467-5.764,7.546,1,13.52,1c6.026,0,11.214-6.5,11.214-13.782,0-6.341-4.192-11.581-9.38-11.581A8.855,8.855,0,0,0,10.8-23.005,13.024,13.024,0,0,0,6.184-18.027Zm.052,3.144c2.463-5.66,5.817-7.127,7.808-7.127,5.4,0,5.974,7.336,5.974,9.695,0,8.647-3.93,11.529-6.708,11.529a5.186,5.186,0,0,1-4.245-2.83C6.865-6.97,6.446-12,6.236-14.883Zm26.149-3.144c.21-4.716.472-12.42,5.136-17.555a5.391,5.391,0,0,1,3.825-1.887c1.415,0,1.52.734,1.572,1.887.1,2.987,1.834,3.668,2.882,3.668a2.62,2.62,0,0,0,2.673-2.725c0-2.515-2.463-4.612-5.974-4.612-8.018,0-14.83,10.061-14.83,22.167C27.669-5.764,33.748,1,39.722,1c6.026,0,11.214-6.5,11.214-13.782,0-6.341-4.192-11.581-9.38-11.581A8.855,8.855,0,0,0,37-23.005,13.024,13.024,0,0,0,32.385-18.027Zm.052,3.144c2.463-5.66,5.817-7.127,7.808-7.127,5.4,0,5.974,7.336,5.974,9.695,0,8.647-3.93,11.529-6.708,11.529a5.186,5.186,0,0,1-4.245-2.83C33.067-6.97,32.647-12,32.438-14.883ZM77.3-19.127C77.3-33.433,70.9-39.25,65.5-39.25c-7.022,0-11.791,8.489-11.791,19.651,0,4.874,1,11.319,3.2,14.935C58.849-1.52,61.888,1,65.5,1,71.9,1,77.3-6.288,77.3-19.127ZM65.5-37.468c4.192,0,7.074,6.393,7.074,18.341A48.523,48.523,0,0,1,71.321-7.6C70.745-5.607,69.12-.786,65.5-.786c-4.3,0-7.074-6.655-7.074-18.341A47.423,47.423,0,0,1,59.635-30.5C60.159-32.333,61.784-37.468,65.5-37.468ZM81.54,6.079c1.31-1.1,4.978-4.3,4.978-8.175a3.043,3.043,0,0,0-3.092-2.987,3.031,3.031,0,0,0-2.987,3.039c0,1.625.891,2.358,2.253,2.987.419.157.472.681.472.891,0,1.048-1.048,2.411-2.463,3.459Zm31.652-25.206c0-14.306-6.393-20.123-11.791-20.123-7.022,0-11.791,8.489-11.791,19.651,0,4.874,1,11.319,3.2,14.935C94.745-1.52,97.785,1,101.4,1,107.794,1,113.191-6.288,113.191-19.127ZM101.4-37.468c4.192,0,7.074,6.393,7.074,18.341A48.523,48.523,0,0,1,107.217-7.6c-.576,1.991-2.2,6.812-5.817,6.812-4.3,0-7.074-6.655-7.074-18.341A47.424,47.424,0,0,1,95.531-30.5C96.056-32.333,97.68-37.468,101.4-37.468Zm37.993,18.341c0-14.306-6.393-20.123-11.791-20.123-7.022,0-11.791,8.489-11.791,19.651,0,4.874,1,11.319,3.2,14.935C120.947-1.52,123.987,1,127.6,1,134,1,139.393-6.288,139.393-19.127ZM127.6-37.468c4.192,0,7.074,6.393,7.074,18.341A48.523,48.523,0,0,1,133.419-7.6c-.576,1.991-2.2,6.812-5.817,6.812-4.3,0-7.074-6.655-7.074-18.341A47.424,47.424,0,0,1,121.733-30.5C122.257-32.333,123.882-37.468,127.6-37.468Zm37.993,18.341c0-14.306-6.393-20.123-11.791-20.123-7.022,0-11.791,8.489-11.791,19.651,0,4.874,1,11.319,3.2,14.935C147.149-1.52,150.188,1,153.8,1,160.2,1,165.595-6.288,165.595-19.127ZM153.8-37.468c4.192,0,7.074,6.393,7.074,18.341A48.523,48.523,0,0,1,159.621-7.6c-.576,1.991-2.2,6.812-5.817,6.812-4.3,0-7.074-6.655-7.074-18.341A47.424,47.424,0,0,1,147.935-30.5C148.459-32.333,150.083-37.468,153.8-37.468Z" transform="translate(1028 6517.211)" fill="#d4145a"/>
    <path id="パス_76" data-name="パス 76" d="M32.83-24.99a.792.792,0,0,0-.35-.525L30.065-27.37a1.125,1.125,0,0,0-.665-.35c-.105,0-.315.175-.56.385l-1.96,1.89H7.42c-1.82,0-3.605-.1-5.39-.245l.7,1.4a24.058,24.058,0,0,1,4.1-.315H15.33c0,13.93,0,15.47-.07,18.235-.035,1.12-.28,6.09-.28,7.105,0,.385,0,1.155,1.19,1.155A1.688,1.688,0,0,0,18.06.07c0-.245-.035-1.4-.035-1.645-.175-8.05-.175-8.925-.21-16.87a14.989,14.989,0,0,1,4.865,4.69c1.26,2.03,1.54,2.485,2.45,2.485a1.5,1.5,0,0,0,1.47-1.645c0-3.4-5.32-5.355-8.785-5.95V-24.6H32.27C32.48-24.6,32.83-24.64,32.83-24.99Zm35.665-1.435c0-.175-.21-.385-.35-.525L66.36-28.56c-.245-.21-.42-.35-.6-.35s-.315.105-.56.42l-1.33,1.61H59.08c-1.785,0-3.57-.07-5.355-.245l.7,1.4a23.366,23.366,0,0,1,4.025-.315,22.976,22.976,0,0,1-.665,4.375h-.91L54.25-23.38a23.842,23.842,0,0,1,.315,4.76c0,1.435-.105,9.38-.315,12.985-.035.35-.07.875-.07,1.225,0,.385.14.84.77.84A1.751,1.751,0,0,0,56.7-4.9h6.9c0,.735,0,1.19.84,1.19,1.68,0,1.68-1.645,1.68-2.03,0-.175-.28-8.645-.28-8.82v-5.81c.63-.315.875-.49.875-.805a.847.847,0,0,0-.35-.56l-.98-.91c-.245-.21-.42-.35-.56-.35-.175,0-.35.1-.63.35l-1.12.98H58.31a30.773,30.773,0,0,0,3.255-4.375h6.37C68.285-26.04,68.495-26.145,68.495-26.425Zm-4.9,14.98h-6.86V-15.75H63.6Zm0-5.145h-6.86v-4.235H63.6Zm0,10.85h-6.86v-4.865H63.6ZM53.2-26.53a.779.779,0,0,0-.35-.525L51.9-27.79c-.21-.14-.35-.28-.525-.28s-.315.105-.525.315l-.595.6H48.37L46.2-28.665a29.21,29.21,0,0,1,.21,3.465c0,.7-.14,4.235-.14,5.04,0,.245,0,.945.805.945,1.26,0,1.26-1.05,1.3-1.645h1.995c-.035.945-.07,1.645.77,1.645A1.375,1.375,0,0,0,52.43-20.72c0-.7-.1-3.99-.1-4.725C53.06-26.04,53.2-26.215,53.2-26.53ZM50.4-21.7H48.335v-4.62H50.4Zm-5.18-4.865a.779.779,0,0,0-.35-.525l-.8-.63c-.245-.21-.42-.35-.6-.35s-.315.105-.56.35l-.56.56H40.53l-2.52-1.575c.035.35.175,2.135.175,2.52,0,1.96-.1,4.725-.175,5.565,0,.175-.07.77-.07.91,0,.56.21.945.77.945,1.435,0,1.435-1.155,1.435-2.065H42.49c-.035,1.155-.07,1.61.7,1.61,1.4,0,1.4-1.155,1.4-1.645,0-.7-.1-4.06-.07-4.8C44.9-26.04,45.22-26.39,45.22-26.565ZM42.49-21.7H40.145v-4.62H42.49Zm26,22.26c0-2.905-5.6-4.025-7.21-4.34l-.105.245c.875.49,1.785,1.015,3.99,3.71,1.12,1.365,1.4,1.715,2.1,1.715A1.256,1.256,0,0,0,68.495.56ZM50.855-16.345a1.056,1.056,0,0,0-.315-.525L49.035-18.2c-.28-.245-.455-.35-.63-.35s-.35.14-.525.42l-.91,1.3H43.505c-.7,0-2.275-.035-3.815-.14l.455,1.19a16.162,16.162,0,0,1,2.9-.21h7.28C50.61-16,50.855-16.135,50.855-16.345ZM59.815-1.96c0-.21-.105-.385-.49-.63l-2.52-1.75c-.14.735-.21,1.12-1.855,2.625a26.141,26.141,0,0,1-5.81,4.13l.21.245A27.5,27.5,0,0,0,58.45-1.5C59.43-1.435,59.815-1.575,59.815-1.96ZM52.99-12.18a.721.721,0,0,0-.315-.56L50.96-14.175c-.315-.245-.455-.35-.63-.35s-.315.14-.525.42l-1.05,1.435H42.14c-.6,0-2.625-.035-5.355-.245l.665,1.4a21.6,21.6,0,0,1,4.13-.315h.63c-1.015,2.415-1.54,3.57-2.065,4.62A34.489,34.489,0,0,0,38.71-4.06c0,.7.945.77,1.365.77,1.085,0,1.155-.175,2.695-3.85h4.8C47.25-4.83,46.55-.315,44.485-.315a38.149,38.149,0,0,1-4.2-.385l-.035.21c2.24,1.225,3.01,2.065,3.22,3.43A5.5,5.5,0,0,0,48.44-.91c.315-.84,1.365-4.69,1.61-5.46,1.085-.49,1.225-.7,1.225-.98a.952.952,0,0,0-.315-.525L49.6-9.1a1.024,1.024,0,0,0-.56-.315c-.175,0-.315.07-.595.35L47.355-7.98H43.12c.28-.595,1.47-3.325,1.715-3.85H52.5C52.78-11.83,52.99-11.9,52.99-12.18Zm49.84-12.81a.792.792,0,0,0-.35-.525l-2.415-1.855a1.125,1.125,0,0,0-.665-.35c-.105,0-.315.175-.56.385l-1.96,1.89H77.42c-1.82,0-3.6-.1-5.39-.245l.7,1.4a24.058,24.058,0,0,1,4.095-.315H85.33c0,13.93,0,15.47-.07,18.235-.035,1.12-.28,6.09-.28,7.105,0,.385,0,1.155,1.19,1.155A1.688,1.688,0,0,0,88.06.07c0-.245-.035-1.4-.035-1.645-.175-8.05-.175-8.925-.21-16.87a14.989,14.989,0,0,1,4.865,4.69c1.26,2.03,1.54,2.485,2.45,2.485a1.5,1.5,0,0,0,1.47-1.645c0-3.4-5.32-5.355-8.785-5.95V-24.6H102.27C102.48-24.6,102.83-24.64,102.83-24.99Zm15.75,11.515c0-2.135-2.9-3.29-3.92-3.64l-.105.105a6.385,6.385,0,0,1,1.19,2.24c-1.33.07-3.71.21-5.04.28a60.045,60.045,0,0,0,6.055-6.93c.7-.035,1.365-.1,1.365-.63,0-.245-.21-.455-.525-.63L114.9-24.255c-.175,2.45-3.22,7.315-4.865,9.8-.245,0-1.47.07-1.61.07a8.543,8.543,0,0,1-2.345-.28L107-12.04c.21.56.35.77.525.77.28,0,.42-.21.7-.84.245-.07,2.31-.63,3.43-.945,0,8.19,0,9.1-.105,11.41,0,.455-.175,2.7-.175,3.185,0,.385.14,1.19.91,1.19a2.023,2.023,0,0,0,1.4-.77c.105-.14.245-.35.245-1.26,0-.21-.105-7.175-.105-7.63,0-.98.035-5.67.035-6.72,1.225-.385,1.68-.56,2.03-.7.035.21.315,1.155.385,1.365a1,1,0,0,0,1.085.84C117.67-12.145,118.58-12.215,118.58-13.475Zm-7.525,4.8q0-.368-.63-.63L107.8-10.43a5.455,5.455,0,0,1,.14,1.26c0,2.52-1.4,7.28-2.1,9.275l.28.105a24.637,24.637,0,0,0,3.99-8.155C110.88-8.19,111.055-8.4,111.055-8.68Zm28.07,6.2V-2.7a16.457,16.457,0,0,1-7.735-7.525,34.622,34.622,0,0,0,4.795-2.2,5.281,5.281,0,0,0,.98.175.518.518,0,0,0,.56-.42,1.239,1.239,0,0,0-.42-.735L135.24-15.47a3.991,3.991,0,0,1-.77,1.54,26.311,26.311,0,0,1-3.29,3.255,20.383,20.383,0,0,1-1.96-6.685h8.89c.35,0,.525-.1.525-.28a.787.787,0,0,0-.315-.63l-1.68-1.575a.963.963,0,0,0-.63-.35c-.175,0-.28.105-.525.42l-1.12,1.575H132.93c0-.175.21-6.965.245-7.28.945-.455,1.19-.7,1.19-1.05,0-.175-.21-.455-.56-.7l-1.33-.91c-.21-.14-.42-.315-.6-.315s-.315.14-.49.35l-.8.98H124.88c-.49,0-3.01-.035-5.39-.245l.7,1.4a24.8,24.8,0,0,1,4.1-.315h6.65c-.035.49-.14,2.8-.175,3.325h-4.97c-.98,0-3.185-.07-5.39-.245l.7,1.4a24.429,24.429,0,0,1,4.13-.315h5.5c-.035,1.05-.105,2.625-.14,3.92H123.13c-.28,0-2.94-.035-5.355-.21l.665,1.365a25.3,25.3,0,0,1,4.13-.315h1.575a31.677,31.677,0,0,1-7.245,7.07l.175.245a28.262,28.262,0,0,0,7.35-4.515,12.333,12.333,0,0,1,.91,1.4c-.98,1.715-1.715,2.52-6.58,7.14-.21-1.47-1.225-2.625-3.5-4.2l-.1.14a9.663,9.663,0,0,1,1.085,3.535c.21,1.645.28,2.345,1.295,2.345.49,0,1.295-.35,1.26-1.61l.07.14a28.185,28.185,0,0,0,7.6-5.46,16.933,16.933,0,0,1,.77,1.75C125.51-7.21,120.785-2.1,117.04.07l.07.28a26.522,26.522,0,0,0,10.78-7.175,10.255,10.255,0,0,1,.21,2.065c0,4.235-1.855,4.235-2.87,4.235a9.338,9.338,0,0,1-3.22-.42l-.105.28c.21.105,2.625,1.47,2.975,3.255,4.83-.28,5.495-4.27,5.495-6.65,0-5.845-4.76-10.325-5.46-10.92a17.492,17.492,0,0,0,2.275-2.38h1.47c-.1,5.775,2.8,12.25,7.525,16.765A3.9,3.9,0,0,1,139.125-2.485Zm-23.94-24.64c0-.245-.21-.42-.595-.63l-2.905-1.54c.14,1.855-.7,4.13-1.96,6.93a12.1,12.1,0,0,0-2.59-.91l-.105.175c.6.455.91.77,2.03,3.045.6,1.225.805,1.61,1.54,1.61a1.155,1.155,0,0,0,1.12-1.225,3.067,3.067,0,0,0-1.47-2.38c.7-.77,2.695-3.22,3.605-4.48C114.73-26.6,115.185-26.6,115.185-27.125Zm33.39,9.345c.035-1.19.07-6.93.175-8.225.49-.245,1.05-.6,1.05-.98,0-.28-.35-.49-.56-.56l-3.4-1.19a11.225,11.225,0,0,1,.35,2.45c.07,1.155.035,5.075-.035,9.2-1.96.63-3.36.98-5.355,1.435l1.085,1.12a23.909,23.909,0,0,1,4.27-1.645c0,1.12-.07,6.72-.07,7.98,0,1.89,0,2.905,4.865,2.905a9.51,9.51,0,0,0,3.815-.6A2.381,2.381,0,0,0,156.135-7.6a1.027,1.027,0,0,0-.21-.6,1.712,1.712,0,0,1-.49-.7,32.61,32.61,0,0,1-.455-3.535h-.28c-1.05,4.655-2.1,4.865-3.6,4.865-2.135,0-2.38-.21-2.485-.6-.14-.595-.035-7.385-.035-8.75l8.26-2.52c.21-.07.42-.245.42-.455,0-.28-.28-.42-.525-.525l-2.38-.98a1.678,1.678,0,0,0-.6-.175c-.21,0-.28.1-.525.595L152.18-18.9Zm9.415-7.245c-.42,0-2.485,0-5.39-.245l.7,1.4a25.177,25.177,0,0,1,4.13-.315h2.24c.035,2.45.14,10.815-1.68,15.925-1.365,3.885-4.62,7.63-11.97,10.535l.14.28c7.91-1.26,12.285-5.635,13.895-9.415,2.1-4.9,2.1-11.655,2.205-17.325h6.37c0,12.635,0,16.205-1.365,20.09-.77,2.24-1.96,2.485-3.4,2.485a14.042,14.042,0,0,1-4.27-.77l-.175.245c2.73,1.89,3.01,2.975,3.185,4.165,5.425-.7,7.28-2.94,8.155-10.745.49-4.375.455-11.865.455-14.35.735-.6,1.12-.945,1.12-1.155,0-.245-.28-.525-.49-.7l-1.61-1.4c-.1-.07-.35-.28-.455-.28-.175,0-.385.21-.56.42l-1.12,1.155Zm51.38,6.58v-.21c-2.8-.49-6.79-1.61-12.075-7.7.175-.07.525-.175.525-.595a.565.565,0,0,0-.315-.49l-3.185-1.4c-.56,3.43-4.83,9.94-8.47,13.2l.14.28c4.55-2.765,7.63-6.335,10.57-10.815l.175-.035a25.519,25.519,0,0,0,9.73,10.15A5.417,5.417,0,0,1,209.37-18.445Zm-2.45,17.01c0-2.555-4.2-4.725-7.35-5.39l-.175.175a13.568,13.568,0,0,1,3.92,4.55c.945,1.82,1.19,2.24,2.17,2.24A1.4,1.4,0,0,0,206.92-1.435Zm-.665-8.715c0-.245-.21-.385-.35-.525L203.91-12.32c-.245-.21-.455-.385-.63-.385-.21,0-.42.245-.525.455l-.98,1.645h-4.55v-5.46h4.655c.245,0,.56-.035.56-.385,0-.245-.175-.385-.35-.525l-1.645-1.365c-.28-.245-.42-.385-.63-.385s-.315.175-.525.455l-.98,1.365h-3.185c-.49,0-3.01-.035-5.39-.245l.7,1.4a24.44,24.44,0,0,1,4.515-.315v5.46h-1.435c-.49,0-2.975-.035-5.355-.245l.665,1.4a21.6,21.6,0,0,1,4.13-.315h2.03c0,5.81,0,8.085-.035,8.4-.07.595-.49.595-1.47.595-1.12,0-2.31-.1-3.115-.175V-.7c.455.21,2.66,1.19,2.87,3.325,3.885-1.155,4.06-2.38,4.06-4.83,0-1.085-.07-6.37-.07-7.56h8.47C205.94-9.765,206.255-9.835,206.255-10.15ZM188.9-25.97a.691.691,0,0,0-.21-.49l-1.645-1.4c-.245-.21-.42-.35-.56-.35-.175,0-.35.14-.56.35l-.77.735h-3.57L178.4-28.7c.35,1.715.665,3.325.665,10.22,0,11.865-.1,14.98-.385,18.865,0,.21-.035.56-.035.7a.873.873,0,0,0,.945.98A1.676,1.676,0,0,0,181.4.35c0-.455-.175-9.73-.175-11.55,0-2.8,0-13.125.035-15.085h3.745a53.692,53.692,0,0,1-2.45,9,7.89,7.89,0,0,1,2.66,5.985c0,2.17-.63,2.345-1.61,2.345a10.348,10.348,0,0,1-1.82-.21l-.07.28a4.43,4.43,0,0,1,1.89,3.15c2.59-.49,4.025-1.82,4.025-4.445,0-3.57-2.485-5.775-4.27-7.175.175-.35.35-.63,1.855-3.185.945-1.61,1.89-3.535,2.345-4.445C188.615-25.305,188.9-25.515,188.9-25.97Zm4.1,19.74c0-.245-.14-.35-.455-.525l-2.7-1.575c-.42,2.835-3.01,5.81-5.635,8.47l.07.21a20.655,20.655,0,0,0,7.28-5.95C192.01-5.6,192.99-5.635,192.99-6.23Zm34.965-15.225V-26.95c.49-.28.98-.525.98-.98,0-.21-.14-.385-.455-.455l-3.29-.805c.525,1.435.56,6.09.56,7.735-2.135,0-4.025-.07-5.95-.21l.7,1.365a23.752,23.752,0,0,1,4.13-.315h1.12v7c0,3.85-.035,8.05-.07,11.865,0,.42-.1,2.415-.1,2.87,0,.315,0,.84.945.84.455,0,1.75-.35,1.75-1.3,0-.665-.21-5.95-.21-7.105-.1-6.475-.1-7.21-.1-14.175h6.125c.21,0,.525-.035.525-.35a.636.636,0,0,0-.35-.525l-1.4-.945a1.46,1.46,0,0,0-.7-.35,1.014,1.014,0,0,0-.63.42l-.84.91ZM219.7-2.38c2.17-2.345,3.6-6.475,4.76-12.285.35-.21,1.19-.63,1.19-1.015,0-.28-.28-.315-.49-.385l-3.185-.84a3.456,3.456,0,0,1,.1.98A39.657,39.657,0,0,1,219.52-2.45Zm16.9-14.245V-2.1c0,1.26-.105,1.26-1.715,1.26-.84,0-1.47-.07-2.59-.14v.175a5.427,5.427,0,0,1,2.8,3.29A8.6,8.6,0,0,0,237.3,1.75a2.8,2.8,0,0,0,1.75-2.94c0-.63-.14-3.675-.14-4.375-.07-3.675-.07-7.385-.105-11.06h4.235c.245,0,.525-.035.525-.385,0-.21-.14-.35-.315-.525l-1.575-1.47c-.175-.14-.455-.385-.665-.385-.245,0-.42.28-.525.455l-.98,1.47h-3.5c-.21,0-2.03,0-4.235-.175l.7,1.26a22.027,22.027,0,0,1,2.975-.245ZM210.455-7.56a21.584,21.584,0,0,0,6.125-5.6c.07,2.87-.07,8.505-.175,11.515,0,.525-.175,2.905-.175,3.185,0,.8.805.8.945.8.665,0,1.645-.385,1.61-1.33,0-.21-.07-12.95,0-15.3.385-.315.84-.735.84-1.05,0-.21-.245-.315-.42-.385l-.525-.245a25.233,25.233,0,0,0,1.4-2.135c.8.035,1.4-.035,1.4-.595a.492.492,0,0,0-.21-.42l-3.08-1.96c-.385,2.135-3.185,8.05-7.84,13.405Zm.98-12.25a24.609,24.609,0,0,0,8.715-5.915c.7-.035,1.26-.035,1.26-.56a.661.661,0,0,0-.245-.455l-2.52-2.135c-.735,2-3.535,5.635-7.315,8.96Zm17.71-7.35a5.485,5.485,0,0,1,.98,2.135c.525,1.925.56,2.135,1.4,2.135a1.327,1.327,0,0,0,1.4-1.365c0-1.96-2.59-2.73-3.71-3.045Zm-.07,9.695a27.039,27.039,0,0,1,1.505,6.93c.21,4.235.245,4.655,1.47,4.655.63,0,1.47-.385,1.47-1.925,0-.63,0-5.18-4.27-9.765Zm7.875-8.54c-.28,0-1.4-.035-2.625-.105l.455,1.085a10.909,10.909,0,0,1,1.75-.14h5.915c.28,0,.525-.07.525-.385,0-.21-.14-.35-.35-.525l-1.4-1.12c-.245-.21-.455-.385-.63-.385-.21,0-.42.245-.56.455l-.735,1.12Z" transform="translate(377.224 6584.112)"/>
    <path id="パス_75" data-name="パス 75" d="M20.5-16.69a.722.722,0,0,0-.251-.434l-1.05-.959c-.205-.183-.3-.228-.411-.228s-.228.068-.388.228l-.776.822H5.274L2.808-18.677a31.254,31.254,0,0,1,.205,4.612c0,4.064-.023,8.128-.137,12.215,0,.365-.091,2.192-.091,2.6,0,.3,0,.731.708.731,1.256,0,1.256-.868,1.256-1.393,0-.183-.023-.731-.023-.776-.068-1.849-.068-2.375-.114-7.124h13.38v5.8c0,.89-.137,1.1-.822,1.1a14.869,14.869,0,0,1-2.443-.205l-.023.16C16.622.183,16.759.731,16.827,1.484c2.945-.3,2.945-1.9,2.945-3.151,0-2.808-.183-7.329-.183-10.16,0-1.827.023-3.311.046-4.11C20.138-16.165,20.5-16.485,20.5-16.69ZM17.992-8.357H12.1v-8.357h5.891Zm-7.512,0H4.612v-8.357H10.48Z" transform="translate(1200.893 6643.082)" fill="#d4145a"/>
    <path id="パス_74" data-name="パス 74" d="M6.184-18.027c.21-4.716.472-12.42,5.136-17.555a5.391,5.391,0,0,1,3.825-1.887c1.415,0,1.52.734,1.572,1.887.1,2.987,1.834,3.668,2.882,3.668a2.62,2.62,0,0,0,2.673-2.725c0-2.515-2.463-4.612-5.974-4.612-8.018,0-14.83,10.061-14.83,22.167C1.467-5.764,7.546,1,13.52,1c6.026,0,11.214-6.5,11.214-13.782,0-6.341-4.192-11.581-9.38-11.581A8.855,8.855,0,0,0,10.8-23.005,13.024,13.024,0,0,0,6.184-18.027Zm.052,3.144c2.463-5.66,5.817-7.127,7.808-7.127,5.4,0,5.974,7.336,5.974,9.695,0,8.647-3.93,11.529-6.708,11.529a5.186,5.186,0,0,1-4.245-2.83C6.865-6.97,6.446-12,6.236-14.883Zm26.149-3.144c.21-4.716.472-12.42,5.136-17.555a5.391,5.391,0,0,1,3.825-1.887c1.415,0,1.52.734,1.572,1.887.1,2.987,1.834,3.668,2.882,3.668a2.62,2.62,0,0,0,2.673-2.725c0-2.515-2.463-4.612-5.974-4.612-8.018,0-14.83,10.061-14.83,22.167C27.669-5.764,33.748,1,39.722,1c6.026,0,11.214-6.5,11.214-13.782,0-6.341-4.192-11.581-9.38-11.581A8.855,8.855,0,0,0,37-23.005,13.024,13.024,0,0,0,32.385-18.027Zm.052,3.144c2.463-5.66,5.817-7.127,7.808-7.127,5.4,0,5.974,7.336,5.974,9.695,0,8.647-3.93,11.529-6.708,11.529a5.186,5.186,0,0,1-4.245-2.83C33.067-6.97,32.647-12,32.438-14.883ZM77.3-19.127C77.3-33.433,70.9-39.25,65.5-39.25c-7.022,0-11.791,8.489-11.791,19.651,0,4.874,1,11.319,3.2,14.935C58.849-1.52,61.888,1,65.5,1,71.9,1,77.3-6.288,77.3-19.127ZM65.5-37.468c4.192,0,7.074,6.393,7.074,18.341A48.523,48.523,0,0,1,71.321-7.6C70.745-5.607,69.12-.786,65.5-.786c-4.3,0-7.074-6.655-7.074-18.341A47.423,47.423,0,0,1,59.635-30.5C60.159-32.333,61.784-37.468,65.5-37.468ZM81.54,6.079c1.31-1.1,4.978-4.3,4.978-8.175a3.043,3.043,0,0,0-3.092-2.987,3.031,3.031,0,0,0-2.987,3.039c0,1.625.891,2.358,2.253,2.987.419.157.472.681.472.891,0,1.048-1.048,2.411-2.463,3.459Zm31.652-25.206c0-14.306-6.393-20.123-11.791-20.123-7.022,0-11.791,8.489-11.791,19.651,0,4.874,1,11.319,3.2,14.935C94.745-1.52,97.785,1,101.4,1,107.794,1,113.191-6.288,113.191-19.127ZM101.4-37.468c4.192,0,7.074,6.393,7.074,18.341A48.523,48.523,0,0,1,107.217-7.6c-.576,1.991-2.2,6.812-5.817,6.812-4.3,0-7.074-6.655-7.074-18.341A47.424,47.424,0,0,1,95.531-30.5C96.056-32.333,97.68-37.468,101.4-37.468Zm37.993,18.341c0-14.306-6.393-20.123-11.791-20.123-7.022,0-11.791,8.489-11.791,19.651,0,4.874,1,11.319,3.2,14.935C120.947-1.52,123.987,1,127.6,1,134,1,139.393-6.288,139.393-19.127ZM127.6-37.468c4.192,0,7.074,6.393,7.074,18.341A48.523,48.523,0,0,1,133.419-7.6c-.576,1.991-2.2,6.812-5.817,6.812-4.3,0-7.074-6.655-7.074-18.341A47.424,47.424,0,0,1,121.733-30.5C122.257-32.333,123.882-37.468,127.6-37.468Zm37.993,18.341c0-14.306-6.393-20.123-11.791-20.123-7.022,0-11.791,8.489-11.791,19.651,0,4.874,1,11.319,3.2,14.935C147.149-1.52,150.188,1,153.8,1,160.2,1,165.595-6.288,165.595-19.127ZM153.8-37.468c4.192,0,7.074,6.393,7.074,18.341A48.523,48.523,0,0,1,159.621-7.6c-.576,1.991-2.2,6.812-5.817,6.812-4.3,0-7.074-6.655-7.074-18.341A47.424,47.424,0,0,1,147.935-30.5C148.459-32.333,150.083-37.468,153.8-37.468Z" transform="translate(1026 6644.705)" fill="#d4145a"/>
    <path id="パス_72" data-name="パス 72" d="M-25.464,1.956A10.35,10.35,0,0,1-26.4-.54,11.638,11.638,0,0,1-26.748-3.4,11.526,11.526,0,0,1-25.464-8.76h-.324A7.721,7.721,0,0,0-27.924-3.4a7.712,7.712,0,0,0,2.136,5.352ZM-14.34-.42c0-.1-.06-.156-.192-.252-.252-.2-.348-1.236-.372-1.608h-.108C-15.372-.4-15.384-.348-16.26-.348c-.948,0-1.032-.048-1.032-.408V-3.624h.6c.012.336.012.48.288.48a.6.6,0,0,0,.444-.144.372.372,0,0,0,.084-.276c0-.42-.048-2.28-.048-2.664.144-.048.4-.18.4-.348a.264.264,0,0,0-.12-.216l-.456-.336a.5.5,0,0,0-.252-.12q-.09,0-.216.144l-.276.324h-2.676l-1.044-.5a10.467,10.467,0,0,1,.144,2.58c0,.2-.024,1.1-.012,1.3,0,.084,0,.312.336.312a.46.46,0,0,0,.468-.528h.192A5.32,5.32,0,0,1-22.164.444l.024.072A4.929,4.929,0,0,0-18.684-2.7c.216-.036.372-.132.372-.24,0-.072-.036-.12-.132-.18l-.912-.5h1.284V-.36c0,.78.552.78,1.512.78,1.5,0,1.632-.12,1.872-.276A.842.842,0,0,0-14.34-.42Zm-2.352-3.492H-19.62v-2.58h2.928Zm1.176-5.136a.216.216,0,0,0-.108-.192l-1.176-.768a2,2,0,0,1-.1.684,16.3,16.3,0,0,1-1.1,2.4l.084.084a14.194,14.194,0,0,0,1.86-2C-15.816-8.856-15.516-8.9-15.516-9.048Zm-3.072,1.272c0-.768-.852-1.32-1.824-1.8l-.048.072a3.594,3.594,0,0,1,.78,1.56c.1.372.192.732.588.732A.515.515,0,0,0-18.588-7.776ZM-20.748-6.6c0-.06-.048-.12-.12-.192l-.516-.456c-.1-.084-.156-.132-.228-.132s-.12.06-.192.156l-.348.456h-.324V-8.916c.216-.048.36-.1.876-.228a1.027,1.027,0,0,0,.36.06c.156,0,.252-.048.252-.18a.311.311,0,0,0-.132-.192l-.84-.72a.917.917,0,0,1-.4.384A17.708,17.708,0,0,1-25.38-8.556v.108a16.7,16.7,0,0,0,2.16-.288v1.968h-.252c-.168,0-1.02-.012-1.848-.084l.24.48a8.545,8.545,0,0,1,1.416-.108h.42a10.246,10.246,0,0,1-2.5,4.368l.048.084A6.254,6.254,0,0,0-23.22-4.656c-.012,1.308-.012,3.048-.06,4.152,0,.144-.06.864-.06,1.032,0,.288.18.288.276.288.6,0,.6-.384.6-.552,0-.78-.012-4.62-.012-5.484.144.1.348.252.588.9.216.564.24.648.54.648a.41.41,0,0,0,.42-.456c0-.66-.948-1.14-1.548-1.236V-6.48h1.548C-20.856-6.48-20.748-6.5-20.748-6.6ZM-2.676-2.4v-.048c-1.872-.288-4.356-2.676-4.212-6.18.852-.4.972-.432.972-.588,0-.072-.072-.144-.144-.2l-.684-.5a.266.266,0,0,0-.132-.06c-.048,0-.108.06-.168.12l-.5.492h-.264c-.36,0-1.092-.012-1.836-.072l.228.468A9.585,9.585,0,0,1-8-9.084h.7a14.235,14.235,0,0,0,.192,1.74l-.408-.1C-7.86-5.064-8.88-2.8-10.632-1.716l.048.084A6.527,6.527,0,0,0-6.852-6.048,7.951,7.951,0,0,0-4.08-1.524,2.206,2.206,0,0,1-2.676-2.4Zm-7.86-5.664c0-.636-.612-1.26-1.86-1.644l-.048.084a3.192,3.192,0,0,1,.852,1.5c.108.324.2.624.552.624A.518.518,0,0,0-10.536-8.064ZM-2.7-.84V-.912a14.69,14.69,0,0,1-4.8.588c-1.116,0-3.276-.06-3.276-1.608V-4.32c.348-.252.432-.312.432-.408,0-.072-.06-.12-.108-.168L-11-5.352c-.06-.048-.108-.1-.168-.1s-.108.06-.192.144l-.384.408c-.468,0-1.224-.024-1.968-.084l.24.48a7.405,7.405,0,0,1,1.416-.108h.48v3.516a4.341,4.341,0,0,1-2.04.528l.7,1.14a.252.252,0,0,0,.18.132c.12,0,.144-.12.2-.372.216-.216,1.332-1.3,1.584-1.548A3.776,3.776,0,0,0-7.9.42c.828.1,3.936.1,4.356.084A2.073,2.073,0,0,1-2.7-.84Zm.072,2.8A7.658,7.658,0,0,0-.492-3.4,7.721,7.721,0,0,0-2.628-8.76H-2.94A11.681,11.681,0,0,1-1.656-3.4,11.636,11.636,0,0,1-2.016-.54a10.965,10.965,0,0,1-.924,2.5Z" transform="translate(1223 6488.164)" fill="#d4145a"/>
    <path id="パス_70" data-name="パス 70" d="M-25.464,1.956A10.35,10.35,0,0,1-26.4-.54,11.638,11.638,0,0,1-26.748-3.4,11.526,11.526,0,0,1-25.464-8.76h-.324A7.721,7.721,0,0,0-27.924-3.4a7.712,7.712,0,0,0,2.136,5.352ZM-14.34-.42c0-.1-.06-.156-.192-.252-.252-.2-.348-1.236-.372-1.608h-.108C-15.372-.4-15.384-.348-16.26-.348c-.948,0-1.032-.048-1.032-.408V-3.624h.6c.012.336.012.48.288.48a.6.6,0,0,0,.444-.144.372.372,0,0,0,.084-.276c0-.42-.048-2.28-.048-2.664.144-.048.4-.18.4-.348a.264.264,0,0,0-.12-.216l-.456-.336a.5.5,0,0,0-.252-.12q-.09,0-.216.144l-.276.324h-2.676l-1.044-.5a10.467,10.467,0,0,1,.144,2.58c0,.2-.024,1.1-.012,1.3,0,.084,0,.312.336.312a.46.46,0,0,0,.468-.528h.192A5.32,5.32,0,0,1-22.164.444l.024.072A4.929,4.929,0,0,0-18.684-2.7c.216-.036.372-.132.372-.24,0-.072-.036-.12-.132-.18l-.912-.5h1.284V-.36c0,.78.552.78,1.512.78,1.5,0,1.632-.12,1.872-.276A.842.842,0,0,0-14.34-.42Zm-2.352-3.492H-19.62v-2.58h2.928Zm1.176-5.136a.216.216,0,0,0-.108-.192l-1.176-.768a2,2,0,0,1-.1.684,16.3,16.3,0,0,1-1.1,2.4l.084.084a14.194,14.194,0,0,0,1.86-2C-15.816-8.856-15.516-8.9-15.516-9.048Zm-3.072,1.272c0-.768-.852-1.32-1.824-1.8l-.048.072a3.594,3.594,0,0,1,.78,1.56c.1.372.192.732.588.732A.515.515,0,0,0-18.588-7.776ZM-20.748-6.6c0-.06-.048-.12-.12-.192l-.516-.456c-.1-.084-.156-.132-.228-.132s-.12.06-.192.156l-.348.456h-.324V-8.916c.216-.048.36-.1.876-.228a1.027,1.027,0,0,0,.36.06c.156,0,.252-.048.252-.18a.311.311,0,0,0-.132-.192l-.84-.72a.917.917,0,0,1-.4.384A17.708,17.708,0,0,1-25.38-8.556v.108a16.7,16.7,0,0,0,2.16-.288v1.968h-.252c-.168,0-1.02-.012-1.848-.084l.24.48a8.545,8.545,0,0,1,1.416-.108h.42a10.246,10.246,0,0,1-2.5,4.368l.048.084A6.254,6.254,0,0,0-23.22-4.656c-.012,1.308-.012,3.048-.06,4.152,0,.144-.06.864-.06,1.032,0,.288.18.288.276.288.6,0,.6-.384.6-.552,0-.78-.012-4.62-.012-5.484.144.1.348.252.588.9.216.564.24.648.54.648a.41.41,0,0,0,.42-.456c0-.66-.948-1.14-1.548-1.236V-6.48h1.548C-20.856-6.48-20.748-6.5-20.748-6.6ZM-2.676-2.4v-.048c-1.872-.288-4.356-2.676-4.212-6.18.852-.4.972-.432.972-.588,0-.072-.072-.144-.144-.2l-.684-.5a.266.266,0,0,0-.132-.06c-.048,0-.108.06-.168.12l-.5.492h-.264c-.36,0-1.092-.012-1.836-.072l.228.468A9.585,9.585,0,0,1-8-9.084h.7a14.235,14.235,0,0,0,.192,1.74l-.408-.1C-7.86-5.064-8.88-2.8-10.632-1.716l.048.084A6.527,6.527,0,0,0-6.852-6.048,7.951,7.951,0,0,0-4.08-1.524,2.206,2.206,0,0,1-2.676-2.4Zm-7.86-5.664c0-.636-.612-1.26-1.86-1.644l-.048.084a3.192,3.192,0,0,1,.852,1.5c.108.324.2.624.552.624A.518.518,0,0,0-10.536-8.064ZM-2.7-.84V-.912a14.69,14.69,0,0,1-4.8.588c-1.116,0-3.276-.06-3.276-1.608V-4.32c.348-.252.432-.312.432-.408,0-.072-.06-.12-.108-.168L-11-5.352c-.06-.048-.108-.1-.168-.1s-.108.06-.192.144l-.384.408c-.468,0-1.224-.024-1.968-.084l.24.48a7.405,7.405,0,0,1,1.416-.108h.48v3.516a4.341,4.341,0,0,1-2.04.528l.7,1.14a.252.252,0,0,0,.18.132c.12,0,.144-.12.2-.372.216-.216,1.332-1.3,1.584-1.548A3.776,3.776,0,0,0-7.9.42c.828.1,3.936.1,4.356.084A2.073,2.073,0,0,1-2.7-.84Zm.072,2.8A7.658,7.658,0,0,0-.492-3.4,7.721,7.721,0,0,0-2.628-8.76H-2.94A11.681,11.681,0,0,1-1.656-3.4,11.636,11.636,0,0,1-2.016-.54a10.965,10.965,0,0,1-.924,2.5Z" transform="translate(1223 6615.164)" fill="#d4145a"/>
    <path id="パス_86" data-name="パス 86" d="M-235.976-8.2c0-.8-1.68-1.04-1.8-1.04a8.622,8.622,0,0,0-.98.22c-.16.04-4.4.44-5.22.56a14.188,14.188,0,0,1,.34-2.36c.22-.38.34-.56.34-.74,0-.3-.82-.7-1.2-.88a32.683,32.683,0,0,1,5.26-.4c.4,0,.84,0,.84-.48a.646.646,0,0,0-.28-.52,3.685,3.685,0,0,0-1.4-.42c-.2,0-.28.04-.96.3a36.672,36.672,0,0,1-6.34.84,2.574,2.574,0,0,1-2-.74,2.16,2.16,0,0,0,1.46,2.08,1.739,1.739,0,0,0,.6-.12c.2-.06,1.02-.22,1.56-.32.38.24.58.52.58,2.22,0,.24-.04,1.44-.04,1.72l-3.64.48c-.32.04-.88.12-1.18.12a2.3,2.3,0,0,1-1.94-1.02,2.546,2.546,0,0,0-.04.44c0,1.28,1.6,2.18,1.9,2.18a3.665,3.665,0,0,0,.88-.36,17.678,17.678,0,0,1,4-1.02c-.02,1.36-.04,2.28-.04,2.94,0,3.1.86,3.4,4.34,3.4a22.151,22.151,0,0,0,2.62-.12c.62-.12.8-.32.8-.66,0-.66-1.2-.88-1.62-.88a2.857,2.857,0,0,0-.94.18,9.424,9.424,0,0,1-2.42.26c-1.54,0-1.6-.72-1.6-2.06,0-1.6.02-1.94.08-3.22,2.36-.22,3.84-.22,4.08-.22a19.79,19.79,0,0,1,2.04.1c.88.1.98.12,1.18.12C-236.136-7.62-235.976-7.98-235.976-8.2Zm17-3.54c0-.62-1.22-.92-1.6-.92-.18,0-1,.32-1.18.36a26.332,26.332,0,0,1-4.98.54,4.024,4.024,0,0,1-2.46-.7,1.985,1.985,0,0,0,1.84,1.96,1.169,1.169,0,0,0,.36-.04,19.326,19.326,0,0,1,3.58-.42c1.08-.06,2.64-.16,3.08-.2C-219.336-11.22-218.976-11.26-218.976-11.74Zm2.74,7.88c0-.78-1.6-1.48-2.02-1.48a3.366,3.366,0,0,0-.84.22,21.972,21.972,0,0,1-3.6.34c-1.04.04-6.46.5-6.58.5a2.635,2.635,0,0,1-2.36-1.24,2.027,2.027,0,0,0-.08.52,2.53,2.53,0,0,0,1.84,2.34,3.617,3.617,0,0,0,1.08-.28,36,36,0,0,1,7.48-.84,18.931,18.931,0,0,1,3.02.22c.52.08,1.52.26,1.56.26A.511.511,0,0,0-216.236-3.86Zm18.38-7.9a4.481,4.481,0,0,0-1.56-1.56,4.5,4.5,0,0,0-.84.48,15.189,15.189,0,0,1-3.28.46c-.38,0-.58-.02-.72-.02a7.045,7.045,0,0,1,.54-.74c.46-.4.5-.44.5-.66,0-.42-1.08-1.4-2.22-1.4a2.158,2.158,0,0,0-1,.24c.4.16,1.18.46,1.18,1.12,0,.78-2.4,4.9-4.92,7.34l.06.12a11.159,11.159,0,0,0,3.34-2.6,7.955,7.955,0,0,1,2.66,2.4c.36.4.58.58.78.6a21.888,21.888,0,0,1-6.88,6.02l.06.14c4.4-1.24,7.5-3.98,10.58-9.96.66-1.3.8-1.42,1.2-1.58C-197.936-11.54-197.856-11.56-197.856-11.76Zm-2.38-.12a22.605,22.605,0,0,1-2.54,5.1c-.12-1.8-2.68-2.3-3.8-2.44a31.044,31.044,0,0,0,1.92-2.58,1.889,1.889,0,0,0,1.04.38C-203.156-11.42-200.776-11.82-200.236-11.88Zm23.86,4.32c0-.78-2-1-2.12-1s-.7.16-.82.18c-.92.22-7.42.24-8.8.24-2.08,0-2.7,0-3.38-1.52a2.311,2.311,0,0,0-.24.96c0,.92,1.08,2.2,1.6,2.2.06,0,.7-.16.76-.18.9-.24,2.7-.36,8.8-.36a19.959,19.959,0,0,1,2.26.08c.04,0,.52.04.7.04C-177.376-6.92-176.376-6.94-176.376-7.56Zm16.86-2.46v-4.3h4.26c.12,0,.3-.04.3-.22a.43.43,0,0,0-.2-.3l-1.24-1.02a.921.921,0,0,0-.36-.2c-.06,0-.12,0-.32.24l-.82,1.02h-6.76c-.06,0-1.56,0-3.06-.14l.38.8a14.455,14.455,0,0,1,2.36-.18h.94v4.3h-1.56l-1.8-1.02a22.187,22.187,0,0,1,.14,3.16c0,2.44-.08,5.44-.12,6.62,0,.26-.06,1.48-.06,1.76,0,.48.16.66.56.66,1.06,0,1.02-.76.98-1.24h8.5c-.02.42-.04.68-.04.8,0,.26.04.56.44.56.3,0,1.1-.26,1.1-.86,0-.18-.08-1.1-.08-1.32-.08-2.6-.06-7.44-.04-8.16.34-.28.6-.48.6-.6a.469.469,0,0,0-.22-.36l-.86-.66a.5.5,0,0,0-.32-.14c-.1,0-.22.14-.28.22l-.4.58Zm-1.3.48V-.56h-1.92V-9.54Zm-3.22,0V-.56h-1.88V-9.54Zm1.3-.48v-4.3h1.92v4.3Zm3.22,9.46V-9.54h2.12V-.56Zm-10.12-11.12c.26-.5,1.56-3.04,1.84-3.6.48-.22.74-.34.74-.56,0-.08-.12-.2-.2-.24l-1.98-.88a4.038,4.038,0,0,1,0,.5c0,1.7-2.82,7.34-4.34,9.76l.1.08a12.765,12.765,0,0,0,2.94-3.4c-.08,5.9-.08,7.16-.16,9.14,0,.22-.1,1.4-.1,1.66,0,.46.2.64.56.64a.965.965,0,0,0,1.04-1c0-.24.02-.6-.08-5.64-.04-2.44-.02-4.38,0-5.3.4-.3.54-.44.54-.62,0-.1-.12-.16-.24-.22Zm35.18,4.36v-.1a11.984,11.984,0,0,1-5.64-2.36,30.9,30.9,0,0,0,1.92-3.3c.56-.1,1.2-.22,1.2-.66a.439.439,0,0,0-.18-.38l-.9-.7a.731.731,0,0,0-.4-.22.746.746,0,0,0-.4.2l-.72.54h-2.8c.22-.44.3-.6.44-.94.62-.08.74-.18.74-.4,0-.12-.14-.24-.26-.3l-1.88-.86a4.95,4.95,0,0,1-.06,1.22,21.951,21.951,0,0,1-3.06,5.98l.14.14a12.193,12.193,0,0,0,2.66-2.8c.4-.54.58-.86.76-1.1a9.974,9.974,0,0,0,1.28,3.32,20,20,0,0,1-6.12,5.24l.08.14a15.614,15.614,0,0,0,6.86-4.26,12.294,12.294,0,0,0,4.7,3.26C-135.636-6.46-135.356-6.98-134.456-7.32Zm-5.12-6.5a12.191,12.191,0,0,1-1.5,3.06,8.273,8.273,0,0,1-1.62-2.96l.06-.1Zm2.68,9.18c0-.1-.08-.2-.22-.3l-.7-.54c-.22-.16-.34-.24-.44-.24s-.22.1-.34.24l-.5.58h-4.26l-1.74-.76a10.487,10.487,0,0,1,.14,2.04c0,1.9,0,2.72-.04,3.5,0,.18-.1,1-.1,1.2,0,.42.36.48.66.48a.779.779,0,0,0,.88-.84h4.72c0,.6.02.84.52.84a.926.926,0,0,0,.98-.92c0-.24-.08-1.4-.1-1.66-.02-.4-.08-2.44-.12-2.9C-137.316-4.08-136.9-4.38-136.9-4.64Zm-1.96,4.88h-4.7V-4.42h4.7Zm-7.04-7.96c0-1.08-1.66-1.84-2.64-2.14v-2.02h2.34c.14,0,.3-.04.3-.2a.48.48,0,0,0-.18-.32l-.68-.68a.55.55,0,0,0-.36-.2c-.12,0-.2.06-.32.24l-.48.68h-.62c.02-.42.02-2.5.04-2.96.44-.24.6-.38.6-.58,0-.22-.12-.28-.32-.34l-1.98-.52c.28.8.34,1.3.4,4.4-1.66,0-2.54-.08-3.08-.12l.4.78a13.637,13.637,0,0,1,2.46-.18,19.75,19.75,0,0,1-3.48,8.12l.12.12a13.52,13.52,0,0,0,3.58-4.82c-.02,1.26-.22,8.94-.22,9.34a.615.615,0,0,0,.58.66c.14,0,.98-.14.98-.86a1.416,1.416,0,0,0-.02-.3c-.12-3.04-.1-6.18-.06-10a3.44,3.44,0,0,1,.88,1.5c.16.48.4,1.14,1.06,1.14A.682.682,0,0,0-145.9-7.72Zm34.34.84c.08-1.8.18-4.74,1.96-6.7a2.057,2.057,0,0,1,1.46-.72c.54,0,.58.28.6.72.04,1.14.7,1.4,1.1,1.4a1,1,0,0,0,1.02-1.04c0-.96-.94-1.76-2.28-1.76-3.06,0-5.66,3.84-5.66,8.46,0,4.32,2.32,6.9,4.6,6.9,2.3,0,4.28-2.48,4.28-5.26,0-2.42-1.6-4.42-3.58-4.42a3.38,3.38,0,0,0-1.74.52A4.971,4.971,0,0,0-111.556-6.88Zm.02,1.2c.94-2.16,2.22-2.72,2.98-2.72,2.06,0,2.28,2.8,2.28,3.7,0,3.3-1.5,4.4-2.56,4.4a1.979,1.979,0,0,1-1.62-1.08A9.547,9.547,0,0,1-111.536-5.68Zm17.12-1.62c0-5.46-2.44-7.68-4.5-7.68-2.68,0-4.5,3.24-4.5,7.5a12.442,12.442,0,0,0,1.22,5.7A4.049,4.049,0,0,0-98.916.38C-96.476.38-94.416-2.4-94.416-7.3Zm-4.5-7c1.6,0,2.7,2.44,2.7,7a18.519,18.519,0,0,1-.48,4.4c-.22.76-.84,2.6-2.22,2.6-1.64,0-2.7-2.54-2.7-7a18.1,18.1,0,0,1,.46-4.34C-100.956-12.34-100.336-14.3-98.916-14.3Zm13.16,1.28.4-1.58h-6.96l-.3,7.72.3.16A4.347,4.347,0,0,1-89.2-8.46c1.46,0,2.8,1.4,2.8,3.94,0,2.68-1.52,4.22-3.14,4.22-.8,0-1.7-.44-1.7-1.3a2.974,2.974,0,0,1,.06-.56,2.041,2.041,0,0,0,.1-.6.987.987,0,0,0-1.04-1.04,1.136,1.136,0,0,0-1.16,1.24c0,1.24,1.5,2.94,3.78,2.94a5.079,5.079,0,0,0,4.94-5.16,4.287,4.287,0,0,0-4.26-4.58,4.221,4.221,0,0,0-3.1,1.38l.18-5.04ZM-82.8,2.32c.5-.42,1.9-1.64,1.9-3.12a1.161,1.161,0,0,0-1.18-1.14,1.157,1.157,0,0,0-1.14,1.16c0,.62.34.9.86,1.14.16.06.18.26.18.34a2.034,2.034,0,0,1-.94,1.32Zm12.08-9.62c0-5.46-2.44-7.68-4.5-7.68-2.68,0-4.5,3.24-4.5,7.5a12.442,12.442,0,0,0,1.22,5.7A4.049,4.049,0,0,0-75.216.38C-72.776.38-70.716-2.4-70.716-7.3Zm-4.5-7c1.6,0,2.7,2.44,2.7,7A18.519,18.519,0,0,1-73-2.9c-.22.76-.84,2.6-2.22,2.6-1.64,0-2.7-2.54-2.7-7a18.1,18.1,0,0,1,.46-4.34C-77.256-12.34-76.636-14.3-75.216-14.3Zm14.5,7c0-5.46-2.44-7.68-4.5-7.68-2.68,0-4.5,3.24-4.5,7.5a12.442,12.442,0,0,0,1.22,5.7A4.049,4.049,0,0,0-65.216.38C-62.776.38-60.716-2.4-60.716-7.3Zm-4.5-7c1.6,0,2.7,2.44,2.7,7A18.519,18.519,0,0,1-63-2.9c-.22.76-.84,2.6-2.22,2.6-1.64,0-2.7-2.54-2.7-7a18.1,18.1,0,0,1,.46-4.34C-67.256-12.34-66.636-14.3-65.216-14.3Zm14.5,7c0-5.46-2.44-7.68-4.5-7.68-2.68,0-4.5,3.24-4.5,7.5a12.442,12.442,0,0,0,1.22,5.7A4.049,4.049,0,0,0-55.216.38C-52.776.38-50.716-2.4-50.716-7.3Zm-4.5-7c1.6,0,2.7,2.44,2.7,7A18.519,18.519,0,0,1-53-2.9c-.22.76-.84,2.6-2.22,2.6-1.64,0-2.7-2.54-2.7-7a18.1,18.1,0,0,1,.46-4.34C-57.256-12.34-56.636-14.3-55.216-14.3Zm22.96-.32a.632.632,0,0,0-.22-.38l-.92-.84c-.18-.16-.26-.2-.36-.2s-.2.06-.34.2l-.68.72H-45.6l-2.16-1.24a27.378,27.378,0,0,1,.18,4.04c0,3.56-.02,7.12-.12,10.7,0,.32-.08,1.92-.08,2.28,0,.26,0,.64.62.64,1.1,0,1.1-.76,1.1-1.22,0-.16-.02-.64-.02-.68-.06-1.62-.06-2.08-.1-6.24h11.72v5.08c0,.78-.12.96-.72.96a13.025,13.025,0,0,1-2.14-.18l-.02.14c1.68,1,1.8,1.48,1.86,2.14,2.58-.26,2.58-1.66,2.58-2.76,0-2.46-.16-6.42-.16-8.9,0-1.6.02-2.9.04-3.6C-32.576-14.16-32.256-14.44-32.256-14.62Zm-2.2,7.3h-5.16v-7.32h5.16Zm-6.58,0h-5.14v-7.32h5.14Zm13.772,9.276A10.35,10.35,0,0,1-28.2-.54,11.638,11.638,0,0,1-28.548-3.4,11.526,11.526,0,0,1-27.264-8.76h-.324A7.721,7.721,0,0,0-29.724-3.4a7.712,7.712,0,0,0,2.136,5.352ZM-15.54-.42c0-.1-.06-.156-.192-.252-.252-.2-.348-1.236-.372-1.608h-.108C-16.572-.4-16.584-.348-17.46-.348c-.948,0-1.032-.048-1.032-.408V-3.624h.6c.012.336.012.48.288.48a.6.6,0,0,0,.444-.144.372.372,0,0,0,.084-.276c0-.42-.048-2.28-.048-2.664.144-.048.4-.18.4-.348a.264.264,0,0,0-.12-.216l-.456-.336a.5.5,0,0,0-.252-.12q-.09,0-.216.144l-.276.324h-2.676l-1.044-.5a10.467,10.467,0,0,1,.144,2.58c0,.2-.024,1.1-.012,1.3,0,.084,0,.312.336.312a.46.46,0,0,0,.468-.528h.192A5.32,5.32,0,0,1-23.364.444l.024.072A4.929,4.929,0,0,0-19.884-2.7c.216-.036.372-.132.372-.24,0-.072-.036-.12-.132-.18l-.912-.5h1.284V-.36c0,.78.552.78,1.512.78,1.5,0,1.632-.12,1.872-.276A.842.842,0,0,0-15.54-.42Zm-2.352-3.492H-20.82v-2.58h2.928Zm1.176-5.136a.216.216,0,0,0-.108-.192L-18-10.008a2,2,0,0,1-.1.684,16.3,16.3,0,0,1-1.1,2.4l.084.084a14.194,14.194,0,0,0,1.86-2C-17.016-8.856-16.716-8.9-16.716-9.048Zm-3.072,1.272c0-.768-.852-1.32-1.824-1.8l-.048.072a3.594,3.594,0,0,1,.78,1.56c.1.372.192.732.588.732A.515.515,0,0,0-19.788-7.776ZM-21.948-6.6c0-.06-.048-.12-.12-.192l-.516-.456c-.1-.084-.156-.132-.228-.132s-.12.06-.192.156l-.348.456h-.324V-8.916c.216-.048.36-.1.876-.228a1.027,1.027,0,0,0,.36.06c.156,0,.252-.048.252-.18a.311.311,0,0,0-.132-.192l-.84-.72a.917.917,0,0,1-.4.384A17.708,17.708,0,0,1-26.58-8.556v.108a16.7,16.7,0,0,0,2.16-.288v1.968h-.252c-.168,0-1.02-.012-1.848-.084l.24.48a8.545,8.545,0,0,1,1.416-.108h.42a10.246,10.246,0,0,1-2.5,4.368l.048.084A6.254,6.254,0,0,0-24.42-4.656c-.012,1.308-.012,3.048-.06,4.152,0,.144-.06.864-.06,1.032,0,.288.18.288.276.288.6,0,.6-.384.6-.552,0-.78-.012-4.62-.012-5.484.144.1.348.252.588.9.216.564.24.648.54.648a.41.41,0,0,0,.42-.456c0-.66-.948-1.14-1.548-1.236V-6.48h1.548C-22.056-6.48-21.948-6.5-21.948-6.6ZM-3.276-2.4v-.048c-1.872-.288-4.356-2.676-4.212-6.18.852-.4.972-.432.972-.588,0-.072-.072-.144-.144-.2l-.684-.5a.266.266,0,0,0-.132-.06c-.048,0-.108.06-.168.12l-.5.492h-.264c-.36,0-1.092-.012-1.836-.072l.228.468A9.585,9.585,0,0,1-8.6-9.084h.7a14.235,14.235,0,0,0,.192,1.74l-.408-.1C-8.46-5.064-9.48-2.8-11.232-1.716l.048.084A6.527,6.527,0,0,0-7.452-6.048,7.951,7.951,0,0,0-4.68-1.524,2.206,2.206,0,0,1-3.276-2.4Zm-7.86-5.664c0-.636-.612-1.26-1.86-1.644l-.048.084a3.192,3.192,0,0,1,.852,1.5c.108.324.2.624.552.624A.518.518,0,0,0-11.136-8.064ZM-3.3-.84V-.912a14.69,14.69,0,0,1-4.8.588c-1.116,0-3.276-.06-3.276-1.608V-4.32c.348-.252.432-.312.432-.408,0-.072-.06-.12-.108-.168l-.552-.456c-.06-.048-.108-.1-.168-.1s-.108.06-.192.144l-.384.408c-.468,0-1.224-.024-1.968-.084l.24.48a7.405,7.405,0,0,1,1.416-.108h.48v3.516a4.341,4.341,0,0,1-2.04.528l.7,1.14a.252.252,0,0,0,.18.132c.12,0,.144-.12.2-.372.216-.216,1.332-1.3,1.584-1.548A3.776,3.776,0,0,0-8.5.42c.828.1,3.936.1,4.356.084A2.073,2.073,0,0,1-3.3-.84Zm.672,2.8A7.658,7.658,0,0,0-.492-3.4,7.721,7.721,0,0,0-2.628-8.76H-2.94A11.681,11.681,0,0,1-1.656-3.4,11.636,11.636,0,0,1-2.016-.54a10.965,10.965,0,0,1-.924,2.5Z" transform="translate(1224 6582.303)"/>
    <path id="パス_85" data-name="パス 85" d="M-235.976-8.2c0-.8-1.68-1.04-1.8-1.04a8.622,8.622,0,0,0-.98.22c-.16.04-4.4.44-5.22.56a14.188,14.188,0,0,1,.34-2.36c.22-.38.34-.56.34-.74,0-.3-.82-.7-1.2-.88a32.683,32.683,0,0,1,5.26-.4c.4,0,.84,0,.84-.48a.646.646,0,0,0-.28-.52,3.685,3.685,0,0,0-1.4-.42c-.2,0-.28.04-.96.3a36.672,36.672,0,0,1-6.34.84,2.574,2.574,0,0,1-2-.74,2.16,2.16,0,0,0,1.46,2.08,1.739,1.739,0,0,0,.6-.12c.2-.06,1.02-.22,1.56-.32.38.24.58.52.58,2.22,0,.24-.04,1.44-.04,1.72l-3.64.48c-.32.04-.88.12-1.18.12a2.3,2.3,0,0,1-1.94-1.02,2.546,2.546,0,0,0-.04.44c0,1.28,1.6,2.18,1.9,2.18a3.665,3.665,0,0,0,.88-.36,17.678,17.678,0,0,1,4-1.02c-.02,1.36-.04,2.28-.04,2.94,0,3.1.86,3.4,4.34,3.4a22.151,22.151,0,0,0,2.62-.12c.62-.12.8-.32.8-.66,0-.66-1.2-.88-1.62-.88a2.857,2.857,0,0,0-.94.18,9.424,9.424,0,0,1-2.42.26c-1.54,0-1.6-.72-1.6-2.06,0-1.6.02-1.94.08-3.22,2.36-.22,3.84-.22,4.08-.22a19.79,19.79,0,0,1,2.04.1c.88.1.98.12,1.18.12C-236.136-7.62-235.976-7.98-235.976-8.2Zm17-3.54c0-.62-1.22-.92-1.6-.92-.18,0-1,.32-1.18.36a26.332,26.332,0,0,1-4.98.54,4.024,4.024,0,0,1-2.46-.7,1.985,1.985,0,0,0,1.84,1.96,1.169,1.169,0,0,0,.36-.04,19.326,19.326,0,0,1,3.58-.42c1.08-.06,2.64-.16,3.08-.2C-219.336-11.22-218.976-11.26-218.976-11.74Zm2.74,7.88c0-.78-1.6-1.48-2.02-1.48a3.366,3.366,0,0,0-.84.22,21.972,21.972,0,0,1-3.6.34c-1.04.04-6.46.5-6.58.5a2.635,2.635,0,0,1-2.36-1.24,2.027,2.027,0,0,0-.08.52,2.53,2.53,0,0,0,1.84,2.34,3.617,3.617,0,0,0,1.08-.28,36,36,0,0,1,7.48-.84,18.931,18.931,0,0,1,3.02.22c.52.08,1.52.26,1.56.26A.511.511,0,0,0-216.236-3.86Zm18.38-7.9a4.481,4.481,0,0,0-1.56-1.56,4.5,4.5,0,0,0-.84.48,15.189,15.189,0,0,1-3.28.46c-.38,0-.58-.02-.72-.02a7.045,7.045,0,0,1,.54-.74c.46-.4.5-.44.5-.66,0-.42-1.08-1.4-2.22-1.4a2.158,2.158,0,0,0-1,.24c.4.16,1.18.46,1.18,1.12,0,.78-2.4,4.9-4.92,7.34l.06.12a11.159,11.159,0,0,0,3.34-2.6,7.955,7.955,0,0,1,2.66,2.4c.36.4.58.58.78.6a21.888,21.888,0,0,1-6.88,6.02l.06.14c4.4-1.24,7.5-3.98,10.58-9.96.66-1.3.8-1.42,1.2-1.58C-197.936-11.54-197.856-11.56-197.856-11.76Zm-2.38-.12a22.605,22.605,0,0,1-2.54,5.1c-.12-1.8-2.68-2.3-3.8-2.44a31.044,31.044,0,0,0,1.92-2.58,1.889,1.889,0,0,0,1.04.38C-203.156-11.42-200.776-11.82-200.236-11.88Zm23.86,4.32c0-.78-2-1-2.12-1s-.7.16-.82.18c-.92.22-7.42.24-8.8.24-2.08,0-2.7,0-3.38-1.52a2.311,2.311,0,0,0-.24.96c0,.92,1.08,2.2,1.6,2.2.06,0,.7-.16.76-.18.9-.24,2.7-.36,8.8-.36a19.959,19.959,0,0,1,2.26.08c.04,0,.52.04.7.04C-177.376-6.92-176.376-6.94-176.376-7.56Zm16.86-2.46v-4.3h4.26c.12,0,.3-.04.3-.22a.43.43,0,0,0-.2-.3l-1.24-1.02a.921.921,0,0,0-.36-.2c-.06,0-.12,0-.32.24l-.82,1.02h-6.76c-.06,0-1.56,0-3.06-.14l.38.8a14.455,14.455,0,0,1,2.36-.18h.94v4.3h-1.56l-1.8-1.02a22.187,22.187,0,0,1,.14,3.16c0,2.44-.08,5.44-.12,6.62,0,.26-.06,1.48-.06,1.76,0,.48.16.66.56.66,1.06,0,1.02-.76.98-1.24h8.5c-.02.42-.04.68-.04.8,0,.26.04.56.44.56.3,0,1.1-.26,1.1-.86,0-.18-.08-1.1-.08-1.32-.08-2.6-.06-7.44-.04-8.16.34-.28.6-.48.6-.6a.469.469,0,0,0-.22-.36l-.86-.66a.5.5,0,0,0-.32-.14c-.1,0-.22.14-.28.22l-.4.58Zm-1.3.48V-.56h-1.92V-9.54Zm-3.22,0V-.56h-1.88V-9.54Zm1.3-.48v-4.3h1.92v4.3Zm3.22,9.46V-9.54h2.12V-.56Zm-10.12-11.12c.26-.5,1.56-3.04,1.84-3.6.48-.22.74-.34.74-.56,0-.08-.12-.2-.2-.24l-1.98-.88a4.038,4.038,0,0,1,0,.5c0,1.7-2.82,7.34-4.34,9.76l.1.08a12.765,12.765,0,0,0,2.94-3.4c-.08,5.9-.08,7.16-.16,9.14,0,.22-.1,1.4-.1,1.66,0,.46.2.64.56.64a.965.965,0,0,0,1.04-1c0-.24.02-.6-.08-5.64-.04-2.44-.02-4.38,0-5.3.4-.3.54-.44.54-.62,0-.1-.12-.16-.24-.22Zm35.18,4.36v-.1a11.984,11.984,0,0,1-5.64-2.36,30.9,30.9,0,0,0,1.92-3.3c.56-.1,1.2-.22,1.2-.66a.439.439,0,0,0-.18-.38l-.9-.7a.731.731,0,0,0-.4-.22.746.746,0,0,0-.4.2l-.72.54h-2.8c.22-.44.3-.6.44-.94.62-.08.74-.18.74-.4,0-.12-.14-.24-.26-.3l-1.88-.86a4.95,4.95,0,0,1-.06,1.22,21.951,21.951,0,0,1-3.06,5.98l.14.14a12.193,12.193,0,0,0,2.66-2.8c.4-.54.58-.86.76-1.1a9.974,9.974,0,0,0,1.28,3.32,20,20,0,0,1-6.12,5.24l.08.14a15.614,15.614,0,0,0,6.86-4.26,12.294,12.294,0,0,0,4.7,3.26C-135.636-6.46-135.356-6.98-134.456-7.32Zm-5.12-6.5a12.191,12.191,0,0,1-1.5,3.06,8.273,8.273,0,0,1-1.62-2.96l.06-.1Zm2.68,9.18c0-.1-.08-.2-.22-.3l-.7-.54c-.22-.16-.34-.24-.44-.24s-.22.1-.34.24l-.5.58h-4.26l-1.74-.76a10.487,10.487,0,0,1,.14,2.04c0,1.9,0,2.72-.04,3.5,0,.18-.1,1-.1,1.2,0,.42.36.48.66.48a.779.779,0,0,0,.88-.84h4.72c0,.6.02.84.52.84a.926.926,0,0,0,.98-.92c0-.24-.08-1.4-.1-1.66-.02-.4-.08-2.44-.12-2.9C-137.316-4.08-136.9-4.38-136.9-4.64Zm-1.96,4.88h-4.7V-4.42h4.7Zm-7.04-7.96c0-1.08-1.66-1.84-2.64-2.14v-2.02h2.34c.14,0,.3-.04.3-.2a.48.48,0,0,0-.18-.32l-.68-.68a.55.55,0,0,0-.36-.2c-.12,0-.2.06-.32.24l-.48.68h-.62c.02-.42.02-2.5.04-2.96.44-.24.6-.38.6-.58,0-.22-.12-.28-.32-.34l-1.98-.52c.28.8.34,1.3.4,4.4-1.66,0-2.54-.08-3.08-.12l.4.78a13.637,13.637,0,0,1,2.46-.18,19.75,19.75,0,0,1-3.48,8.12l.12.12a13.52,13.52,0,0,0,3.58-4.82c-.02,1.26-.22,8.94-.22,9.34a.615.615,0,0,0,.58.66c.14,0,.98-.14.98-.86a1.416,1.416,0,0,0-.02-.3c-.12-3.04-.1-6.18-.06-10a3.44,3.44,0,0,1,.88,1.5c.16.48.4,1.14,1.06,1.14A.682.682,0,0,0-145.9-7.72Zm34.34.84c.08-1.8.18-4.74,1.96-6.7a2.057,2.057,0,0,1,1.46-.72c.54,0,.58.28.6.72.04,1.14.7,1.4,1.1,1.4a1,1,0,0,0,1.02-1.04c0-.96-.94-1.76-2.28-1.76-3.06,0-5.66,3.84-5.66,8.46,0,4.32,2.32,6.9,4.6,6.9,2.3,0,4.28-2.48,4.28-5.26,0-2.42-1.6-4.42-3.58-4.42a3.38,3.38,0,0,0-1.74.52A4.971,4.971,0,0,0-111.556-6.88Zm.02,1.2c.94-2.16,2.22-2.72,2.98-2.72,2.06,0,2.28,2.8,2.28,3.7,0,3.3-1.5,4.4-2.56,4.4a1.979,1.979,0,0,1-1.62-1.08A9.547,9.547,0,0,1-111.536-5.68Zm17.12-1.62c0-5.46-2.44-7.68-4.5-7.68-2.68,0-4.5,3.24-4.5,7.5a12.442,12.442,0,0,0,1.22,5.7A4.049,4.049,0,0,0-98.916.38C-96.476.38-94.416-2.4-94.416-7.3Zm-4.5-7c1.6,0,2.7,2.44,2.7,7a18.519,18.519,0,0,1-.48,4.4c-.22.76-.84,2.6-2.22,2.6-1.64,0-2.7-2.54-2.7-7a18.1,18.1,0,0,1,.46-4.34C-100.956-12.34-100.336-14.3-98.916-14.3Zm13.16,1.28.4-1.58h-6.96l-.3,7.72.3.16A4.347,4.347,0,0,1-89.2-8.46c1.46,0,2.8,1.4,2.8,3.94,0,2.68-1.52,4.22-3.14,4.22-.8,0-1.7-.44-1.7-1.3a2.974,2.974,0,0,1,.06-.56,2.041,2.041,0,0,0,.1-.6.987.987,0,0,0-1.04-1.04,1.136,1.136,0,0,0-1.16,1.24c0,1.24,1.5,2.94,3.78,2.94a5.079,5.079,0,0,0,4.94-5.16,4.287,4.287,0,0,0-4.26-4.58,4.221,4.221,0,0,0-3.1,1.38l.18-5.04ZM-82.8,2.32c.5-.42,1.9-1.64,1.9-3.12a1.161,1.161,0,0,0-1.18-1.14,1.157,1.157,0,0,0-1.14,1.16c0,.62.34.9.86,1.14.16.06.18.26.18.34a2.034,2.034,0,0,1-.94,1.32Zm12.08-9.62c0-5.46-2.44-7.68-4.5-7.68-2.68,0-4.5,3.24-4.5,7.5a12.442,12.442,0,0,0,1.22,5.7A4.049,4.049,0,0,0-75.216.38C-72.776.38-70.716-2.4-70.716-7.3Zm-4.5-7c1.6,0,2.7,2.44,2.7,7A18.519,18.519,0,0,1-73-2.9c-.22.76-.84,2.6-2.22,2.6-1.64,0-2.7-2.54-2.7-7a18.1,18.1,0,0,1,.46-4.34C-77.256-12.34-76.636-14.3-75.216-14.3Zm14.5,7c0-5.46-2.44-7.68-4.5-7.68-2.68,0-4.5,3.24-4.5,7.5a12.442,12.442,0,0,0,1.22,5.7A4.049,4.049,0,0,0-65.216.38C-62.776.38-60.716-2.4-60.716-7.3Zm-4.5-7c1.6,0,2.7,2.44,2.7,7A18.519,18.519,0,0,1-63-2.9c-.22.76-.84,2.6-2.22,2.6-1.64,0-2.7-2.54-2.7-7a18.1,18.1,0,0,1,.46-4.34C-67.256-12.34-66.636-14.3-65.216-14.3Zm14.5,7c0-5.46-2.44-7.68-4.5-7.68-2.68,0-4.5,3.24-4.5,7.5a12.442,12.442,0,0,0,1.22,5.7A4.049,4.049,0,0,0-55.216.38C-52.776.38-50.716-2.4-50.716-7.3Zm-4.5-7c1.6,0,2.7,2.44,2.7,7A18.519,18.519,0,0,1-53-2.9c-.22.76-.84,2.6-2.22,2.6-1.64,0-2.7-2.54-2.7-7a18.1,18.1,0,0,1,.46-4.34C-57.256-12.34-56.636-14.3-55.216-14.3Zm22.96-.32a.632.632,0,0,0-.22-.38l-.92-.84c-.18-.16-.26-.2-.36-.2s-.2.06-.34.2l-.68.72H-45.6l-2.16-1.24a27.378,27.378,0,0,1,.18,4.04c0,3.56-.02,7.12-.12,10.7,0,.32-.08,1.92-.08,2.28,0,.26,0,.64.62.64,1.1,0,1.1-.76,1.1-1.22,0-.16-.02-.64-.02-.68-.06-1.62-.06-2.08-.1-6.24h11.72v5.08c0,.78-.12.96-.72.96a13.025,13.025,0,0,1-2.14-.18l-.02.14c1.68,1,1.8,1.48,1.86,2.14,2.58-.26,2.58-1.66,2.58-2.76,0-2.46-.16-6.42-.16-8.9,0-1.6.02-2.9.04-3.6C-32.576-14.16-32.256-14.44-32.256-14.62Zm-2.2,7.3h-5.16v-7.32h5.16Zm-6.58,0h-5.14v-7.32h5.14Zm13.772,9.276A10.35,10.35,0,0,1-28.2-.54,11.638,11.638,0,0,1-28.548-3.4,11.526,11.526,0,0,1-27.264-8.76h-.324A7.721,7.721,0,0,0-29.724-3.4a7.712,7.712,0,0,0,2.136,5.352ZM-15.54-.42c0-.1-.06-.156-.192-.252-.252-.2-.348-1.236-.372-1.608h-.108C-16.572-.4-16.584-.348-17.46-.348c-.948,0-1.032-.048-1.032-.408V-3.624h.6c.012.336.012.48.288.48a.6.6,0,0,0,.444-.144.372.372,0,0,0,.084-.276c0-.42-.048-2.28-.048-2.664.144-.048.4-.18.4-.348a.264.264,0,0,0-.12-.216l-.456-.336a.5.5,0,0,0-.252-.12q-.09,0-.216.144l-.276.324h-2.676l-1.044-.5a10.467,10.467,0,0,1,.144,2.58c0,.2-.024,1.1-.012,1.3,0,.084,0,.312.336.312a.46.46,0,0,0,.468-.528h.192A5.32,5.32,0,0,1-23.364.444l.024.072A4.929,4.929,0,0,0-19.884-2.7c.216-.036.372-.132.372-.24,0-.072-.036-.12-.132-.18l-.912-.5h1.284V-.36c0,.78.552.78,1.512.78,1.5,0,1.632-.12,1.872-.276A.842.842,0,0,0-15.54-.42Zm-2.352-3.492H-20.82v-2.58h2.928Zm1.176-5.136a.216.216,0,0,0-.108-.192L-18-10.008a2,2,0,0,1-.1.684,16.3,16.3,0,0,1-1.1,2.4l.084.084a14.194,14.194,0,0,0,1.86-2C-17.016-8.856-16.716-8.9-16.716-9.048Zm-3.072,1.272c0-.768-.852-1.32-1.824-1.8l-.048.072a3.594,3.594,0,0,1,.78,1.56c.1.372.192.732.588.732A.515.515,0,0,0-19.788-7.776ZM-21.948-6.6c0-.06-.048-.12-.12-.192l-.516-.456c-.1-.084-.156-.132-.228-.132s-.12.06-.192.156l-.348.456h-.324V-8.916c.216-.048.36-.1.876-.228a1.027,1.027,0,0,0,.36.06c.156,0,.252-.048.252-.18a.311.311,0,0,0-.132-.192l-.84-.72a.917.917,0,0,1-.4.384A17.708,17.708,0,0,1-26.58-8.556v.108a16.7,16.7,0,0,0,2.16-.288v1.968h-.252c-.168,0-1.02-.012-1.848-.084l.24.48a8.545,8.545,0,0,1,1.416-.108h.42a10.246,10.246,0,0,1-2.5,4.368l.048.084A6.254,6.254,0,0,0-24.42-4.656c-.012,1.308-.012,3.048-.06,4.152,0,.144-.06.864-.06,1.032,0,.288.18.288.276.288.6,0,.6-.384.6-.552,0-.78-.012-4.62-.012-5.484.144.1.348.252.588.9.216.564.24.648.54.648a.41.41,0,0,0,.42-.456c0-.66-.948-1.14-1.548-1.236V-6.48h1.548C-22.056-6.48-21.948-6.5-21.948-6.6ZM-3.276-2.4v-.048c-1.872-.288-4.356-2.676-4.212-6.18.852-.4.972-.432.972-.588,0-.072-.072-.144-.144-.2l-.684-.5a.266.266,0,0,0-.132-.06c-.048,0-.108.06-.168.12l-.5.492h-.264c-.36,0-1.092-.012-1.836-.072l.228.468A9.585,9.585,0,0,1-8.6-9.084h.7a14.235,14.235,0,0,0,.192,1.74l-.408-.1C-8.46-5.064-9.48-2.8-11.232-1.716l.048.084A6.527,6.527,0,0,0-7.452-6.048,7.951,7.951,0,0,0-4.68-1.524,2.206,2.206,0,0,1-3.276-2.4Zm-7.86-5.664c0-.636-.612-1.26-1.86-1.644l-.048.084a3.192,3.192,0,0,1,.852,1.5c.108.324.2.624.552.624A.518.518,0,0,0-11.136-8.064ZM-3.3-.84V-.912a14.69,14.69,0,0,1-4.8.588c-1.116,0-3.276-.06-3.276-1.608V-4.32c.348-.252.432-.312.432-.408,0-.072-.06-.12-.108-.168l-.552-.456c-.06-.048-.108-.1-.168-.1s-.108.06-.192.144l-.384.408c-.468,0-1.224-.024-1.968-.084l.24.48a7.405,7.405,0,0,1,1.416-.108h.48v3.516a4.341,4.341,0,0,1-2.04.528l.7,1.14a.252.252,0,0,0,.18.132c.12,0,.144-.12.2-.372.216-.216,1.332-1.3,1.584-1.548A3.776,3.776,0,0,0-8.5.42c.828.1,3.936.1,4.356.084A2.073,2.073,0,0,1-3.3-.84Zm.672,2.8A7.658,7.658,0,0,0-.492-3.4,7.721,7.721,0,0,0-2.628-8.76H-2.94A11.681,11.681,0,0,1-1.656-3.4,11.636,11.636,0,0,1-2.016-.54a10.965,10.965,0,0,1-.924,2.5Z" transform="translate(1224 6455.303)"/>
  </g>
</svg>
