<svg xmlns="http://www.w3.org/2000/svg" width="922" height="306.16" viewBox="0 0 922 306.16">
  <g id="tech_price1" transform="translate(-337.226 -10670.432)">
    <path id="パス_98" data-name="パス 98" d="M0,0H920V304.16H0Z" transform="translate(338.226 10671.432)" fill="#fff" stroke="#000" stroke-width="2"/>
    <path id="パス_52" data-name="パス 52" d="M20.5-16.69a.722.722,0,0,0-.251-.434l-1.05-.959c-.205-.183-.3-.228-.411-.228s-.228.068-.388.228l-.776.822H5.274L2.808-18.677a31.254,31.254,0,0,1,.205,4.612c0,4.064-.023,8.128-.137,12.215,0,.365-.091,2.192-.091,2.6,0,.3,0,.731.708.731,1.256,0,1.256-.868,1.256-1.393,0-.183-.023-.731-.023-.776-.068-1.849-.068-2.375-.114-7.124h13.38v5.8c0,.89-.137,1.1-.822,1.1a14.869,14.869,0,0,1-2.443-.205l-.023.16C16.622.183,16.759.731,16.827,1.484c2.945-.3,2.945-1.9,2.945-3.151,0-2.808-.183-7.329-.183-10.16,0-1.827.023-3.311.046-4.11C20.138-16.165,20.5-16.485,20.5-16.69ZM17.992-8.357H12.1v-8.357h5.891Zm-7.512,0H4.612v-8.357H10.48Z" transform="translate(1198.876 10770.089)" fill="#d4145a"/>
    <path id="パス_49" data-name="パス 49" d="M-25.464,1.956A10.35,10.35,0,0,1-26.4-.54,11.638,11.638,0,0,1-26.748-3.4,11.526,11.526,0,0,1-25.464-8.76h-.324A7.721,7.721,0,0,0-27.924-3.4a7.712,7.712,0,0,0,2.136,5.352ZM-14.34-.42c0-.1-.06-.156-.192-.252-.252-.2-.348-1.236-.372-1.608h-.108C-15.372-.4-15.384-.348-16.26-.348c-.948,0-1.032-.048-1.032-.408V-3.624h.6c.012.336.012.48.288.48a.6.6,0,0,0,.444-.144.372.372,0,0,0,.084-.276c0-.42-.048-2.28-.048-2.664.144-.048.4-.18.4-.348a.264.264,0,0,0-.12-.216l-.456-.336a.5.5,0,0,0-.252-.12q-.09,0-.216.144l-.276.324h-2.676l-1.044-.5a10.467,10.467,0,0,1,.144,2.58c0,.2-.024,1.1-.012,1.3,0,.084,0,.312.336.312a.46.46,0,0,0,.468-.528h.192A5.32,5.32,0,0,1-22.164.444l.024.072A4.929,4.929,0,0,0-18.684-2.7c.216-.036.372-.132.372-.24,0-.072-.036-.12-.132-.18l-.912-.5h1.284V-.36c0,.78.552.78,1.512.78,1.5,0,1.632-.12,1.872-.276A.842.842,0,0,0-14.34-.42Zm-2.352-3.492H-19.62v-2.58h2.928Zm1.176-5.136a.216.216,0,0,0-.108-.192l-1.176-.768a2,2,0,0,1-.1.684,16.3,16.3,0,0,1-1.1,2.4l.084.084a14.194,14.194,0,0,0,1.86-2C-15.816-8.856-15.516-8.9-15.516-9.048Zm-3.072,1.272c0-.768-.852-1.32-1.824-1.8l-.048.072a3.594,3.594,0,0,1,.78,1.56c.1.372.192.732.588.732A.515.515,0,0,0-18.588-7.776ZM-20.748-6.6c0-.06-.048-.12-.12-.192l-.516-.456c-.1-.084-.156-.132-.228-.132s-.12.06-.192.156l-.348.456h-.324V-8.916c.216-.048.36-.1.876-.228a1.027,1.027,0,0,0,.36.06c.156,0,.252-.048.252-.18a.311.311,0,0,0-.132-.192l-.84-.72a.917.917,0,0,1-.4.384A17.708,17.708,0,0,1-25.38-8.556v.108a16.7,16.7,0,0,0,2.16-.288v1.968h-.252c-.168,0-1.02-.012-1.848-.084l.24.48a8.545,8.545,0,0,1,1.416-.108h.42a10.246,10.246,0,0,1-2.5,4.368l.048.084A6.254,6.254,0,0,0-23.22-4.656c-.012,1.308-.012,3.048-.06,4.152,0,.144-.06.864-.06,1.032,0,.288.18.288.276.288.6,0,.6-.384.6-.552,0-.78-.012-4.62-.012-5.484.144.1.348.252.588.9.216.564.24.648.54.648a.41.41,0,0,0,.42-.456c0-.66-.948-1.14-1.548-1.236V-6.48h1.548C-20.856-6.48-20.748-6.5-20.748-6.6ZM-2.676-2.4v-.048c-1.872-.288-4.356-2.676-4.212-6.18.852-.4.972-.432.972-.588,0-.072-.072-.144-.144-.2l-.684-.5a.266.266,0,0,0-.132-.06c-.048,0-.108.06-.168.12l-.5.492h-.264c-.36,0-1.092-.012-1.836-.072l.228.468A9.585,9.585,0,0,1-8-9.084h.7a14.235,14.235,0,0,0,.192,1.74l-.408-.1C-7.86-5.064-8.88-2.8-10.632-1.716l.048.084A6.527,6.527,0,0,0-6.852-6.048,7.951,7.951,0,0,0-4.08-1.524,2.206,2.206,0,0,1-2.676-2.4Zm-7.86-5.664c0-.636-.612-1.26-1.86-1.644l-.048.084a3.192,3.192,0,0,1,.852,1.5c.108.324.2.624.552.624A.518.518,0,0,0-10.536-8.064ZM-2.7-.84V-.912a14.69,14.69,0,0,1-4.8.588c-1.116,0-3.276-.06-3.276-1.608V-4.32c.348-.252.432-.312.432-.408,0-.072-.06-.12-.108-.168L-11-5.352c-.06-.048-.108-.1-.168-.1s-.108.06-.192.144l-.384.408c-.468,0-1.224-.024-1.968-.084l.24.48a7.405,7.405,0,0,1,1.416-.108h.48v3.516a4.341,4.341,0,0,1-2.04.528l.7,1.14a.252.252,0,0,0,.18.132c.12,0,.144-.12.2-.372.216-.216,1.332-1.3,1.584-1.548A3.776,3.776,0,0,0-7.9.42c.828.1,3.936.1,4.356.084A2.073,2.073,0,0,1-2.7-.84Zm.072,2.8A7.658,7.658,0,0,0-.492-3.4,7.721,7.721,0,0,0-2.628-8.76H-2.94A11.681,11.681,0,0,1-1.656-3.4,11.636,11.636,0,0,1-2.016-.54a10.965,10.965,0,0,1-.924,2.5Z" transform="translate(1224.367 10742.211)" fill="#d4145a"/>
    <path id="パス_97" data-name="パス 97" d="M-141.336-10.66l-1.56-.572c-1.56,4.316-3.276,7.124-10.556,7.124h-7.176c2.6-5.72,9.464-11.6,11.232-13.052,4.68-4,7.7-6.864,7.7-12.116,0-5.616-3.952-9.672-10.4-9.672-7.488,0-11.18,5.512-11.18,9.308,0,1.924,1.144,3.64,2.964,3.64a2.886,2.886,0,0,0,2.808-2.912,4.48,4.48,0,0,0-1.092-2.6,2.873,2.873,0,0,1-.52-1.612c0-1.872,2.184-4.056,5.824-4.056,4.42,0,6.916,3.224,6.916,7.124,0,5.2-2.6,8.164-10.244,17-4.16,4.732-6.6,8.372-7.644,11.648V0h20.436Zm26,0-1.56-.572c-1.56,4.316-3.276,7.124-10.556,7.124h-7.176c2.6-5.72,9.464-11.6,11.232-13.052,4.68-4,7.7-6.864,7.7-12.116,0-5.616-3.952-9.672-10.4-9.672-7.488,0-11.18,5.512-11.18,9.308,0,1.924,1.144,3.64,2.964,3.64a2.886,2.886,0,0,0,2.808-2.912,4.48,4.48,0,0,0-1.092-2.6,2.873,2.873,0,0,1-.52-1.612c0-1.872,2.184-4.056,5.824-4.056,4.42,0,6.916,3.224,6.916,7.124,0,5.2-2.6,8.164-10.244,17-4.16,4.732-6.6,8.372-7.644,11.648V0h20.436Zm26.416-8.32c0-14.2-6.344-19.968-11.7-19.968-6.968,0-11.7,8.424-11.7,19.5,0,4.836.988,11.232,3.172,14.82,1.924,3.12,4.94,5.616,8.528,5.616C-94.276.988-88.92-6.24-88.92-18.98Zm-11.7-18.2c4.16,0,7.02,6.344,7.02,18.2A48.149,48.149,0,0,1-94.848-7.54c-.572,1.976-2.184,6.76-5.772,6.76-4.264,0-7.02-6.6-7.02-18.2a47.058,47.058,0,0,1,1.2-11.284C-105.924-32.084-104.312-37.18-100.62-37.18ZM-84.708,6.032c1.3-1.092,4.94-4.264,4.94-8.112a3.02,3.02,0,0,0-3.068-2.964A3.008,3.008,0,0,0-85.8-2.028c0,1.612.884,2.34,2.236,2.964.416.156.468.676.468.884,0,1.04-1.04,2.392-2.444,3.432ZM-53.3-18.98c0-14.2-6.344-19.968-11.7-19.968-6.968,0-11.7,8.424-11.7,19.5,0,4.836.988,11.232,3.172,14.82C-71.6-1.508-68.588.988-65,.988-58.656.988-53.3-6.24-53.3-18.98ZM-65-37.18c4.16,0,7.02,6.344,7.02,18.2A48.149,48.149,0,0,1-59.228-7.54C-59.8-5.564-61.412-.78-65-.78c-4.264,0-7.02-6.6-7.02-18.2a47.058,47.058,0,0,1,1.2-11.284C-70.3-32.084-68.692-37.18-65-37.18Zm37.7,18.2c0-14.2-6.344-19.968-11.7-19.968-6.968,0-11.7,8.424-11.7,19.5,0,4.836.988,11.232,3.172,14.82C-45.6-1.508-42.588.988-39,.988-32.656.988-27.3-6.24-27.3-18.98ZM-39-37.18c4.16,0,7.02,6.344,7.02,18.2A48.149,48.149,0,0,1-33.228-7.54C-33.8-5.564-35.412-.78-39-.78c-4.264,0-7.02-6.6-7.02-18.2a47.058,47.058,0,0,1,1.2-11.284C-44.3-32.084-42.692-37.18-39-37.18Zm37.7,18.2c0-14.2-6.344-19.968-11.7-19.968-6.968,0-11.7,8.424-11.7,19.5,0,4.836.988,11.232,3.172,14.82C-19.6-1.508-16.588.988-13,.988-6.656.988-1.3-6.24-1.3-18.98ZM-13-37.18c4.16,0,7.02,6.344,7.02,18.2A48.149,48.149,0,0,1-7.228-7.54C-7.8-5.564-9.412-.78-13-.78c-4.264,0-7.02-6.6-7.02-18.2a47.058,47.058,0,0,1,1.2-11.284C-18.3-32.084-16.692-37.18-13-37.18Z" transform="translate(1197 10772.304)" fill="#d4145a"/>
    <path id="パス_96" data-name="パス 96" d="M31.115-17.85C31.115-20.02,29.05-23,24.85-23a5.605,5.605,0,0,0-2.345.385c3.64,1.015,4.935,2.275,4.935,3.01,0,.42,0,.595-2.94,2.625v.14a12.74,12.74,0,0,1,3.185-.56,1.627,1.627,0,0,1,.7.1c1.19.56,1.33.595,1.785.595C31.115-16.7,31.115-17.57,31.115-17.85Zm-.35,9.905c0-4.305-3.675-6.055-6.93-6.055A20.676,20.676,0,0,0,13.79-10.85c-.1-1.995-.1-2.205-.1-2.9,0-.49.035-1.75.14-3.5.945-.35,1.96-.77,3.43-1.365,2.065-.84,2.275-.945,2.275-1.68,0-.525-.665-1.015-1.54-1.015a2.184,2.184,0,0,0-1.645.665,10.616,10.616,0,0,1-2.38,1.26,27.023,27.023,0,0,1,.7-4.165c.035-.14.56-1.715.56-1.96,0-1.155-2.38-2.065-3.5-2.065a3.5,3.5,0,0,0-1.995.6c1.715.945,1.89,1.015,2.135,1.61a15.654,15.654,0,0,1,.245,3.745c0,.6-.07,2.38-.07,3.01a12.364,12.364,0,0,1-3.955.91,4.182,4.182,0,0,1-2.87-.945,3.313,3.313,0,0,0,3.4,2.8,10.8,10.8,0,0,0,3.4-.7c-.035,1.82-.035,2.345.035,6.86-1.96,1.3-2.625,1.82-6.37,4.62-.56.42-.665.49-.91.49-.455,0-.665-.21-1.505-1.015A4.739,4.739,0,0,0,3.15-4.515a2.871,2.871,0,0,0,2.66,2.94c.42,0,.56-.21,1.855-2a20.294,20.294,0,0,1,3.22,3.15c.735,1.05,1.015,1.435,1.4,1.435.665,0,1.96-1.5,1.96-3.85,0-.98-.315-5.705-.385-6.755a17.082,17.082,0,0,1,9-2.94c1.225,0,5.11.49,5.11,4.48,0,3.5-2.94,4.83-5.565,4.83a6.271,6.271,0,0,1-5.39-2.625l-.175.035c.42,1.19,1.68,4.62,6.685,4.62C27.65-1.19,30.765-4.06,30.765-7.945Zm-18.62,3.29c0,1.96,0,2.17-.665,2.17a16.968,16.968,0,0,1-3.64-1.33A21.13,21.13,0,0,1,12.075-8.3c0,.525,0,1.12.035,1.96C12.11-6.055,12.145-4.865,12.145-4.655Zm48.615,2.8c0-1.12-1.435-1.47-2.38-1.47a9.565,9.565,0,0,0-1.33.14,36.8,36.8,0,0,1-7.525.805c-2.275,0-7.49,0-7.49-3.745,0-4.9,10.255-9.31,15.225-10.08,1.925-.315,2.17-.315,2.17-1.295a3.775,3.775,0,0,0-.945-1.89,4.267,4.267,0,0,0-2.31-1.12,3.523,3.523,0,0,1,.28,1.12c0,.49-.385.7-1.015.945a40.736,40.736,0,0,0-6.405,2.9,11.867,11.867,0,0,1-.77-4.97A13.187,13.187,0,0,1,49-25.34a3.156,3.156,0,0,0,.21-.77c0-1.05-2.485-2.45-4.025-2.45a5,5,0,0,0-1.995.49c.245.175.385.21,1.365.735A2.8,2.8,0,0,1,45.85-25.55c.175.735.21,1.33.315,6.79a7.334,7.334,0,0,0,1.4,4.06c-5.32,3.325-6.72,6.72-6.72,8.89a5.049,5.049,0,0,0,2.2,3.99C45.6-.035,51.31-.07,52.5-.07a39.083,39.083,0,0,0,6.93-.56C59.885-.77,60.76-1.05,60.76-1.855Zm40-22.015c0-2.66-4.41-2.8-5.04-2.8a10.322,10.322,0,0,0-2.17.245,12.281,12.281,0,0,1,4.13,1.89c.35.245,1.89,1.645,2.345,1.645C100.59-22.89,100.765-23.415,100.765-23.87Zm-3.22,2.66c0-2.03-3.745-2.87-5.6-2.87a7.22,7.22,0,0,0-1.4.14,12.279,12.279,0,0,1,4.375,2.625c.84.7,1.365,1.155,1.68,1.155A.984.984,0,0,0,97.545-21.21Zm1.715,9.87c0-4.725-6.16-8.785-9.73-8.925,4.935,3.045,6.545,6.51,6.545,6.86,0,1.19-3.85,1.505-4.375,1.54v.28a14.369,14.369,0,0,1,4.76,1.225,11.989,11.989,0,0,0,1.925.875C99.26-9.485,99.26-11.06,99.26-11.34ZM87.535-13.545c0-2.765-.175-6.055-4.27-6.055a8.231,8.231,0,0,0-1.89.21c.665-1.5,1.26-2.765,2.03-4.165a3.11,3.11,0,0,0,.525-1.435c0-.875-2.135-2.485-3.99-2.485a2.941,2.941,0,0,0-1.75.56c.49.175,2.555,1.085,2.555,2.485,0,1.26-1.05,4.095-1.575,5.5-1.155.28-6.335,1.715-7.175,1.715-.98,0-1.75-.63-2.38-1.82a2.871,2.871,0,0,0-.42,1.4,3.551,3.551,0,0,0,2.9,3.22,2.7,2.7,0,0,0,1.47-.63,29.441,29.441,0,0,1,4.935-2.24C75.285-9.52,73.4-6.825,71.12-3.57a3.067,3.067,0,0,0-.77,1.925C70.35-.84,70.77,0,71.47,0c.77,0,1.54-1.365,2-2.24A170.526,170.526,0,0,0,80.78-17.955a9.948,9.948,0,0,1,2.31-.35c2.345,0,2.345,2.45,2.345,3.815a23.109,23.109,0,0,1-2.45,10.465A1.588,1.588,0,0,1,81.62-3.01c-.63,0-1.3-.245-4.34-2.345l-.1.14c2.275,3.29,2.345,3.57,2.59,5.04C79.87.42,80.01.98,80.815.98c1.015,0,2.45-1.12,3.395-2.24C86.135-3.5,87.535-9.415,87.535-13.545ZM131.25-10.22c0-4.06-4.62-10.5-8.54-10.5a3.082,3.082,0,0,0-.595.07,12.48,12.48,0,0,1,6.16,8.4.881.881,0,0,1-.77.91c-.245.07-2.625.28-3.115.35v.21a8.407,8.407,0,0,1,3.71,1.4c1.365,1.3,1.5,1.435,1.925,1.435C130.585-7.945,131.25-8.995,131.25-10.22ZM116.9-15.435l-.28-.105c-1.505,2.38-4.1,6.09-5.67,8.435-.1.175-.455.63-.84.63-.945,0-3.045-2.555-3.045-6.86a30.306,30.306,0,0,1,.455-4.865,4.887,4.887,0,0,0,.14-1.155c0-2.275-2.625-3.815-4.41-3.92a12.064,12.064,0,0,1,1.225,2.87,53.927,53.927,0,0,1,.56,6.44C105.63-3.99,110.6-2.24,111.825-2.24a1.039,1.039,0,0,0,1.085-1.19c0-.28-.28-1.61-.28-1.89a2.049,2.049,0,0,1,.07-.455C112.77-6.16,116.41-14.385,116.9-15.435Zm38.255-.77a.83.83,0,0,0-.35-.525l-1.82-1.5a1.225,1.225,0,0,0-.735-.385c-.21,0-.315.14-.56.455L150.6-16.66h-1.47v-8.96h4.76c.245,0,.525-.07.525-.35a.776.776,0,0,0-.315-.56l-1.68-1.54c-.245-.21-.42-.35-.63-.35s-.35.14-.56.42l-1.12,1.54h-9.03c-.455,0-2.975-.035-5.39-.245l.7,1.4a24.775,24.775,0,0,1,4.585-.315v8.96h-1.05c-1.05,0-3.22-.07-5.39-.245l.7,1.4a24.924,24.924,0,0,1,4.13-.315h1.61c-.175,7.49-.63,12.005-5.775,17.15l.21.245c6.755-4.1,7.77-9.135,7.98-17.4h3.325v.91c0,.84-.035,7.7-.21,12.88,0,.42-.14,2.59-.14,3.08,0,.525.175,1.015,1.085,1.015.28,0,1.89,0,1.89-1.645,0-.525-.1-3.115-.1-3.71-.035-1.96-.035-2.38-.035-6.055,0-2.415,0-4.83-.07-6.475h5.5C154.91-15.82,155.155-15.96,155.155-16.205Zm-8.435-.455H143.4v-8.96h3.325Zm17.57-10.08a.678.678,0,0,0-.35-.56l-2.87-2.065a8.087,8.087,0,0,1-1.715,3.6,46.727,46.727,0,0,1-5.705,6.72l.21.315a26.087,26.087,0,0,0,9.03-7.525C163.52-26.18,164.29-26.215,164.29-26.74Zm.98,9.905a.705.705,0,0,0-.245-.56l-2.73-2.45c-.245.91-.42,1.575-2.31,3.885a43.684,43.684,0,0,1-8.26,8.05l.14.28A31.127,31.127,0,0,0,163.8-16.345C164.885-16.24,165.27-16.485,165.27-16.835Zm1.75,9.625a.843.843,0,0,0-.245-.63l-2.555-2.625c-1.26,3.64-8.785,9.59-13.79,12.285l.105.315c7.1-1.96,10.29-4.515,14.945-8.96.385.035.6.07.84.07C166.67-6.755,167.02-6.86,167.02-7.21Zm25.34-17.71c0-1.89-2.1-3.01-4.69-3.15l-.035.21a7.666,7.666,0,0,1,1.785,2.52c.525,1.19.805,1.82,1.68,1.82A1.273,1.273,0,0,0,192.36-24.92ZM198.87.735a2.059,2.059,0,0,0-.525-.98c-.6-.63-.735-.735-.735-1.645,0-.77.21-4.585.21-5.46l-.21-.035c-.245.735-.98,2.625-1.645,4.025-.385.77-.7,1.33-1.295,1.33-1.47,0-3.64-2.1-5.145-4.48a35.471,35.471,0,0,0,4.165-8.26c1.05-.21,1.505-.385,1.505-.805,0-.245-.175-.42-.49-.595l-3.57-1.96a3.735,3.735,0,0,1,.14,1.085,19.365,19.365,0,0,1-2.975,8.26c-.735-1.645-1.925-4.41-2.59-12.6h12.215c.28,0,.525-.105.525-.35a.919.919,0,0,0-.35-.56l-2.17-1.855c-.245-.21-.42-.35-.63-.35-.175,0-.315.105-.525.35l-1.645,1.925h-7.455c-.14-2.1-.175-3.5-.175-4.76.91-.35,1.155-.63,1.155-1.015,0-.315-.385-.455-.665-.525l-3.745-.945a9.656,9.656,0,0,1,.805,3.64c.035.49.21,3.045.245,3.6h-9.31l-3.5-1.925a44.212,44.212,0,0,1,1.015,9.765c0,7.665-1.47,13.265-3.6,16.24l.21.14c5.6-4.48,5.775-12.74,5.845-16.485h4.795c.035,1.435.07,3.535-.1,6.055-.21,2.625-.385,3.255-1.54,3.255-.665,0-2.45-.21-3.185-.315v.245a9.064,9.064,0,0,1,1.68,1.365A4.432,4.432,0,0,1,176.61-1.75c3.885-.77,4.165-3.955,4.34-5.775.1-.875.175-5.145.28-6.125.77-.49.98-.735.98-.98a.817.817,0,0,0-.35-.56l-1.365-1.015a1.385,1.385,0,0,0-.77-.385c-.175,0-.35.105-.6.42l-.63.84h-4.515c.035-1.75.035-1.855-.175-6.055h9.555a57.112,57.112,0,0,0,1.155,8.015,25.984,25.984,0,0,0,2.31,6.79,23.183,23.183,0,0,1-11.06,8.225l.035.245a19.589,19.589,0,0,0,12.25-6.44c3.43,4.83,7.6,6.335,9.03,6.335C198.1,1.785,198.87,1.3,198.87.735Zm-166,40.415a22.98,22.98,0,0,1-6.65-16.45,22.98,22.98,0,0,1,6.65-16.45l-.315-.49a21.74,21.74,0,0,0-8.3,16.94,21.74,21.74,0,0,0,8.3,16.94ZM67.41,25.225a.779.779,0,0,0-.35-.595l-1.75-1.61a1.027,1.027,0,0,0-.665-.385c-.21,0-.385.175-.56.455l-.98,1.61h-.6c0-.315-.07-3.955-.07-4.27.98-.63,1.19-.84,1.19-1.085,0-.21-.1-.385-.385-.595l-1.12-.91c-.35-.28-.525-.385-.7-.385-.21,0-.35.14-.7.49l-.805.875H56.21c1.365-1.155,1.75-1.54,5.18-4.9,1.05-.21,1.715-.455,1.715-.91a.732.732,0,0,0-.315-.595L61.32,11.19a1.213,1.213,0,0,0-.665-.385c-.175,0-.35.1-.63.42l-.735.805H55.4c.105-.21.175-.315.385-.7.315-.07,1.155-.245,1.155-.735,0-.245-.175-.385-.385-.49l-2.8-1.4c-.245,3.325-3.115,8.4-4.2,9.9l.1.105a17.967,17.967,0,0,0,5.25-5.845H59.08a48.476,48.476,0,0,1-3.43,5.95c-1.82-.035-2.87-.1-4.515-.245l.7,1.4a20.234,20.234,0,0,1,3.325-.315V24.7c-1.89-.07-2.87-.07-5.04-.245l.7,1.4a22.25,22.25,0,0,1,4.34-.315v5.11c-.98,0-3.325-.035-5.565-.21l.7,1.4a22.141,22.141,0,0,1,4.13-.35h.77c0,1.47.07,4.235-.1,5.53-.035.28-.1.49-.595.49a31.069,31.069,0,0,1-3.885-.35v.21c2.66,1.435,3.045,2.03,3.29,3.5,3.6-.805,3.64-2.555,3.64-4.235,0-.7-.07-4.3-.07-5.145h2.695c0,1.365,0,1.96,1.015,1.96.315,0,1.645-.14,1.645-1.33,0-.945-.245-5.53-.28-6.58H66.85C67.27,25.54,67.41,25.4,67.41,25.225ZM60.165,24.7h-2.8V19.66h2.8Zm0,5.95H57.47l-.07-5.11h2.765Zm-10.43-5.915c0-.245-.175-.455-.455-.735l-.91-.91c-.35-.35-.56-.455-.77-.455-.175,0-.35.14-.665.49L46.1,24h-5.81l-3.4-1.54c.28,1.61.28,1.75.28,5.67,0,2.59,0,8.365-.175,10.6,0,.21-.07.56-.07.805a.736.736,0,0,0,.77.84,1.736,1.736,0,0,0,1.855-1.61c0-.56-.1-5.285-.1-6.3h6.86v2.275c0,2.555,0,2.695-.91,2.695a24.93,24.93,0,0,1-2.765-.21V37.4c.56.315,2.555,1.505,2.9,3.22,3.15-.525,3.15-2.73,3.15-3.5,0-3.255-.035-7.98-.07-11.375C49,25.54,49.735,25.12,49.735,24.735Zm-3.43,3.045h-6.86V24.84h6.86Zm0,3.85h-6.86V28.62h6.86ZM51.17,20.885a.83.83,0,0,0-.35-.525L49.14,19.1c-.315-.245-.49-.385-.7-.385-.175,0-.315.175-.525.455l-.945,1.26H44.275V17.245H48.65c.315,0,.525-.14.525-.385a.792.792,0,0,0-.35-.525l-1.4-1.015c-.315-.21-.49-.35-.7-.35-.175,0-.315.14-.525.455l-.63.98H44.275V13.64H49.7c.21,0,.525-.07.525-.315a.688.688,0,0,0-.35-.6L48.4,11.645c-.42-.315-.595-.385-.735-.385-.175,0-.315.1-.56.455L46.34,12.8H44.275V11.4c.63-.49.945-.735.945-1.05a.59.59,0,0,0-.49-.49L41.16,8.81A8.932,8.932,0,0,1,42,12.8H40.915c-1.015,0-3.185-.035-5.355-.21l.7,1.365a24.3,24.3,0,0,1,4.1-.315H42V16.4c-1.225,0-3.325-.07-5.46-.245l.7,1.4a23.544,23.544,0,0,1,4.13-.315H42V20.43H40.285c-.49,0-2.975-.035-5.355-.245l.7,1.4a24.3,24.3,0,0,1,4.095-.315h10.92C51,21.27,51.17,21.165,51.17,20.885ZM73.115,10.84l-2.87-1.26c.35,1.925.525,4.585.525,10.675,0,9.03-.07,13.86-2.975,19.565l.14.07c4.375-4.27,4.725-9.555,4.935-13.055h3.64c0,1.33-.035,7.7-.035,9.17,0,1.05-.21,1.155-1.645,1.155-.77,0-1.435-.07-2.135-.1v.14a4.286,4.286,0,0,1,2.1,3.115,7.285,7.285,0,0,0,2.9-1.225c1.085-.875,1.085-1.295,1.085-7.035,0-2.765-.105-16.38-.105-19.46.525-.525.91-.84.91-1.085,0-.14-.245-.385-.385-.49l-1.155-.84c-.245-.175-.42-.315-.6-.315s-.35.14-.56.385l-.56.6Zm3.4.84V18.4H72.975V11.68Zm0,7.56v6.755H72.9c.07-1.715.105-5,.07-6.755Zm1.575,21.175c3.675-2.31,5.075-5.39,5.705-9.7.28-1.925.28-2.905.35-11.725.49-.035.945-.035,2-.14,0,1.61-.07,6.685-.07,9.8,0,2.205-.07,8.33-.175,10.22,0,.175-.035.42-.035.6,0,.735.35,1.05,1.085,1.05a1.581,1.581,0,0,0,1.26-.455,1.441,1.441,0,0,0,.42-1.19c0-.245-.175-6.37-.28-11.13,0-.35-.07-7.7-.07-9.135.455-.07,1.225-.175,1.645-.245-.385,9.45,2.625,17.78,7.7,21.56a4.931,4.931,0,0,1,3.5-1.995v-.14c-3.57-1.75-7.42-5.32-9.415-11.76a43.486,43.486,0,0,0,5.81-2.765c.49.035,1.26.07,1.26-.385a.86.86,0,0,0-.35-.525L96.005,20.01a18.129,18.129,0,0,1-4.445,5.53,24.955,24.955,0,0,1-1.085-7.28c1.015-.21,1.89-.385,4.97-.98.245.035.805.07.98.07.42,0,.7-.175.7-.42a.732.732,0,0,0-.245-.455L94.36,14.3c-1.33,1.4-6.475,3.43-10.22,4.2,0-.805.035-4.725.035-5.635,4.725-.455,5.32-.56,10.71-1.435a3.732,3.732,0,0,0,.805.14c.21,0,.49-.07.49-.385a.844.844,0,0,0-.245-.6L93.8,8.32c-2.835,2.415-8.855,3.92-9.135,3.955l-3.325-1.26a10.379,10.379,0,0,1,.385,1.575c.245,1.715.245,5.915.245,7.875,0,12.355-.49,15.225-4.025,19.845Zm41.44-17.85a23.619,23.619,0,0,1,3.045-.28,34.884,34.884,0,0,1-7.14,13.055l.07.21a22.3,22.3,0,0,0,7.315-8.12c-.035,7.21-.035,7.98-.105,9.52-.035.35-.175,1.995-.175,2.38,0,.945.455,1.12.91,1.12,1.82,0,1.82-1.33,1.82-1.96,0-.315-.28-7.42-.315-8.855-.1-2.765-.07-4.97-.07-6.615.49,4.1,2.695,10.325,5.635,13.615a4.912,4.912,0,0,1,3.64-1.61V34.71a18.614,18.614,0,0,1-8.995-12.46h6.475c.28,0,.525-.1.525-.35s-.175-.385-.35-.56L130.1,19.835a1.154,1.154,0,0,0-.63-.35c-.21,0-.35.175-.49.455l-.805,1.47h-3.29c.035-.49.07-2.87.07-3.185.49-.245,1.085-.63,1.085-1.05,0-.28-.245-.42-.6-.525l-3.15-.84c.385,1.26.385,1.715.56,5.6-1.855-.035-3.29-.175-4.025-.21Zm-11.235,0a20.429,20.429,0,0,1,2.8-.28,39.7,39.7,0,0,1-5.985,13.16l.21.21a23.6,23.6,0,0,0,6.195-8.47c0,1.925,0,3.6-.105,7.07-.035.77-.245,4.48-.245,5.32,0,1.05.56,1.05.8,1.05,1.82,0,1.82-1.225,1.82-1.925,0-1.925-.35-11.445-.35-13.615A8.2,8.2,0,0,1,115.29,28.2c.56,1.61.735,2.135,1.645,2.135a1.437,1.437,0,0,0,1.33-1.575c0-2.135-3.465-3.57-4.83-3.955,0-1.505.035-2.065.035-2.555h3.955c.385,0,.525-.14.525-.35s-.175-.385-.35-.56l-1.155-.98a1.338,1.338,0,0,0-.665-.385c-.175,0-.315.14-.525.42l-.735,1.015h-1.05c.035-1.47.07-2.31.1-3.115.77-.455,1.085-.77,1.085-1.085s-.175-.42-.49-.49l-3.325-.84c.315,1.05.525,1.68.6,5.5-1.68-.035-3.185-.14-3.815-.21ZM118.3,13.6c0-.35.035-1.96,0-2.345.84-.455,1.05-.665,1.05-.98s-.315-.42-.525-.49l-3.57-.945a11.89,11.89,0,0,1,.63,4.76h-8.68l-3.5-1.3a43.8,43.8,0,0,1,.525,7.49c0,12.145-1.61,16.31-3.36,19.18l.21.175c4.2-4.165,5.285-9.38,5.495-16.135.035-1.225.105-7.21.105-8.575h23.835c.245,0,.525-.035.525-.385,0-.21-.14-.35-.315-.525L128.59,11.61c-.245-.21-.42-.385-.665-.385-.21,0-.35.175-.525.455L126.175,13.6Zm32.1-2.135c0-.245-.175-.385-.35-.525l-1.47-1.26c-.35-.28-.455-.385-.665-.385-.14,0-.21.14-.525.455l-1.155,1.26H140.1c-1.05,0-3.185-.07-5.355-.245l.7,1.4a24.019,24.019,0,0,1,4.34-.315V16.93h-1.26l-2.8-1.54c.21,2.17.245,4.375.245,6.58,0,1.3-.105,11.235-.245,14.98,0,.245-.14,1.435-.14,1.715a.939.939,0,0,0,.98,1.05c1.54,0,1.68-1.54,1.575-2.52h8.435c-.07.7-.14,1.855.8,1.855a1.62,1.62,0,0,0,1.68-1.82c0-.315-.07-1.89-.07-2.24-.07-1.96-.07-3.78-.07-5.705,0-1.575.1-9.275.07-11.025a4.769,4.769,0,0,1,.6-.6c.175-.175.385-.35.385-.56,0-.14-.105-.245-.385-.455l-1.295-.91c-.28-.21-.385-.28-.49-.28-.14,0-.21.1-.42.315L146.3,16.93h-1.645V11.855h5.215C150.08,11.855,150.4,11.82,150.4,11.47Zm-3.78,19.7h-8.54v-3.71c2.59-1.925,3.43-5.425,3.6-9.695h1.12v6.79c0,1.855,1.05,1.855,1.715,1.855a5.079,5.079,0,0,0,2.1-.21ZM142.8,16.93h-1.12V11.855h1.12Zm3.815,7.28c-.21-.175-.35-.28-.7-1.365h-.245c-.14,1.12-.14,1.435-.735,1.435-.21,0-.28,0-.28-.7V17.77h1.96Zm-6.825-6.44c0,3.955-.385,7.1-1.715,9.03V17.77Zm6.825,18.585h-8.54v-4.34h8.54Zm20.23-13.4a.66.66,0,0,0-.21-.525c-.14-.21-.42-.455-.525-.63a31.442,31.442,0,0,1-.7-4.235h-.245c-.21,1.12-.56,2.345-.91,3.535-.315,1.05-.63,1.12-1.68,1.12-.91,0-1.19-.07-1.19-.805,0-.77.14-4.76.175-5.39,1.19-.7,1.33-.77,1.33-1.155,0-.245-.14-.35-.315-.49L161.14,13.22c-.245-.175-.35-.28-.49-.28-.175,0-.28.07-.525.35l-.945,1.12h-2.135a28.98,28.98,0,0,0,.525-3.6c.175-.105.875-.49.875-.805,0-.28-.245-.455-.56-.56L154.63,8.39a17.826,17.826,0,0,1,.28,2.8,24.014,24.014,0,0,1-.245,3.22c-2.905-.035-4.41-.175-5.215-.245l.7,1.4a24.37,24.37,0,0,1,4.375-.315c-.56,3.01-2.555,8.47-5.32,11.27l.21.21c4.83-3.185,6.58-7.665,7.455-11.48h2.45v.385c0,.945-.28,5.5-.28,6.545,0,2.275,1.435,2.38,4.025,2.38C163.835,24.56,166.845,24.49,166.845,22.95Zm-.77,7.28c0-.175-.1-.315-.385-.6l-1.505-1.365a1.027,1.027,0,0,0-.665-.385c-.175,0-.315.175-.56.455l-1.155,1.4H158.27c0-.455.035-2.835.035-3.36.84-.56.91-.77.91-.945,0-.28-.28-.525-.735-.63l-2.975-.735a18.667,18.667,0,0,1,.49,5.67h-.665c-1.05,0-3.22-.07-5.39-.21l.7,1.365a24.924,24.924,0,0,1,4.13-.315h1.225c-.035.7-.035,4.06-.07,4.83,0,.7-.175,3.675-.175,4.34,0,.42,0,1.12.945,1.12,1.26,0,1.785-.98,1.785-2.1,0-.14-.21-4.1-.21-4.865-.035-1.575-.035-2.59-.035-3.325h7.28C165.725,30.58,166.075,30.545,166.075,30.23ZM186.55,24.7a2.8,2.8,0,1,0-2.8,2.8A2.786,2.786,0,0,0,186.55,24.7Zm39.1-.245c0-.175-.21-.42-.42-.595L224,22.845a1.015,1.015,0,0,0-.525-.315c-.14,0-.28.14-.49.385l-.875.91H211.855L208.88,22.39a6.5,6.5,0,0,1,.175,1.505c.035,1.5.07,4.41.07,6.02-.035,4.2-.035,5.285-.14,7.315,0,.35-.14,1.96-.14,2.345,0,.35,0,1.05,1.155,1.05,1.12,0,1.645-.77,1.645-1.96,0-.945-.105-3.465-.14-4.865h10.78c.035.385-.035,2.38-.035,2.625,0,.735-.35.875-1.61.875a20.25,20.25,0,0,1-2.695-.175l-.07.245a6.337,6.337,0,0,1,3.15,3.325c2.555-.63,3.71-1.995,3.71-3.92,0-.6-.175-5.425-.175-6.44V25.75C225.365,25.085,225.645,24.77,225.645,24.455ZM222.11,14.48h-4.445l-2.8-1.3a31.729,31.729,0,0,1,.385,4.83V19.38h-4.34V11.015h11.2Zm9.87,6.755a1.069,1.069,0,0,0-.28-.7l-1.925-2c-.14-.14-.385-.385-.56-.385a1.405,1.405,0,0,0-.665.315l-1.295.91h-2.8V12.17c.42-.28,1.155-.805,1.155-1.12a.9.9,0,0,0-.385-.63l-1.3-1.085c-.175-.14-.42-.35-.595-.35-.14,0-.35.21-.56.42l-.735.77H211.12L208.18,8.74a81.047,81.047,0,0,1,.385,10.64H205.52a14.484,14.484,0,0,0-.28-1.54h-.245a9,9,0,0,1-2.205,3.92c-1.575,1.5-1.75,1.68-1.75,2.24a1.407,1.407,0,0,0,1.54,1.3c1.61,0,3.045-2.415,3.01-5.075h21.98a35.261,35.261,0,0,1-1.19,3.675l.21.1c1.05-.7,2.135-1.4,3.255-2.03C231.7,21.97,231.98,21.76,231.98,21.235Zm-9.87-1.855h-4.55V15.32h4.55Zm.175,8.96H211.47l-.035-3.675h10.85Zm0,4.62h-10.78l-.035-3.78h10.815ZM250.74,19.87a.661.661,0,0,0-.245-.455l-1.5-1.3a.962.962,0,0,0-.6-.315c-.245,0-.455.245-.525.315l-.91,1.05h-2.87c.14-5.355.14-5.95.21-7.945,1.085-.805,1.19-.91,1.19-1.155,0-.21-.14-.35-.49-.455L241.4,8.39a8.668,8.668,0,0,1,.455,2.52c.07,1.68.07,2.765.07,8.26h-2.31l-3.115-1.47c.21,1.47.245,4.55.245,5.04,0,7.14-.105,10.85-.21,13.615-.035.455-.28,2.765-.28,3.29a.9.9,0,0,0,1.015,1.015,1.732,1.732,0,0,0,1.75-2.03c0-.98-.035-5.705-.035-6.755h8.4v3.99c0,1.085-.245,1.225-1.4,1.225a21.328,21.328,0,0,1-3.185-.315v.245c1.4.77,3.15,1.785,3.255,3.6,1.5-.175,3.6-.98,3.6-3.045V27.815c0-3.6,0-4.97.07-6.545C249.865,21.06,250.74,20.15,250.74,19.87Zm-3.36,5.215h-8.4c0-.805.035-4.34.035-5.075h8.365Zm0,5.95h-8.4v-5.11h8.4Zm16.94-19.95c0-.315-.315-.42-.455-.455l-3.71-1.26a10.837,10.837,0,0,1,.63,3.885V35.06c0,1.68-.035,1.785-1.68,1.785-.91,0-3.01-.14-3.85-.245v.28c1.855.805,3.57,1.54,3.71,3.64,4.34-.63,4.34-3.15,4.34-4.445,0-.21-.035-.63-.07-1.3-.07-.7-.105-11.34-.105-17.64,0-3.115,0-3.64.07-4.9C264.18,11.47,264.32,11.365,264.32,11.085ZM251.755,12.87c0-.245-.175-.42-.49-.63l-2.555-1.61A25.681,25.681,0,0,1,245,17.7l.245.14a36.858,36.858,0,0,0,5.005-4.305C251.615,13.29,251.755,13.255,251.755,12.87Zm5.635.315c0-.28-.175-.385-.385-.455l-3.78-1.19c.665,1.575.8,2.135.8,6.965,0,4.13-.14,9.345-.245,12.53,0,.315-.1,1.68-.1,1.995a.845.845,0,0,0,.91.91,1.744,1.744,0,0,0,1.89-1.82c0-.28-.14-8.715-.14-10.36,0-.385,0-2.8.035-7.525C257.285,13.57,257.39,13.5,257.39,13.185Zm-17.255,2.73c0-1.085-.84-3.01-5.495-4.375v.28a10.076,10.076,0,0,1,2.59,3.955c.6,1.33,1.085,1.575,1.61,1.575A1.347,1.347,0,0,0,240.135,15.915ZM290.92,23.65c0-3.5-.455-10.36-4.83-10.36-4.13,0-7.14,8.96-7.945,11.83-.035.175-.1.35-.315.35-.35,0-.35-2-.35-2.52a25.134,25.134,0,0,1,1.96-9.38,4.049,4.049,0,0,0,.42-1.54c0-1.225-1.47-2.52-3.08-2.52a6.74,6.74,0,0,0-1.575.245,3.65,3.65,0,0,1,2.03,3.185,8.543,8.543,0,0,1-.14,1.33,74.421,74.421,0,0,0-1.225,10.115c0,3.15.63,7.245,2.7,7.245.7,0,.84-.595.84-.98,0-.35-.245-2.135-.245-2.52,0-4.2,2.31-9.555,3.71-11.585.315-.455,1.3-1.89,2.7-1.89,2.625,0,2.765,6.37,2.765,8.68,0,6.265-1.785,13.02-7.84,17.4l.07.175c1.61-.35,3.815-2.03,4.97-3.08C289.45,34.255,290.92,30.09,290.92,23.65Zm39.83.875c0-7.035-6.16-10.99-12.95-10.99-8.54,0-14.91,6.2-14.91,13.72a6.5,6.5,0,0,0,.98,3.57c.245.315,1.645,1.61,1.89,1.96,1.05,1.47,1.365,1.925,2.17,1.925a2.028,2.028,0,0,0,1.12-.385c2.38-1.96,5.67-9,7.91-13.79,1.085-2.275,1.19-2.52,1.19-2.905,0-.49-.525-1.785-2.415-2.8a2.761,2.761,0,0,1,1.435-.21c6.09,0,10.85,3.5,10.85,9.415,0,5.32-3.5,10.255-10.99,12.915l.035.28C325.08,36.53,330.75,31.315,330.75,24.525ZM315.385,17.28c0,1.82-1.155,4.1-4.655,11.13-.6,1.19-1.96,3.675-2.9,3.675-1.365,0-2.73-2.625-2.73-5,0-6.44,5.355-11.41,9.2-12.04A3.059,3.059,0,0,1,315.385,17.28Zm45.36-6.09c0-.21-.21-.385-.385-.49l-1.47-1.085a1.053,1.053,0,0,0-.49-.245c-.14,0-.245.1-.42.315l-.805.875H351.26l-2.87-1.47a23.2,23.2,0,0,1,.35,5.11c0,1.61-.07,5.005-.14,6.58,0,.1-.07.6-.07.77,0,.245,0,.805.945.805,1.645,0,1.61-1.12,1.61-1.82h6.23c-.07.875-.105,1.575.8,1.575.385,0,1.68-.21,1.68-1.365,0-.455-.07-2.66-.1-3.15-.035-1.225-.07-2.415-.07-5.39C360.185,11.89,360.745,11.54,360.745,11.19Zm-3.395,3.745h-6.3V11.4h6.3Zm0,4.76h-6.3v-3.92h6.3Zm8.82,4.165a.753.753,0,0,0-.35-.525l-2.205-1.75c-.315-.245-.455-.35-.63-.35s-.385.245-.525.42L361.2,23.4H348.285c-1.015,0-3.185-.07-5.39-.245l.7,1.4a24.924,24.924,0,0,1,4.13-.315h.84a30.034,30.034,0,0,1-6.615,9.38l.175.175a19.794,19.794,0,0,0,6.58-5.46h2.275c-1.12,2.275-5.425,8.715-10.01,11.27l.105.21c5.39-1.645,9.9-6.265,12.7-11.48h2.1a26.955,26.955,0,0,1-8.715,12.04l.14.175c4.55-1.47,9.135-6.09,11.305-12.215h2.275a28.079,28.079,0,0,1-.8,6.195c-.7,2.73-1.225,2.975-2.03,2.975a15.854,15.854,0,0,1-3.395-.49l-.035.28c1.855,1.505,2.275,2.555,2.38,3.57,2.59-.1,5.53-.735,6.265-11.725.49-.21,1.295-.525,1.295-1.05a.632.632,0,0,0-.35-.49l-1.75-1.3c-.175-.14-.42-.35-.6-.35-.14,0-.315.175-.455.385l-.875,1.155H349.37a17.165,17.165,0,0,0,1.995-3.255h14.28C365.855,24.245,366.17,24.21,366.17,23.86Zm-19.81-5.53c0-.14-.07-.28-.35-.525l-1.54-1.435a1.106,1.106,0,0,0-.665-.385c-.175,0-.385.28-.49.455l-.98,1.435h-1.05c0-.91,0-5.355.035-6.335.525-.21,1.19-.49,1.19-.945,0-.385-.35-.455-.77-.595l-3.745-1.12a11.273,11.273,0,0,1,.49,1.54,71.167,71.167,0,0,1,.385,7.455c-2.24-.07-3.325-.14-4.62-.245l.665,1.4a25.1,25.1,0,0,1,3.955-.315c0,3.045.035,7.805.035,11.025-3.08,1.085-3.43,1.225-5.425,1.225l1.645,3.15c.105.175.35.6.63.6.35,0,.525-.28.735-1.155a89.135,89.135,0,0,0,9.45-6.475l-.14-.245c-.77.385-1.435.7-4.515,1.96,0-3.36-.035-6.825,0-10.08h4.55C346.045,18.715,346.36,18.68,346.36,18.33Zm46.725,10.36c0-.175-.315-.42-.455-.525l-1.47-1.19a.988.988,0,0,0-.6-.315.729.729,0,0,0-.525.35l-.91,1.12H377.2l-3.115-1.645a34.92,34.92,0,0,1,.21,3.955c0,.6.035,3.85-.14,7.035,0,.28-.175,1.75-.175,2.065a.734.734,0,0,0,.8.77c2.135,0,2.065-1.26,2.03-1.89h12.565c-.035.455-.07.735-.07.875,0,.525.35.7.8.7.6,0,1.925-.42,1.925-1.365,0-.6-.175-3.43-.175-4.06-.035-1.505-.035-3.325.035-4.76C392.56,29.39,393.085,29.04,393.085,28.69Zm-3.71,8.89h-12.6V28.97h12.6ZM399.84,21.55v-.315c-7.28-1.19-13.37-6.125-15.785-9.94.7-.315.77-.56.77-.84,0-.21-.21-.385-.49-.525l-3.01-1.33c-.28,1.925-1.855,4.095-2.94,5.565a52.913,52.913,0,0,1-11.8,11.76l.14.21c3.465-1.225,9.94-4.865,16.695-14.735,2.135,4.9,7.315,10.185,13.125,12.845A6.068,6.068,0,0,1,399.84,21.55Zm-8.925,1.61a.753.753,0,0,0-.35-.525L388.71,21.2c-.245-.175-.455-.35-.63-.35-.21,0-.385.175-.56.42L386.365,22.7H380.45c-1.05,0-3.22-.07-5.39-.245l.7,1.4a23.2,23.2,0,0,1,4.1-.315h10.5C390.6,23.545,390.915,23.51,390.915,23.16Zm18.83,1.54A21.74,21.74,0,0,0,401.45,7.76l-.315.49a22.98,22.98,0,0,1,6.65,16.45,22.98,22.98,0,0,1-6.65,16.45l.315.49A21.74,21.74,0,0,0,409.745,24.7Z" transform="translate(375 10741.304)"/>
    <path id="パス_85" data-name="パス 85" d="M20.5-16.69a.722.722,0,0,0-.251-.434l-1.05-.959c-.205-.183-.3-.228-.411-.228s-.228.068-.388.228l-.776.822H5.274L2.808-18.677a31.254,31.254,0,0,1,.205,4.612c0,4.064-.023,8.128-.137,12.215,0,.365-.091,2.192-.091,2.6,0,.3,0,.731.708.731,1.256,0,1.256-.868,1.256-1.393,0-.183-.023-.731-.023-.776-.068-1.849-.068-2.375-.114-7.124h13.38v5.8c0,.89-.137,1.1-.822,1.1a14.869,14.869,0,0,1-2.443-.205l-.023.16C16.622.183,16.759.731,16.827,1.484c2.945-.3,2.945-1.9,2.945-3.151,0-2.808-.183-7.329-.183-10.16,0-1.827.023-3.311.046-4.11C20.138-16.165,20.5-16.485,20.5-16.69ZM17.992-8.357H12.1v-8.357h5.891Zm-7.512,0H4.612v-8.357H10.48Z" transform="translate(1198.876 10920.089)" fill="#d4145a"/>
    <path id="パス_86" data-name="パス 86" d="M-25.464,1.956A10.35,10.35,0,0,1-26.4-.54,11.638,11.638,0,0,1-26.748-3.4,11.526,11.526,0,0,1-25.464-8.76h-.324A7.721,7.721,0,0,0-27.924-3.4a7.712,7.712,0,0,0,2.136,5.352ZM-14.34-.42c0-.1-.06-.156-.192-.252-.252-.2-.348-1.236-.372-1.608h-.108C-15.372-.4-15.384-.348-16.26-.348c-.948,0-1.032-.048-1.032-.408V-3.624h.6c.012.336.012.48.288.48a.6.6,0,0,0,.444-.144.372.372,0,0,0,.084-.276c0-.42-.048-2.28-.048-2.664.144-.048.4-.18.4-.348a.264.264,0,0,0-.12-.216l-.456-.336a.5.5,0,0,0-.252-.12q-.09,0-.216.144l-.276.324h-2.676l-1.044-.5a10.467,10.467,0,0,1,.144,2.58c0,.2-.024,1.1-.012,1.3,0,.084,0,.312.336.312a.46.46,0,0,0,.468-.528h.192A5.32,5.32,0,0,1-22.164.444l.024.072A4.929,4.929,0,0,0-18.684-2.7c.216-.036.372-.132.372-.24,0-.072-.036-.12-.132-.18l-.912-.5h1.284V-.36c0,.78.552.78,1.512.78,1.5,0,1.632-.12,1.872-.276A.842.842,0,0,0-14.34-.42Zm-2.352-3.492H-19.62v-2.58h2.928Zm1.176-5.136a.216.216,0,0,0-.108-.192l-1.176-.768a2,2,0,0,1-.1.684,16.3,16.3,0,0,1-1.1,2.4l.084.084a14.194,14.194,0,0,0,1.86-2C-15.816-8.856-15.516-8.9-15.516-9.048Zm-3.072,1.272c0-.768-.852-1.32-1.824-1.8l-.048.072a3.594,3.594,0,0,1,.78,1.56c.1.372.192.732.588.732A.515.515,0,0,0-18.588-7.776ZM-20.748-6.6c0-.06-.048-.12-.12-.192l-.516-.456c-.1-.084-.156-.132-.228-.132s-.12.06-.192.156l-.348.456h-.324V-8.916c.216-.048.36-.1.876-.228a1.027,1.027,0,0,0,.36.06c.156,0,.252-.048.252-.18a.311.311,0,0,0-.132-.192l-.84-.72a.917.917,0,0,1-.4.384A17.708,17.708,0,0,1-25.38-8.556v.108a16.7,16.7,0,0,0,2.16-.288v1.968h-.252c-.168,0-1.02-.012-1.848-.084l.24.48a8.545,8.545,0,0,1,1.416-.108h.42a10.246,10.246,0,0,1-2.5,4.368l.048.084A6.254,6.254,0,0,0-23.22-4.656c-.012,1.308-.012,3.048-.06,4.152,0,.144-.06.864-.06,1.032,0,.288.18.288.276.288.6,0,.6-.384.6-.552,0-.78-.012-4.62-.012-5.484.144.1.348.252.588.9.216.564.24.648.54.648a.41.41,0,0,0,.42-.456c0-.66-.948-1.14-1.548-1.236V-6.48h1.548C-20.856-6.48-20.748-6.5-20.748-6.6ZM-2.676-2.4v-.048c-1.872-.288-4.356-2.676-4.212-6.18.852-.4.972-.432.972-.588,0-.072-.072-.144-.144-.2l-.684-.5a.266.266,0,0,0-.132-.06c-.048,0-.108.06-.168.12l-.5.492h-.264c-.36,0-1.092-.012-1.836-.072l.228.468A9.585,9.585,0,0,1-8-9.084h.7a14.235,14.235,0,0,0,.192,1.74l-.408-.1C-7.86-5.064-8.88-2.8-10.632-1.716l.048.084A6.527,6.527,0,0,0-6.852-6.048,7.951,7.951,0,0,0-4.08-1.524,2.206,2.206,0,0,1-2.676-2.4Zm-7.86-5.664c0-.636-.612-1.26-1.86-1.644l-.048.084a3.192,3.192,0,0,1,.852,1.5c.108.324.2.624.552.624A.518.518,0,0,0-10.536-8.064ZM-2.7-.84V-.912a14.69,14.69,0,0,1-4.8.588c-1.116,0-3.276-.06-3.276-1.608V-4.32c.348-.252.432-.312.432-.408,0-.072-.06-.12-.108-.168L-11-5.352c-.06-.048-.108-.1-.168-.1s-.108.06-.192.144l-.384.408c-.468,0-1.224-.024-1.968-.084l.24.48a7.405,7.405,0,0,1,1.416-.108h.48v3.516a4.341,4.341,0,0,1-2.04.528l.7,1.14a.252.252,0,0,0,.18.132c.12,0,.144-.12.2-.372.216-.216,1.332-1.3,1.584-1.548A3.776,3.776,0,0,0-7.9.42c.828.1,3.936.1,4.356.084A2.073,2.073,0,0,1-2.7-.84Zm.072,2.8A7.658,7.658,0,0,0-.492-3.4,7.721,7.721,0,0,0-2.628-8.76H-2.94A11.681,11.681,0,0,1-1.656-3.4,11.636,11.636,0,0,1-2.016-.54a10.965,10.965,0,0,1-.924,2.5Z" transform="translate(1223.924 10892.211)" fill="#d4145a"/>
    <path id="パス_95" data-name="パス 95" d="M-159.484-17.888c.208-4.68.468-12.324,5.1-17.42a5.349,5.349,0,0,1,3.8-1.872c1.4,0,1.508.728,1.56,1.872.1,2.964,1.82,3.64,2.86,3.64a2.6,2.6,0,0,0,2.652-2.7c0-2.5-2.444-4.576-5.928-4.576-7.956,0-14.716,9.984-14.716,22,0,11.232,6.032,17.94,11.96,17.94,5.98,0,11.128-6.448,11.128-13.676,0-6.292-4.16-11.492-9.308-11.492a8.787,8.787,0,0,0-4.524,1.352A12.924,12.924,0,0,0-159.484-17.888Zm.052,3.12c2.444-5.616,5.772-7.072,7.748-7.072,5.356,0,5.928,7.28,5.928,9.62,0,8.58-3.9,11.44-6.656,11.44a5.146,5.146,0,0,1-4.212-2.808C-158.808-6.916-159.224-11.908-159.432-14.768Zm25.948-3.12c.208-4.68.468-12.324,5.1-17.42a5.349,5.349,0,0,1,3.8-1.872c1.4,0,1.508.728,1.56,1.872.1,2.964,1.82,3.64,2.86,3.64a2.6,2.6,0,0,0,2.652-2.7c0-2.5-2.444-4.576-5.928-4.576-7.956,0-14.716,9.984-14.716,22,0,11.232,6.032,17.94,11.96,17.94,5.98,0,11.128-6.448,11.128-13.676,0-6.292-4.16-11.492-9.308-11.492a8.787,8.787,0,0,0-4.524,1.352A12.924,12.924,0,0,0-133.484-17.888Zm.052,3.12c2.444-5.616,5.772-7.072,7.748-7.072,5.356,0,5.928,7.28,5.928,9.62,0,8.58-3.9,11.44-6.656,11.44a5.146,5.146,0,0,1-4.212-2.808C-132.808-6.916-133.224-11.908-133.432-14.768ZM-88.92-18.98c0-14.2-6.344-19.968-11.7-19.968-6.968,0-11.7,8.424-11.7,19.5,0,4.836.988,11.232,3.172,14.82,1.924,3.12,4.94,5.616,8.528,5.616C-94.276.988-88.92-6.24-88.92-18.98Zm-11.7-18.2c4.16,0,7.02,6.344,7.02,18.2A48.149,48.149,0,0,1-94.848-7.54c-.572,1.976-2.184,6.76-5.772,6.76-4.264,0-7.02-6.6-7.02-18.2a47.058,47.058,0,0,1,1.2-11.284C-105.924-32.084-104.312-37.18-100.62-37.18ZM-84.708,6.032c1.3-1.092,4.94-4.264,4.94-8.112a3.02,3.02,0,0,0-3.068-2.964A3.008,3.008,0,0,0-85.8-2.028c0,1.612.884,2.34,2.236,2.964.416.156.468.676.468.884,0,1.04-1.04,2.392-2.444,3.432ZM-53.3-18.98c0-14.2-6.344-19.968-11.7-19.968-6.968,0-11.7,8.424-11.7,19.5,0,4.836.988,11.232,3.172,14.82C-71.6-1.508-68.588.988-65,.988-58.656.988-53.3-6.24-53.3-18.98ZM-65-37.18c4.16,0,7.02,6.344,7.02,18.2A48.149,48.149,0,0,1-59.228-7.54C-59.8-5.564-61.412-.78-65-.78c-4.264,0-7.02-6.6-7.02-18.2a47.058,47.058,0,0,1,1.2-11.284C-70.3-32.084-68.692-37.18-65-37.18Zm37.7,18.2c0-14.2-6.344-19.968-11.7-19.968-6.968,0-11.7,8.424-11.7,19.5,0,4.836.988,11.232,3.172,14.82C-45.6-1.508-42.588.988-39,.988-32.656.988-27.3-6.24-27.3-18.98ZM-39-37.18c4.16,0,7.02,6.344,7.02,18.2A48.149,48.149,0,0,1-33.228-7.54C-33.8-5.564-35.412-.78-39-.78c-4.264,0-7.02-6.6-7.02-18.2a47.058,47.058,0,0,1,1.2-11.284C-44.3-32.084-42.692-37.18-39-37.18Zm37.7,18.2c0-14.2-6.344-19.968-11.7-19.968-6.968,0-11.7,8.424-11.7,19.5,0,4.836.988,11.232,3.172,14.82C-19.6-1.508-16.588.988-13,.988-6.656.988-1.3-6.24-1.3-18.98ZM-13-37.18c4.16,0,7.02,6.344,7.02,18.2A48.149,48.149,0,0,1-7.228-7.54C-7.8-5.564-9.412-.78-13-.78c-4.264,0-7.02-6.6-7.02-18.2a47.058,47.058,0,0,1,1.2-11.284C-18.3-32.084-16.692-37.18-13-37.18Z" transform="translate(1197 10922.304)" fill="#d4145a"/>
    <path id="パス_94" data-name="パス 94" d="M17.94-8.2c0-.8-1.68-1.04-1.8-1.04a8.623,8.623,0,0,0-.98.22c-.16.04-4.4.44-5.22.56a14.187,14.187,0,0,1,.34-2.36c.22-.38.34-.56.34-.74,0-.3-.82-.7-1.2-.88a32.683,32.683,0,0,1,5.26-.4c.4,0,.84,0,.84-.48a.646.646,0,0,0-.28-.52,3.685,3.685,0,0,0-1.4-.42c-.2,0-.28.04-.96.3a36.671,36.671,0,0,1-6.34.84,2.574,2.574,0,0,1-2-.74A2.16,2.16,0,0,0,6-11.78a1.738,1.738,0,0,0,.6-.12c.2-.06,1.02-.22,1.56-.32.38.24.58.52.58,2.22,0,.24-.04,1.44-.04,1.72L5.06-7.8c-.32.04-.88.12-1.18.12A2.3,2.3,0,0,1,1.94-8.7a2.547,2.547,0,0,0-.04.44c0,1.28,1.6,2.18,1.9,2.18a3.665,3.665,0,0,0,.88-.36,17.679,17.679,0,0,1,4-1.02c-.02,1.36-.04,2.28-.04,2.94,0,3.1.86,3.4,4.34,3.4a22.151,22.151,0,0,0,2.62-.12c.62-.12.8-.32.8-.66,0-.66-1.2-.88-1.62-.88a2.857,2.857,0,0,0-.94.18,9.424,9.424,0,0,1-2.42.26c-1.54,0-1.6-.72-1.6-2.06,0-1.6.02-1.94.08-3.22,2.36-.22,3.84-.22,4.08-.22a19.789,19.789,0,0,1,2.04.1c.88.1.98.12,1.18.12C17.78-7.62,17.94-7.98,17.94-8.2Zm17-3.54c0-.62-1.22-.92-1.6-.92-.18,0-1,.32-1.18.36a26.332,26.332,0,0,1-4.98.54,4.024,4.024,0,0,1-2.46-.7,1.985,1.985,0,0,0,1.84,1.96,1.169,1.169,0,0,0,.36-.04,19.326,19.326,0,0,1,3.58-.42c1.08-.06,2.64-.16,3.08-.2C34.58-11.22,34.94-11.26,34.94-11.74Zm2.74,7.88c0-.78-1.6-1.48-2.02-1.48a3.367,3.367,0,0,0-.84.22,21.972,21.972,0,0,1-3.6.34c-1.04.04-6.46.5-6.58.5a2.635,2.635,0,0,1-2.36-1.24A2.027,2.027,0,0,0,22.2-5a2.53,2.53,0,0,0,1.84,2.34,3.617,3.617,0,0,0,1.08-.28,36,36,0,0,1,7.48-.84,18.931,18.931,0,0,1,3.02.22c.52.08,1.52.26,1.56.26A.511.511,0,0,0,37.68-3.86Zm18.38-7.9a4.481,4.481,0,0,0-1.56-1.56,4.5,4.5,0,0,0-.84.48,15.189,15.189,0,0,1-3.28.46c-.38,0-.58-.02-.72-.02a7.045,7.045,0,0,1,.54-.74c.46-.4.5-.44.5-.66,0-.42-1.08-1.4-2.22-1.4a2.158,2.158,0,0,0-1,.24c.4.16,1.18.46,1.18,1.12,0,.78-2.4,4.9-4.92,7.34l.06.12a11.159,11.159,0,0,0,3.34-2.6,7.954,7.954,0,0,1,2.66,2.4c.36.4.58.58.78.6A21.889,21.889,0,0,1,43.7.04l.06.14c4.4-1.24,7.5-3.98,10.58-9.96.66-1.3.8-1.42,1.2-1.58C55.98-11.54,56.06-11.56,56.06-11.76Zm-2.38-.12a22.6,22.6,0,0,1-2.54,5.1c-.12-1.8-2.68-2.3-3.8-2.44a31.047,31.047,0,0,0,1.92-2.58,1.889,1.889,0,0,0,1.04.38C50.76-11.42,53.14-11.82,53.68-11.88ZM77.54-7.56c0-.78-2-1-2.12-1s-.7.16-.82.18c-.92.22-7.42.24-8.8.24-2.08,0-2.7,0-3.38-1.52a2.311,2.311,0,0,0-.24.96c0,.92,1.08,2.2,1.6,2.2.06,0,.7-.16.76-.18.9-.24,2.7-.36,8.8-.36a19.959,19.959,0,0,1,2.26.08c.04,0,.52.04.7.04C76.54-6.92,77.54-6.94,77.54-7.56ZM94.4-10.02v-4.3h4.26c.12,0,.3-.04.3-.22a.43.43,0,0,0-.2-.3l-1.24-1.02a.921.921,0,0,0-.36-.2c-.06,0-.12,0-.32.24l-.82,1.02H89.26c-.06,0-1.56,0-3.06-.14l.38.8a14.455,14.455,0,0,1,2.36-.18h.94v4.3H88.32l-1.8-1.02a22.186,22.186,0,0,1,.14,3.16c0,2.44-.08,5.44-.12,6.62,0,.26-.06,1.48-.06,1.76,0,.48.16.66.56.66,1.06,0,1.02-.76.98-1.24h8.5c-.02.42-.04.68-.04.8,0,.26.04.56.44.56.3,0,1.1-.26,1.1-.86,0-.18-.08-1.1-.08-1.32-.08-2.6-.06-7.44-.04-8.16.34-.28.6-.48.6-.6a.469.469,0,0,0-.22-.36l-.86-.66a.5.5,0,0,0-.32-.14c-.1,0-.22.14-.28.22l-.4.58Zm-1.3.48V-.56H91.18V-9.54Zm-3.22,0V-.56H88V-9.54Zm1.3-.48v-4.3H93.1v4.3ZM94.4-.56V-9.54h2.12V-.56ZM84.28-11.68c.26-.5,1.56-3.04,1.84-3.6.48-.22.74-.34.74-.56,0-.08-.12-.2-.2-.24l-1.98-.88a4.036,4.036,0,0,1,0,.5c0,1.7-2.82,7.34-4.34,9.76l.1.08a12.765,12.765,0,0,0,2.94-3.4c-.08,5.9-.08,7.16-.16,9.14,0,.22-.1,1.4-.1,1.66,0,.46.2.64.56.64a.965.965,0,0,0,1.04-1c0-.24.02-.6-.08-5.64-.04-2.44-.02-4.38,0-5.3.4-.3.54-.44.54-.62,0-.1-.12-.16-.24-.22Zm35.18,4.36v-.1a11.984,11.984,0,0,1-5.64-2.36,30.9,30.9,0,0,0,1.92-3.3c.56-.1,1.2-.22,1.2-.66a.439.439,0,0,0-.18-.38l-.9-.7a.731.731,0,0,0-.4-.22.746.746,0,0,0-.4.2l-.72.54h-2.8c.22-.44.3-.6.44-.94.62-.08.74-.18.74-.4,0-.12-.14-.24-.26-.3l-1.88-.86a4.949,4.949,0,0,1-.06,1.22,21.95,21.95,0,0,1-3.06,5.98l.14.14a12.193,12.193,0,0,0,2.66-2.8c.4-.54.58-.86.76-1.1a9.974,9.974,0,0,0,1.28,3.32,20,20,0,0,1-6.12,5.24l.08.14a15.614,15.614,0,0,0,6.86-4.26,12.294,12.294,0,0,0,4.7,3.26C118.28-6.46,118.56-6.98,119.46-7.32Zm-5.12-6.5a12.191,12.191,0,0,1-1.5,3.06,8.273,8.273,0,0,1-1.62-2.96l.06-.1Zm2.68,9.18c0-.1-.08-.2-.22-.3l-.7-.54c-.22-.16-.34-.24-.44-.24s-.22.1-.34.24l-.5.58h-4.26l-1.74-.76a10.486,10.486,0,0,1,.14,2.04c0,1.9,0,2.72-.04,3.5,0,.18-.1,1-.1,1.2,0,.42.36.48.66.48a.779.779,0,0,0,.88-.84h4.72c0,.6.02.84.52.84a.926.926,0,0,0,.98-.92c0-.24-.08-1.4-.1-1.66-.02-.4-.08-2.44-.12-2.9C116.6-4.08,117.02-4.38,117.02-4.64ZM115.06.24h-4.7V-4.42h4.7Zm-7.04-7.96c0-1.08-1.66-1.84-2.64-2.14v-2.02h2.34c.14,0,.3-.04.3-.2a.48.48,0,0,0-.18-.32l-.68-.68a.55.55,0,0,0-.36-.2c-.12,0-.2.06-.32.24l-.48.68h-.62c.02-.42.02-2.5.04-2.96.44-.24.6-.38.6-.58,0-.22-.12-.28-.32-.34l-1.98-.52c.28.8.34,1.3.4,4.4-1.66,0-2.54-.08-3.08-.12l.4.78a13.637,13.637,0,0,1,2.46-.18,19.75,19.75,0,0,1-3.48,8.12l.12.12a13.52,13.52,0,0,0,3.58-4.82C104.1-7.2,103.9.48,103.9.88a.615.615,0,0,0,.58.66c.14,0,.98-.14.98-.86a1.417,1.417,0,0,0-.02-.3c-.12-3.04-.1-6.18-.06-10a3.44,3.44,0,0,1,.88,1.5c.16.48.4,1.14,1.06,1.14A.682.682,0,0,0,108.02-7.72Zm34.34.84c.08-1.8.18-4.74,1.96-6.7a2.057,2.057,0,0,1,1.46-.72c.54,0,.58.28.6.72.04,1.14.7,1.4,1.1,1.4a1,1,0,0,0,1.02-1.04c0-.96-.94-1.76-2.28-1.76-3.06,0-5.66,3.84-5.66,8.46,0,4.32,2.32,6.9,4.6,6.9,2.3,0,4.28-2.48,4.28-5.26,0-2.42-1.6-4.42-3.58-4.42a3.38,3.38,0,0,0-1.74.52A4.971,4.971,0,0,0,142.36-6.88Zm.02,1.2c.94-2.16,2.22-2.72,2.98-2.72,2.06,0,2.28,2.8,2.28,3.7,0,3.3-1.5,4.4-2.56,4.4a1.979,1.979,0,0,1-1.62-1.08A9.547,9.547,0,0,1,142.38-5.68ZM159.5-7.3c0-5.46-2.44-7.68-4.5-7.68-2.68,0-4.5,3.24-4.5,7.5a12.442,12.442,0,0,0,1.22,5.7A4.049,4.049,0,0,0,155,.38C157.44.38,159.5-2.4,159.5-7.3Zm-4.5-7c1.6,0,2.7,2.44,2.7,7a18.519,18.519,0,0,1-.48,4.4c-.22.76-.84,2.6-2.22,2.6-1.64,0-2.7-2.54-2.7-7a18.1,18.1,0,0,1,.46-4.34C152.96-12.34,153.58-14.3,155-14.3Zm13.16,1.28.4-1.58H161.6l-.3,7.72.3.16a4.347,4.347,0,0,1,3.12-1.74c1.46,0,2.8,1.4,2.8,3.94,0,2.68-1.52,4.22-3.14,4.22-.8,0-1.7-.44-1.7-1.3a2.973,2.973,0,0,1,.06-.56,2.041,2.041,0,0,0,.1-.6A.987.987,0,0,0,161.8-3.8a1.136,1.136,0,0,0-1.16,1.24c0,1.24,1.5,2.94,3.78,2.94a5.079,5.079,0,0,0,4.94-5.16,4.287,4.287,0,0,0-4.26-4.58A4.221,4.221,0,0,0,162-7.98l.18-5.04Zm2.96,15.34c.5-.42,1.9-1.64,1.9-3.12a1.161,1.161,0,0,0-1.18-1.14A1.157,1.157,0,0,0,170.7-.78c0,.62.34.9.86,1.14.16.06.18.26.18.34a2.034,2.034,0,0,1-.94,1.32ZM183.2-7.3c0-5.46-2.44-7.68-4.5-7.68-2.68,0-4.5,3.24-4.5,7.5a12.442,12.442,0,0,0,1.22,5.7A4.049,4.049,0,0,0,178.7.38C181.14.38,183.2-2.4,183.2-7.3Zm-4.5-7c1.6,0,2.7,2.44,2.7,7a18.519,18.519,0,0,1-.48,4.4c-.22.76-.84,2.6-2.22,2.6-1.64,0-2.7-2.54-2.7-7a18.1,18.1,0,0,1,.46-4.34C176.66-12.34,177.28-14.3,178.7-14.3Zm14.5,7c0-5.46-2.44-7.68-4.5-7.68-2.68,0-4.5,3.24-4.5,7.5a12.442,12.442,0,0,0,1.22,5.7A4.049,4.049,0,0,0,188.7.38C191.14.38,193.2-2.4,193.2-7.3Zm-4.5-7c1.6,0,2.7,2.44,2.7,7a18.519,18.519,0,0,1-.48,4.4c-.22.76-.84,2.6-2.22,2.6-1.64,0-2.7-2.54-2.7-7a18.1,18.1,0,0,1,.46-4.34C186.66-12.34,187.28-14.3,188.7-14.3Zm14.5,7c0-5.46-2.44-7.68-4.5-7.68-2.68,0-4.5,3.24-4.5,7.5a12.442,12.442,0,0,0,1.22,5.7A4.049,4.049,0,0,0,198.7.38C201.14.38,203.2-2.4,203.2-7.3Zm-4.5-7c1.6,0,2.7,2.44,2.7,7a18.519,18.519,0,0,1-.48,4.4c-.22.76-.84,2.6-2.22,2.6-1.64,0-2.7-2.54-2.7-7a18.1,18.1,0,0,1,.46-4.34C196.66-12.34,197.28-14.3,198.7-14.3Zm22.96-.32a.632.632,0,0,0-.22-.38l-.92-.84c-.18-.16-.26-.2-.36-.2s-.2.06-.34.2l-.68.72H208.32l-2.16-1.24a27.378,27.378,0,0,1,.18,4.04c0,3.56-.02,7.12-.12,10.7,0,.32-.08,1.92-.08,2.28,0,.26,0,.64.62.64,1.1,0,1.1-.76,1.1-1.22,0-.16-.02-.64-.02-.68-.06-1.62-.06-2.08-.1-6.24h11.72v5.08c0,.78-.12.96-.72.96a13.025,13.025,0,0,1-2.14-.18l-.02.14c1.68,1,1.8,1.48,1.86,2.14,2.58-.26,2.58-1.66,2.58-2.76,0-2.46-.16-6.42-.16-8.9,0-1.6.02-2.9.04-3.6C221.34-14.16,221.66-14.44,221.66-14.62Zm-2.2,7.3H214.3v-7.32h5.16Zm-6.58,0h-5.14v-7.32h5.14Zm13.664,9.276A9.841,9.841,0,0,1,225.08-3.4a9.967,9.967,0,0,1,1.464-5.364h-.228a6.719,6.719,0,0,0-1.524,2.22,7.909,7.909,0,0,0-.66,3.144,7.872,7.872,0,0,0,.66,3.144,6.668,6.668,0,0,0,1.524,2.208ZM238.352-.312a.18.18,0,0,0-.048-.132.916.916,0,0,1-.132-.1,5.109,5.109,0,0,1-.288-1.584h-.1a9.966,9.966,0,0,1-.336,1.488c-.1.252-.288.408-1.164.408-.708,0-.852-.1-.888-.288-.012-.1-.012-1.068-.012-1.248,0-.1.024-1.68.024-1.86h.852c-.012.24-.012.432.24.432,0,0,.468-.012.468-.384,0-.072-.024-.384-.024-.456-.036-.636-.072-1.86-.084-2.22.42-.216.468-.24.468-.348,0-.06-.036-.108-.132-.18l-.456-.336a.776.776,0,0,0-.192-.108c-.048,0-.072.024-.2.18l-.216.24h-3l-.84-.384a7.131,7.131,0,0,1,.132,1.764c0,.66-.012,1.452-.024,1.668,0,.048-.012.288-.012.336,0,.168.072.252.2.252a.528.528,0,0,0,.42-.2.547.547,0,0,0,.024-.252h1.74c0,.4-.024,2.316-.024,2.76.012,1.236.012,1.236,1.9,1.236a2.672,2.672,0,0,0,1.32-.18A.715.715,0,0,0,238.352-.312Zm-2.088-3.6h-3.228v-2.6h3.228Zm.948-5.208c0-.084-.048-.108-.12-.156l-1.068-.7a2.229,2.229,0,0,1-.156.96,19.3,19.3,0,0,1-.96,2.124l.108.072a8.831,8.831,0,0,0,1.6-2.1C236.792-8.916,237.212-8.928,237.212-9.12Zm-3.168,1.332c0-.684-.852-1.44-1.632-1.776l-.048.072a3.31,3.31,0,0,1,.8,1.488c.1.444.144.648.48.648A.383.383,0,0,0,234.044-7.788ZM231.992-6.6c0-.084-.048-.132-.12-.192l-.432-.372c-.144-.12-.156-.132-.228-.132-.048,0-.072.012-.192.144l-.336.384h-.5V-9c.288-.072.48-.132.852-.252a2.258,2.258,0,0,0,.4.06c.06,0,.2-.012.2-.144a.214.214,0,0,0-.084-.156l-.78-.636c-.1.168-.144.252-.78.552a16.123,16.123,0,0,1-2.6.972V-8.5a14.157,14.157,0,0,0,2.172-.336l.024,2.064h-.2c-.228,0-1.1-.012-2-.084l.288.516a8.645,8.645,0,0,1,1.548-.144h.312a11.261,11.261,0,0,1-2.46,4.368l.084.084a7.608,7.608,0,0,0,2.448-3V-4.5L229.46.192c-.012.54-.012.6.228.6.528,0,.528-.432.528-.6,0-.12-.036-4.5-.036-5.352a2.187,2.187,0,0,1,.78.984c.192.372.216.408.42.408.168,0,.312-.108.312-.36,0-.648-.972-1.08-1.512-1.164V-6.48h1.632C231.9-6.48,231.992-6.492,231.992-6.6Zm2.352,3.684c0-.1-.072-.132-.156-.18l-.8-.42a3.278,3.278,0,0,1-.4,1.584A5.286,5.286,0,0,1,230.612.444l.036.084a4.583,4.583,0,0,0,3.312-3.2C234.272-2.772,234.344-2.784,234.344-2.916Zm16.224.588v-.024c-1.824-.408-4.308-2.676-4.272-6.42a7.53,7.53,0,0,1,.864-.36c.072-.024.168-.072.168-.18,0-.06-.036-.1-.12-.168l-.648-.444a.213.213,0,0,0-.12-.048c-.036,0-.048.012-.156.12l-.456.444h-.216c-.228,0-1.092-.012-1.992-.084l.276.516a10.044,10.044,0,0,1,1.548-.144h.5c.072.84.1,1.044.2,1.764l-.312-.084a7.671,7.671,0,0,1-3.228,5.772l.036.084a6.588,6.588,0,0,0,3.744-4.632,7.983,7.983,0,0,0,2.868,4.56A1.7,1.7,0,0,1,250.568-2.328Zm-7.968-5.8c0-.96-1.272-1.44-1.7-1.608l-.024.084a3.193,3.193,0,0,1,.864,1.488c.048.168.156.516.468.516A.429.429,0,0,0,242.6-8.124Zm8.076,7.392V-.816a5.666,5.666,0,0,1-.852.24,19.038,19.038,0,0,1-4.14.336,5,5,0,0,1-2.628-.48,1.514,1.514,0,0,1-.66-1.14c0-.828,0-1.644-.012-2.472.348-.228.444-.3.444-.42a.163.163,0,0,0-.084-.132l-.5-.408a.32.32,0,0,0-.168-.084c-.06,0-.108.048-.18.132L241.6-4.9c-.384,0-1.224-.024-2.052-.1l.276.528a8.746,8.746,0,0,1,1.548-.144h.384v.18c0,1.632-.012,1.8-.012,3.288a4.262,4.262,0,0,1-1.992.708l.636.984a.248.248,0,0,0,.168.12c.072,0,.084-.036.156-.372.216-.216,1.3-1.284,1.524-1.536.516.756,1.116,1.38,3.132,1.584.744.072,4.08.084,4.38.06A1.786,1.786,0,0,1,250.676-.732ZM253.484-3.4a7.909,7.909,0,0,0-.66-3.144A6.719,6.719,0,0,0,251.3-8.76h-.228A9.859,9.859,0,0,1,252.536-3.4a9.841,9.841,0,0,1-1.464,5.352h.228a6.668,6.668,0,0,0,1.524-2.208A7.872,7.872,0,0,0,253.484-3.4Z" transform="translate(970 10859.304)" fill="#0f0f0f"/>
    <path id="パス_93" data-name="パス 93" d="M31.115-17.85C31.115-20.02,29.05-23,24.85-23a5.605,5.605,0,0,0-2.345.385c3.64,1.015,4.935,2.275,4.935,3.01,0,.42,0,.595-2.94,2.625v.14a12.74,12.74,0,0,1,3.185-.56,1.627,1.627,0,0,1,.7.1c1.19.56,1.33.595,1.785.595C31.115-16.7,31.115-17.57,31.115-17.85Zm-.35,9.905c0-4.305-3.675-6.055-6.93-6.055A20.676,20.676,0,0,0,13.79-10.85c-.1-1.995-.1-2.205-.1-2.9,0-.49.035-1.75.14-3.5.945-.35,1.96-.77,3.43-1.365,2.065-.84,2.275-.945,2.275-1.68,0-.525-.665-1.015-1.54-1.015a2.184,2.184,0,0,0-1.645.665,10.616,10.616,0,0,1-2.38,1.26,27.023,27.023,0,0,1,.7-4.165c.035-.14.56-1.715.56-1.96,0-1.155-2.38-2.065-3.5-2.065a3.5,3.5,0,0,0-1.995.6c1.715.945,1.89,1.015,2.135,1.61a15.654,15.654,0,0,1,.245,3.745c0,.6-.07,2.38-.07,3.01a12.364,12.364,0,0,1-3.955.91,4.182,4.182,0,0,1-2.87-.945,3.313,3.313,0,0,0,3.4,2.8,10.8,10.8,0,0,0,3.4-.7c-.035,1.82-.035,2.345.035,6.86-1.96,1.3-2.625,1.82-6.37,4.62-.56.42-.665.49-.91.49-.455,0-.665-.21-1.505-1.015A4.739,4.739,0,0,0,3.15-4.515a2.871,2.871,0,0,0,2.66,2.94c.42,0,.56-.21,1.855-2a20.294,20.294,0,0,1,3.22,3.15c.735,1.05,1.015,1.435,1.4,1.435.665,0,1.96-1.5,1.96-3.85,0-.98-.315-5.705-.385-6.755a17.082,17.082,0,0,1,9-2.94c1.225,0,5.11.49,5.11,4.48,0,3.5-2.94,4.83-5.565,4.83a6.271,6.271,0,0,1-5.39-2.625l-.175.035c.42,1.19,1.68,4.62,6.685,4.62C27.65-1.19,30.765-4.06,30.765-7.945Zm-18.62,3.29c0,1.96,0,2.17-.665,2.17a16.968,16.968,0,0,1-3.64-1.33A21.13,21.13,0,0,1,12.075-8.3c0,.525,0,1.12.035,1.96C12.11-6.055,12.145-4.865,12.145-4.655Zm48.615,2.8c0-1.12-1.435-1.47-2.38-1.47a9.565,9.565,0,0,0-1.33.14,36.8,36.8,0,0,1-7.525.805c-2.275,0-7.49,0-7.49-3.745,0-4.9,10.255-9.31,15.225-10.08,1.925-.315,2.17-.315,2.17-1.295a3.775,3.775,0,0,0-.945-1.89,4.267,4.267,0,0,0-2.31-1.12,3.523,3.523,0,0,1,.28,1.12c0,.49-.385.7-1.015.945a40.736,40.736,0,0,0-6.405,2.9,11.867,11.867,0,0,1-.77-4.97A13.187,13.187,0,0,1,49-25.34a3.156,3.156,0,0,0,.21-.77c0-1.05-2.485-2.45-4.025-2.45a5,5,0,0,0-1.995.49c.245.175.385.21,1.365.735A2.8,2.8,0,0,1,45.85-25.55c.175.735.21,1.33.315,6.79a7.334,7.334,0,0,0,1.4,4.06c-5.32,3.325-6.72,6.72-6.72,8.89a5.049,5.049,0,0,0,2.2,3.99C45.6-.035,51.31-.07,52.5-.07a39.083,39.083,0,0,0,6.93-.56C59.885-.77,60.76-1.05,60.76-1.855Zm40-22.015c0-2.66-4.41-2.8-5.04-2.8a10.322,10.322,0,0,0-2.17.245,12.281,12.281,0,0,1,4.13,1.89c.35.245,1.89,1.645,2.345,1.645C100.59-22.89,100.765-23.415,100.765-23.87Zm-3.22,2.66c0-2.03-3.745-2.87-5.6-2.87a7.22,7.22,0,0,0-1.4.14,12.279,12.279,0,0,1,4.375,2.625c.84.7,1.365,1.155,1.68,1.155A.984.984,0,0,0,97.545-21.21Zm1.715,9.87c0-4.725-6.16-8.785-9.73-8.925,4.935,3.045,6.545,6.51,6.545,6.86,0,1.19-3.85,1.505-4.375,1.54v.28a14.369,14.369,0,0,1,4.76,1.225,11.989,11.989,0,0,0,1.925.875C99.26-9.485,99.26-11.06,99.26-11.34ZM87.535-13.545c0-2.765-.175-6.055-4.27-6.055a8.231,8.231,0,0,0-1.89.21c.665-1.5,1.26-2.765,2.03-4.165a3.11,3.11,0,0,0,.525-1.435c0-.875-2.135-2.485-3.99-2.485a2.941,2.941,0,0,0-1.75.56c.49.175,2.555,1.085,2.555,2.485,0,1.26-1.05,4.095-1.575,5.5-1.155.28-6.335,1.715-7.175,1.715-.98,0-1.75-.63-2.38-1.82a2.871,2.871,0,0,0-.42,1.4,3.551,3.551,0,0,0,2.9,3.22,2.7,2.7,0,0,0,1.47-.63,29.441,29.441,0,0,1,4.935-2.24C75.285-9.52,73.4-6.825,71.12-3.57a3.067,3.067,0,0,0-.77,1.925C70.35-.84,70.77,0,71.47,0c.77,0,1.54-1.365,2-2.24A170.526,170.526,0,0,0,80.78-17.955a9.948,9.948,0,0,1,2.31-.35c2.345,0,2.345,2.45,2.345,3.815a23.109,23.109,0,0,1-2.45,10.465A1.588,1.588,0,0,1,81.62-3.01c-.63,0-1.3-.245-4.34-2.345l-.1.14c2.275,3.29,2.345,3.57,2.59,5.04C79.87.42,80.01.98,80.815.98c1.015,0,2.45-1.12,3.395-2.24C86.135-3.5,87.535-9.415,87.535-13.545ZM131.25-10.22c0-4.06-4.62-10.5-8.54-10.5a3.082,3.082,0,0,0-.595.07,12.48,12.48,0,0,1,6.16,8.4.881.881,0,0,1-.77.91c-.245.07-2.625.28-3.115.35v.21a8.407,8.407,0,0,1,3.71,1.4c1.365,1.3,1.5,1.435,1.925,1.435C130.585-7.945,131.25-8.995,131.25-10.22ZM116.9-15.435l-.28-.105c-1.505,2.38-4.1,6.09-5.67,8.435-.1.175-.455.63-.84.63-.945,0-3.045-2.555-3.045-6.86a30.306,30.306,0,0,1,.455-4.865,4.887,4.887,0,0,0,.14-1.155c0-2.275-2.625-3.815-4.41-3.92a12.064,12.064,0,0,1,1.225,2.87,53.927,53.927,0,0,1,.56,6.44C105.63-3.99,110.6-2.24,111.825-2.24a1.039,1.039,0,0,0,1.085-1.19c0-.28-.28-1.61-.28-1.89a2.049,2.049,0,0,1,.07-.455C112.77-6.16,116.41-14.385,116.9-15.435Zm38.255-.77a.83.83,0,0,0-.35-.525l-1.82-1.5a1.225,1.225,0,0,0-.735-.385c-.21,0-.315.14-.56.455L150.6-16.66h-1.47v-8.96h4.76c.245,0,.525-.07.525-.35a.776.776,0,0,0-.315-.56l-1.68-1.54c-.245-.21-.42-.35-.63-.35s-.35.14-.56.42l-1.12,1.54h-9.03c-.455,0-2.975-.035-5.39-.245l.7,1.4a24.775,24.775,0,0,1,4.585-.315v8.96h-1.05c-1.05,0-3.22-.07-5.39-.245l.7,1.4a24.924,24.924,0,0,1,4.13-.315h1.61c-.175,7.49-.63,12.005-5.775,17.15l.21.245c6.755-4.1,7.77-9.135,7.98-17.4h3.325v.91c0,.84-.035,7.7-.21,12.88,0,.42-.14,2.59-.14,3.08,0,.525.175,1.015,1.085,1.015.28,0,1.89,0,1.89-1.645,0-.525-.1-3.115-.1-3.71-.035-1.96-.035-2.38-.035-6.055,0-2.415,0-4.83-.07-6.475h5.5C154.91-15.82,155.155-15.96,155.155-16.205Zm-8.435-.455H143.4v-8.96h3.325Zm17.57-10.08a.678.678,0,0,0-.35-.56l-2.87-2.065a8.087,8.087,0,0,1-1.715,3.6,46.727,46.727,0,0,1-5.705,6.72l.21.315a26.087,26.087,0,0,0,9.03-7.525C163.52-26.18,164.29-26.215,164.29-26.74Zm.98,9.905a.705.705,0,0,0-.245-.56l-2.73-2.45c-.245.91-.42,1.575-2.31,3.885a43.684,43.684,0,0,1-8.26,8.05l.14.28A31.127,31.127,0,0,0,163.8-16.345C164.885-16.24,165.27-16.485,165.27-16.835Zm1.75,9.625a.843.843,0,0,0-.245-.63l-2.555-2.625c-1.26,3.64-8.785,9.59-13.79,12.285l.105.315c7.1-1.96,10.29-4.515,14.945-8.96.385.035.6.07.84.07C166.67-6.755,167.02-6.86,167.02-7.21Zm25.34-17.71c0-1.89-2.1-3.01-4.69-3.15l-.035.21a7.666,7.666,0,0,1,1.785,2.52c.525,1.19.805,1.82,1.68,1.82A1.273,1.273,0,0,0,192.36-24.92ZM198.87.735a2.059,2.059,0,0,0-.525-.98c-.6-.63-.735-.735-.735-1.645,0-.77.21-4.585.21-5.46l-.21-.035c-.245.735-.98,2.625-1.645,4.025-.385.77-.7,1.33-1.295,1.33-1.47,0-3.64-2.1-5.145-4.48a35.471,35.471,0,0,0,4.165-8.26c1.05-.21,1.505-.385,1.505-.805,0-.245-.175-.42-.49-.595l-3.57-1.96a3.735,3.735,0,0,1,.14,1.085,19.365,19.365,0,0,1-2.975,8.26c-.735-1.645-1.925-4.41-2.59-12.6h12.215c.28,0,.525-.105.525-.35a.919.919,0,0,0-.35-.56l-2.17-1.855c-.245-.21-.42-.35-.63-.35-.175,0-.315.105-.525.35l-1.645,1.925h-7.455c-.14-2.1-.175-3.5-.175-4.76.91-.35,1.155-.63,1.155-1.015,0-.315-.385-.455-.665-.525l-3.745-.945a9.656,9.656,0,0,1,.805,3.64c.035.49.21,3.045.245,3.6h-9.31l-3.5-1.925a44.212,44.212,0,0,1,1.015,9.765c0,7.665-1.47,13.265-3.6,16.24l.21.14c5.6-4.48,5.775-12.74,5.845-16.485h4.795c.035,1.435.07,3.535-.1,6.055-.21,2.625-.385,3.255-1.54,3.255-.665,0-2.45-.21-3.185-.315v.245a9.064,9.064,0,0,1,1.68,1.365A4.432,4.432,0,0,1,176.61-1.75c3.885-.77,4.165-3.955,4.34-5.775.1-.875.175-5.145.28-6.125.77-.49.98-.735.98-.98a.817.817,0,0,0-.35-.56l-1.365-1.015a1.385,1.385,0,0,0-.77-.385c-.175,0-.35.105-.6.42l-.63.84h-4.515c.035-1.75.035-1.855-.175-6.055h9.555a57.112,57.112,0,0,0,1.155,8.015,25.984,25.984,0,0,0,2.31,6.79,23.183,23.183,0,0,1-11.06,8.225l.035.245a19.589,19.589,0,0,0,12.25-6.44c3.43,4.83,7.6,6.335,9.03,6.335C198.1,1.785,198.87,1.3,198.87.735Zm-166,50.415a22.98,22.98,0,0,1-6.65-16.45,22.98,22.98,0,0,1,6.65-16.45l-.315-.49a21.445,21.445,0,0,0,0,33.88Zm35.21-20.475v-.28a23.754,23.754,0,0,1-15.925-9.24c.6-.14.735-.455.735-.63a.469.469,0,0,0-.28-.455l-3.29-1.785a4.868,4.868,0,0,1-.945,2.205A46.1,46.1,0,0,1,34.09,35.645l.14.21c5.11-1.33,12.775-7.98,17.15-14.6h.21c1.925,4.1,6.755,9.415,13.615,12.32A6.827,6.827,0,0,1,68.075,30.675ZM65.8,48.56a.753.753,0,0,0-.35-.525l-2.135-1.75c-.28-.21-.455-.385-.63-.385s-.35.21-.455.315L60.55,48.1H52.01V41.35h9.555c.245,0,.525-.07.525-.385,0-.245-.175-.385-.35-.525l-2.065-1.645c-.385-.315-.525-.35-.665-.35-.175,0-.385.21-.525.42l-1.26,1.645H52.01v-6.3h8.365c.21,0,.525-.035.525-.385a.747.747,0,0,0-.35-.525l-2.31-1.75a.842.842,0,0,0-.6-.28c-.14,0-.28.14-.49.385L55.79,33.37H46.935c-.49,0-2.975-.035-5.355-.245l.665,1.4a24.923,24.923,0,0,1,4.13-.315H49.56v6.3H45.01c-1.05,0-3.22-.07-5.39-.245l.7,1.4a21.6,21.6,0,0,1,4.13-.315h5.11V48.1H42c-.315,0-2.975-.035-5.39-.245l.7,1.4a24.838,24.838,0,0,1,4.13-.315H65.275C65.485,48.945,65.8,48.91,65.8,48.56ZM98.875,30.78c0-.175-.035-.315-.35-.63L95.935,27.8a21.816,21.816,0,0,1-3.99,6.125c0-1.3-.035-6.965-.035-8.12.98-.595,1.47-.91,1.47-1.3,0-.245-.245-.455-.42-.595l-1.75-1.26a.885.885,0,0,0-.525-.21c-.175,0-.28.1-.49.385l-.805.945h-7.6c.945-1.015,2.555-2.73,2.835-3.01.42-.07,1.295-.21,1.295-.77,0-.28-.175-.455-.49-.56l-3.78-1.155a7.055,7.055,0,0,1,.105,1.26,18.131,18.131,0,0,1-.7,4.235H78.89L75.845,22.1c.21.98.28,1.33.315,5.39.035,1.47.035,2.485,0,10.92-2.45.28-3.85.315-4.13.315a14.307,14.307,0,0,1-2.1-.175l1.365,3.5c.175.42.315.63.56.63.35,0,.595-.525.91-1.3,1.295-.35,7.035-1.785,8.225-2.1,2.45-.63,5.355-1.435,8.155-2.38A66.984,66.984,0,0,1,70.07,49.89l.07.245c4.69-1.05,11.655-3.815,19.46-10.605.035,2.03,0,5.25,0,7.28,0,.805-.525.805-1.12.805-1.47,0-3.115-.105-3.85-.175v.245a5.022,5.022,0,0,1,2.9,3.535c4.585-.805,4.585-3.01,4.585-4.235,0-1.54-.175-8.575-.175-9.59a56.748,56.748,0,0,0,5.5-6.055C97.825,31.375,98.875,31.48,98.875,30.78Zm-9.31,1.505H78.54V28.75H89.565Zm0-4.375H78.54V24.62H89.565Zm0,8.3c-1.33.245-7.175,1.295-8.365,1.5-1.4.21-2.065.315-2.66.385v-4.97H89.565Zm29.96-3.64a23.619,23.619,0,0,1,3.045-.28,34.884,34.884,0,0,1-7.14,13.055l.07.21a22.3,22.3,0,0,0,7.315-8.12c-.035,7.21-.035,7.98-.105,9.52-.035.35-.175,1.995-.175,2.38,0,.945.455,1.12.91,1.12,1.82,0,1.82-1.33,1.82-1.96,0-.315-.28-7.42-.315-8.855-.1-2.765-.07-4.97-.07-6.615.49,4.1,2.695,10.325,5.635,13.615a4.912,4.912,0,0,1,3.64-1.61V44.71a18.614,18.614,0,0,1-8.995-12.46h6.475c.28,0,.525-.1.525-.35s-.175-.385-.35-.56L130.1,29.835a1.154,1.154,0,0,0-.63-.35c-.21,0-.35.175-.49.455l-.805,1.47h-3.29c.035-.49.07-2.87.07-3.185.49-.245,1.085-.63,1.085-1.05,0-.28-.245-.42-.6-.525l-3.15-.84c.385,1.26.385,1.715.56,5.6-1.855-.035-3.29-.175-4.025-.21Zm-11.235,0a20.429,20.429,0,0,1,2.8-.28,39.7,39.7,0,0,1-5.985,13.16l.21.21a23.6,23.6,0,0,0,6.195-8.47c0,1.925,0,3.605-.105,7.07-.035.77-.245,4.48-.245,5.32,0,1.05.56,1.05.8,1.05,1.82,0,1.82-1.225,1.82-1.925,0-1.925-.35-11.445-.35-13.615A8.2,8.2,0,0,1,115.29,38.2c.56,1.61.735,2.135,1.645,2.135a1.437,1.437,0,0,0,1.33-1.575c0-2.135-3.465-3.57-4.83-3.955,0-1.505.035-2.065.035-2.555h3.955c.385,0,.525-.14.525-.35s-.175-.385-.35-.56l-1.155-.98a1.338,1.338,0,0,0-.665-.385c-.175,0-.315.14-.525.42l-.735,1.015h-1.05c.035-1.47.07-2.31.1-3.115.77-.455,1.085-.77,1.085-1.085s-.175-.42-.49-.49l-3.325-.84c.315,1.05.525,1.68.6,5.5-1.68-.035-3.185-.14-3.815-.21ZM118.3,23.6c0-.35.035-1.96,0-2.345.84-.455,1.05-.665,1.05-.98s-.315-.42-.525-.49l-3.57-.945a11.89,11.89,0,0,1,.63,4.76h-8.68l-3.5-1.3a43.8,43.8,0,0,1,.525,7.49c0,12.145-1.61,16.31-3.36,19.18l.21.175c4.2-4.165,5.285-9.38,5.495-16.135.035-1.225.105-7.21.105-8.575h23.835c.245,0,.525-.035.525-.385,0-.21-.14-.35-.315-.525L128.59,21.61c-.245-.21-.42-.385-.665-.385-.21,0-.35.175-.525.455L126.175,23.6Zm32.1-2.135c0-.245-.175-.385-.35-.525l-1.47-1.26c-.35-.28-.455-.385-.665-.385-.14,0-.21.14-.525.455l-1.155,1.26H140.1c-1.05,0-3.185-.07-5.355-.245l.7,1.4a24.019,24.019,0,0,1,4.34-.315V26.93h-1.26l-2.8-1.54c.21,2.17.245,4.375.245,6.58,0,1.3-.105,11.235-.245,14.98,0,.245-.14,1.435-.14,1.715a.939.939,0,0,0,.98,1.05c1.54,0,1.68-1.54,1.575-2.52h8.435c-.07.7-.14,1.855.8,1.855a1.62,1.62,0,0,0,1.68-1.82c0-.315-.07-1.89-.07-2.24-.07-1.96-.07-3.78-.07-5.705,0-1.575.1-9.275.07-11.025a4.769,4.769,0,0,1,.6-.6c.175-.175.385-.35.385-.56,0-.14-.105-.245-.385-.455l-1.295-.91c-.28-.21-.385-.28-.49-.28-.14,0-.21.1-.42.315L146.3,26.93h-1.645V21.855h5.215C150.08,21.855,150.4,21.82,150.4,21.47Zm-3.78,19.7h-8.54v-3.71c2.59-1.925,3.43-5.425,3.6-9.695h1.12v6.79c0,1.855,1.05,1.855,1.715,1.855a5.079,5.079,0,0,0,2.1-.21ZM142.8,26.93h-1.12V21.855h1.12Zm3.815,7.28c-.21-.175-.35-.28-.7-1.365h-.245c-.14,1.12-.14,1.435-.735,1.435-.21,0-.28,0-.28-.7V27.77h1.96Zm-6.825-6.44c0,3.955-.385,7.1-1.715,9.03V27.77Zm6.825,18.585h-8.54v-4.34h8.54Zm20.23-13.4a.66.66,0,0,0-.21-.525c-.14-.21-.42-.455-.525-.63a31.442,31.442,0,0,1-.7-4.235h-.245c-.21,1.12-.56,2.345-.91,3.535-.315,1.05-.63,1.12-1.68,1.12-.91,0-1.19-.07-1.19-.805,0-.77.14-4.76.175-5.39,1.19-.7,1.33-.77,1.33-1.155,0-.245-.14-.35-.315-.49L161.14,23.22c-.245-.175-.35-.28-.49-.28-.175,0-.28.07-.525.35l-.945,1.12h-2.135a28.98,28.98,0,0,0,.525-3.6c.175-.105.875-.49.875-.805,0-.28-.245-.455-.56-.56l-3.255-1.05a17.826,17.826,0,0,1,.28,2.8,24.014,24.014,0,0,1-.245,3.22c-2.905-.035-4.41-.175-5.215-.245l.7,1.4a24.37,24.37,0,0,1,4.375-.315c-.56,3.01-2.555,8.47-5.32,11.27l.21.21c4.83-3.185,6.58-7.665,7.455-11.48h2.45v.385c0,.945-.28,5.5-.28,6.545,0,2.275,1.435,2.38,4.025,2.38C163.835,34.56,166.845,34.49,166.845,32.95Zm-.77,7.28c0-.175-.1-.315-.385-.6l-1.505-1.365a1.027,1.027,0,0,0-.665-.385c-.175,0-.315.175-.56.455l-1.155,1.4H158.27c0-.455.035-2.835.035-3.36.84-.56.91-.77.91-.945,0-.28-.28-.525-.735-.63l-2.975-.735a18.667,18.667,0,0,1,.49,5.67h-.665c-1.05,0-3.22-.07-5.39-.21l.7,1.365a24.924,24.924,0,0,1,4.13-.315h1.225c-.035.7-.035,4.06-.07,4.83,0,.7-.175,3.675-.175,4.34,0,.42,0,1.12.945,1.12,1.26,0,1.785-.98,1.785-2.1,0-.14-.21-4.1-.21-4.865-.035-1.575-.035-2.59-.035-3.325h7.28C165.725,40.58,166.075,40.545,166.075,40.23Zm10.92-5.53A21.74,21.74,0,0,0,168.7,17.76l-.315.49a22.98,22.98,0,0,1,6.65,16.45,22.98,22.98,0,0,1-6.65,16.45l.315.49A21.74,21.74,0,0,0,176.995,34.7Z" transform="translate(375 10864.304)"/>
  </g>
</svg>
