<svg xmlns="http://www.w3.org/2000/svg" width="922" height="187.16" viewBox="0 0 922 187.16">
  <g id="tech_price4" transform="translate(-337.226 -10670.432)">
    <rect id="長方形_159" data-name="長方形 159" width="920" height="185.16" transform="translate(338.226 10671.432)" fill="#fff" stroke="#000" stroke-miterlimit="10" stroke-width="2"/>
    <path id="パス_52" data-name="パス 52" d="M20.5-16.69a.722.722,0,0,0-.251-.434l-1.05-.959c-.205-.183-.3-.228-.411-.228s-.228.068-.388.228l-.776.822H5.274L2.808-18.677a31.254,31.254,0,0,1,.205,4.612c0,4.064-.023,8.128-.137,12.215,0,.365-.091,2.192-.091,2.6,0,.3,0,.731.708.731,1.256,0,1.256-.868,1.256-1.393,0-.183-.023-.731-.023-.776-.068-1.849-.068-2.375-.114-7.124h13.38v5.8c0,.89-.137,1.1-.822,1.1a14.869,14.869,0,0,1-2.443-.205l-.023.16C16.622.183,16.759.731,16.827,1.484c2.945-.3,2.945-1.9,2.945-3.151,0-2.808-.183-7.329-.183-10.16,0-1.827.023-3.311.046-4.11C20.138-16.165,20.5-16.485,20.5-16.69ZM17.992-8.357H12.1v-8.357h5.891Zm-7.512,0H4.612v-8.357H10.48Z" transform="translate(1198.876 10800.089)" fill="#d4145a"/>
    <path id="パス_49" data-name="パス 49" d="M-25.464,1.956A10.35,10.35,0,0,1-26.4-.54,11.638,11.638,0,0,1-26.748-3.4,11.526,11.526,0,0,1-25.464-8.76h-.324A7.721,7.721,0,0,0-27.924-3.4a7.712,7.712,0,0,0,2.136,5.352ZM-14.34-.42c0-.1-.06-.156-.192-.252-.252-.2-.348-1.236-.372-1.608h-.108C-15.372-.4-15.384-.348-16.26-.348c-.948,0-1.032-.048-1.032-.408V-3.624h.6c.012.336.012.48.288.48a.6.6,0,0,0,.444-.144.372.372,0,0,0,.084-.276c0-.42-.048-2.28-.048-2.664.144-.048.4-.18.4-.348a.264.264,0,0,0-.12-.216l-.456-.336a.5.5,0,0,0-.252-.12q-.09,0-.216.144l-.276.324h-2.676l-1.044-.5a10.467,10.467,0,0,1,.144,2.58c0,.2-.024,1.1-.012,1.3,0,.084,0,.312.336.312a.46.46,0,0,0,.468-.528h.192A5.32,5.32,0,0,1-22.164.444l.024.072A4.929,4.929,0,0,0-18.684-2.7c.216-.036.372-.132.372-.24,0-.072-.036-.12-.132-.18l-.912-.5h1.284V-.36c0,.78.552.78,1.512.78,1.5,0,1.632-.12,1.872-.276A.842.842,0,0,0-14.34-.42Zm-2.352-3.492H-19.62v-2.58h2.928Zm1.176-5.136a.216.216,0,0,0-.108-.192l-1.176-.768a2,2,0,0,1-.1.684,16.3,16.3,0,0,1-1.1,2.4l.084.084a14.194,14.194,0,0,0,1.86-2C-15.816-8.856-15.516-8.9-15.516-9.048Zm-3.072,1.272c0-.768-.852-1.32-1.824-1.8l-.048.072a3.594,3.594,0,0,1,.78,1.56c.1.372.192.732.588.732A.515.515,0,0,0-18.588-7.776ZM-20.748-6.6c0-.06-.048-.12-.12-.192l-.516-.456c-.1-.084-.156-.132-.228-.132s-.12.06-.192.156l-.348.456h-.324V-8.916c.216-.048.36-.1.876-.228a1.027,1.027,0,0,0,.36.06c.156,0,.252-.048.252-.18a.311.311,0,0,0-.132-.192l-.84-.72a.917.917,0,0,1-.4.384A17.708,17.708,0,0,1-25.38-8.556v.108a16.7,16.7,0,0,0,2.16-.288v1.968h-.252c-.168,0-1.02-.012-1.848-.084l.24.48a8.545,8.545,0,0,1,1.416-.108h.42a10.246,10.246,0,0,1-2.5,4.368l.048.084A6.254,6.254,0,0,0-23.22-4.656c-.012,1.308-.012,3.048-.06,4.152,0,.144-.06.864-.06,1.032,0,.288.18.288.276.288.6,0,.6-.384.6-.552,0-.78-.012-4.62-.012-5.484.144.1.348.252.588.9.216.564.24.648.54.648a.41.41,0,0,0,.42-.456c0-.66-.948-1.14-1.548-1.236V-6.48h1.548C-20.856-6.48-20.748-6.5-20.748-6.6ZM-2.676-2.4v-.048c-1.872-.288-4.356-2.676-4.212-6.18.852-.4.972-.432.972-.588,0-.072-.072-.144-.144-.2l-.684-.5a.266.266,0,0,0-.132-.06c-.048,0-.108.06-.168.12l-.5.492h-.264c-.36,0-1.092-.012-1.836-.072l.228.468A9.585,9.585,0,0,1-8-9.084h.7a14.235,14.235,0,0,0,.192,1.74l-.408-.1C-7.86-5.064-8.88-2.8-10.632-1.716l.048.084A6.527,6.527,0,0,0-6.852-6.048,7.951,7.951,0,0,0-4.08-1.524,2.206,2.206,0,0,1-2.676-2.4Zm-7.86-5.664c0-.636-.612-1.26-1.86-1.644l-.048.084a3.192,3.192,0,0,1,.852,1.5c.108.324.2.624.552.624A.518.518,0,0,0-10.536-8.064ZM-2.7-.84V-.912a14.69,14.69,0,0,1-4.8.588c-1.116,0-3.276-.06-3.276-1.608V-4.32c.348-.252.432-.312.432-.408,0-.072-.06-.12-.108-.168L-11-5.352c-.06-.048-.108-.1-.168-.1s-.108.06-.192.144l-.384.408c-.468,0-1.224-.024-1.968-.084l.24.48a7.405,7.405,0,0,1,1.416-.108h.48v3.516a4.341,4.341,0,0,1-2.04.528l.7,1.14a.252.252,0,0,0,.18.132c.12,0,.144-.12.2-.372.216-.216,1.332-1.3,1.584-1.548A3.776,3.776,0,0,0-7.9.42c.828.1,3.936.1,4.356.084A2.073,2.073,0,0,1-2.7-.84Zm.072,2.8A7.658,7.658,0,0,0-.492-3.4,7.721,7.721,0,0,0-2.628-8.76H-2.94A11.681,11.681,0,0,1-1.656-3.4,11.636,11.636,0,0,1-2.016-.54a10.965,10.965,0,0,1-.924,2.5Z" transform="translate(1224.367 10772.211)" fill="#d4145a"/>
    <path id="パス_91" data-name="パス 91" d="M-196.872,0h17.264V-1.664h-2.86c-2.548,0-3.64-.936-3.64-3.172V-38.22c0-.416-.1-.728-.572-.728-.208,0-.364.1-.728.312a20.027,20.027,0,0,1-8.476,2.184h-.936v1.612h3.952c.988,0,2.5.26,2.5,1.872V-4.836c0,2.132-.936,3.172-3.64,3.172h-2.86Zm24.544,6.032c1.3-1.092,4.94-4.264,4.94-8.112a3.02,3.02,0,0,0-3.068-2.964,3.008,3.008,0,0,0-2.964,3.016c0,1.612.884,2.34,2.236,2.964.416.156.468.676.468.884,0,1.04-1.04,2.392-2.444,3.432Zm26.572-26.052c-.208,4.628-.468,12.324-5.1,17.42a5.1,5.1,0,0,1-3.8,1.82c-1.4,0-1.508-.728-1.56-1.872-.1-2.912-1.82-3.588-2.86-3.588a2.6,2.6,0,0,0-2.652,2.7c0,2.444,2.444,4.524,5.928,4.524,7.956,0,14.716-9.984,14.716-22,0-11.18-6.032-17.94-11.96-17.94-5.98,0-11.128,6.5-11.128,13.676,0,6.344,4.16,11.544,9.308,11.544a8.787,8.787,0,0,0,4.524-1.352A13.3,13.3,0,0,0-145.756-20.02Zm-.052-3.12c-2.444,5.616-5.772,7.072-7.748,7.072-5.356,0-5.928-7.28-5.928-9.672,0-8.528,3.9-11.44,6.656-11.44a5.146,5.146,0,0,1,4.212,2.808C-146.432-30.992-146.016-26-145.808-23.14Zm22.36,1.716c2.236-1.664,6.5-4.888,6.5-9.308,0-2.912-2.392-8.216-9.516-8.216-6.344,0-10.4,4.16-10.4,9.308,0,5.668,4.992,8.58,7.748,10.192-4.784,2.808-9.256,5.46-9.256,11.076,0,5.928,5.3,9.36,11.232,9.36,7.54,0,12.272-5.408,12.272-11.44C-114.868-15.808-118.56-18.408-123.448-21.424Zm-4.108,2.808c3.8,2.132,8.944,5.044,8.944,9.984a8.1,8.1,0,0,1-7.9,7.852A7.486,7.486,0,0,1-134-8.528C-134-13.676-129.9-16.848-127.556-18.616Zm2.6-3.692c-5.408-3.224-8.372-5.044-8.372-8.684a6,6,0,0,1,6.136-6.188c3.8,0,6.448,3.068,6.448,7.02C-120.744-25.844-123.448-23.608-124.956-22.308ZM-88.92-18.98c0-14.2-6.344-19.968-11.7-19.968-6.968,0-11.7,8.424-11.7,19.5,0,4.836.988,11.232,3.172,14.82,1.924,3.12,4.94,5.616,8.528,5.616C-94.276.988-88.92-6.24-88.92-18.98Zm-11.7-18.2c4.16,0,7.02,6.344,7.02,18.2A48.149,48.149,0,0,1-94.848-7.54c-.572,1.976-2.184,6.76-5.772,6.76-4.264,0-7.02-6.6-7.02-18.2a47.058,47.058,0,0,1,1.2-11.284C-105.924-32.084-104.312-37.18-100.62-37.18ZM-84.708,6.032c1.3-1.092,4.94-4.264,4.94-8.112a3.02,3.02,0,0,0-3.068-2.964A3.008,3.008,0,0,0-85.8-2.028c0,1.612.884,2.34,2.236,2.964.416.156.468.676.468.884,0,1.04-1.04,2.392-2.444,3.432ZM-53.3-18.98c0-14.2-6.344-19.968-11.7-19.968-6.968,0-11.7,8.424-11.7,19.5,0,4.836.988,11.232,3.172,14.82C-71.6-1.508-68.588.988-65,.988-58.656.988-53.3-6.24-53.3-18.98ZM-65-37.18c4.16,0,7.02,6.344,7.02,18.2A48.149,48.149,0,0,1-59.228-7.54C-59.8-5.564-61.412-.78-65-.78c-4.264,0-7.02-6.6-7.02-18.2a47.058,47.058,0,0,1,1.2-11.284C-70.3-32.084-68.692-37.18-65-37.18Zm37.7,18.2c0-14.2-6.344-19.968-11.7-19.968-6.968,0-11.7,8.424-11.7,19.5,0,4.836.988,11.232,3.172,14.82C-45.6-1.508-42.588.988-39,.988-32.656.988-27.3-6.24-27.3-18.98ZM-39-37.18c4.16,0,7.02,6.344,7.02,18.2A48.149,48.149,0,0,1-33.228-7.54C-33.8-5.564-35.412-.78-39-.78c-4.264,0-7.02-6.6-7.02-18.2a47.058,47.058,0,0,1,1.2-11.284C-44.3-32.084-42.692-37.18-39-37.18Zm37.7,18.2c0-14.2-6.344-19.968-11.7-19.968-6.968,0-11.7,8.424-11.7,19.5,0,4.836.988,11.232,3.172,14.82C-19.6-1.508-16.588.988-13,.988-6.656.988-1.3-6.24-1.3-18.98ZM-13-37.18c4.16,0,7.02,6.344,7.02,18.2A48.149,48.149,0,0,1-7.228-7.54C-7.8-5.564-9.412-.78-13-.78c-4.264,0-7.02-6.6-7.02-18.2a47.058,47.058,0,0,1,1.2-11.284C-18.3-32.084-16.692-37.18-13-37.18Z" transform="translate(1197 10802.304)" fill="#d4145a"/>
    <path id="パス_90" data-name="パス 90" d="M17.94-8.2c0-.8-1.68-1.04-1.8-1.04a8.623,8.623,0,0,0-.98.22c-.16.04-4.4.44-5.22.56a14.187,14.187,0,0,1,.34-2.36c.22-.38.34-.56.34-.74,0-.3-.82-.7-1.2-.88a32.683,32.683,0,0,1,5.26-.4c.4,0,.84,0,.84-.48a.646.646,0,0,0-.28-.52,3.685,3.685,0,0,0-1.4-.42c-.2,0-.28.04-.96.3a36.671,36.671,0,0,1-6.34.84,2.574,2.574,0,0,1-2-.74A2.16,2.16,0,0,0,6-11.78a1.738,1.738,0,0,0,.6-.12c.2-.06,1.02-.22,1.56-.32.38.24.58.52.58,2.22,0,.24-.04,1.44-.04,1.72L5.06-7.8c-.32.04-.88.12-1.18.12A2.3,2.3,0,0,1,1.94-8.7a2.547,2.547,0,0,0-.04.44c0,1.28,1.6,2.18,1.9,2.18a3.665,3.665,0,0,0,.88-.36,17.679,17.679,0,0,1,4-1.02c-.02,1.36-.04,2.28-.04,2.94,0,3.1.86,3.4,4.34,3.4a22.151,22.151,0,0,0,2.62-.12c.62-.12.8-.32.8-.66,0-.66-1.2-.88-1.62-.88a2.857,2.857,0,0,0-.94.18,9.424,9.424,0,0,1-2.42.26c-1.54,0-1.6-.72-1.6-2.06,0-1.6.02-1.94.08-3.22,2.36-.22,3.84-.22,4.08-.22a19.789,19.789,0,0,1,2.04.1c.88.1.98.12,1.18.12C17.78-7.62,17.94-7.98,17.94-8.2Zm17-3.54c0-.62-1.22-.92-1.6-.92-.18,0-1,.32-1.18.36a26.332,26.332,0,0,1-4.98.54,4.024,4.024,0,0,1-2.46-.7,1.985,1.985,0,0,0,1.84,1.96,1.169,1.169,0,0,0,.36-.04,19.326,19.326,0,0,1,3.58-.42c1.08-.06,2.64-.16,3.08-.2C34.58-11.22,34.94-11.26,34.94-11.74Zm2.74,7.88c0-.78-1.6-1.48-2.02-1.48a3.367,3.367,0,0,0-.84.22,21.972,21.972,0,0,1-3.6.34c-1.04.04-6.46.5-6.58.5a2.635,2.635,0,0,1-2.36-1.24A2.027,2.027,0,0,0,22.2-5a2.53,2.53,0,0,0,1.84,2.34,3.617,3.617,0,0,0,1.08-.28,36,36,0,0,1,7.48-.84,18.931,18.931,0,0,1,3.02.22c.52.08,1.52.26,1.56.26A.511.511,0,0,0,37.68-3.86Zm18.38-7.9a4.481,4.481,0,0,0-1.56-1.56,4.5,4.5,0,0,0-.84.48,15.189,15.189,0,0,1-3.28.46c-.38,0-.58-.02-.72-.02a7.045,7.045,0,0,1,.54-.74c.46-.4.5-.44.5-.66,0-.42-1.08-1.4-2.22-1.4a2.158,2.158,0,0,0-1,.24c.4.16,1.18.46,1.18,1.12,0,.78-2.4,4.9-4.92,7.34l.06.12a11.159,11.159,0,0,0,3.34-2.6,7.954,7.954,0,0,1,2.66,2.4c.36.4.58.58.78.6A21.889,21.889,0,0,1,43.7.04l.06.14c4.4-1.24,7.5-3.98,10.58-9.96.66-1.3.8-1.42,1.2-1.58C55.98-11.54,56.06-11.56,56.06-11.76Zm-2.38-.12a22.6,22.6,0,0,1-2.54,5.1c-.12-1.8-2.68-2.3-3.8-2.44a31.047,31.047,0,0,0,1.92-2.58,1.889,1.889,0,0,0,1.04.38C50.76-11.42,53.14-11.82,53.68-11.88ZM77.54-7.56c0-.78-2-1-2.12-1s-.7.16-.82.18c-.92.22-7.42.24-8.8.24-2.08,0-2.7,0-3.38-1.52a2.311,2.311,0,0,0-.24.96c0,.92,1.08,2.2,1.6,2.2.06,0,.7-.16.76-.18.9-.24,2.7-.36,8.8-.36a19.959,19.959,0,0,1,2.26.08c.04,0,.52.04.7.04C76.54-6.92,77.54-6.94,77.54-7.56ZM94.4-10.02v-4.3h4.26c.12,0,.3-.04.3-.22a.43.43,0,0,0-.2-.3l-1.24-1.02a.921.921,0,0,0-.36-.2c-.06,0-.12,0-.32.24l-.82,1.02H89.26c-.06,0-1.56,0-3.06-.14l.38.8a14.455,14.455,0,0,1,2.36-.18h.94v4.3H88.32l-1.8-1.02a22.186,22.186,0,0,1,.14,3.16c0,2.44-.08,5.44-.12,6.62,0,.26-.06,1.48-.06,1.76,0,.48.16.66.56.66,1.06,0,1.02-.76.98-1.24h8.5c-.02.42-.04.68-.04.8,0,.26.04.56.44.56.3,0,1.1-.26,1.1-.86,0-.18-.08-1.1-.08-1.32-.08-2.6-.06-7.44-.04-8.16.34-.28.6-.48.6-.6a.469.469,0,0,0-.22-.36l-.86-.66a.5.5,0,0,0-.32-.14c-.1,0-.22.14-.28.22l-.4.58Zm-1.3.48V-.56H91.18V-9.54Zm-3.22,0V-.56H88V-9.54Zm1.3-.48v-4.3H93.1v4.3ZM94.4-.56V-9.54h2.12V-.56ZM84.28-11.68c.26-.5,1.56-3.04,1.84-3.6.48-.22.74-.34.74-.56,0-.08-.12-.2-.2-.24l-1.98-.88a4.036,4.036,0,0,1,0,.5c0,1.7-2.82,7.34-4.34,9.76l.1.08a12.765,12.765,0,0,0,2.94-3.4c-.08,5.9-.08,7.16-.16,9.14,0,.22-.1,1.4-.1,1.66,0,.46.2.64.56.64a.965.965,0,0,0,1.04-1c0-.24.02-.6-.08-5.64-.04-2.44-.02-4.38,0-5.3.4-.3.54-.44.54-.62,0-.1-.12-.16-.24-.22Zm35.18,4.36v-.1a11.984,11.984,0,0,1-5.64-2.36,30.9,30.9,0,0,0,1.92-3.3c.56-.1,1.2-.22,1.2-.66a.439.439,0,0,0-.18-.38l-.9-.7a.731.731,0,0,0-.4-.22.746.746,0,0,0-.4.2l-.72.54h-2.8c.22-.44.3-.6.44-.94.62-.08.74-.18.74-.4,0-.12-.14-.24-.26-.3l-1.88-.86a4.949,4.949,0,0,1-.06,1.22,21.95,21.95,0,0,1-3.06,5.98l.14.14a12.193,12.193,0,0,0,2.66-2.8c.4-.54.58-.86.76-1.1a9.974,9.974,0,0,0,1.28,3.32,20,20,0,0,1-6.12,5.24l.08.14a15.614,15.614,0,0,0,6.86-4.26,12.294,12.294,0,0,0,4.7,3.26C118.28-6.46,118.56-6.98,119.46-7.32Zm-5.12-6.5a12.191,12.191,0,0,1-1.5,3.06,8.273,8.273,0,0,1-1.62-2.96l.06-.1Zm2.68,9.18c0-.1-.08-.2-.22-.3l-.7-.54c-.22-.16-.34-.24-.44-.24s-.22.1-.34.24l-.5.58h-4.26l-1.74-.76a10.486,10.486,0,0,1,.14,2.04c0,1.9,0,2.72-.04,3.5,0,.18-.1,1-.1,1.2,0,.42.36.48.66.48a.779.779,0,0,0,.88-.84h4.72c0,.6.02.84.52.84a.926.926,0,0,0,.98-.92c0-.24-.08-1.4-.1-1.66-.02-.4-.08-2.44-.12-2.9C116.6-4.08,117.02-4.38,117.02-4.64ZM115.06.24h-4.7V-4.42h4.7Zm-7.04-7.96c0-1.08-1.66-1.84-2.64-2.14v-2.02h2.34c.14,0,.3-.04.3-.2a.48.48,0,0,0-.18-.32l-.68-.68a.55.55,0,0,0-.36-.2c-.12,0-.2.06-.32.24l-.48.68h-.62c.02-.42.02-2.5.04-2.96.44-.24.6-.38.6-.58,0-.22-.12-.28-.32-.34l-1.98-.52c.28.8.34,1.3.4,4.4-1.66,0-2.54-.08-3.08-.12l.4.78a13.637,13.637,0,0,1,2.46-.18,19.75,19.75,0,0,1-3.48,8.12l.12.12a13.52,13.52,0,0,0,3.58-4.82C104.1-7.2,103.9.48,103.9.88a.615.615,0,0,0,.58.66c.14,0,.98-.14.98-.86a1.417,1.417,0,0,0-.02-.3c-.12-3.04-.1-6.18-.06-10a3.44,3.44,0,0,1,.88,1.5c.16.48.4,1.14,1.06,1.14A.682.682,0,0,0,108.02-7.72ZM141.68,0h6.64V-.64h-1.1c-.98,0-1.4-.36-1.4-1.22V-14.7c0-.16-.04-.28-.22-.28-.08,0-.14.04-.28.12a7.7,7.7,0,0,1-3.26.84h-.36v.62h1.52c.38,0,.96.1.96.72V-1.86c0,.82-.36,1.22-1.4,1.22h-1.1Zm9.44,2.32c.5-.42,1.9-1.64,1.9-3.12a1.161,1.161,0,0,0-1.18-1.14A1.157,1.157,0,0,0,150.7-.78c0,.62.34.9.86,1.14.16.06.18.26.18.34a2.034,2.034,0,0,1-.94,1.32Zm8.8-10.56c.86-.64,2.5-1.88,2.5-3.58a3.359,3.359,0,0,0-3.66-3.16c-2.44,0-4,1.6-4,3.58,0,2.18,1.92,3.3,2.98,3.92-1.84,1.08-3.56,2.1-3.56,4.26,0,2.28,2.04,3.6,4.32,3.6a4.456,4.456,0,0,0,4.72-4.4C163.22-6.08,161.8-7.08,159.92-8.24Zm-1.58,1.08c1.46.82,3.44,1.94,3.44,3.84A3.114,3.114,0,0,1,158.74-.3a2.879,2.879,0,0,1-2.88-2.98C155.86-5.26,157.44-6.48,158.34-7.16Zm1-1.42c-2.08-1.24-3.22-1.94-3.22-3.34a2.307,2.307,0,0,1,2.36-2.38,2.523,2.523,0,0,1,2.48,2.7A3.805,3.805,0,0,1,159.34-8.58Zm5.76-6.02-.82,4.06.6.14c.44-1.28.88-2.62,3.78-2.62h3.42c-4.22,6.68-5.62,10.88-5.62,12.3a1.056,1.056,0,0,0,1.02,1.1c1.02,0,1.08-1.26,1.12-1.78.26-4.46,1.38-7.24,4.56-12.14V-14.6Zm18.1,7.3c0-5.46-2.44-7.68-4.5-7.68-2.68,0-4.5,3.24-4.5,7.5a12.442,12.442,0,0,0,1.22,5.7A4.049,4.049,0,0,0,178.7.38C181.14.38,183.2-2.4,183.2-7.3Zm-4.5-7c1.6,0,2.7,2.44,2.7,7a18.519,18.519,0,0,1-.48,4.4c-.22.76-.84,2.6-2.22,2.6-1.64,0-2.7-2.54-2.7-7a18.1,18.1,0,0,1,.46-4.34C176.66-12.34,177.28-14.3,178.7-14.3Zm6.12,16.62c.5-.42,1.9-1.64,1.9-3.12a1.161,1.161,0,0,0-1.18-1.14A1.157,1.157,0,0,0,184.4-.78c0,.62.34.9.86,1.14.16.06.18.26.18.34a2.034,2.034,0,0,1-.94,1.32ZM196.9-7.3c0-5.46-2.44-7.68-4.5-7.68-2.68,0-4.5,3.24-4.5,7.5a12.442,12.442,0,0,0,1.22,5.7A4.049,4.049,0,0,0,192.4.38C194.84.38,196.9-2.4,196.9-7.3Zm-4.5-7c1.6,0,2.7,2.44,2.7,7a18.519,18.519,0,0,1-.48,4.4c-.22.76-.84,2.6-2.22,2.6-1.64,0-2.7-2.54-2.7-7a18.1,18.1,0,0,1,.46-4.34C190.36-12.34,190.98-14.3,192.4-14.3Zm14.5,7c0-5.46-2.44-7.68-4.5-7.68-2.68,0-4.5,3.24-4.5,7.5a12.442,12.442,0,0,0,1.22,5.7A4.049,4.049,0,0,0,202.4.38C204.84.38,206.9-2.4,206.9-7.3Zm-4.5-7c1.6,0,2.7,2.44,2.7,7a18.519,18.519,0,0,1-.48,4.4c-.22.76-.84,2.6-2.22,2.6-1.64,0-2.7-2.54-2.7-7a18.1,18.1,0,0,1,.46-4.34C200.36-12.34,200.98-14.3,202.4-14.3Zm14.5,7c0-5.46-2.44-7.68-4.5-7.68-2.68,0-4.5,3.24-4.5,7.5a12.442,12.442,0,0,0,1.22,5.7A4.049,4.049,0,0,0,212.4.38C214.84.38,216.9-2.4,216.9-7.3Zm-4.5-7c1.6,0,2.7,2.44,2.7,7a18.519,18.519,0,0,1-.48,4.4c-.22.76-.84,2.6-2.22,2.6-1.64,0-2.7-2.54-2.7-7a18.1,18.1,0,0,1,.46-4.34C210.36-12.34,210.98-14.3,212.4-14.3Zm22.96-.32a.632.632,0,0,0-.22-.38l-.92-.84c-.18-.16-.26-.2-.36-.2s-.2.06-.34.2l-.68.72H222.02l-2.16-1.24a27.378,27.378,0,0,1,.18,4.04c0,3.56-.02,7.12-.12,10.7,0,.32-.08,1.92-.08,2.28,0,.26,0,.64.62.64,1.1,0,1.1-.76,1.1-1.22,0-.16-.02-.64-.02-.68-.06-1.62-.06-2.08-.1-6.24h11.72v5.08c0,.78-.12.96-.72.96a13.025,13.025,0,0,1-2.14-.18l-.02.14c1.68,1,1.8,1.48,1.86,2.14,2.58-.26,2.58-1.66,2.58-2.76,0-2.46-.16-6.42-.16-8.9,0-1.6.02-2.9.04-3.6C235.04-14.16,235.36-14.44,235.36-14.62Zm-2.2,7.3H228v-7.32h5.16Zm-6.58,0h-5.14v-7.32h5.14Zm13.664,9.276A9.841,9.841,0,0,1,238.78-3.4a9.967,9.967,0,0,1,1.464-5.364h-.228a6.719,6.719,0,0,0-1.524,2.22,7.909,7.909,0,0,0-.66,3.144,7.872,7.872,0,0,0,.66,3.144,6.668,6.668,0,0,0,1.524,2.208ZM252.052-.312A.18.18,0,0,0,252-.444a.916.916,0,0,1-.132-.1,5.109,5.109,0,0,1-.288-1.584h-.1a9.966,9.966,0,0,1-.336,1.488c-.1.252-.288.408-1.164.408-.708,0-.852-.1-.888-.288-.012-.1-.012-1.068-.012-1.248,0-.1.024-1.68.024-1.86h.852c-.012.24-.012.432.24.432,0,0,.468-.012.468-.384,0-.072-.024-.384-.024-.456-.036-.636-.072-1.86-.084-2.22.42-.216.468-.24.468-.348,0-.06-.036-.108-.132-.18l-.456-.336a.776.776,0,0,0-.192-.108c-.048,0-.072.024-.2.18l-.216.24h-3l-.84-.384a7.131,7.131,0,0,1,.132,1.764c0,.66-.012,1.452-.024,1.668,0,.048-.012.288-.012.336,0,.168.072.252.2.252a.528.528,0,0,0,.42-.2.547.547,0,0,0,.024-.252h1.74c0,.4-.024,2.316-.024,2.76.012,1.236.012,1.236,1.9,1.236a2.672,2.672,0,0,0,1.32-.18A.715.715,0,0,0,252.052-.312Zm-2.088-3.6h-3.228v-2.6h3.228Zm.948-5.208c0-.084-.048-.108-.12-.156l-1.068-.7a2.229,2.229,0,0,1-.156.96,19.3,19.3,0,0,1-.96,2.124l.108.072a8.832,8.832,0,0,0,1.6-2.1C250.492-8.916,250.912-8.928,250.912-9.12Zm-3.168,1.332c0-.684-.852-1.44-1.632-1.776l-.048.072a3.31,3.31,0,0,1,.8,1.488c.1.444.144.648.48.648A.383.383,0,0,0,247.744-7.788ZM245.692-6.6c0-.084-.048-.132-.12-.192l-.432-.372c-.144-.12-.156-.132-.228-.132-.048,0-.072.012-.192.144l-.336.384h-.5V-9c.288-.072.48-.132.852-.252a2.258,2.258,0,0,0,.4.06c.06,0,.2-.012.2-.144a.214.214,0,0,0-.084-.156l-.78-.636c-.1.168-.144.252-.78.552a16.122,16.122,0,0,1-2.6.972V-8.5a14.157,14.157,0,0,0,2.172-.336l.024,2.064h-.2c-.228,0-1.1-.012-2-.084l.288.516a8.645,8.645,0,0,1,1.548-.144h.312a11.261,11.261,0,0,1-2.46,4.368l.084.084a7.608,7.608,0,0,0,2.448-3V-4.5L243.16.192c-.012.54-.012.6.228.6.528,0,.528-.432.528-.6,0-.12-.036-4.5-.036-5.352a2.187,2.187,0,0,1,.78.984c.192.372.216.408.42.408.168,0,.312-.108.312-.36,0-.648-.972-1.08-1.512-1.164V-6.48h1.632C245.6-6.48,245.692-6.492,245.692-6.6Zm2.352,3.684c0-.1-.072-.132-.156-.18l-.8-.42a3.278,3.278,0,0,1-.4,1.584A5.286,5.286,0,0,1,244.312.444l.036.084a4.583,4.583,0,0,0,3.312-3.2C247.972-2.772,248.044-2.784,248.044-2.916Zm16.224.588v-.024c-1.824-.408-4.308-2.676-4.272-6.42a7.531,7.531,0,0,1,.864-.36c.072-.024.168-.072.168-.18,0-.06-.036-.1-.12-.168l-.648-.444a.213.213,0,0,0-.12-.048c-.036,0-.048.012-.156.12l-.456.444h-.216c-.228,0-1.092-.012-1.992-.084l.276.516a10.043,10.043,0,0,1,1.548-.144h.5c.072.84.1,1.044.2,1.764l-.312-.084a7.671,7.671,0,0,1-3.228,5.772l.036.084a6.588,6.588,0,0,0,3.744-4.632,7.982,7.982,0,0,0,2.868,4.56A1.7,1.7,0,0,1,264.268-2.328Zm-7.968-5.8c0-.96-1.272-1.44-1.7-1.608l-.024.084a3.193,3.193,0,0,1,.864,1.488c.048.168.156.516.468.516A.429.429,0,0,0,256.3-8.124Zm8.076,7.392V-.816a5.667,5.667,0,0,1-.852.24,19.037,19.037,0,0,1-4.14.336,5,5,0,0,1-2.628-.48,1.514,1.514,0,0,1-.66-1.14c0-.828,0-1.644-.012-2.472.348-.228.444-.3.444-.42a.163.163,0,0,0-.084-.132l-.5-.408a.32.32,0,0,0-.168-.084c-.06,0-.108.048-.18.132L255.3-4.9c-.384,0-1.224-.024-2.052-.1l.276.528a8.746,8.746,0,0,1,1.548-.144h.384v.18c0,1.632-.012,1.8-.012,3.288a4.262,4.262,0,0,1-1.992.708l.636.984a.248.248,0,0,0,.168.12c.072,0,.084-.036.156-.372.216-.216,1.3-1.284,1.524-1.536.516.756,1.116,1.38,3.132,1.584.744.072,4.08.084,4.38.06A1.785,1.785,0,0,1,264.376-.732ZM267.184-3.4a7.909,7.909,0,0,0-.66-3.144A6.719,6.719,0,0,0,265-8.76h-.228A9.86,9.86,0,0,1,266.236-3.4a9.841,9.841,0,0,1-1.464,5.352H265a6.668,6.668,0,0,0,1.524-2.208A7.872,7.872,0,0,0,267.184-3.4Z" transform="translate(957 10739.304)" fill="#0f0f0f"/>
    <path id="パス_89" data-name="パス 89" d="M32.865-8.085c0-3.85-5.565-8.575-10.92-10.64l-.07.21a24.887,24.887,0,0,1,6.9,9.135c1.015,2.485,1.3,3.15,2.485,3.15C31.78-6.23,32.865-6.44,32.865-8.085ZM20.09-27.23c0-.35-.385-.49-.735-.595L15.68-28.84c.49,1.505.525,2.065.6,5.81.07,5.5.1,15.785.1,20.58,0,.385,0,.91-1.12.91-.735,0-3.465-.14-4.34-.21v.28c.84.35,3.535,1.4,3.955,3.605,4.1-.42,4.1-2.905,4.1-4.305,0-2.625-.1-15.435-.1-18.34,0-3.675,0-4.13.035-5.53.35-.245.455-.35.77-.6C20.055-26.915,20.09-27.055,20.09-27.23ZM13.125-18.1c0-.385-.245-.49-.7-.665l-3.57-1.505a8.624,8.624,0,0,1-.245,2.52C8.015-15.68,4.34-7.63.665-3.78l.14.21C4.655-6.16,7.7-9.415,11.69-17.22,12.18-17.325,13.125-17.57,13.125-18.1Zm54.6-7.455c.175,0,.525-.035.525-.385a.83.83,0,0,0-.35-.525L66.255-27.9a1.138,1.138,0,0,0-.63-.385c-.175,0-.385.245-.56.455l-1.05,1.435h-6.37c-.07,0-2.625,0-5.39-.245l.7,1.4a23.752,23.752,0,0,1,4.13-.315h.805a35.966,35.966,0,0,1-.35,4.585H56.35l-3.045-1.4a13.909,13.909,0,0,1,.245,2.1c.07.98.07,8.925.07,9.975,0,.875-.07,4.865-.07,5.67,0,.49.245.735.805.735.805,0,1.715-.455,1.61-1.435H63.7c0,.84.035,1.155.77,1.155.945,0,1.82-.35,1.82-1.68,0-.315-.07-1.155-.07-1.575-.21-5.075-.21-6.405-.28-11.83.91-.84,1.015-.945,1.015-1.225,0-.21-.21-.385-.385-.525l-1.365-1.015a1.378,1.378,0,0,0-.56-.28c-.175,0-.28.14-.49.35l-.98.98H58.17a41.694,41.694,0,0,0,2.835-4.585ZM63.7-15.225v4.06H55.9v-4.06Zm0-4.9v4.06H55.9v-4.06Zm0,9.8V-6.16H55.9v-4.165ZM46.235-24.6V-26.88c.665-.35.91-.56.91-.875,0-.385-.315-.49-.735-.6l-3.185-.84A13.4,13.4,0,0,1,43.96-24.6H42.735c-.6,0-2.8-.035-5.355-.245l.7,1.4a23.2,23.2,0,0,1,4.095-.315H51.9c.28,0,.525-.1.525-.385,0-.14-.1-.315-.35-.525l-1.19-1.05c-.28-.245-.455-.385-.665-.385-.14,0-.28.175-.525.455l-.84,1.05Zm.035,8.19a16.93,16.93,0,0,0,1.4-1.75,23.961,23.961,0,0,1,1.785-2.1c.91-.385,1.295-.595,1.295-.945,0-.21-.14-.35-.49-.49l-3.22-1.4A16.64,16.64,0,0,1,45.6-16.415H41.44l-3.01-1.26a37.621,37.621,0,0,1,.49,6.51c0,1.47,0,9.87-2.555,13.685l.245.07c4.27-4.2,4.69-10.01,4.585-18.165h11.06c.245,0,.525-.07.525-.385a.948.948,0,0,0-.315-.56l-1.12-.98c-.21-.175-.42-.385-.63-.385-.14,0-.28.175-.525.42l-.98,1.05Zm-6.195-6.16a13.973,13.973,0,0,1,1.19,3.535c.21,1.05.42,1.855,1.365,1.855a1.414,1.414,0,0,0,1.435-1.575c0-1.855-1.855-3.115-3.815-3.99Zm7.035,7.63c-.315,1.3-3.185,4.27-6.02,6.265l.07.245a23.751,23.751,0,0,0,7.1-3.85c.98.035,1.47-.035,1.47-.42,0-.175-.1-.315-.315-.49Zm2.975,7.63a16.563,16.563,0,0,1-1.05,1.54A38.555,38.555,0,0,1,40.04.84l.035.245A28.038,28.038,0,0,0,51.17-4.55c.7,0,1.3,0,1.3-.525a.727.727,0,0,0-.28-.56Zm10.4,3.57A16.19,16.19,0,0,1,64.295.175c1.05,1.54,1.435,2.135,2.38,2.135A1.145,1.145,0,0,0,67.83,1.12c0-2.1-3.08-4.165-7.28-5.11ZM56.175-4.34C55.4-2.87,49.77,1.26,47.04,2.1l.035.28c3.045-.21,5.39-1.225,10.22-3.85,1.015.035,1.435.035,1.435-.42a.893.893,0,0,0-.315-.525Zm-6.9-7.14c-.525,1.365-3.29,4.13-7.84,6.965l.035.245a27.222,27.222,0,0,0,8.89-4.445c.945-.07,1.26-.1,1.26-.49a.913.913,0,0,0-.315-.6Zm42.875-4.725a.83.83,0,0,0-.35-.525l-1.82-1.5a1.225,1.225,0,0,0-.735-.385c-.21,0-.315.14-.56.455L87.605-16.66h-1.47v-8.96H90.9c.245,0,.525-.07.525-.35a.776.776,0,0,0-.315-.56l-1.68-1.54c-.245-.21-.42-.35-.63-.35s-.35.14-.56.42l-1.12,1.54h-9.03c-.455,0-2.975-.035-5.39-.245l.7,1.4a24.776,24.776,0,0,1,4.585-.315v8.96H76.93c-1.05,0-3.22-.07-5.39-.245l.7,1.4a24.924,24.924,0,0,1,4.13-.315h1.61c-.175,7.49-.63,12.005-5.775,17.15l.21.245c6.755-4.1,7.77-9.135,7.98-17.4H83.72v.91c0,.84-.035,7.7-.21,12.88,0,.42-.14,2.59-.14,3.08,0,.525.175,1.015,1.085,1.015.28,0,1.89,0,1.89-1.645,0-.525-.105-3.115-.105-3.71-.035-1.96-.035-2.38-.035-6.055,0-2.415,0-4.83-.07-6.475h5.5C91.91-15.82,92.155-15.96,92.155-16.205ZM83.72-16.66H80.4v-8.96H83.72Zm17.57-10.08a.678.678,0,0,0-.35-.56l-2.87-2.065a8.087,8.087,0,0,1-1.715,3.6,46.728,46.728,0,0,1-5.705,6.72l.21.315a26.087,26.087,0,0,0,9.03-7.525C100.52-26.18,101.29-26.215,101.29-26.74Zm.98,9.905a.705.705,0,0,0-.245-.56l-2.73-2.45c-.245.91-.42,1.575-2.31,3.885a43.684,43.684,0,0,1-8.26,8.05l.14.28A31.127,31.127,0,0,0,100.8-16.345C101.885-16.24,102.27-16.485,102.27-16.835Zm1.75,9.625a.843.843,0,0,0-.245-.63l-2.555-2.625C99.96-6.825,92.435-.875,87.43,1.82l.105.315c7.1-1.96,10.29-4.515,14.945-8.96.385.035.6.07.84.07C103.67-6.755,104.02-6.86,104.02-7.21Zm27.09-17.71c0-1.89-2.1-3.01-4.69-3.15l-.035.21a7.666,7.666,0,0,1,1.785,2.52c.525,1.19.805,1.82,1.68,1.82A1.273,1.273,0,0,0,131.11-24.92ZM137.62.735a2.059,2.059,0,0,0-.525-.98c-.6-.63-.735-.735-.735-1.645,0-.77.21-4.585.21-5.46l-.21-.035c-.245.735-.98,2.625-1.645,4.025-.385.77-.7,1.33-1.295,1.33-1.47,0-3.64-2.1-5.145-4.48a35.471,35.471,0,0,0,4.165-8.26c1.05-.21,1.505-.385,1.505-.805,0-.245-.175-.42-.49-.595l-3.57-1.96a3.735,3.735,0,0,1,.14,1.085,19.365,19.365,0,0,1-2.975,8.26c-.735-1.645-1.925-4.41-2.59-12.6h12.215c.28,0,.525-.105.525-.35a.919.919,0,0,0-.35-.56l-2.17-1.855c-.245-.21-.42-.35-.63-.35-.175,0-.315.105-.525.35l-1.645,1.925h-7.455c-.14-2.1-.175-3.5-.175-4.76.91-.35,1.155-.63,1.155-1.015,0-.315-.385-.455-.665-.525L121-29.47a9.656,9.656,0,0,1,.805,3.64c.035.49.21,3.045.245,3.6h-9.31l-3.5-1.925a44.212,44.212,0,0,1,1.015,9.765c0,7.665-1.47,13.265-3.605,16.24l.21.14c5.6-4.48,5.775-12.74,5.845-16.485h4.8c.035,1.435.07,3.535-.105,6.055-.21,2.625-.385,3.255-1.54,3.255-.665,0-2.45-.21-3.185-.315v.245a9.064,9.064,0,0,1,1.68,1.365A4.432,4.432,0,0,1,115.36-1.75c3.885-.77,4.165-3.955,4.34-5.775.105-.875.175-5.145.28-6.125.77-.49.98-.735.98-.98a.817.817,0,0,0-.35-.56l-1.365-1.015a1.385,1.385,0,0,0-.77-.385c-.175,0-.35.105-.595.42l-.63.84h-4.515c.035-1.75.035-1.855-.175-6.055h9.555a57.112,57.112,0,0,0,1.155,8.015,25.984,25.984,0,0,0,2.31,6.79,23.183,23.183,0,0,1-11.06,8.225l.035.245a19.589,19.589,0,0,0,12.25-6.44c3.43,4.83,7.595,6.335,9.03,6.335C136.85,1.785,137.62,1.3,137.62.735Zm20.335-22.19V-26.95c.49-.28.98-.525.98-.98,0-.21-.14-.385-.455-.455l-3.29-.805c.525,1.435.56,6.09.56,7.735-2.135,0-4.025-.07-5.95-.21l.7,1.365a23.752,23.752,0,0,1,4.13-.315h1.12v7c0,3.85-.035,8.05-.07,11.865,0,.42-.1,2.415-.1,2.87,0,.315,0,.84.945.84.455,0,1.75-.35,1.75-1.3,0-.665-.21-5.95-.21-7.105-.1-6.475-.1-7.21-.1-14.175h6.125c.21,0,.525-.035.525-.35a.636.636,0,0,0-.35-.525l-1.4-.945a1.46,1.46,0,0,0-.7-.35,1.014,1.014,0,0,0-.63.42l-.84.91ZM149.7-2.38c2.17-2.345,3.6-6.475,4.76-12.285.35-.21,1.19-.63,1.19-1.015,0-.28-.28-.315-.49-.385l-3.185-.84a3.456,3.456,0,0,1,.1.98A39.657,39.657,0,0,1,149.52-2.45Zm16.9-14.245V-2.1c0,1.26-.105,1.26-1.715,1.26-.84,0-1.47-.07-2.59-.14v.175a5.427,5.427,0,0,1,2.8,3.29A8.6,8.6,0,0,0,167.3,1.75a2.8,2.8,0,0,0,1.75-2.94c0-.63-.14-3.675-.14-4.375-.07-3.675-.07-7.385-.105-11.06h4.235c.245,0,.525-.035.525-.385,0-.21-.14-.35-.315-.525l-1.575-1.47c-.175-.14-.455-.385-.665-.385-.245,0-.42.28-.525.455l-.98,1.47h-3.5c-.21,0-2.03,0-4.235-.175l.7,1.26a22.027,22.027,0,0,1,2.975-.245ZM140.455-7.56a21.584,21.584,0,0,0,6.125-5.6c.07,2.87-.07,8.505-.175,11.515,0,.525-.175,2.905-.175,3.185,0,.8.805.8.945.8.665,0,1.645-.385,1.61-1.33,0-.21-.07-12.95,0-15.3.385-.315.84-.735.84-1.05,0-.21-.245-.315-.42-.385l-.525-.245a25.233,25.233,0,0,0,1.4-2.135c.8.035,1.4-.035,1.4-.595a.492.492,0,0,0-.21-.42l-3.08-1.96c-.385,2.135-3.185,8.05-7.84,13.405Zm.98-12.25a24.609,24.609,0,0,0,8.715-5.915c.7-.035,1.26-.035,1.26-.56a.661.661,0,0,0-.245-.455l-2.52-2.135c-.735,2-3.535,5.635-7.315,8.96Zm17.71-7.35a5.485,5.485,0,0,1,.98,2.135c.525,1.925.56,2.135,1.4,2.135a1.327,1.327,0,0,0,1.4-1.365c0-1.96-2.59-2.73-3.71-3.045Zm-.07,9.695a27.039,27.039,0,0,1,1.505,6.93c.21,4.235.245,4.655,1.47,4.655.63,0,1.47-.385,1.47-1.925,0-.63,0-5.18-4.27-9.765Zm7.875-8.54c-.28,0-1.4-.035-2.625-.105l.455,1.085a10.909,10.909,0,0,1,1.75-.14h5.915c.28,0,.525-.07.525-.385,0-.21-.14-.35-.35-.525l-1.4-1.12c-.245-.21-.455-.385-.63-.385-.21,0-.42.245-.56.455l-.735,1.12ZM197.4,3.15a22.98,22.98,0,0,1-6.65-16.45,22.98,22.98,0,0,1,6.65-16.45l-.315-.49A21.74,21.74,0,0,0,188.79-13.3a21.74,21.74,0,0,0,8.295,16.94Zm10.08-26.67v3.4h-1.715l-2.73-1.435a27.925,27.925,0,0,1,.35,5.6c0,.98-.14,5.81-.14,6.9,0,.245,0,.805.875.805,1.435,0,1.4-1.225,1.365-1.82h1.96l-.035,4.2h-1.155c-.665,0-3.045-.035-5.39-.245l.7,1.4a24.838,24.838,0,0,1,4.13-.315h1.715c-.035,1.575-.1,3.465-.245,5.6-.035.455-.035.7-.035.735,0,.42.175.875.98.875A1.423,1.423,0,0,0,209.65.56c0-.14-.035-5.075-.035-5.6h4.725c.28,0,.525-.07.525-.385,0-.21-.14-.35-.315-.525l-1.365-1.225c-.21-.21-.385-.385-.595-.385-.245,0-.35.175-.6.455L211.12-5.88h-1.505l-.035-4.2h2.03c-.07.77-.1,1.435.735,1.435a1.429,1.429,0,0,0,1.505-1.435c0-1.155-.175-6.93-.175-8.225.805-.56,1.05-.7,1.05-1.085,0-.21-.14-.385-.42-.56L212.94-20.9a1.437,1.437,0,0,0-.6-.245c-.175,0-.385.21-.49.315l-.6.7h-1.68v-3.4h6.02c.245,0,.525-.07.525-.385a.771.771,0,0,0-.315-.56l-1.435-1.3c-.07-.07-.35-.35-.6-.35-.175,0-.245.105-.525.455l-1.05,1.3H209.58v-2.73c.42-.175,1.155-.525,1.155-1.05,0-.42-.42-.525-.56-.595l-3.22-.98a23.7,23.7,0,0,1,.525,5.355h-.77c-.49,0-2.975-.035-5.39-.245l.7,1.4a21.6,21.6,0,0,1,4.13-.315Zm4.165,4.235v3.675H209.58v-3.675Zm0,4.515v3.85H209.58v-3.85Zm-6.16,3.85v-3.85h2.03l-.035,3.85Zm0-4.69v-3.675h2l.035,3.675Zm12.32,2.45-2.8-1.435a31.732,31.732,0,0,1,.385,6.2c0,2.835-.035,5.705-.245,8.505a6.184,6.184,0,0,0-.035.665c0,.315,0,.875.7.875A1.463,1.463,0,0,0,217.455-.07c0-1.015-.07-5.635-.07-6.58h2.03c-.035,1.05-.105,5.74-.105,6.685,0,.665.175.84.63.84a1.485,1.485,0,0,0,1.645-1.33c0-.98-.1-5.32-.1-6.2h1.995c-.035.98-.28,5.285-.28,6.16,0,.7.07,1.085.8,1.085,1.505,0,1.47-.945,1.47-1.645.42.315.945.7,1.435,2.905,3.01-.6,3.01-2.31,3.01-3.29,0-1.575-.07-8.61-.07-10.045.35-.245,1.015-.77,1.015-1.05a.792.792,0,0,0-.35-.525L229.25-14c-.21-.14-.385-.35-.525-.35-.21,0-.42.245-.56.385l-.805.805Zm7.56,5.67.035-4.83h2.31v4.83Zm-3.885,0-.035-4.83h2.03l.035,4.83Zm6.23.84v3.535c0,1.82,0,2.03-.945,2.03a3.743,3.743,0,0,1-1.26-.21l-.035.07c0-.63-.07-4.2-.1-5.425Zm-8.225-5.67-.07,4.83h-2.03c0-.945.035-4.1.035-4.83Zm-5.11-3.85c1.505-1.085,4.48-3.29,8.47-10.15a23.074,23.074,0,0,0,7.665,9.485,5.665,5.665,0,0,1,2.9-2.38l.07-.21a15.836,15.836,0,0,1-10.08-7.21c.455-.21.84-.455.84-.8,0-.315-.28-.455-.525-.56l-2.8-1.05c-.14,2.1-3.5,8.75-6.72,12.635Zm7.245-1.33c-.245,0-2.24,0-4.2-.175l.665,1.26a19.261,19.261,0,0,1,2.975-.245h5.775c.21,0,.56-.035.56-.385,0-.14-.1-.28-.35-.525l-1.33-1.33c-.21-.21-.42-.42-.63-.42-.245,0-.42.28-.525.455l-.875,1.365Zm32.725-2.87c0-.28-.21-.455-.455-.665l-.945-.735c-.245-.175-.385-.28-.56-.28-.14,0-.315.1-.56.35l-.98.91h-5.32l-3.01-1.225a13.236,13.236,0,0,1,.28,3.745c0,.77-.035,1.61-.07,2.38,0,.175-.035.63-.035.77,0,.35.07.91.84.91a1.964,1.964,0,0,0,1.12-.35,1.43,1.43,0,0,0,.455-1.085h6.265c0,.525.035.98.8.98a1.336,1.336,0,0,0,1.505-1.4c0-.49-.07-2.87-.1-3.4C254.135-19.88,254.345-20.125,254.345-20.37Zm-2.975,3.885h-6.265V-19.95h6.265ZM269.745-6.44c0-5.565-5.635-8.435-6.93-9.1.77-1.575,3.465-6.755,4.3-8.3,1.19-.42,1.61-.525,1.61-1.12a1.038,1.038,0,0,0-.455-.77l-1.61-1.3c-.315-.245-.49-.35-.665-.35a1.207,1.207,0,0,0-.6.315l-1.19.945h-3.22l-2.975-1.645a17.031,17.031,0,0,1,.245,1.995c.1,1.505.1,7.84.1,9.765,0,4.165-.035,8.33-.14,12.5,0,.735-.14,4.2-.14,5,0,.35,0,1.19,1.05,1.19,1.785,0,1.785-1.505,1.785-2.24,0-4.1-.14-20.755-.28-25.725h3.78a73.6,73.6,0,0,1-2.275,9.87c2.94,2.66,5.005,4.515,5.005,8.575,0,2.555-1.47,2.555-2.1,2.555a15.412,15.412,0,0,1-3.43-.42l-.07.28A6.677,6.677,0,0,1,264.53-.7C269.675-1.575,269.745-5.635,269.745-6.44Zm-12.04-17.15a.753.753,0,0,0-.35-.525l-1.785-1.54c-.28-.245-.455-.385-.665-.385-.175,0-.35.175-.525.455l-1.015,1.54H248.99v-2.59c.49-.315,1.12-.735,1.12-1.085s-.42-.49-.56-.525l-3.57-.945a13.117,13.117,0,0,1,.735,5.145h-2.59c-1.05,0-3.185-.07-5.355-.245l.7,1.4a23.2,23.2,0,0,1,4.1-.315h13.58C257.46-23.205,257.705-23.345,257.705-23.59ZM257.67-8.54l-.21-.28c-2.485.7-5.25,1.26-7.91,1.75a9.3,9.3,0,0,1-.035-1.19c.63-.35.77-.6.77-.77,0-.245-.175-.315-.7-.455.42-.175,3.675-1.365,3.92-1.435.875.07,1.225.1,1.435.1.63,0,.875-.175.875-.595a.972.972,0,0,0-.35-.7l-1.645-1.47a.84.84,0,0,0-.6-.315,2.315,2.315,0,0,0-.77.28L250.32-12.6h-4.935c-.665,0-3.045-.035-5.39-.21l.7,1.365a24.838,24.838,0,0,1,4.13-.315h5.53a11.576,11.576,0,0,1-1.47,2.065l-2.17-.595c.35,1.015.35,1.3.455,3.64-.8.14-4.83.875-5.705,1.015a10.981,10.981,0,0,1-1.575.14,9.267,9.267,0,0,1-1.75-.175l1.575,3.185c.245.455.42.7.735.7s.525-.35.665-1.19c.875-.245,5.18-1.575,6.125-1.855.07,1.715.1,2.7.1,3.08,0,.945-.28,1.12-.98,1.12a28.965,28.965,0,0,1-3.22-.245V-.56a3.881,3.881,0,0,1,2.275,3.01c4.27-.8,4.305-2.8,4.305-3.955,0-.245-.14-3.4-.14-4.06A83.654,83.654,0,0,0,257.67-8.54Zm25.41-5.25a8.322,8.322,0,0,0,4.445-2.975,6.051,6.051,0,0,0,1.3-3.57c0-3.08-2.7-5.88-7-5.88-4.48,0-6.72,2.975-6.72,4.9a1.812,1.812,0,0,0,1.75,1.925,1.849,1.849,0,0,0,1.785-1.925,3.452,3.452,0,0,0-.105-.84,2.79,2.79,0,0,1-.1-.525,2.623,2.623,0,0,1,2.835-2.345c2.765,0,4.41,2.52,4.41,5.25,0,2.835-1.855,5.46-4.8,5.46-.245,0-1.295-.21-1.505-.21a.792.792,0,0,0-.8.805.69.69,0,0,0,.77.735c.21,0,1.19-.14,1.4-.14,2.8,0,5.46,2.8,5.46,6.405,0,3.535-2.73,6.2-5.425,6.2-1.645,0-3.15-.98-3.15-2.31a2.491,2.491,0,0,1,.105-.805,2.884,2.884,0,0,0,.21-1.12,1.713,1.713,0,0,0-1.715-1.75,2.019,2.019,0,0,0-1.995,2.24c0,2.8,3.185,4.935,6.965,4.935,4.62,0,8.155-3.08,8.155-7.385a6.5,6.5,0,0,0-2.38-5.18A9.382,9.382,0,0,0,283.08-13.79Zm27.475-9.87v-3.535c.63-.42.945-.6.945-.875,0-.35-.21-.455-.6-.56l-3.57-.84a7.773,7.773,0,0,1,.63,2.415c.105,1.085.105,1.26.175,8.575h-4.935l-3.08-1.82a28.519,28.519,0,0,1,.42,5.285c0,1.505,0,3.64-.14,6.055,0,.315-.175,1.855-.175,2.2,0,.63.28.91.84.91.28,0,1.505-.175,1.855-1.05a3.262,3.262,0,0,0,.07-1.19H316.68c0,1.5-.035,2.2.945,2.2.42,0,1.75-.28,1.75-1.435,0-2.625-.42-6.825-.28-9.485.735-.595,1.05-.805,1.05-1.12,0-.21-.14-.35-.385-.525L318.4-19.5c-.245-.175-.385-.28-.56-.28-.21,0-.315.14-.49.385l-.735.91h-6.055v-4.34H323.33c.245,0,.525-.07.525-.385,0-.21-.105-.315-.315-.525l-1.995-1.89c-.14-.14-.385-.385-.63-.385s-.42.315-.525.455l-1.4,1.89Zm6.125,6.02v8.715H302.995V-17.64ZM298.865-5.11c-.735,1.925-1.225,2.94-2.485,3.955C294.875.105,294.7.245,294.7.98a1.434,1.434,0,0,0,1.54,1.47c2.135,0,3.255-2.73,3.255-5.145a9.607,9.607,0,0,0-.35-2.415Zm5.88.49a13.012,13.012,0,0,1,.35,2.94c0,.21-.105,1.435-.105,1.68,0,1.365.84,1.645,1.33,1.645a1.73,1.73,0,0,0,1.645-1.82c0-1.96-1.96-3.605-3.045-4.55Zm7.14.28a13.6,13.6,0,0,1,1.26,3.71c.28,1.4.42,2.1,1.47,2.1A1.418,1.418,0,0,0,316.085,0c0-1.75-1.75-3.535-3.99-4.55Zm7.035-.035A12.2,12.2,0,0,1,321.65.14c.35.84.77,1.785,1.75,1.785a1.461,1.461,0,0,0,1.435-1.54c0-1.33-1.155-3.605-5.74-5ZM339.78-13.3a21.74,21.74,0,0,0-8.295-16.94l-.315.49a22.98,22.98,0,0,1,6.65,16.45,22.98,22.98,0,0,1-6.65,16.45l.315.49A21.74,21.74,0,0,0,339.78-13.3Z" transform="translate(375 10775.304)"/>
  </g>
</svg>
